<svg xmlns="http://www.w3.org/2000/svg" viewBox="0 0 1064.41 19.57"><defs><style>.cls-1{fill:#fff;}</style></defs><g id="Layer_2" data-name="Layer 2"><g id="Layer_1-2" data-name="Layer 1"><rect width="1064.41" height="19.57"/><rect class="cls-1" x="1058.61" y="0.01" width="1.44" height="19.56"/><rect class="cls-1" x="1054.26" y="0.01" width="1.44" height="19.56"/><rect class="cls-1" x="1049.9" y="0.01" width="1.44" height="19.56"/><rect class="cls-1" x="1045.55" y="0.01" width="1.44" height="19.56"/><rect class="cls-1" x="1041.19" y="0.01" width="1.44" height="19.56"/><rect class="cls-1" x="1036.83" y="0.01" width="1.44" height="19.56"/><rect class="cls-1" x="1032.48" y="0.01" width="1.44" height="19.56"/><rect class="cls-1" x="1028.12" y="0.01" width="1.44" height="19.56"/><rect class="cls-1" x="1023.76" y="0.01" width="1.44" height="19.56"/><rect class="cls-1" x="1019.41" y="0.01" width="1.44" height="19.56"/><rect class="cls-1" x="1015.05" y="0.01" width="1.44" height="19.56"/><rect class="cls-1" x="1010.69" y="0.01" width="1.44" height="19.56"/><rect class="cls-1" x="1006.34" y="0.01" width="1.44" height="19.56"/><rect class="cls-1" x="1001.98" y="0.01" width="1.44" height="19.56"/><rect class="cls-1" x="997.62" y="0.01" width="1.44" height="19.56"/><rect class="cls-1" x="993.27" y="0.01" width="1.44" height="19.56"/><rect class="cls-1" x="988.91" y="0.01" width="1.44" height="19.56"/><rect class="cls-1" x="984.55" y="0.01" width="1.44" height="19.56"/><rect class="cls-1" x="980.2" y="0.01" width="1.44" height="19.56"/><rect class="cls-1" x="975.84" y="0.01" width="1.44" height="19.56"/><rect class="cls-1" x="971.48" y="0.01" width="1.44" height="19.56"/><rect class="cls-1" x="967.13" y="0.01" width="1.44" height="19.56"/><rect class="cls-1" x="962.77" y="0.01" width="1.44" height="19.56"/><rect class="cls-1" x="958.42" y="0.01" width="1.44" height="19.56"/><rect class="cls-1" x="954.06" y="0.01" width="1.44" height="19.56"/><rect class="cls-1" x="949.7" y="0.01" width="1.44" height="19.56"/><rect class="cls-1" x="945.35" y="0.01" width="1.44" height="19.56"/><rect class="cls-1" x="940.99" y="0.01" width="1.44" height="19.56"/><rect class="cls-1" x="936.63" y="0.01" width="1.44" height="19.56"/><rect class="cls-1" x="932.28" y="0.01" width="1.44" height="19.56"/><rect class="cls-1" x="927.92" y="0.01" width="1.44" height="19.56"/><rect class="cls-1" x="923.56" y="0.01" width="1.44" height="19.56"/><rect class="cls-1" x="919.21" y="0.01" width="1.44" height="19.56"/><rect class="cls-1" x="914.85" y="0.01" width="1.44" height="19.56"/><rect class="cls-1" x="910.5" y="0.01" width="1.44" height="19.56"/><rect class="cls-1" x="906.14" y="0.01" width="1.44" height="19.56"/><rect class="cls-1" x="901.78" y="0.01" width="1.44" height="19.56"/><rect class="cls-1" x="897.43" y="0.01" width="1.44" height="19.56"/><rect class="cls-1" x="893.07" y="0.01" width="1.44" height="19.56"/><rect class="cls-1" x="888.71" y="0.01" width="1.44" height="19.56"/><rect class="cls-1" x="884.36" y="0.01" width="1.44" height="19.56"/><rect class="cls-1" x="880" y="0.01" width="1.44" height="19.56"/><rect class="cls-1" x="875.64" y="0.01" width="1.44" height="19.56"/><rect class="cls-1" x="871.29" y="0.01" width="1.44" height="19.56"/><rect class="cls-1" x="866.93" y="0.01" width="1.44" height="19.56"/><rect class="cls-1" x="862.57" y="0.01" width="1.44" height="19.56"/><rect class="cls-1" x="858.22" y="0.01" width="1.44" height="19.56"/><rect class="cls-1" x="853.86" y="0.01" width="1.44" height="19.56"/><rect class="cls-1" x="849.5" y="0.01" width="1.44" height="19.56"/><rect class="cls-1" x="845.15" y="0.01" width="1.44" height="19.56"/><rect class="cls-1" x="840.79" y="0.01" width="1.44" height="19.56"/><rect class="cls-1" x="836.44" y="0.01" width="1.44" height="19.56"/><rect class="cls-1" x="832.08" y="0.01" width="1.44" height="19.56"/><rect class="cls-1" x="827.72" y="0.01" width="1.44" height="19.56"/><rect class="cls-1" x="823.37" y="0.01" width="1.44" height="19.56"/><rect class="cls-1" x="819.01" y="0.01" width="1.44" height="19.56"/><rect class="cls-1" x="814.65" y="0.01" width="1.44" height="19.56"/><rect class="cls-1" x="810.3" y="0.01" width="1.44" height="19.56"/><rect class="cls-1" x="805.94" y="0.01" width="1.44" height="19.56"/><rect class="cls-1" x="801.58" y="0.01" width="1.44" height="19.56"/><rect class="cls-1" x="797.23" y="0.01" width="1.44" height="19.56"/><rect class="cls-1" x="792.87" y="0.01" width="1.44" height="19.56"/><rect class="cls-1" x="788.51" y="0.01" width="1.44" height="19.56"/><rect class="cls-1" x="784.16" y="0.01" width="1.44" height="19.56"/><rect class="cls-1" x="779.8" y="0.01" width="1.44" height="19.56"/><rect class="cls-1" x="775.44" y="0.01" width="1.44" height="19.56"/><rect class="cls-1" x="771.09" y="0.01" width="1.44" height="19.56"/><rect class="cls-1" x="766.73" y="0.01" width="1.44" height="19.56"/><rect class="cls-1" x="762.37" y="0.01" width="1.44" height="19.56"/><rect class="cls-1" x="758.02" y="0.01" width="1.44" height="19.56"/><rect class="cls-1" x="753.66" y="0.01" width="1.44" height="19.56"/><rect class="cls-1" x="749.31" y="0.01" width="1.44" height="19.56"/><rect class="cls-1" x="740.59" y="0.01" width="1.44" height="19.56"/><rect class="cls-1" x="744.95" y="0.01" width="1.44" height="19.56"/><rect class="cls-1" x="736.24" y="0.01" width="1.44" height="19.56"/><rect class="cls-1" x="731.88" y="0.01" width="1.44" height="19.56"/><rect class="cls-1" x="723.17" y="0.01" width="1.44" height="19.56"/><rect class="cls-1" x="727.52" y="0.01" width="1.44" height="19.56"/><rect class="cls-1" x="714.45" y="0.01" width="1.44" height="19.56"/><rect class="cls-1" x="718.81" y="0.01" width="1.44" height="19.56"/><rect class="cls-1" x="710.1" y="0.01" width="1.44" height="19.56"/><rect class="cls-1" x="692.67" y="0.01" width="1.44" height="19.56"/><rect class="cls-1" x="697.03" y="0.01" width="1.44" height="19.56"/><rect class="cls-1" x="701.38" y="0.01" width="1.44" height="19.56"/><rect class="cls-1" x="705.74" y="0.01" width="1.44" height="19.56"/><rect class="cls-1" x="679.6" y="0.01" width="1.44" height="19.56"/><rect class="cls-1" x="683.96" y="0.01" width="1.44" height="19.56"/><rect class="cls-1" x="688.31" y="0.01" width="1.44" height="19.56"/><rect class="cls-1" x="662.18" y="0.01" width="1.44" height="19.56"/><rect class="cls-1" x="666.53" y="0.01" width="1.44" height="19.56"/><rect class="cls-1" x="670.89" y="0.01" width="1.44" height="19.56"/><rect class="cls-1" x="675.25" y="0.01" width="1.44" height="19.56"/><rect class="cls-1" x="644.75" y="0.01" width="1.44" height="19.56"/><rect class="cls-1" x="649.11" y="0.01" width="1.44" height="19.56"/><rect class="cls-1" x="653.46" y="0.01" width="1.44" height="19.56"/><rect class="cls-1" x="657.82" y="0.01" width="1.44" height="19.56"/><rect class="cls-1" x="640.39" y="0.01" width="1.44" height="19.56"/><rect class="cls-1" x="631.68" y="0.01" width="1.44" height="19.56"/><rect class="cls-1" x="636.04" y="0.01" width="1.44" height="19.56"/><rect class="cls-1" x="627.32" y="0.01" width="1.44" height="19.56"/><rect class="cls-1" x="622.97" y="0.01" width="1.44" height="19.56"/><rect class="cls-1" x="618.61" y="0.01" width="1.44" height="19.56"/><rect class="cls-1" x="614.25" y="0.01" width="1.44" height="19.56"/><rect class="cls-1" x="609.9" y="0.01" width="1.44" height="19.56"/><rect class="cls-1" x="605.54" y="0.01" width="1.44" height="19.56"/><rect class="cls-1" x="601.18" y="0.01" width="1.44" height="19.56"/><rect class="cls-1" x="596.83" y="0.01" width="1.44" height="19.56"/><rect class="cls-1" x="583.76" y="0.01" width="1.44" height="19.56"/><rect class="cls-1" x="588.12" y="0.01" width="1.44" height="19.56"/><rect class="cls-1" x="592.47" y="0.01" width="1.44" height="19.56"/><rect class="cls-1" x="570.69" y="0.01" width="1.44" height="19.56"/><rect class="cls-1" x="575.05" y="0.01" width="1.44" height="19.56"/><rect class="cls-1" x="579.4" y="0.01" width="1.44" height="19.56"/><rect class="cls-1" x="566.33" y="0.01" width="1.44" height="19.56"/><rect class="cls-1" x="561.98" y="0.01" width="1.44" height="19.56"/><rect class="cls-1" x="557.62" y="0.01" width="1.44" height="19.56"/><rect class="cls-1" x="553.26" y="0.01" width="1.44" height="19.56"/><rect class="cls-1" x="548.91" y="0.01" width="1.44" height="19.56"/><rect class="cls-1" x="544.55" y="0.01" width="1.44" height="19.56"/><rect class="cls-1" x="540.19" y="0.01" width="1.44" height="19.56"/><rect class="cls-1" x="535.84" y="0.01" width="1.44" height="19.56"/><rect class="cls-1" x="531.48" y="0.01" width="1.44" height="19.56"/><rect class="cls-1" x="527.12" y="0.01" width="1.44" height="19.56"/><rect class="cls-1" x="522.77" y="0.01" width="1.44" height="19.56"/><rect class="cls-1" x="518.41" y="0.01" width="1.44" height="19.56"/><rect class="cls-1" x="514.05" y="0.01" width="1.44" height="19.56"/><rect class="cls-1" x="509.7" y="0.01" width="1.44" height="19.56"/><rect class="cls-1" x="505.34" y="0.01" width="1.44" height="19.56"/><rect class="cls-1" x="500.99" y="0.01" width="1.44" height="19.56"/><rect class="cls-1" x="496.63" y="0.01" width="1.44" height="19.56"/><rect class="cls-1" x="492.27" y="0.01" width="1.44" height="19.56"/><rect class="cls-1" x="487.92" y="0.01" width="1.44" height="19.56"/><rect class="cls-1" x="483.56" y="0.01" width="1.44" height="19.56"/><rect class="cls-1" x="479.2" y="0.01" width="1.44" height="19.56"/><rect class="cls-1" x="474.85" y="0.01" width="1.44" height="19.56"/><rect class="cls-1" x="470.49" y="0.01" width="1.44" height="19.56"/><rect class="cls-1" x="466.14" y="0.01" width="1.44" height="19.56"/><rect class="cls-1" x="461.78" y="0.01" width="1.44" height="19.56"/><rect class="cls-1" x="457.42" y="0.01" width="1.44" height="19.56"/><rect class="cls-1" x="453.07" y="0.01" width="1.44" height="19.56"/><rect class="cls-1" x="448.71" y="0.01" width="1.44" height="19.56"/><rect class="cls-1" x="444.35" y="0.01" width="1.44" height="19.56"/><rect class="cls-1" x="440" y="0.01" width="1.44" height="19.56"/><rect class="cls-1" x="435.64" y="0.01" width="1.44" height="19.56"/><rect class="cls-1" x="431.28" y="0.01" width="1.44" height="19.56"/><rect class="cls-1" x="426.93" y="0.01" width="1.44" height="19.56"/><rect class="cls-1" x="422.57" y="0.01" width="1.44" height="19.56"/><rect class="cls-1" x="418.22" y="0.01" width="1.44" height="19.56"/><rect class="cls-1" x="413.86" y="0.01" width="1.44" height="19.56"/><rect class="cls-1" x="409.5" y="0.01" width="1.44" height="19.56"/><rect class="cls-1" x="405.15" y="0.01" width="1.44" height="19.56"/><rect class="cls-1" x="400.79" y="0.01" width="1.44" height="19.56"/><rect class="cls-1" x="396.43" y="0.01" width="1.44" height="19.56"/><rect class="cls-1" x="392.08" y="0.01" width="1.44" height="19.56"/><rect class="cls-1" x="387.72" y="0.01" width="1.44" height="19.56"/><rect class="cls-1" x="383.37" y="0.01" width="1.44" height="19.56"/><rect class="cls-1" x="379.01" y="0.01" width="1.44" height="19.56"/><rect class="cls-1" x="374.65" y="0.01" width="1.44" height="19.56"/><rect class="cls-1" x="370.3" y="0.01" width="1.44" height="19.56"/><rect class="cls-1" x="365.94" y="0.01" width="1.44" height="19.56"/><rect class="cls-1" x="361.58" y="0.01" width="1.44" height="19.56"/><rect class="cls-1" x="357.23" y="0.01" width="1.44" height="19.56"/><rect class="cls-1" x="352.87" y="0.01" width="1.44" height="19.56"/><rect class="cls-1" x="348.51" y="0.01" width="1.44" height="19.56"/><rect class="cls-1" x="344.16" y="0.01" width="1.44" height="19.56"/><rect class="cls-1" x="339.8" y="0.01" width="1.44" height="19.56"/><rect class="cls-1" x="335.44" y="0.01" width="1.44" height="19.56"/><rect class="cls-1" x="331.09" y="0.01" width="1.44" height="19.56"/><rect class="cls-1" x="326.73" y="0.01" width="1.44" height="19.56"/><rect class="cls-1" x="322.38" y="0.01" width="1.44" height="19.56"/><rect class="cls-1" x="318.02" y="0.01" width="1.44" height="19.56"/><rect class="cls-1" x="313.66" y="0.01" width="1.44" height="19.56"/><rect class="cls-1" x="309.31" y="0.01" width="1.44" height="19.56"/><rect class="cls-1" x="304.95" y="0.01" width="1.44" height="19.56"/><rect class="cls-1" x="300.59" y="0.01" width="1.44" height="19.56"/><rect class="cls-1" x="296.24" y="0.01" width="1.44" height="19.56"/><rect class="cls-1" x="291.88" y="0.01" width="1.44" height="19.56"/><rect class="cls-1" x="287.52" y="0.01" width="1.44" height="19.56"/><rect class="cls-1" x="283.17" y="0.01" width="1.44" height="19.56"/><rect class="cls-1" x="278.81" y="0.01" width="1.44" height="19.56"/><rect class="cls-1" x="274.45" y="0.01" width="1.44" height="19.56"/><rect class="cls-1" x="270.1" y="0.01" width="1.44" height="19.56"/><rect class="cls-1" x="265.74" y="0.01" width="1.44" height="19.56"/><rect class="cls-1" x="261.38" y="0.01" width="1.44" height="19.56"/><rect class="cls-1" x="257.03" y="0.01" width="1.44" height="19.56"/><rect class="cls-1" x="252.67" y="0.01" width="1.44" height="19.56"/><rect class="cls-1" x="248.31" y="0.01" width="1.44" height="19.56"/><rect class="cls-1" x="243.96" y="0.01" width="1.44" height="19.56"/><rect class="cls-1" x="239.6" y="0.01" width="1.44" height="19.56"/><rect class="cls-1" x="235.25" y="0.01" width="1.44" height="19.56"/><rect class="cls-1" x="230.89" y="0.01" width="1.44" height="19.56"/><rect class="cls-1" x="226.53" y="0.01" width="1.44" height="19.56"/><rect class="cls-1" x="222.18" y="0.01" width="1.44" height="19.56"/><rect class="cls-1" x="217.82" y="0.01" width="1.44" height="19.56"/><rect class="cls-1" x="213.46" y="0.01" width="1.44" height="19.56"/><rect class="cls-1" x="209.11" y="0.01" width="1.44" height="19.56"/><rect class="cls-1" x="204.75" y="0.01" width="1.44" height="19.56"/><rect class="cls-1" x="200.39" y="0.01" width="1.44" height="19.56"/><rect class="cls-1" x="196.04" y="0.01" width="1.44" height="19.56"/><rect class="cls-1" x="191.68" y="0.01" width="1.44" height="19.56"/><rect class="cls-1" x="187.32" y="0.01" width="1.44" height="19.56"/><rect class="cls-1" x="182.97" y="0.01" width="1.44" height="19.56"/><rect class="cls-1" x="178.61" y="0.01" width="1.44" height="19.56"/><rect class="cls-1" x="174.25" y="0.01" width="1.44" height="19.56"/><rect class="cls-1" x="169.9" y="0.01" width="1.44" height="19.56"/><rect class="cls-1" x="165.54" y="0.01" width="1.44" height="19.56"/><rect class="cls-1" x="161.19" y="0.01" width="1.44" height="19.56"/><rect class="cls-1" x="156.83" y="0.01" width="1.44" height="19.56"/><rect class="cls-1" x="152.47" y="0.01" width="1.44" height="19.56"/><rect class="cls-1" x="148.12" y="0.01" width="1.44" height="19.56"/><rect class="cls-1" x="143.76" y="0.01" width="1.44" height="19.56"/><rect class="cls-1" x="139.4" y="0.01" width="1.44" height="19.56"/><rect class="cls-1" x="135.05" y="0.01" width="1.44" height="19.56"/><rect class="cls-1" x="130.69" y="0.01" width="1.44" height="19.56"/><rect class="cls-1" x="126.33" y="0.01" width="1.44" height="19.56"/><rect class="cls-1" x="121.98" y="0.01" width="1.44" height="19.56"/><rect class="cls-1" x="117.62" y="0.01" width="1.44" height="19.56"/><rect class="cls-1" x="113.26" y="0.01" width="1.44" height="19.56"/><rect class="cls-1" x="108.91" y="0.01" width="1.44" height="19.56"/><rect class="cls-1" x="104.55" y="0.01" width="1.44" height="19.56"/><rect class="cls-1" x="100.19" y="0.01" width="1.44" height="19.56"/><rect class="cls-1" x="95.84" y="0.01" width="1.44" height="19.56"/><rect class="cls-1" x="91.48" y="0.01" width="1.44" height="19.56"/><rect class="cls-1" x="87.13" y="0.01" width="1.44" height="19.56"/><rect class="cls-1" x="82.77" y="0.01" width="1.44" height="19.56"/><rect class="cls-1" x="78.41" y="0.01" width="1.44" height="19.56"/><rect class="cls-1" x="74.06" y="0.01" width="1.44" height="19.56"/><rect class="cls-1" x="69.7" y="0.01" width="1.44" height="19.56"/><rect class="cls-1" x="65.35" y="0.01" width="1.44" height="19.56"/><rect class="cls-1" x="60.99" y="0.01" width="1.44" height="19.56"/><rect class="cls-1" x="56.63" y="0.01" width="1.44" height="19.56"/><rect class="cls-1" x="52.28" y="0.01" width="1.44" height="19.56"/><rect class="cls-1" x="47.92" y="0.01" width="1.44" height="19.56"/><rect class="cls-1" x="43.56" y="0.01" width="1.44" height="19.56"/><rect class="cls-1" x="39.21" y="0.01" width="1.44" height="19.56"/><rect class="cls-1" x="34.85" y="0.01" width="1.44" height="19.56"/><rect class="cls-1" x="30.49" y="0.01" width="1.44" height="19.56"/><rect class="cls-1" x="26.14" y="0.01" width="1.44" height="19.56"/><rect class="cls-1" x="21.78" y="0.01" width="1.44" height="19.56"/><rect class="cls-1" x="17.42" y="0.01" width="1.44" height="19.56"/><rect class="cls-1" x="13.07" y="0.01" width="1.44" height="19.56"/><rect class="cls-1" x="8.71" y="0.01" width="1.44" height="19.56"/><rect class="cls-1" x="4.36" y="0.01" width="1.44" height="19.56"/></g></g></svg>