<svg xmlns="http://www.w3.org/2000/svg" viewBox="0 0 1064.41 19.57"><defs><style>.cls-1{fill:#fff;}</style></defs><g id="Layer_2" data-name="Layer 2"><g id="Layer_1-2" data-name="Layer 1"><rect width="1064.41" height="19.57"/><rect class="cls-1" x="1048" y="0.01" width="1.44" height="19.56"/><rect class="cls-1" x="1033.03" y="0.01" width="1.44" height="19.56"/><rect class="cls-1" x="1018.06" y="0.01" width="1.44" height="19.56"/><rect class="cls-1" x="1003.09" y="0.01" width="1.44" height="19.56"/><rect class="cls-1" x="988.11" y="0.01" width="1.44" height="19.56"/><rect class="cls-1" x="973.14" y="0.01" width="1.44" height="19.56"/><rect class="cls-1" x="958.17" y="0.01" width="1.44" height="19.56"/><rect class="cls-1" x="943.2" y="0.01" width="1.44" height="19.56"/><rect class="cls-1" x="928.23" y="0.01" width="1.44" height="19.56"/><rect class="cls-1" x="913.26" y="0.01" width="1.44" height="19.56"/><rect class="cls-1" x="898.29" y="0.01" width="1.44" height="19.56"/><rect class="cls-1" x="883.31" y="0.01" width="1.44" height="19.56"/><rect class="cls-1" x="868.34" y="0.01" width="1.44" height="19.56"/><rect class="cls-1" x="853.37" y="0.01" width="1.44" height="19.56"/><rect class="cls-1" x="838.4" y="0.01" width="1.44" height="19.56"/><rect class="cls-1" x="823.43" y="0.01" width="1.44" height="19.56"/><rect class="cls-1" x="808.46" y="0.01" width="1.44" height="19.56"/><rect class="cls-1" x="793.49" y="0.01" width="1.44" height="19.56"/><rect class="cls-1" x="778.51" y="0.01" width="1.44" height="19.56"/><rect class="cls-1" x="763.54" y="0.01" width="1.44" height="19.56"/><rect class="cls-1" x="748.57" y="0.01" width="1.44" height="19.56"/><rect class="cls-1" x="733.6" y="0.01" width="1.44" height="19.56"/><rect class="cls-1" x="718.63" y="0.01" width="1.44" height="19.56"/><rect class="cls-1" x="703.66" y="0.01" width="1.44" height="19.56"/><rect class="cls-1" x="688.69" y="0.01" width="1.44" height="19.56"/><rect class="cls-1" x="673.71" y="0.01" width="1.44" height="19.56"/><rect class="cls-1" x="658.74" y="0.01" width="1.44" height="19.56"/><rect class="cls-1" x="643.77" y="0.01" width="1.44" height="19.56"/><rect class="cls-1" x="628.8" y="0.01" width="1.44" height="19.56"/><rect class="cls-1" x="613.83" y="0.01" width="1.44" height="19.56"/><rect class="cls-1" x="598.86" y="0.01" width="1.44" height="19.56"/><rect class="cls-1" x="583.89" y="0.01" width="1.44" height="19.56"/><rect class="cls-1" x="568.91" y="0.01" width="1.44" height="19.56"/><rect class="cls-1" x="553.94" y="0.01" width="1.44" height="19.56"/><rect class="cls-1" x="538.97" y="0.01" width="1.44" height="19.56"/><rect class="cls-1" x="524" y="0.01" width="1.44" height="19.56"/><rect class="cls-1" x="509.03" y="0.01" width="1.44" height="19.56"/><rect class="cls-1" x="494.06" y="0.01" width="1.44" height="19.56"/><rect class="cls-1" x="479.09" y="0.01" width="1.44" height="19.56"/><rect class="cls-1" x="464.11" y="0.01" width="1.44" height="19.56"/><rect class="cls-1" x="449.14" y="0.01" width="1.44" height="19.56"/><rect class="cls-1" x="434.17" y="0.01" width="1.44" height="19.56"/><rect class="cls-1" x="419.2" y="0.01" width="1.44" height="19.56"/><rect class="cls-1" x="404.23" y="0.01" width="1.44" height="19.56"/><rect class="cls-1" x="389.26" y="0.01" width="1.44" height="19.56"/><rect class="cls-1" x="374.29" y="0.01" width="1.44" height="19.56"/><rect class="cls-1" x="359.31" y="0.01" width="1.44" height="19.56"/><rect class="cls-1" x="344.34" y="0.01" width="1.44" height="19.56"/><rect class="cls-1" x="329.37" y="0.01" width="1.44" height="19.56"/><rect class="cls-1" x="314.4" y="0.01" width="1.44" height="19.56"/><rect class="cls-1" x="299.43" y="0.01" width="1.44" height="19.56"/><rect class="cls-1" x="284.46" y="0.01" width="1.44" height="19.56"/><rect class="cls-1" x="269.48" y="0.01" width="1.44" height="19.56"/><rect class="cls-1" x="254.51" y="0.01" width="1.44" height="19.56"/><rect class="cls-1" x="239.54" y="0.01" width="1.44" height="19.56"/><rect class="cls-1" x="224.57" y="0.01" width="1.44" height="19.56"/><rect class="cls-1" x="209.6" y="0.01" width="1.44" height="19.56"/><rect class="cls-1" x="194.63" y="0.01" width="1.44" height="19.56"/><rect class="cls-1" x="179.66" y="0.01" width="1.44" height="19.56"/><rect class="cls-1" x="164.68" y="0.01" width="1.44" height="19.56"/><rect class="cls-1" x="149.71" y="0.01" width="1.44" height="19.56"/><rect class="cls-1" x="134.74" y="0.01" width="1.44" height="19.56"/><rect class="cls-1" x="119.77" y="0.01" width="1.44" height="19.56"/><rect class="cls-1" x="104.8" y="0.01" width="1.44" height="19.56"/><rect class="cls-1" x="89.83" y="0.01" width="1.44" height="19.56"/><rect class="cls-1" x="74.86" y="0.01" width="1.44" height="19.56"/><rect class="cls-1" x="59.89" y="0.01" width="1.44" height="19.56"/><rect class="cls-1" x="44.91" y="0.01" width="1.44" height="19.56"/><rect class="cls-1" x="29.94" y="0.01" width="1.44" height="19.56"/><rect class="cls-1" x="14.97" y="0.01" width="1.44" height="19.56"/></g></g></svg>