<svg xmlns="http://www.w3.org/2000/svg" viewBox="0 0 1064.41 19.57"><defs><style>.cls-1{fill:#fff;}</style></defs><g id="Layer_2" data-name="Layer 2"><g id="Layer_1-2" data-name="Layer 1"><rect width="1064.41" height="19.57"/><rect class="cls-1" x="1014.65" y="0.01" width="1.44" height="19.56"/><rect class="cls-1" x="966.34" y="0.01" width="1.44" height="19.56"/><rect class="cls-1" x="918.02" y="0.01" width="1.44" height="19.56"/><rect class="cls-1" x="869.7" y="0.01" width="1.44" height="19.56"/><rect class="cls-1" x="821.39" y="0.01" width="1.44" height="19.56"/><rect class="cls-1" x="773.07" y="0.01" width="1.44" height="19.56"/><rect class="cls-1" x="724.75" y="0.01" width="1.44" height="19.56"/><rect class="cls-1" x="676.44" y="0.01" width="1.44" height="19.56"/><rect class="cls-1" x="628.12" y="0.01" width="1.44" height="19.56"/><rect class="cls-1" x="579.8" y="0.01" width="1.44" height="19.56"/><rect class="cls-1" x="531.49" y="0.01" width="1.44" height="19.56"/><rect class="cls-1" x="483.17" y="0.01" width="1.44" height="19.56"/><rect class="cls-1" x="434.85" y="0.01" width="1.44" height="19.56"/><rect class="cls-1" x="386.53" y="0.01" width="1.44" height="19.56"/><rect class="cls-1" x="338.22" y="0.01" width="1.44" height="19.56"/><rect class="cls-1" x="289.9" y="0.01" width="1.44" height="19.56"/><rect class="cls-1" x="241.58" y="0.01" width="1.44" height="19.56"/><rect class="cls-1" x="193.27" y="0.01" width="1.44" height="19.56"/><rect class="cls-1" x="144.95" y="0.01" width="1.44" height="19.56"/><rect class="cls-1" x="96.63" y="0.01" width="1.44" height="19.56"/><rect class="cls-1" x="48.32" y="0.01" width="1.44" height="19.56"/></g></g></svg>