<svg xmlns="http://www.w3.org/2000/svg" viewBox="0 0 1064.41 19.57"><defs><style>.cls-1{fill:#fff;}</style></defs><g id="Layer_2" data-name="Layer 2"><g id="Layer_1-2" data-name="Layer 1"><rect width="1064.41" height="19.57"/><rect class="cls-1" x="1058.16" y="0.01" width="1.44" height="19.56"/><rect class="cls-1" x="1053.35" y="0.01" width="1.44" height="19.56"/><rect class="cls-1" x="1048.54" y="0.01" width="1.44" height="19.56"/><rect class="cls-1" x="1043.73" y="0.01" width="1.44" height="19.56"/><rect class="cls-1" x="1038.92" y="0.01" width="1.44" height="19.56"/><rect class="cls-1" x="1034.11" y="0.01" width="1.44" height="19.56"/><rect class="cls-1" x="1029.3" y="0.01" width="1.44" height="19.56"/><rect class="cls-1" x="1024.49" y="0.01" width="1.44" height="19.56"/><rect class="cls-1" x="1019.68" y="0.01" width="1.44" height="19.56"/><rect class="cls-1" x="1014.87" y="0.01" width="1.44" height="19.56"/><rect class="cls-1" x="1010.06" y="0.01" width="1.44" height="19.56"/><rect class="cls-1" x="1005.25" y="0.01" width="1.44" height="19.56"/><rect class="cls-1" x="1000.44" y="0.01" width="1.44" height="19.56"/><rect class="cls-1" x="995.63" y="0.01" width="1.44" height="19.56"/><rect class="cls-1" x="990.82" y="0.01" width="1.44" height="19.56"/><rect class="cls-1" x="986.01" y="0.01" width="1.44" height="19.56"/><rect class="cls-1" x="981.2" y="0.01" width="1.44" height="19.56"/><rect class="cls-1" x="976.39" y="0.01" width="1.44" height="19.56"/><rect class="cls-1" x="971.58" y="0.01" width="1.44" height="19.56"/><rect class="cls-1" x="966.77" y="0.01" width="1.44" height="19.56"/><rect class="cls-1" x="961.96" y="0.01" width="1.44" height="19.56"/><rect class="cls-1" x="957.15" y="0.01" width="1.44" height="19.56"/><rect class="cls-1" x="952.34" y="0.01" width="1.44" height="19.56"/><rect class="cls-1" x="947.53" y="0.01" width="1.44" height="19.56"/><rect class="cls-1" x="942.72" y="0.01" width="1.44" height="19.56"/><rect class="cls-1" x="937.92" y="0.01" width="1.44" height="19.56"/><rect class="cls-1" x="933.11" y="0.01" width="1.44" height="19.56"/><rect class="cls-1" x="928.3" y="0.01" width="1.44" height="19.56"/><rect class="cls-1" x="923.49" y="0.01" width="1.44" height="19.56"/><rect class="cls-1" x="918.68" y="0.01" width="1.44" height="19.56"/><rect class="cls-1" x="913.87" y="0.01" width="1.44" height="19.56"/><rect class="cls-1" x="909.06" y="0.01" width="1.44" height="19.56"/><rect class="cls-1" x="904.25" y="0.01" width="1.44" height="19.56"/><rect class="cls-1" x="899.44" y="0.01" width="1.44" height="19.56"/><rect class="cls-1" x="894.63" y="0.01" width="1.44" height="19.56"/><rect class="cls-1" x="889.82" y="0.01" width="1.44" height="19.56"/><rect class="cls-1" x="885.01" y="0.01" width="1.44" height="19.56"/><rect class="cls-1" x="880.2" y="0.01" width="1.44" height="19.56"/><rect class="cls-1" x="875.39" y="0.01" width="1.44" height="19.56"/><rect class="cls-1" x="870.58" y="0.01" width="1.44" height="19.56"/><rect class="cls-1" x="865.77" y="0.01" width="1.44" height="19.56"/><rect class="cls-1" x="860.96" y="0.01" width="1.44" height="19.56"/><rect class="cls-1" x="856.15" y="0.01" width="1.44" height="19.56"/><rect class="cls-1" x="851.34" y="0.01" width="1.44" height="19.56"/><rect class="cls-1" x="846.53" y="0.01" width="1.44" height="19.56"/><rect class="cls-1" x="841.72" y="0.01" width="1.44" height="19.56"/><rect class="cls-1" x="836.91" y="0.01" width="1.44" height="19.56"/><rect class="cls-1" x="832.1" y="0.01" width="1.44" height="19.56"/><rect class="cls-1" x="827.29" y="0.01" width="1.44" height="19.56"/><rect class="cls-1" x="822.48" y="0.01" width="1.44" height="19.56"/><rect class="cls-1" x="817.67" y="0.01" width="1.44" height="19.56"/><rect class="cls-1" x="812.86" y="0.01" width="1.44" height="19.56"/><rect class="cls-1" x="808.05" y="0.01" width="1.44" height="19.56"/><rect class="cls-1" x="803.24" y="0.01" width="1.44" height="19.56"/><rect class="cls-1" x="798.43" y="0.01" width="1.44" height="19.56"/><rect class="cls-1" x="793.62" y="0.01" width="1.44" height="19.56"/><rect class="cls-1" x="788.81" y="0.01" width="1.44" height="19.56"/><rect class="cls-1" x="784" y="0.01" width="1.44" height="19.56"/><rect class="cls-1" x="779.19" y="0.01" width="1.44" height="19.56"/><rect class="cls-1" x="774.38" y="0.01" width="1.44" height="19.56"/><rect class="cls-1" x="769.57" y="0.01" width="1.44" height="19.56"/><rect class="cls-1" x="764.76" y="0.01" width="1.44" height="19.56"/><rect class="cls-1" x="759.95" y="0.01" width="1.44" height="19.56"/><rect class="cls-1" x="755.14" y="0.01" width="1.44" height="19.56"/><rect class="cls-1" x="750.33" y="0.01" width="1.44" height="19.56"/><rect class="cls-1" x="745.52" y="0.01" width="1.44" height="19.56"/><rect class="cls-1" x="740.71" y="0.01" width="1.44" height="19.56"/><rect class="cls-1" x="735.9" y="0.01" width="1.44" height="19.56"/><rect class="cls-1" x="731.09" y="0.01" width="1.44" height="19.56"/><rect class="cls-1" x="726.28" y="0.01" width="1.44" height="19.56"/><rect class="cls-1" x="721.47" y="0.01" width="1.44" height="19.56"/><rect class="cls-1" x="716.66" y="0.01" width="1.44" height="19.56"/><rect class="cls-1" x="711.85" y="0.01" width="1.44" height="19.56"/><rect class="cls-1" x="707.04" y="0.01" width="1.44" height="19.56"/><rect class="cls-1" x="702.23" y="0.01" width="1.44" height="19.56"/><rect class="cls-1" x="697.42" y="0.01" width="1.44" height="19.56"/><rect class="cls-1" x="692.61" y="0.01" width="1.44" height="19.56"/><rect class="cls-1" x="687.8" y="0.01" width="1.44" height="19.56"/><rect class="cls-1" x="682.99" y="0.01" width="1.44" height="19.56"/><rect class="cls-1" x="678.18" y="0.01" width="1.44" height="19.56"/><rect class="cls-1" x="673.37" y="0.01" width="1.44" height="19.56"/><rect class="cls-1" x="668.56" y="0.01" width="1.44" height="19.56"/><rect class="cls-1" x="663.76" y="0.01" width="1.44" height="19.56"/><rect class="cls-1" x="658.95" y="0.01" width="1.44" height="19.56"/><rect class="cls-1" x="654.14" y="0.01" width="1.44" height="19.56"/><rect class="cls-1" x="649.33" y="0.01" width="1.44" height="19.56"/><rect class="cls-1" x="644.52" y="0.01" width="1.44" height="19.56"/><rect class="cls-1" x="639.71" y="0.01" width="1.44" height="19.56"/><rect class="cls-1" x="634.9" y="0.01" width="1.44" height="19.56"/><rect class="cls-1" x="630.09" y="0.01" width="1.44" height="19.56"/><rect class="cls-1" x="625.28" y="0.01" width="1.44" height="19.56"/><rect class="cls-1" x="620.47" y="0.01" width="1.44" height="19.56"/><rect class="cls-1" x="615.66" y="0.01" width="1.44" height="19.56"/><rect class="cls-1" x="610.85" y="0.01" width="1.44" height="19.56"/><rect class="cls-1" x="606.04" y="0.01" width="1.44" height="19.56"/><rect class="cls-1" x="601.23" y="0.01" width="1.44" height="19.56"/><rect class="cls-1" x="596.42" y="0.01" width="1.44" height="19.56"/><rect class="cls-1" x="591.61" y="0.01" width="1.44" height="19.56"/><rect class="cls-1" x="586.8" y="0.01" width="1.44" height="19.56"/><rect class="cls-1" x="581.99" y="0.01" width="1.44" height="19.56"/><rect class="cls-1" x="577.18" y="0.01" width="1.44" height="19.56"/><rect class="cls-1" x="572.37" y="0.01" width="1.44" height="19.56"/><rect class="cls-1" x="567.56" y="0.01" width="1.44" height="19.56"/><rect class="cls-1" x="562.75" y="0.01" width="1.44" height="19.56"/><rect class="cls-1" x="557.94" y="0.01" width="1.44" height="19.56"/><rect class="cls-1" x="553.13" y="0.01" width="1.44" height="19.56"/><rect class="cls-1" x="548.32" y="0.01" width="1.44" height="19.56"/><rect class="cls-1" x="543.51" y="0.01" width="1.44" height="19.56"/><rect class="cls-1" x="538.7" y="0.01" width="1.44" height="19.56"/><rect class="cls-1" x="533.89" y="0.01" width="1.44" height="19.56"/><rect class="cls-1" x="529.08" y="0.01" width="1.44" height="19.56"/><rect class="cls-1" x="524.27" y="0.01" width="1.44" height="19.56"/><rect class="cls-1" x="519.46" y="0.01" width="1.44" height="19.56"/><rect class="cls-1" x="514.65" y="0.01" width="1.44" height="19.56"/><rect class="cls-1" x="509.84" y="0.01" width="1.44" height="19.56"/><rect class="cls-1" x="505.03" y="0.01" width="1.44" height="19.56"/><rect class="cls-1" x="500.22" y="0.01" width="1.44" height="19.56"/><rect class="cls-1" x="495.41" y="0.01" width="1.44" height="19.56"/><rect class="cls-1" x="490.6" y="0.01" width="1.44" height="19.56"/><rect class="cls-1" x="485.79" y="0.01" width="1.44" height="19.56"/><rect class="cls-1" x="480.98" y="0.01" width="1.44" height="19.56"/><rect class="cls-1" x="476.17" y="0.01" width="1.44" height="19.56"/><rect class="cls-1" x="471.36" y="0.01" width="1.44" height="19.56"/><rect class="cls-1" x="466.55" y="0.01" width="1.44" height="19.56"/><rect class="cls-1" x="461.74" y="0.01" width="1.44" height="19.56"/><rect class="cls-1" x="456.93" y="0.01" width="1.44" height="19.56"/><rect class="cls-1" x="452.12" y="0.01" width="1.44" height="19.56"/><rect class="cls-1" x="447.31" y="0.01" width="1.44" height="19.56"/><rect class="cls-1" x="442.5" y="0.01" width="1.44" height="19.56"/><rect class="cls-1" x="437.69" y="0.01" width="1.44" height="19.56"/><rect class="cls-1" x="432.88" y="0.01" width="1.44" height="19.56"/><rect class="cls-1" x="428.07" y="0.01" width="1.44" height="19.56"/><rect class="cls-1" x="423.26" y="0.01" width="1.44" height="19.56"/><rect class="cls-1" x="418.45" y="0.01" width="1.44" height="19.56"/><rect class="cls-1" x="413.64" y="0.01" width="1.44" height="19.56"/><rect class="cls-1" x="408.83" y="0.01" width="1.44" height="19.56"/><rect class="cls-1" x="404.02" y="0.01" width="1.44" height="19.56"/><rect class="cls-1" x="399.21" y="0.01" width="1.44" height="19.56"/><rect class="cls-1" x="394.4" y="0.01" width="1.44" height="19.56"/><rect class="cls-1" x="389.59" y="0.01" width="1.44" height="19.56"/><rect class="cls-1" x="384.78" y="0.01" width="1.44" height="19.56"/><rect class="cls-1" x="379.97" y="0.01" width="1.44" height="19.56"/><rect class="cls-1" x="375.16" y="0.01" width="1.44" height="19.56"/><rect class="cls-1" x="370.35" y="0.01" width="1.44" height="19.56"/><rect class="cls-1" x="365.54" y="0.01" width="1.44" height="19.56"/><rect class="cls-1" x="360.74" y="0.01" width="1.44" height="19.56"/><rect class="cls-1" x="355.93" y="0.01" width="1.44" height="19.56"/><rect class="cls-1" x="351.12" y="0.01" width="1.44" height="19.56"/><rect class="cls-1" x="346.31" y="0.01" width="1.44" height="19.56"/><rect class="cls-1" x="341.5" y="0.01" width="1.44" height="19.56"/><rect class="cls-1" x="336.69" y="0.01" width="1.44" height="19.56"/><rect class="cls-1" x="331.88" y="0.01" width="1.44" height="19.56"/><rect class="cls-1" x="327.07" y="0.01" width="1.44" height="19.56"/><rect class="cls-1" x="322.26" y="0.01" width="1.44" height="19.56"/><rect class="cls-1" x="317.45" y="0.01" width="1.44" height="19.56"/><rect class="cls-1" x="312.64" y="0.01" width="1.44" height="19.56"/><rect class="cls-1" x="307.83" y="0.01" width="1.44" height="19.56"/><rect class="cls-1" x="303.02" y="0.01" width="1.44" height="19.56"/><rect class="cls-1" x="298.21" y="0.01" width="1.44" height="19.56"/><rect class="cls-1" x="293.4" y="0.01" width="1.44" height="19.56"/><rect class="cls-1" x="288.59" y="0.01" width="1.44" height="19.56"/><rect class="cls-1" x="283.78" y="0.01" width="1.44" height="19.56"/><rect class="cls-1" x="278.97" y="0.01" width="1.44" height="19.56"/><rect class="cls-1" x="274.16" y="0.01" width="1.44" height="19.56"/><rect class="cls-1" x="269.35" y="0.01" width="1.44" height="19.56"/><rect class="cls-1" x="264.54" y="0.01" width="1.44" height="19.56"/><rect class="cls-1" x="259.73" y="0.01" width="1.44" height="19.56"/><rect class="cls-1" x="254.92" y="0.01" width="1.44" height="19.56"/><rect class="cls-1" x="250.11" y="0.01" width="1.44" height="19.56"/><rect class="cls-1" x="245.3" y="0.01" width="1.44" height="19.56"/><rect class="cls-1" x="240.49" y="0.01" width="1.44" height="19.56"/><rect class="cls-1" x="235.68" y="0.01" width="1.44" height="19.56"/><rect class="cls-1" x="230.87" y="0.01" width="1.44" height="19.56"/><rect class="cls-1" x="226.06" y="0.01" width="1.44" height="19.56"/><rect class="cls-1" x="221.25" y="0.01" width="1.44" height="19.56"/><rect class="cls-1" x="216.44" y="0.01" width="1.44" height="19.56"/><rect class="cls-1" x="211.63" y="0.01" width="1.44" height="19.56"/><rect class="cls-1" x="206.82" y="0.01" width="1.44" height="19.56"/><rect class="cls-1" x="202.01" y="0.01" width="1.44" height="19.56"/><rect class="cls-1" x="197.2" y="0.01" width="1.44" height="19.56"/><rect class="cls-1" x="192.39" y="0.01" width="1.44" height="19.56"/><rect class="cls-1" x="187.58" y="0.01" width="1.44" height="19.56"/><rect class="cls-1" x="182.77" y="0.01" width="1.44" height="19.56"/><rect class="cls-1" x="177.96" y="0.01" width="1.44" height="19.56"/><rect class="cls-1" x="173.15" y="0.01" width="1.44" height="19.56"/><rect class="cls-1" x="168.34" y="0.01" width="1.44" height="19.56"/><rect class="cls-1" x="163.53" y="0.01" width="1.44" height="19.56"/><rect class="cls-1" x="158.72" y="0.01" width="1.44" height="19.56"/><rect class="cls-1" x="153.91" y="0.01" width="1.44" height="19.56"/><rect class="cls-1" x="149.1" y="0.01" width="1.44" height="19.56"/><rect class="cls-1" x="144.29" y="0.01" width="1.44" height="19.56"/><rect class="cls-1" x="139.48" y="0.01" width="1.44" height="19.56"/><rect class="cls-1" x="134.67" y="0.01" width="1.44" height="19.56"/><rect class="cls-1" x="129.86" y="0.01" width="1.44" height="19.56"/><rect class="cls-1" x="125.05" y="0.01" width="1.44" height="19.56"/><rect class="cls-1" x="120.24" y="0.01" width="1.44" height="19.56"/><rect class="cls-1" x="115.43" y="0.01" width="1.44" height="19.56"/><rect class="cls-1" x="110.62" y="0.01" width="1.44" height="19.56"/><rect class="cls-1" x="105.81" y="0.01" width="1.44" height="19.56"/><rect class="cls-1" x="101" y="0.01" width="1.44" height="19.56"/><rect class="cls-1" x="96.19" y="0.01" width="1.44" height="19.56"/><rect class="cls-1" x="91.38" y="0.01" width="1.44" height="19.56"/><rect class="cls-1" x="86.57" y="0.01" width="1.44" height="19.56"/><rect class="cls-1" x="81.76" y="0.01" width="1.44" height="19.56"/><rect class="cls-1" x="76.95" y="0.01" width="1.44" height="19.56"/><rect class="cls-1" x="72.14" y="0.01" width="1.44" height="19.56"/><rect class="cls-1" x="67.33" y="0.01" width="1.44" height="19.56"/><rect class="cls-1" x="62.53" y="0.01" width="1.44" height="19.56"/><rect class="cls-1" x="57.72" y="0.01" width="1.44" height="19.56"/><rect class="cls-1" x="52.91" y="0.01" width="1.44" height="19.56"/><rect class="cls-1" x="48.1" y="0.01" width="1.44" height="19.56"/><rect class="cls-1" x="43.29" y="0.01" width="1.44" height="19.56"/><rect class="cls-1" x="38.48" y="0.01" width="1.44" height="19.56"/><rect class="cls-1" x="33.67" y="0.01" width="1.44" height="19.56"/><rect class="cls-1" x="28.86" y="0.01" width="1.44" height="19.56"/><rect class="cls-1" x="24.05" y="0.01" width="1.44" height="19.56"/><rect class="cls-1" x="19.24" y="0.01" width="1.44" height="19.56"/><rect class="cls-1" x="14.43" y="0.01" width="1.44" height="19.56"/><rect class="cls-1" x="9.62" y="0.01" width="1.44" height="19.56"/><rect class="cls-1" x="4.81" y="0.01" width="1.44" height="19.56"/></g></g></svg>