<svg xmlns="http://www.w3.org/2000/svg" viewBox="0 0 1064.41 19.57"><defs><style>.cls-1{fill:#fff;}</style></defs><g id="Layer_2" data-name="Layer 2"><g id="Layer_1-2" data-name="Layer 1"><rect width="1064.41" height="19.57"/><rect class="cls-1" x="1056.29" y="0.01" width="1.44" height="19.56"/><rect class="cls-1" x="1049.6" y="0.01" width="1.44" height="19.56"/><rect class="cls-1" x="1042.91" y="0.01" width="1.44" height="19.56"/><rect class="cls-1" x="1036.23" y="0.01" width="1.44" height="19.56"/><rect class="cls-1" x="1029.54" y="0.01" width="1.44" height="19.56"/><rect class="cls-1" x="1022.86" y="0.01" width="1.44" height="19.56"/><rect class="cls-1" x="1016.17" y="0.01" width="1.44" height="19.56"/><rect class="cls-1" x="1009.49" y="0.01" width="1.44" height="19.56"/><rect class="cls-1" x="1002.8" y="0.01" width="1.44" height="19.56"/><rect class="cls-1" x="996.12" y="0.01" width="1.44" height="19.56"/><rect class="cls-1" x="989.43" y="0.01" width="1.44" height="19.56"/><rect class="cls-1" x="982.75" y="0.01" width="1.44" height="19.56"/><rect class="cls-1" x="976.06" y="0.01" width="1.44" height="19.56"/><rect class="cls-1" x="969.38" y="0.01" width="1.44" height="19.56"/><rect class="cls-1" x="962.69" y="0.01" width="1.44" height="19.56"/><rect class="cls-1" x="956.01" y="0.01" width="1.44" height="19.56"/><rect class="cls-1" x="949.32" y="0.01" width="1.44" height="19.56"/><rect class="cls-1" x="942.63" y="0.01" width="1.44" height="19.56"/><rect class="cls-1" x="935.95" y="0.01" width="1.44" height="19.56"/><rect class="cls-1" x="929.26" y="0.01" width="1.44" height="19.56"/><rect class="cls-1" x="922.58" y="0.01" width="1.44" height="19.56"/><rect class="cls-1" x="915.89" y="0.01" width="1.44" height="19.56"/><rect class="cls-1" x="909.21" y="0.01" width="1.44" height="19.56"/><rect class="cls-1" x="902.52" y="0.01" width="1.44" height="19.56"/><rect class="cls-1" x="895.84" y="0.01" width="1.44" height="19.56"/><rect class="cls-1" x="889.15" y="0.01" width="1.44" height="19.56"/><rect class="cls-1" x="882.47" y="0.01" width="1.44" height="19.56"/><rect class="cls-1" x="875.78" y="0.01" width="1.44" height="19.56"/><rect class="cls-1" x="869.1" y="0.01" width="1.44" height="19.56"/><rect class="cls-1" x="862.41" y="0.01" width="1.44" height="19.56"/><rect class="cls-1" x="855.73" y="0.01" width="1.44" height="19.56"/><rect class="cls-1" x="849.04" y="0.01" width="1.44" height="19.56"/><rect class="cls-1" x="842.36" y="0.01" width="1.44" height="19.56"/><rect class="cls-1" x="835.67" y="0.01" width="1.44" height="19.56"/><rect class="cls-1" x="828.98" y="0.01" width="1.44" height="19.56"/><rect class="cls-1" x="822.3" y="0.01" width="1.44" height="19.56"/><rect class="cls-1" x="815.61" y="0.01" width="1.44" height="19.56"/><rect class="cls-1" x="808.93" y="0.01" width="1.44" height="19.56"/><rect class="cls-1" x="802.24" y="0.01" width="1.44" height="19.56"/><rect class="cls-1" x="795.56" y="0.01" width="1.44" height="19.56"/><rect class="cls-1" x="788.87" y="0.01" width="1.44" height="19.56"/><rect class="cls-1" x="782.19" y="0.01" width="1.44" height="19.56"/><rect class="cls-1" x="775.5" y="0.01" width="1.44" height="19.56"/><rect class="cls-1" x="768.82" y="0.01" width="1.44" height="19.56"/><rect class="cls-1" x="762.13" y="0.01" width="1.44" height="19.56"/><rect class="cls-1" x="755.45" y="0.01" width="1.44" height="19.56"/><rect class="cls-1" x="748.76" y="0.01" width="1.44" height="19.56"/><rect class="cls-1" x="742.07" y="0.01" width="1.44" height="19.56"/><rect class="cls-1" x="735.39" y="0.01" width="1.44" height="19.56"/><rect class="cls-1" x="728.7" y="0.01" width="1.44" height="19.56"/><rect class="cls-1" x="722.02" y="0.01" width="1.44" height="19.56"/><rect class="cls-1" x="715.33" y="0.01" width="1.44" height="19.56"/><rect class="cls-1" x="708.65" y="0.01" width="1.44" height="19.56"/><rect class="cls-1" x="701.96" y="0.01" width="1.44" height="19.56"/><rect class="cls-1" x="695.28" y="0.01" width="1.44" height="19.56"/><rect class="cls-1" x="688.59" y="0.01" width="1.44" height="19.56"/><rect class="cls-1" x="681.91" y="0.01" width="1.44" height="19.56"/><rect class="cls-1" x="675.22" y="0.01" width="1.44" height="19.56"/><rect class="cls-1" x="668.54" y="0.01" width="1.44" height="19.56"/><rect class="cls-1" x="661.85" y="0.01" width="1.44" height="19.56"/><rect class="cls-1" x="655.17" y="0.01" width="1.44" height="19.56"/><rect class="cls-1" x="648.48" y="0.01" width="1.44" height="19.56"/><rect class="cls-1" x="641.79" y="0.01" width="1.44" height="19.56"/><rect class="cls-1" x="635.11" y="0.01" width="1.44" height="19.56"/><rect class="cls-1" x="628.42" y="0.01" width="1.44" height="19.56"/><rect class="cls-1" x="621.74" y="0.01" width="1.44" height="19.56"/><rect class="cls-1" x="615.05" y="0.01" width="1.44" height="19.56"/><rect class="cls-1" x="608.37" y="0.01" width="1.44" height="19.56"/><rect class="cls-1" x="601.68" y="0.01" width="1.44" height="19.56"/><rect class="cls-1" x="595" y="0.01" width="1.44" height="19.56"/><rect class="cls-1" x="588.31" y="0.01" width="1.44" height="19.56"/><rect class="cls-1" x="581.63" y="0.01" width="1.44" height="19.56"/><rect class="cls-1" x="574.94" y="0.01" width="1.44" height="19.56"/><rect class="cls-1" x="568.26" y="0.01" width="1.44" height="19.56"/><rect class="cls-1" x="561.57" y="0.01" width="1.44" height="19.56"/><rect class="cls-1" x="554.88" y="0.01" width="1.44" height="19.56"/><rect class="cls-1" x="548.2" y="0.01" width="1.44" height="19.56"/><rect class="cls-1" x="541.51" y="0.01" width="1.44" height="19.56"/><rect class="cls-1" x="534.83" y="0.01" width="1.44" height="19.56"/><rect class="cls-1" x="528.14" y="0.01" width="1.44" height="19.56"/><rect class="cls-1" x="521.46" y="0.01" width="1.44" height="19.56"/><rect class="cls-1" x="514.77" y="0.01" width="1.44" height="19.56"/><rect class="cls-1" x="508.09" y="0.01" width="1.44" height="19.56"/><rect class="cls-1" x="501.4" y="0.01" width="1.44" height="19.56"/><rect class="cls-1" x="494.72" y="0.01" width="1.44" height="19.56"/><rect class="cls-1" x="488.03" y="0.01" width="1.44" height="19.56"/><rect class="cls-1" x="481.35" y="0.01" width="1.44" height="19.56"/><rect class="cls-1" x="474.66" y="0.01" width="1.44" height="19.56"/><rect class="cls-1" x="467.98" y="0.01" width="1.44" height="19.56"/><rect class="cls-1" x="461.29" y="0.01" width="1.44" height="19.56"/><rect class="cls-1" x="454.6" y="0.01" width="1.44" height="19.56"/><rect class="cls-1" x="447.92" y="0.01" width="1.44" height="19.56"/><rect class="cls-1" x="441.23" y="0.01" width="1.44" height="19.56"/><rect class="cls-1" x="434.55" y="0.01" width="1.44" height="19.56"/><rect class="cls-1" x="427.86" y="0.01" width="1.44" height="19.56"/><rect class="cls-1" x="421.18" y="0.01" width="1.44" height="19.56"/><rect class="cls-1" x="414.49" y="0.01" width="1.44" height="19.56"/><rect class="cls-1" x="407.81" y="0.01" width="1.44" height="19.56"/><rect class="cls-1" x="401.12" y="0.01" width="1.44" height="19.56"/><rect class="cls-1" x="394.44" y="0.01" width="1.44" height="19.56"/><rect class="cls-1" x="387.75" y="0.01" width="1.44" height="19.56"/><rect class="cls-1" x="381.07" y="0.01" width="1.44" height="19.56"/><rect class="cls-1" x="374.38" y="0.01" width="1.44" height="19.56"/><rect class="cls-1" x="367.69" y="0.01" width="1.44" height="19.56"/><rect class="cls-1" x="361.01" y="0.01" width="1.44" height="19.56"/><rect class="cls-1" x="354.32" y="0.01" width="1.44" height="19.56"/><rect class="cls-1" x="347.64" y="0.01" width="1.44" height="19.56"/><rect class="cls-1" x="340.95" y="0.01" width="1.44" height="19.56"/><rect class="cls-1" x="334.27" y="0.01" width="1.44" height="19.56"/><rect class="cls-1" x="327.58" y="0.01" width="1.44" height="19.56"/><rect class="cls-1" x="320.9" y="0.01" width="1.44" height="19.56"/><rect class="cls-1" x="314.21" y="0.01" width="1.44" height="19.56"/><rect class="cls-1" x="307.53" y="0.01" width="1.44" height="19.56"/><rect class="cls-1" x="300.84" y="0.01" width="1.44" height="19.56"/><rect class="cls-1" x="294.16" y="0.01" width="1.44" height="19.56"/><rect class="cls-1" x="287.47" y="0.01" width="1.44" height="19.56"/><rect class="cls-1" x="280.78" y="0.01" width="1.44" height="19.56"/><rect class="cls-1" x="274.1" y="0.01" width="1.44" height="19.56"/><rect class="cls-1" x="267.41" y="0.01" width="1.44" height="19.56"/><rect class="cls-1" x="260.73" y="0.01" width="1.44" height="19.56"/><rect class="cls-1" x="254.04" y="0.01" width="1.44" height="19.56"/><rect class="cls-1" x="247.36" y="0.01" width="1.44" height="19.56"/><rect class="cls-1" x="240.67" y="0.01" width="1.44" height="19.56"/><rect class="cls-1" x="233.99" y="0.01" width="1.44" height="19.56"/><rect class="cls-1" x="227.3" y="0.01" width="1.44" height="19.56"/><rect class="cls-1" x="220.62" y="0.01" width="1.44" height="19.56"/><rect class="cls-1" x="213.93" y="0.01" width="1.44" height="19.56"/><rect class="cls-1" x="207.25" y="0.01" width="1.44" height="19.56"/><rect class="cls-1" x="200.56" y="0.01" width="1.44" height="19.56"/><rect class="cls-1" x="193.87" y="0.01" width="1.44" height="19.56"/><rect class="cls-1" x="187.19" y="0.01" width="1.44" height="19.56"/><rect class="cls-1" x="180.5" y="0.01" width="1.44" height="19.56"/><rect class="cls-1" x="173.82" y="0.01" width="1.44" height="19.56"/><rect class="cls-1" x="167.13" y="0.01" width="1.44" height="19.56"/><rect class="cls-1" x="160.45" y="0.01" width="1.44" height="19.56"/><rect class="cls-1" x="153.76" y="0.01" width="1.44" height="19.56"/><rect class="cls-1" x="147.08" y="0.01" width="1.44" height="19.56"/><rect class="cls-1" x="140.39" y="0.01" width="1.44" height="19.56"/><rect class="cls-1" x="133.71" y="0.01" width="1.44" height="19.56"/><rect class="cls-1" x="127.02" y="0.01" width="1.44" height="19.56"/><rect class="cls-1" x="120.34" y="0.01" width="1.44" height="19.56"/><rect class="cls-1" x="113.65" y="0.01" width="1.44" height="19.56"/><rect class="cls-1" x="106.97" y="0.01" width="1.44" height="19.56"/><rect class="cls-1" x="100.28" y="0.01" width="1.44" height="19.56"/><rect class="cls-1" x="93.6" y="0.01" width="1.44" height="19.56"/><rect class="cls-1" x="86.91" y="0.01" width="1.44" height="19.56"/><rect class="cls-1" x="80.22" y="0.01" width="1.44" height="19.56"/><rect class="cls-1" x="73.54" y="0.01" width="1.44" height="19.56"/><rect class="cls-1" x="66.85" y="0.01" width="1.44" height="19.56"/><rect class="cls-1" x="60.17" y="0.01" width="1.44" height="19.56"/><rect class="cls-1" x="53.48" y="0.01" width="1.44" height="19.56"/><rect class="cls-1" x="46.8" y="0.01" width="1.44" height="19.56"/><rect class="cls-1" x="40.11" y="0.01" width="1.44" height="19.56"/><rect class="cls-1" x="33.43" y="0.01" width="1.44" height="19.56"/><rect class="cls-1" x="26.74" y="0.01" width="1.44" height="19.56"/><rect class="cls-1" x="20.06" y="0.01" width="1.44" height="19.56"/><rect class="cls-1" x="13.37" y="0.01" width="1.44" height="19.56"/><rect class="cls-1" x="6.69" y="0.01" width="1.44" height="19.56"/></g></g></svg>