<svg xmlns="http://www.w3.org/2000/svg" viewBox="0 0 1064.41 19.57"><defs><style>.cls-1{fill:#fff;}</style></defs><g id="Layer_2" data-name="Layer 2"><g id="Layer_1-2" data-name="Layer 1"><rect width="1064.41" height="19.57"/><rect class="cls-1" x="1054.11" y="0.01" width="1.44" height="19.56"/><rect class="cls-1" x="1045.25" y="0.01" width="1.44" height="19.56"/><rect class="cls-1" x="1036.4" y="0.01" width="1.44" height="19.56"/><rect class="cls-1" x="1027.54" y="0.01" width="1.44" height="19.56"/><rect class="cls-1" x="1018.68" y="0.01" width="1.44" height="19.56"/><rect class="cls-1" x="1009.82" y="0.01" width="1.44" height="19.56"/><rect class="cls-1" x="1000.96" y="0.01" width="1.44" height="19.56"/><rect class="cls-1" x="992.11" y="0.01" width="1.44" height="19.56"/><rect class="cls-1" x="983.25" y="0.01" width="1.44" height="19.56"/><rect class="cls-1" x="974.39" y="0.01" width="1.44" height="19.56"/><rect class="cls-1" x="965.53" y="0.01" width="1.44" height="19.56"/><rect class="cls-1" x="956.67" y="0.01" width="1.44" height="19.56"/><rect class="cls-1" x="947.82" y="0.01" width="1.44" height="19.56"/><rect class="cls-1" x="938.96" y="0.01" width="1.44" height="19.56"/><rect class="cls-1" x="930.1" y="0.01" width="1.44" height="19.56"/><rect class="cls-1" x="921.24" y="0.01" width="1.44" height="19.56"/><rect class="cls-1" x="912.38" y="0.01" width="1.44" height="19.56"/><rect class="cls-1" x="903.52" y="0.01" width="1.44" height="19.56"/><rect class="cls-1" x="894.67" y="0.01" width="1.44" height="19.56"/><rect class="cls-1" x="885.81" y="0.01" width="1.44" height="19.56"/><rect class="cls-1" x="876.95" y="0.01" width="1.44" height="19.56"/><rect class="cls-1" x="868.09" y="0.01" width="1.44" height="19.56"/><rect class="cls-1" x="859.23" y="0.01" width="1.44" height="19.56"/><rect class="cls-1" x="850.38" y="0.01" width="1.44" height="19.56"/><rect class="cls-1" x="841.52" y="0.01" width="1.44" height="19.56"/><rect class="cls-1" x="832.66" y="0.01" width="1.44" height="19.56"/><rect class="cls-1" x="823.8" y="0.01" width="1.44" height="19.56"/><rect class="cls-1" x="814.94" y="0.01" width="1.44" height="19.56"/><rect class="cls-1" x="806.08" y="0.01" width="1.44" height="19.56"/><rect class="cls-1" x="797.23" y="0.01" width="1.44" height="19.56"/><rect class="cls-1" x="788.37" y="0.01" width="1.44" height="19.56"/><rect class="cls-1" x="779.51" y="0.01" width="1.44" height="19.56"/><rect class="cls-1" x="770.65" y="0.01" width="1.44" height="19.56"/><rect class="cls-1" x="761.79" y="0.01" width="1.44" height="19.56"/><rect class="cls-1" x="752.94" y="0.01" width="1.44" height="19.56"/><rect class="cls-1" x="744.08" y="0.01" width="1.44" height="19.56"/><rect class="cls-1" x="735.22" y="0.01" width="1.44" height="19.56"/><rect class="cls-1" x="726.36" y="0.01" width="1.44" height="19.56"/><rect class="cls-1" x="717.5" y="0.01" width="1.44" height="19.56"/><rect class="cls-1" x="708.64" y="0.01" width="1.44" height="19.56"/><rect class="cls-1" x="699.79" y="0.01" width="1.44" height="19.56"/><rect class="cls-1" x="690.93" y="0.01" width="1.44" height="19.56"/><rect class="cls-1" x="682.07" y="0.01" width="1.44" height="19.56"/><rect class="cls-1" x="673.21" y="0.01" width="1.44" height="19.56"/><rect class="cls-1" x="664.36" y="0.01" width="1.44" height="19.56"/><rect class="cls-1" x="655.5" y="0.01" width="1.44" height="19.56"/><rect class="cls-1" x="646.64" y="0.01" width="1.44" height="19.56"/><rect class="cls-1" x="637.78" y="0.01" width="1.44" height="19.56"/><rect class="cls-1" x="628.92" y="0.01" width="1.44" height="19.56"/><rect class="cls-1" x="620.07" y="0.01" width="1.44" height="19.56"/><rect class="cls-1" x="611.21" y="0.01" width="1.44" height="19.56"/><rect class="cls-1" x="602.35" y="0.01" width="1.44" height="19.56"/><rect class="cls-1" x="593.49" y="0.01" width="1.44" height="19.56"/><rect class="cls-1" x="584.63" y="0.01" width="1.44" height="19.56"/><rect class="cls-1" x="575.78" y="0.01" width="1.44" height="19.56"/><rect class="cls-1" x="566.92" y="0.01" width="1.44" height="19.56"/><rect class="cls-1" x="558.06" y="0.01" width="1.44" height="19.56"/><rect class="cls-1" x="549.2" y="0.01" width="1.44" height="19.56"/><rect class="cls-1" x="540.34" y="0.01" width="1.44" height="19.56"/><rect class="cls-1" x="531.48" y="0.01" width="1.44" height="19.56"/><rect class="cls-1" x="522.63" y="0.01" width="1.44" height="19.56"/><rect class="cls-1" x="513.77" y="0.01" width="1.44" height="19.56"/><rect class="cls-1" x="504.91" y="0.01" width="1.44" height="19.56"/><rect class="cls-1" x="496.05" y="0.01" width="1.44" height="19.56"/><rect class="cls-1" x="487.19" y="0.01" width="1.44" height="19.56"/><rect class="cls-1" x="478.34" y="0.01" width="1.44" height="19.56"/><rect class="cls-1" x="469.48" y="0.01" width="1.44" height="19.56"/><rect class="cls-1" x="460.62" y="0.01" width="1.44" height="19.56"/><rect class="cls-1" x="451.76" y="0.01" width="1.44" height="19.56"/><rect class="cls-1" x="442.9" y="0.01" width="1.44" height="19.56"/><rect class="cls-1" x="434.04" y="0.01" width="1.44" height="19.56"/><rect class="cls-1" x="425.19" y="0.01" width="1.44" height="19.56"/><rect class="cls-1" x="416.33" y="0.01" width="1.44" height="19.56"/><rect class="cls-1" x="407.47" y="0.01" width="1.44" height="19.56"/><rect class="cls-1" x="398.61" y="0.01" width="1.44" height="19.56"/><rect class="cls-1" x="389.75" y="0.01" width="1.44" height="19.56"/><rect class="cls-1" x="380.9" y="0.01" width="1.44" height="19.56"/><rect class="cls-1" x="372.04" y="0.01" width="1.44" height="19.56"/><rect class="cls-1" x="363.18" y="0.01" width="1.44" height="19.56"/><rect class="cls-1" x="354.32" y="0.01" width="1.44" height="19.56"/><rect class="cls-1" x="345.46" y="0.01" width="1.44" height="19.56"/><rect class="cls-1" x="336.61" y="0.01" width="1.44" height="19.56"/><rect class="cls-1" x="327.75" y="0.01" width="1.44" height="19.56"/><rect class="cls-1" x="318.89" y="0.01" width="1.44" height="19.56"/><rect class="cls-1" x="310.03" y="0.01" width="1.44" height="19.56"/><rect class="cls-1" x="301.17" y="0.01" width="1.44" height="19.56"/><rect class="cls-1" x="292.32" y="0.01" width="1.44" height="19.56"/><rect class="cls-1" x="283.46" y="0.01" width="1.44" height="19.56"/><rect class="cls-1" x="274.6" y="0.01" width="1.44" height="19.56"/><rect class="cls-1" x="265.74" y="0.01" width="1.44" height="19.56"/><rect class="cls-1" x="256.88" y="0.01" width="1.44" height="19.56"/><rect class="cls-1" x="248.02" y="0.01" width="1.44" height="19.56"/><rect class="cls-1" x="239.17" y="0.01" width="1.44" height="19.56"/><rect class="cls-1" x="230.31" y="0.01" width="1.44" height="19.56"/><rect class="cls-1" x="221.45" y="0.01" width="1.44" height="19.56"/><rect class="cls-1" x="212.59" y="0.01" width="1.44" height="19.56"/><rect class="cls-1" x="203.73" y="0.01" width="1.44" height="19.56"/><rect class="cls-1" x="194.88" y="0.01" width="1.44" height="19.56"/><rect class="cls-1" x="186.02" y="0.01" width="1.44" height="19.56"/><rect class="cls-1" x="177.16" y="0.01" width="1.44" height="19.56"/><rect class="cls-1" x="168.3" y="0.01" width="1.44" height="19.56"/><rect class="cls-1" x="159.44" y="0.01" width="1.44" height="19.56"/><rect class="cls-1" x="150.58" y="0.01" width="1.44" height="19.56"/><rect class="cls-1" x="141.73" y="0.01" width="1.44" height="19.56"/><rect class="cls-1" x="132.87" y="0.01" width="1.44" height="19.56"/><rect class="cls-1" x="124.01" y="0.01" width="1.44" height="19.56"/><rect class="cls-1" x="115.15" y="0.01" width="1.44" height="19.56"/><rect class="cls-1" x="106.29" y="0.01" width="1.44" height="19.56"/><rect class="cls-1" x="97.44" y="0.01" width="1.44" height="19.56"/><rect class="cls-1" x="88.58" y="0.01" width="1.44" height="19.56"/><rect class="cls-1" x="79.72" y="0.01" width="1.44" height="19.56"/><rect class="cls-1" x="70.86" y="0.01" width="1.44" height="19.56"/><rect class="cls-1" x="62.01" y="0.01" width="1.44" height="19.56"/><rect class="cls-1" x="53.15" y="0.01" width="1.44" height="19.56"/><rect class="cls-1" x="44.29" y="0.01" width="1.44" height="19.56"/><rect class="cls-1" x="35.43" y="0.01" width="1.44" height="19.56"/><rect class="cls-1" x="26.57" y="0.01" width="1.44" height="19.56"/><rect class="cls-1" x="17.72" y="0.01" width="1.44" height="19.56"/><rect class="cls-1" x="8.86" y="0.01" width="1.44" height="19.56"/></g></g></svg>