<svg xmlns="http://www.w3.org/2000/svg" viewBox="0 0 1064.41 19.57"><defs><style>.cls-1{fill:#fff;}</style></defs><g id="Layer_2" data-name="Layer 2"><g id="Layer_1-2" data-name="Layer 1"><rect width="1064.41" height="19.57"/><rect class="cls-1" x="1058.47" y="0.01" width="1.44" height="19.56"/><rect class="cls-1" x="1053.96" y="0.01" width="1.44" height="19.56"/><rect class="cls-1" x="1049.46" y="0.01" width="1.44" height="19.56"/><rect class="cls-1" x="1044.95" y="0.01" width="1.44" height="19.56"/><rect class="cls-1" x="1040.45" y="0.01" width="1.44" height="19.56"/><rect class="cls-1" x="1035.95" y="0.01" width="1.44" height="19.56"/><rect class="cls-1" x="1031.44" y="0.01" width="1.44" height="19.56"/><rect class="cls-1" x="1026.94" y="0.01" width="1.44" height="19.56"/><rect class="cls-1" x="1022.43" y="0.01" width="1.44" height="19.56"/><rect class="cls-1" x="1017.93" y="0.01" width="1.44" height="19.56"/><rect class="cls-1" x="1013.43" y="0.01" width="1.44" height="19.56"/><rect class="cls-1" x="1008.92" y="0.01" width="1.44" height="19.56"/><rect class="cls-1" x="1004.42" y="0.01" width="1.44" height="19.56"/><rect class="cls-1" x="999.91" y="0.01" width="1.44" height="19.56"/><rect class="cls-1" x="995.41" y="0.01" width="1.44" height="19.56"/><rect class="cls-1" x="990.9" y="0.01" width="1.44" height="19.56"/><rect class="cls-1" x="986.4" y="0.01" width="1.44" height="19.56"/><rect class="cls-1" x="981.9" y="0.01" width="1.44" height="19.56"/><rect class="cls-1" x="977.39" y="0.01" width="1.44" height="19.56"/><rect class="cls-1" x="972.89" y="0.01" width="1.44" height="19.56"/><rect class="cls-1" x="968.38" y="0.01" width="1.44" height="19.56"/><rect class="cls-1" x="963.88" y="0.01" width="1.44" height="19.56"/><rect class="cls-1" x="959.38" y="0.01" width="1.44" height="19.56"/><rect class="cls-1" x="954.87" y="0.01" width="1.44" height="19.56"/><rect class="cls-1" x="950.37" y="0.01" width="1.44" height="19.56"/><rect class="cls-1" x="945.86" y="0.01" width="1.44" height="19.56"/><rect class="cls-1" x="941.36" y="0.01" width="1.44" height="19.56"/><rect class="cls-1" x="936.86" y="0.01" width="1.44" height="19.56"/><rect class="cls-1" x="932.35" y="0.01" width="1.44" height="19.56"/><rect class="cls-1" x="927.85" y="0.01" width="1.44" height="19.56"/><rect class="cls-1" x="923.34" y="0.01" width="1.44" height="19.56"/><rect class="cls-1" x="918.84" y="0.01" width="1.44" height="19.56"/><rect class="cls-1" x="914.33" y="0.01" width="1.44" height="19.56"/><rect class="cls-1" x="909.83" y="0.01" width="1.44" height="19.56"/><rect class="cls-1" x="905.33" y="0.01" width="1.44" height="19.56"/><rect class="cls-1" x="900.82" y="0.01" width="1.44" height="19.56"/><rect class="cls-1" x="896.32" y="0.01" width="1.44" height="19.56"/><rect class="cls-1" x="891.81" y="0.01" width="1.44" height="19.56"/><rect class="cls-1" x="887.31" y="0.01" width="1.44" height="19.56"/><rect class="cls-1" x="882.81" y="0.01" width="1.44" height="19.56"/><rect class="cls-1" x="878.3" y="0.01" width="1.44" height="19.56"/><rect class="cls-1" x="873.8" y="0.01" width="1.44" height="19.56"/><rect class="cls-1" x="869.29" y="0.01" width="1.44" height="19.56"/><rect class="cls-1" x="864.79" y="0.01" width="1.44" height="19.56"/><rect class="cls-1" x="860.29" y="0.01" width="1.44" height="19.56"/><rect class="cls-1" x="855.78" y="0.01" width="1.44" height="19.56"/><rect class="cls-1" x="851.28" y="0.01" width="1.44" height="19.56"/><rect class="cls-1" x="846.77" y="0.01" width="1.44" height="19.56"/><rect class="cls-1" x="842.27" y="0.01" width="1.44" height="19.56"/><rect class="cls-1" x="837.76" y="0.01" width="1.44" height="19.56"/><rect class="cls-1" x="833.26" y="0.01" width="1.44" height="19.56"/><rect class="cls-1" x="828.76" y="0.01" width="1.44" height="19.56"/><rect class="cls-1" x="824.25" y="0.01" width="1.44" height="19.56"/><rect class="cls-1" x="819.75" y="0.01" width="1.44" height="19.56"/><rect class="cls-1" x="815.24" y="0.01" width="1.44" height="19.56"/><rect class="cls-1" x="810.74" y="0.01" width="1.44" height="19.56"/><rect class="cls-1" x="806.24" y="0.01" width="1.44" height="19.56"/><rect class="cls-1" x="801.73" y="0.01" width="1.44" height="19.56"/><rect class="cls-1" x="797.23" y="0.01" width="1.44" height="19.56"/><rect class="cls-1" x="792.72" y="0.01" width="1.44" height="19.56"/><rect class="cls-1" x="788.22" y="0.01" width="1.44" height="19.56"/><rect class="cls-1" x="783.71" y="0.01" width="1.44" height="19.56"/><rect class="cls-1" x="779.21" y="0.01" width="1.44" height="19.56"/><rect class="cls-1" x="774.71" y="0.01" width="1.44" height="19.56"/><rect class="cls-1" x="770.2" y="0.01" width="1.44" height="19.56"/><rect class="cls-1" x="765.7" y="0.01" width="1.44" height="19.56"/><rect class="cls-1" x="761.19" y="0.01" width="1.44" height="19.56"/><rect class="cls-1" x="756.69" y="0.01" width="1.44" height="19.56"/><rect class="cls-1" x="752.19" y="0.01" width="1.44" height="19.56"/><rect class="cls-1" x="747.68" y="0.01" width="1.44" height="19.56"/><rect class="cls-1" x="743.18" y="0.01" width="1.44" height="19.56"/><rect class="cls-1" x="738.67" y="0.01" width="1.44" height="19.56"/><rect class="cls-1" x="734.17" y="0.01" width="1.44" height="19.56"/><rect class="cls-1" x="729.67" y="0.01" width="1.44" height="19.56"/><rect class="cls-1" x="725.16" y="0.01" width="1.44" height="19.56"/><rect class="cls-1" x="720.66" y="0.01" width="1.44" height="19.56"/><rect class="cls-1" x="716.15" y="0.01" width="1.44" height="19.56"/><rect class="cls-1" x="711.65" y="0.01" width="1.44" height="19.56"/><rect class="cls-1" x="707.14" y="0.01" width="1.44" height="19.56"/><rect class="cls-1" x="702.64" y="0.01" width="1.44" height="19.56"/><rect class="cls-1" x="698.14" y="0.01" width="1.44" height="19.56"/><rect class="cls-1" x="693.63" y="0.01" width="1.44" height="19.56"/><rect class="cls-1" x="689.13" y="0.01" width="1.44" height="19.56"/><rect class="cls-1" x="684.62" y="0.01" width="1.44" height="19.56"/><rect class="cls-1" x="680.12" y="0.01" width="1.44" height="19.56"/><rect class="cls-1" x="675.62" y="0.01" width="1.44" height="19.56"/><rect class="cls-1" x="671.11" y="0.01" width="1.44" height="19.56"/><rect class="cls-1" x="666.61" y="0.01" width="1.44" height="19.56"/><rect class="cls-1" x="662.1" y="0.01" width="1.44" height="19.56"/><rect class="cls-1" x="657.6" y="0.01" width="1.44" height="19.56"/><rect class="cls-1" x="653.09" y="0.01" width="1.44" height="19.56"/><rect class="cls-1" x="648.59" y="0.01" width="1.44" height="19.56"/><rect class="cls-1" x="644.09" y="0.01" width="1.44" height="19.56"/><rect class="cls-1" x="639.58" y="0.01" width="1.44" height="19.56"/><rect class="cls-1" x="635.08" y="0.01" width="1.44" height="19.56"/><rect class="cls-1" x="630.57" y="0.01" width="1.44" height="19.56"/><rect class="cls-1" x="626.07" y="0.01" width="1.44" height="19.56"/><rect class="cls-1" x="621.57" y="0.01" width="1.44" height="19.56"/><rect class="cls-1" x="617.06" y="0.01" width="1.44" height="19.56"/><rect class="cls-1" x="612.56" y="0.01" width="1.44" height="19.56"/><rect class="cls-1" x="608.05" y="0.01" width="1.44" height="19.56"/><rect class="cls-1" x="603.55" y="0.01" width="1.44" height="19.56"/><rect class="cls-1" x="599.05" y="0.01" width="1.44" height="19.56"/><rect class="cls-1" x="594.54" y="0.01" width="1.44" height="19.56"/><rect class="cls-1" x="590.04" y="0.01" width="1.44" height="19.56"/><rect class="cls-1" x="585.53" y="0.01" width="1.44" height="19.56"/><rect class="cls-1" x="581.03" y="0.01" width="1.44" height="19.56"/><rect class="cls-1" x="576.52" y="0.01" width="1.44" height="19.56"/><rect class="cls-1" x="572.02" y="0.01" width="1.44" height="19.56"/><rect class="cls-1" x="567.52" y="0.01" width="1.44" height="19.56"/><rect class="cls-1" x="563.01" y="0.01" width="1.44" height="19.56"/><rect class="cls-1" x="558.51" y="0.01" width="1.44" height="19.56"/><rect class="cls-1" x="554" y="0.01" width="1.44" height="19.56"/><rect class="cls-1" x="549.5" y="0.01" width="1.44" height="19.56"/><rect class="cls-1" x="545" y="0.01" width="1.44" height="19.56"/><rect class="cls-1" x="540.49" y="0.01" width="1.44" height="19.56"/><rect class="cls-1" x="535.99" y="0.01" width="1.44" height="19.56"/><rect class="cls-1" x="531.48" y="0.01" width="1.44" height="19.56"/><rect class="cls-1" x="526.98" y="0.01" width="1.44" height="19.56"/><rect class="cls-1" x="522.48" y="0.01" width="1.44" height="19.56"/><rect class="cls-1" x="517.97" y="0.01" width="1.44" height="19.56"/><rect class="cls-1" x="513.47" y="0.01" width="1.44" height="19.56"/><rect class="cls-1" x="508.96" y="0.01" width="1.44" height="19.56"/><rect class="cls-1" x="504.46" y="0.01" width="1.44" height="19.56"/><rect class="cls-1" x="499.96" y="0.01" width="1.44" height="19.56"/><rect class="cls-1" x="495.45" y="0.01" width="1.44" height="19.56"/><rect class="cls-1" x="490.95" y="0.01" width="1.44" height="19.56"/><rect class="cls-1" x="486.44" y="0.01" width="1.44" height="19.56"/><rect class="cls-1" x="481.94" y="0.01" width="1.44" height="19.56"/><rect class="cls-1" x="477.43" y="0.01" width="1.44" height="19.56"/><rect class="cls-1" x="472.93" y="0.01" width="1.44" height="19.56"/><rect class="cls-1" x="468.43" y="0.01" width="1.44" height="19.56"/><rect class="cls-1" x="463.92" y="0.01" width="1.44" height="19.56"/><rect class="cls-1" x="459.42" y="0.01" width="1.44" height="19.56"/><rect class="cls-1" x="454.91" y="0.01" width="1.44" height="19.56"/><rect class="cls-1" x="450.41" y="0.01" width="1.44" height="19.56"/><rect class="cls-1" x="445.91" y="0.01" width="1.44" height="19.56"/><rect class="cls-1" x="441.4" y="0.01" width="1.44" height="19.56"/><rect class="cls-1" x="436.9" y="0.01" width="1.44" height="19.56"/><rect class="cls-1" x="432.39" y="0.01" width="1.44" height="19.56"/><rect class="cls-1" x="427.89" y="0.01" width="1.44" height="19.56"/><rect class="cls-1" x="423.38" y="0.01" width="1.44" height="19.56"/><rect class="cls-1" x="418.88" y="0.01" width="1.44" height="19.56"/><rect class="cls-1" x="414.38" y="0.01" width="1.44" height="19.56"/><rect class="cls-1" x="409.87" y="0.01" width="1.44" height="19.56"/><rect class="cls-1" x="405.37" y="0.01" width="1.44" height="19.56"/><rect class="cls-1" x="400.86" y="0.01" width="1.44" height="19.56"/><rect class="cls-1" x="396.36" y="0.01" width="1.44" height="19.56"/><rect class="cls-1" x="391.86" y="0.01" width="1.44" height="19.56"/><rect class="cls-1" x="387.35" y="0.01" width="1.44" height="19.56"/><rect class="cls-1" x="382.85" y="0.01" width="1.44" height="19.56"/><rect class="cls-1" x="378.34" y="0.01" width="1.44" height="19.56"/><rect class="cls-1" x="373.84" y="0.01" width="1.44" height="19.56"/><rect class="cls-1" x="369.33" y="0.01" width="1.44" height="19.56"/><rect class="cls-1" x="364.83" y="0.01" width="1.44" height="19.56"/><rect class="cls-1" x="360.33" y="0.01" width="1.44" height="19.56"/><rect class="cls-1" x="355.82" y="0.01" width="1.44" height="19.56"/><rect class="cls-1" x="351.32" y="0.01" width="1.44" height="19.56"/><rect class="cls-1" x="346.81" y="0.01" width="1.44" height="19.56"/><rect class="cls-1" x="342.31" y="0.01" width="1.44" height="19.56"/><rect class="cls-1" x="337.81" y="0.01" width="1.44" height="19.56"/><rect class="cls-1" x="333.3" y="0.01" width="1.44" height="19.56"/><rect class="cls-1" x="328.8" y="0.01" width="1.44" height="19.56"/><rect class="cls-1" x="324.29" y="0.01" width="1.44" height="19.56"/><rect class="cls-1" x="319.79" y="0.01" width="1.44" height="19.56"/><rect class="cls-1" x="315.29" y="0.01" width="1.44" height="19.56"/><rect class="cls-1" x="310.78" y="0.01" width="1.44" height="19.56"/><rect class="cls-1" x="306.28" y="0.01" width="1.44" height="19.56"/><rect class="cls-1" x="301.77" y="0.01" width="1.44" height="19.56"/><rect class="cls-1" x="297.27" y="0.01" width="1.44" height="19.56"/><rect class="cls-1" x="292.77" y="0.01" width="1.44" height="19.56"/><rect class="cls-1" x="288.26" y="0.01" width="1.44" height="19.56"/><rect class="cls-1" x="283.76" y="0.01" width="1.44" height="19.56"/><rect class="cls-1" x="279.25" y="0.01" width="1.44" height="19.56"/><rect class="cls-1" x="274.75" y="0.01" width="1.44" height="19.56"/><rect class="cls-1" x="270.25" y="0.01" width="1.44" height="19.56"/><rect class="cls-1" x="265.74" y="0.01" width="1.44" height="19.56"/><rect class="cls-1" x="261.24" y="0.01" width="1.44" height="19.56"/><rect class="cls-1" x="256.73" y="0.01" width="1.44" height="19.56"/><rect class="cls-1" x="252.23" y="0.01" width="1.44" height="19.56"/><rect class="cls-1" x="247.72" y="0.01" width="1.44" height="19.56"/><rect class="cls-1" x="243.22" y="0.01" width="1.44" height="19.56"/><rect class="cls-1" x="238.72" y="0.01" width="1.44" height="19.56"/><rect class="cls-1" x="234.21" y="0.01" width="1.44" height="19.56"/><rect class="cls-1" x="229.71" y="0.01" width="1.44" height="19.56"/><rect class="cls-1" x="225.2" y="0.01" width="1.44" height="19.56"/><rect class="cls-1" x="220.7" y="0.01" width="1.44" height="19.56"/><rect class="cls-1" x="216.2" y="0.01" width="1.44" height="19.56"/><rect class="cls-1" x="211.69" y="0.01" width="1.44" height="19.56"/><rect class="cls-1" x="207.19" y="0.01" width="1.44" height="19.56"/><rect class="cls-1" x="202.68" y="0.01" width="1.44" height="19.56"/><rect class="cls-1" x="198.18" y="0.01" width="1.44" height="19.56"/><rect class="cls-1" x="193.68" y="0.01" width="1.44" height="19.56"/><rect class="cls-1" x="189.17" y="0.01" width="1.44" height="19.56"/><rect class="cls-1" x="184.67" y="0.01" width="1.44" height="19.56"/><rect class="cls-1" x="180.16" y="0.01" width="1.44" height="19.56"/><rect class="cls-1" x="175.66" y="0.01" width="1.44" height="19.56"/><rect class="cls-1" x="171.15" y="0.01" width="1.44" height="19.56"/><rect class="cls-1" x="166.65" y="0.01" width="1.44" height="19.56"/><rect class="cls-1" x="162.15" y="0.01" width="1.44" height="19.56"/><rect class="cls-1" x="157.64" y="0.01" width="1.44" height="19.56"/><rect class="cls-1" x="153.14" y="0.01" width="1.44" height="19.56"/><rect class="cls-1" x="148.63" y="0.01" width="1.44" height="19.56"/><rect class="cls-1" x="144.13" y="0.01" width="1.44" height="19.56"/><rect class="cls-1" x="139.63" y="0.01" width="1.44" height="19.56"/><rect class="cls-1" x="135.12" y="0.01" width="1.44" height="19.56"/><rect class="cls-1" x="130.62" y="0.01" width="1.44" height="19.56"/><rect class="cls-1" x="126.11" y="0.01" width="1.44" height="19.56"/><rect class="cls-1" x="121.61" y="0.01" width="1.44" height="19.56"/><rect class="cls-1" x="117.1" y="0.01" width="1.44" height="19.56"/><rect class="cls-1" x="112.6" y="0.01" width="1.44" height="19.56"/><rect class="cls-1" x="108.1" y="0.01" width="1.44" height="19.56"/><rect class="cls-1" x="103.59" y="0.01" width="1.44" height="19.56"/><rect class="cls-1" x="99.09" y="0.01" width="1.44" height="19.56"/><rect class="cls-1" x="94.58" y="0.01" width="1.44" height="19.56"/><rect class="cls-1" x="90.08" y="0.01" width="1.44" height="19.56"/><rect class="cls-1" x="85.58" y="0.01" width="1.44" height="19.56"/><rect class="cls-1" x="81.07" y="0.01" width="1.44" height="19.56"/><rect class="cls-1" x="76.57" y="0.01" width="1.44" height="19.56"/><rect class="cls-1" x="72.06" y="0.01" width="1.44" height="19.56"/><rect class="cls-1" x="67.56" y="0.01" width="1.44" height="19.56"/><rect class="cls-1" x="63.06" y="0.01" width="1.44" height="19.56"/><rect class="cls-1" x="58.55" y="0.01" width="1.44" height="19.56"/><rect class="cls-1" x="54.05" y="0.01" width="1.44" height="19.56"/><rect class="cls-1" x="49.54" y="0.01" width="1.44" height="19.56"/><rect class="cls-1" x="45.04" y="0.01" width="1.44" height="19.56"/><rect class="cls-1" x="40.54" y="0.01" width="1.44" height="19.56"/><rect class="cls-1" x="36.03" y="0.01" width="1.44" height="19.56"/><rect class="cls-1" x="31.53" y="0.01" width="1.44" height="19.56"/><rect class="cls-1" x="27.02" y="0.01" width="1.44" height="19.56"/><rect class="cls-1" x="22.52" y="0.01" width="1.44" height="19.56"/><rect class="cls-1" x="18.02" y="0.01" width="1.44" height="19.56"/><rect class="cls-1" x="13.51" y="0.01" width="1.44" height="19.56"/><rect class="cls-1" x="9.01" y="0.01" width="1.44" height="19.56"/><rect class="cls-1" x="4.5" y="0.01" width="1.44" height="19.56"/></g></g></svg>