<svg xmlns="http://www.w3.org/2000/svg" viewBox="0 0 1064.41 19.57"><defs><style>.cls-1{fill:#fff;}</style></defs><g id="Layer_2" data-name="Layer 2"><g id="Layer_1-2" data-name="Layer 1"><rect width="1064.41" height="19.57"/><rect class="cls-1" x="1042.91" y="0.01" width="1.44" height="19.56"/><rect class="cls-1" x="1022.86" y="0.01" width="1.44" height="19.56"/><rect class="cls-1" x="1002.8" y="0.01" width="1.44" height="19.56"/><rect class="cls-1" x="982.75" y="0.01" width="1.44" height="19.56"/><rect class="cls-1" x="962.69" y="0.01" width="1.44" height="19.56"/><rect class="cls-1" x="942.63" y="0.01" width="1.44" height="19.56"/><rect class="cls-1" x="922.58" y="0.01" width="1.44" height="19.56"/><rect class="cls-1" x="902.52" y="0.01" width="1.44" height="19.56"/><rect class="cls-1" x="882.47" y="0.01" width="1.44" height="19.56"/><rect class="cls-1" x="862.41" y="0.01" width="1.44" height="19.56"/><rect class="cls-1" x="842.35" y="0.01" width="1.44" height="19.56"/><rect class="cls-1" x="822.3" y="0.01" width="1.44" height="19.56"/><rect class="cls-1" x="802.24" y="0.01" width="1.44" height="19.56"/><rect class="cls-1" x="782.19" y="0.01" width="1.44" height="19.56"/><rect class="cls-1" x="762.13" y="0.01" width="1.44" height="19.56"/><rect class="cls-1" x="742.07" y="0.01" width="1.44" height="19.56"/><rect class="cls-1" x="722.02" y="0.01" width="1.44" height="19.56"/><rect class="cls-1" x="701.96" y="0.01" width="1.44" height="19.56"/><rect class="cls-1" x="681.9" y="0.01" width="1.44" height="19.56"/><rect class="cls-1" x="661.85" y="0.01" width="1.44" height="19.56"/><rect class="cls-1" x="641.79" y="0.01" width="1.44" height="19.56"/><rect class="cls-1" x="621.74" y="0.01" width="1.44" height="19.56"/><rect class="cls-1" x="601.68" y="0.01" width="1.44" height="19.56"/><rect class="cls-1" x="581.62" y="0.01" width="1.44" height="19.56"/><rect class="cls-1" x="561.57" y="0.01" width="1.44" height="19.56"/><rect class="cls-1" x="541.51" y="0.01" width="1.44" height="19.56"/><rect class="cls-1" x="521.46" y="0.01" width="1.44" height="19.56"/><rect class="cls-1" x="501.4" y="0.01" width="1.44" height="19.56"/><rect class="cls-1" x="481.34" y="0.01" width="1.44" height="19.56"/><rect class="cls-1" x="461.29" y="0.01" width="1.44" height="19.56"/><rect class="cls-1" x="441.23" y="0.01" width="1.44" height="19.56"/><rect class="cls-1" x="421.18" y="0.01" width="1.44" height="19.56"/><rect class="cls-1" x="401.12" y="0.01" width="1.44" height="19.56"/><rect class="cls-1" x="381.06" y="0.01" width="1.44" height="19.56"/><rect class="cls-1" x="361.01" y="0.01" width="1.44" height="19.56"/><rect class="cls-1" x="340.95" y="0.01" width="1.44" height="19.56"/><rect class="cls-1" x="320.9" y="0.01" width="1.44" height="19.56"/><rect class="cls-1" x="300.84" y="0.01" width="1.44" height="19.56"/><rect class="cls-1" x="280.78" y="0.01" width="1.44" height="19.56"/><rect class="cls-1" x="260.73" y="0.01" width="1.44" height="19.56"/><rect class="cls-1" x="240.67" y="0.01" width="1.44" height="19.56"/><rect class="cls-1" x="220.62" y="0.01" width="1.44" height="19.56"/><rect class="cls-1" x="200.56" y="0.01" width="1.44" height="19.56"/><rect class="cls-1" x="180.5" y="0.01" width="1.44" height="19.56"/><rect class="cls-1" x="160.45" y="0.01" width="1.44" height="19.56"/><rect class="cls-1" x="140.39" y="0.01" width="1.44" height="19.56"/><rect class="cls-1" x="120.34" y="0.01" width="1.44" height="19.56"/><rect class="cls-1" x="100.28" y="0.01" width="1.44" height="19.56"/><rect class="cls-1" x="80.22" y="0.01" width="1.44" height="19.56"/><rect class="cls-1" x="60.17" y="0.01" width="1.44" height="19.56"/><rect class="cls-1" x="40.11" y="0.01" width="1.44" height="19.56"/><rect class="cls-1" x="20.06" y="0.01" width="1.44" height="19.56"/></g></g></svg>