<svg xmlns="http://www.w3.org/2000/svg" viewBox="0 0 1064.41 19.57"><defs><style>.cls-1{fill:#fff;}</style></defs><g id="Layer_2" data-name="Layer 2"><g id="Layer_1-2" data-name="Layer 1"><rect width="1064.41" height="19.57"/><rect class="cls-1" x="1028.68" y="0.01" width="1.44" height="19.56"/><rect class="cls-1" x="994.39" y="0.01" width="1.44" height="19.56"/><rect class="cls-1" x="960.1" y="0.01" width="1.44" height="19.56"/><rect class="cls-1" x="925.81" y="0.01" width="1.44" height="19.56"/><rect class="cls-1" x="891.52" y="0.01" width="1.44" height="19.56"/><rect class="cls-1" x="857.23" y="0.01" width="1.44" height="19.56"/><rect class="cls-1" x="822.95" y="0.01" width="1.44" height="19.56"/><rect class="cls-1" x="788.66" y="0.01" width="1.44" height="19.56"/><rect class="cls-1" x="754.37" y="0.01" width="1.44" height="19.56"/><rect class="cls-1" x="720.08" y="0.01" width="1.44" height="19.56"/><rect class="cls-1" x="685.79" y="0.01" width="1.44" height="19.56"/><rect class="cls-1" x="651.5" y="0.01" width="1.44" height="19.56"/><rect class="cls-1" x="617.21" y="0.01" width="1.44" height="19.56"/><rect class="cls-1" x="582.92" y="0.01" width="1.44" height="19.56"/><rect class="cls-1" x="548.63" y="0.01" width="1.44" height="19.56"/><rect class="cls-1" x="514.34" y="0.01" width="1.44" height="19.56"/><rect class="cls-1" x="480.05" y="0.01" width="1.44" height="19.56"/><rect class="cls-1" x="445.76" y="0.01" width="1.44" height="19.56"/><rect class="cls-1" x="411.47" y="0.01" width="1.44" height="19.56"/><rect class="cls-1" x="377.18" y="0.01" width="1.44" height="19.56"/><rect class="cls-1" x="342.89" y="0.01" width="1.44" height="19.56"/><rect class="cls-1" x="308.6" y="0.01" width="1.44" height="19.56"/><rect class="cls-1" x="274.32" y="0.01" width="1.44" height="19.56"/><rect class="cls-1" x="240.03" y="0.01" width="1.44" height="19.56"/><rect class="cls-1" x="205.74" y="0.01" width="1.44" height="19.56"/><rect class="cls-1" x="171.45" y="0.01" width="1.44" height="19.56"/><rect class="cls-1" x="137.16" y="0.01" width="1.44" height="19.56"/><rect class="cls-1" x="102.87" y="0.01" width="1.44" height="19.56"/><rect class="cls-1" x="68.58" y="0.01" width="1.44" height="19.56"/><rect class="cls-1" x="34.29" y="0.01" width="1.44" height="19.56"/></g></g></svg>