<svg xmlns="http://www.w3.org/2000/svg" viewBox="0 0 1064.41 19.59"><defs><style>.cls-1{fill:#fff;}</style></defs><g id="Layer_2" data-name="Layer 2"><g id="Layer_1-2" data-name="Layer 1"><rect y="0.01" width="1064.41" height="19.57"/><rect class="cls-1" x="911.13" width="1.44" height="19.59"/><rect class="cls-1" x="445.45" width="1.44" height="19.59"/><rect class="cls-1" x="860.51" width="1.44" height="19.59"/><rect class="cls-1" x="455.57" width="1.44" height="19.59"/><rect class="cls-1" x="870.64" width="1.44" height="19.59"/><rect class="cls-1" x="880.76" width="1.44" height="19.59"/><rect class="cls-1" x="465.7" width="1.44" height="19.59"/><rect class="cls-1" x="475.82" width="1.44" height="19.59"/><rect class="cls-1" x="485.94" width="1.44" height="19.59"/><rect class="cls-1" x="496.07" width="1.44" height="19.59"/><rect class="cls-1" x="506.19" width="1.44" height="19.59"/><rect class="cls-1" x="516.31" width="1.44" height="19.59"/><rect class="cls-1" x="526.44" width="1.44" height="19.59"/><rect class="cls-1" x="536.56" width="1.44" height="19.59"/><rect class="cls-1" x="890.88" width="1.44" height="19.59"/><rect class="cls-1" x="901" width="1.44" height="19.59"/><rect class="cls-1" x="546.69" width="1.44" height="19.59"/><rect class="cls-1" x="556.81" width="1.44" height="19.59"/><rect class="cls-1" x="566.93" width="1.44" height="19.59"/><rect class="cls-1" x="577.06" width="1.44" height="19.59"/><rect class="cls-1" x="921.25" width="1.44" height="19.59"/><rect class="cls-1" x="587.18" width="1.44" height="19.59"/><rect class="cls-1" x="597.31" width="1.44" height="19.59"/><rect class="cls-1" x="607.43" width="1.44" height="19.59"/><rect class="cls-1" x="617.55" width="1.44" height="19.59"/><rect class="cls-1" x="627.68" width="1.44" height="19.59"/><rect class="cls-1" x="637.8" width="1.44" height="19.59"/><rect class="cls-1" x="647.92" width="1.44" height="19.59"/><rect class="cls-1" x="931.37" width="1.44" height="19.59"/><rect class="cls-1" x="658.05" width="1.44" height="19.59"/><rect class="cls-1" x="668.17" width="1.44" height="19.59"/><rect class="cls-1" x="941.5" width="1.44" height="19.59"/><rect class="cls-1" x="678.3" width="1.44" height="19.59"/><rect class="cls-1" x="688.42" width="1.44" height="19.59"/><rect class="cls-1" x="759.29" width="1.44" height="19.59"/><rect class="cls-1" x="769.41" width="1.44" height="19.59"/><rect class="cls-1" x="779.53" width="1.44" height="19.59"/><rect class="cls-1" x="698.54" width="1.44" height="19.59"/><rect class="cls-1" x="789.65" width="1.44" height="19.59"/><rect class="cls-1" x="708.67" width="1.44" height="19.59"/><rect class="cls-1" x="718.79" width="1.44" height="19.59"/><rect class="cls-1" x="728.91" width="1.44" height="19.59"/><rect class="cls-1" x="739.04" width="1.44" height="19.59"/><rect class="cls-1" x="749.16" width="1.44" height="19.59"/><rect class="cls-1" x="10.12" width="1.44" height="19.59"/><rect class="cls-1" x="799.78" width="1.44" height="19.59"/><rect class="cls-1" x="809.9" width="1.44" height="19.59"/><rect class="cls-1" x="20.25" width="1.44" height="19.59"/><rect class="cls-1" x="30.37" width="1.44" height="19.59"/><rect class="cls-1" x="40.49" width="1.44" height="19.59"/><rect class="cls-1" x="50.62" width="1.44" height="19.59"/><rect class="cls-1" x="60.74" width="1.44" height="19.59"/><rect class="cls-1" x="70.87" width="1.44" height="19.59"/><rect class="cls-1" x="80.99" width="1.44" height="19.59"/><rect class="cls-1" x="91.11" width="1.44" height="19.59"/><rect class="cls-1" x="101.24" width="1.44" height="19.59"/><rect class="cls-1" x="111.36" width="1.44" height="19.59"/><rect class="cls-1" x="820.02" width="1.44" height="19.59"/><rect class="cls-1" x="121.49" width="1.44" height="19.59"/><rect class="cls-1" x="131.61" width="1.44" height="19.59"/><rect class="cls-1" x="830.15" width="1.44" height="19.59"/><rect class="cls-1" x="141.73" width="1.44" height="19.59"/><rect class="cls-1" x="151.86" width="1.44" height="19.59"/><rect class="cls-1" x="161.98" width="1.44" height="19.59"/><rect class="cls-1" x="172.1" width="1.44" height="19.59"/><rect class="cls-1" x="182.23" width="1.44" height="19.59"/><rect class="cls-1" x="192.35" width="1.44" height="19.59"/><rect class="cls-1" x="840.27" width="1.44" height="19.59"/><rect class="cls-1" x="202.48" width="1.44" height="19.59"/><rect class="cls-1" x="212.6" width="1.44" height="19.59"/><rect class="cls-1" x="850.39" width="1.44" height="19.59"/><rect class="cls-1" x="222.72" width="1.44" height="19.59"/><rect class="cls-1" x="951.62" width="1.44" height="19.59"/><rect class="cls-1" x="232.85" width="1.44" height="19.59"/><rect class="cls-1" x="961.74" width="1.44" height="19.59"/><rect class="cls-1" x="971.86" width="1.44" height="19.59"/><rect class="cls-1" x="242.97" width="1.44" height="19.59"/><rect class="cls-1" x="981.99" width="1.44" height="19.59"/><rect class="cls-1" x="253.1" width="1.44" height="19.59"/><rect class="cls-1" x="263.22" width="1.44" height="19.59"/><rect class="cls-1" x="273.34" width="1.44" height="19.59"/><rect class="cls-1" x="992.11" width="1.44" height="19.59"/><rect class="cls-1" x="283.47" width="1.44" height="19.59"/><rect class="cls-1" x="293.59" width="1.44" height="19.59"/><rect class="cls-1" x="1002.23" width="1.44" height="19.59"/><rect class="cls-1" x="303.71" width="1.44" height="19.59"/><rect class="cls-1" x="313.84" width="1.44" height="19.59"/><rect class="cls-1" x="1012.36" width="1.44" height="19.59"/><rect class="cls-1" x="1022.48" width="1.44" height="19.59"/><rect class="cls-1" x="1032.6" width="1.44" height="19.59"/><rect class="cls-1" x="323.96" width="1.44" height="19.59"/><rect class="cls-1" x="1042.72" width="1.44" height="19.59"/><rect class="cls-1" x="334.09" width="1.44" height="19.59"/><rect class="cls-1" x="344.21" width="1.44" height="19.59"/><rect class="cls-1" x="354.33" width="1.44" height="19.59"/><rect class="cls-1" x="364.46" width="1.44" height="19.59"/><rect class="cls-1" x="374.58" width="1.44" height="19.59"/><rect class="cls-1" x="384.7" width="1.44" height="19.59"/><rect class="cls-1" x="394.83" width="1.44" height="19.59"/><rect class="cls-1" x="404.95" width="1.44" height="19.59"/><rect class="cls-1" x="1052.85" width="1.44" height="19.59"/><rect class="cls-1" x="415.08" width="1.44" height="19.59"/><rect class="cls-1" x="425.2" width="1.44" height="19.59"/><rect class="cls-1" x="435.32" width="1.44" height="19.59"/></g></g></svg>