<svg xmlns="http://www.w3.org/2000/svg" viewBox="0 0 1064.41 19.57"><defs><style>.cls-1{fill:#fff;}</style></defs><g id="Layer_2" data-name="Layer 2"><g id="Layer_1-2" data-name="Layer 1"><rect width="1064.41" height="19.57"/><polygon class="cls-1" points="6.6 0.01 8.04 0.01 8.04 19.56 6.6 19.56 6.6 0.01"/><polygon class="cls-1" points="13.21 0.01 14.64 0.01 14.64 19.56 13.21 19.56 13.21 0.01"/><polygon class="cls-1" points="26.41 0.01 27.85 0.01 27.85 19.56 26.41 19.56 26.41 0.01"/><polygon class="cls-1" points="19.81 0.01 21.25 0.01 21.25 19.56 19.81 19.56 19.81 0.01"/><polygon class="cls-1" points="33.01 0.01 34.45 0.01 34.45 19.56 33.01 19.56 33.01 0.01"/><polygon class="cls-1" points="39.61 0.01 41.05 0.01 41.05 19.56 39.61 19.56 39.61 0.01"/><polygon class="cls-1" points="46.22 0.01 47.66 0.01 47.66 19.56 46.22 19.56 46.22 0.01"/><polygon class="cls-1" points="52.82 0.01 54.26 0.01 54.26 19.56 52.82 19.56 52.82 0.01"/><polygon class="cls-1" points="59.42 0.01 60.86 0.01 60.86 19.56 59.42 19.56 59.42 0.01"/><polygon class="cls-1" points="66.02 0.01 67.46 0.01 67.46 19.56 66.02 19.56 66.02 0.01"/><polygon class="cls-1" points="72.63 0.01 74.06 0.01 74.06 19.56 72.63 19.56 72.63 0.01"/><polygon class="cls-1" points="79.23 0.01 80.67 0.01 80.67 19.56 79.23 19.56 79.23 0.01"/><polygon class="cls-1" points="85.83 0.01 87.27 0.01 87.27 19.56 85.83 19.56 85.83 0.01"/><polygon class="cls-1" points="92.43 0.01 93.87 0.01 93.87 19.56 92.43 19.56 92.43 0.01"/><polygon class="cls-1" points="99.03 0.01 100.47 0.01 100.47 19.56 99.03 19.56 99.03 0.01"/><polygon class="cls-1" points="105.64 0.01 107.08 0.01 107.08 19.56 105.64 19.56 105.64 0.01"/><polygon class="cls-1" points="112.24 0.01 113.68 0.01 113.68 19.56 112.24 19.56 112.24 0.01"/><polygon class="cls-1" points="118.84 0.01 120.28 0.01 120.28 19.56 118.84 19.56 118.84 0.01"/><polygon class="cls-1" points="125.44 0.01 126.88 0.01 126.88 19.56 125.44 19.56 125.44 0.01"/><polygon class="cls-1" points="132.05 0.01 133.48 0.01 133.48 19.56 132.05 19.56 132.05 0.01"/><polygon class="cls-1" points="138.65 0.01 140.09 0.01 140.09 19.56 138.65 19.56 138.65 0.01"/><polygon class="cls-1" points="145.25 0.01 146.69 0.01 146.69 19.56 145.25 19.56 145.25 0.01"/><polygon class="cls-1" points="151.85 0.01 153.29 0.01 153.29 19.56 151.85 19.56 151.85 0.01"/><polygon class="cls-1" points="158.46 0.01 159.89 0.01 159.89 19.56 158.46 19.56 158.46 0.01"/><polygon class="cls-1" points="165.06 0.01 166.5 0.01 166.5 19.56 165.06 19.56 165.06 0.01"/><polygon class="cls-1" points="171.66 0.01 173.1 0.01 173.1 19.56 171.66 19.56 171.66 0.01"/><polygon class="cls-1" points="178.26 0.01 179.7 0.01 179.7 19.56 178.26 19.56 178.26 0.01"/><polygon class="cls-1" points="198.07 0.01 199.51 0.01 199.51 19.56 198.07 19.56 198.07 0.01"/><polygon class="cls-1" points="191.47 0.01 192.91 0.01 192.91 19.56 191.47 19.56 191.47 0.01"/><polygon class="cls-1" points="184.86 0.01 186.3 0.01 186.3 19.56 184.86 19.56 184.86 0.01"/><polygon class="cls-1" points="204.67 0.01 206.11 0.01 206.11 19.56 204.67 19.56 204.67 0.01"/><polygon class="cls-1" points="211.27 0.01 212.71 0.01 212.71 19.56 211.27 19.56 211.27 0.01"/><polygon class="cls-1" points="217.88 0.01 219.31 0.01 219.31 19.56 217.88 19.56 217.88 0.01"/><polygon class="cls-1" points="224.48 0.01 225.92 0.01 225.92 19.56 224.48 19.56 224.48 0.01"/><polygon class="cls-1" points="231.08 0.01 232.52 0.01 232.52 19.56 231.08 19.56 231.08 0.01"/><polygon class="cls-1" points="237.68 0.01 239.12 0.01 239.12 19.56 237.68 19.56 237.68 0.01"/><polygon class="cls-1" points="244.28 0.01 245.72 0.01 245.72 19.56 244.28 19.56 244.28 0.01"/><polygon class="cls-1" points="257.49 0.01 258.93 0.01 258.93 19.56 257.49 19.56 257.49 0.01"/><polygon class="cls-1" points="250.89 0.01 252.33 0.01 252.33 19.56 250.89 19.56 250.89 0.01"/><polygon class="cls-1" points="264.09 0.01 265.53 0.01 265.53 19.56 264.09 19.56 264.09 0.01"/><polygon class="cls-1" points="270.69 0.01 272.13 0.01 272.13 19.56 270.69 19.56 270.69 0.01"/><polygon class="cls-1" points="283.9 0.01 285.34 0.01 285.34 19.56 283.9 19.56 283.9 0.01"/><polygon class="cls-1" points="277.3 0.01 278.74 0.01 278.74 19.56 277.3 19.56 277.3 0.01"/><polygon class="cls-1" points="290.5 0.01 291.94 0.01 291.94 19.56 290.5 19.56 290.5 0.01"/><polygon class="cls-1" points="297.1 0.01 298.54 0.01 298.54 19.56 297.1 19.56 297.1 0.01"/><polygon class="cls-1" points="303.71 0.01 305.14 0.01 305.14 19.56 303.71 19.56 303.71 0.01"/><polygon class="cls-1" points="310.31 0.01 311.75 0.01 311.75 19.56 310.31 19.56 310.31 0.01"/><polygon class="cls-1" points="316.91 0.01 318.35 0.01 318.35 19.56 316.91 19.56 316.91 0.01"/><polygon class="cls-1" points="323.51 0.01 324.95 0.01 324.95 19.56 323.51 19.56 323.51 0.01"/><polygon class="cls-1" points="330.12 0.01 331.55 0.01 331.55 19.56 330.12 19.56 330.12 0.01"/><polygon class="cls-1" points="336.72 0.01 338.16 0.01 338.16 19.56 336.72 19.56 336.72 0.01"/><polygon class="cls-1" points="343.32 0.01 344.76 0.01 344.76 19.56 343.32 19.56 343.32 0.01"/><polygon class="cls-1" points="356.52 0.01 357.96 0.01 357.96 19.56 356.52 19.56 356.52 0.01"/><polygon class="cls-1" points="349.92 0.01 351.36 0.01 351.36 19.56 349.92 19.56 349.92 0.01"/><polygon class="cls-1" points="363.13 0.01 364.56 0.01 364.56 19.56 363.13 19.56 363.13 0.01"/><polygon class="cls-1" points="369.73 0.01 371.17 0.01 371.17 19.56 369.73 19.56 369.73 0.01"/><polygon class="cls-1" points="376.33 0.01 377.77 0.01 377.77 19.56 376.33 19.56 376.33 0.01"/><polygon class="cls-1" points="382.93 0.01 384.37 0.01 384.37 19.56 382.93 19.56 382.93 0.01"/><polygon class="cls-1" points="396.14 0.01 397.58 0.01 397.58 19.56 396.14 19.56 396.14 0.01"/><polygon class="cls-1" points="389.54 0.01 390.97 0.01 390.97 19.56 389.54 19.56 389.54 0.01"/><polygon class="cls-1" points="402.74 0.01 404.18 0.01 404.18 19.56 402.74 19.56 402.74 0.01"/><polygon class="cls-1" points="409.34 0.01 410.78 0.01 410.78 19.56 409.34 19.56 409.34 0.01"/><polygon class="cls-1" points="415.94 0.01 417.38 0.01 417.38 19.56 415.94 19.56 415.94 0.01"/><polygon class="cls-1" points="429.15 0.01 430.59 0.01 430.59 19.56 429.15 19.56 429.15 0.01"/><polygon class="cls-1" points="422.55 0.01 423.99 0.01 423.99 19.56 422.55 19.56 422.55 0.01"/><polygon class="cls-1" points="448.96 0.01 450.39 0.01 450.39 19.56 448.96 19.56 448.96 0.01"/><polygon class="cls-1" points="442.35 0.01 443.79 0.01 443.79 19.56 442.35 19.56 442.35 0.01"/><polygon class="cls-1" points="435.75 0.01 437.19 0.01 437.19 19.56 435.75 19.56 435.75 0.01"/><polygon class="cls-1" points="455.56 0.01 457 0.01 457 19.56 455.56 19.56 455.56 0.01"/><polygon class="cls-1" points="462.16 0.01 463.6 0.01 463.6 19.56 462.16 19.56 462.16 0.01"/><polygon class="cls-1" points="468.76 0.01 470.2 0.01 470.2 19.56 468.76 19.56 468.76 0.01"/><polygon class="cls-1" points="475.37 0.01 476.8 0.01 476.8 19.56 475.37 19.56 475.37 0.01"/><polygon class="cls-1" points="481.97 0.01 483.41 0.01 483.41 19.56 481.97 19.56 481.97 0.01"/><polygon class="cls-1" points="495.17 0.01 496.61 0.01 496.61 19.56 495.17 19.56 495.17 0.01"/><polygon class="cls-1" points="488.57 0.01 490.01 0.01 490.01 19.56 488.57 19.56 488.57 0.01"/><polygon class="cls-1" points="501.77 0.01 503.21 0.01 503.21 19.56 501.77 19.56 501.77 0.01"/><polygon class="cls-1" points="508.38 0.01 509.82 0.01 509.82 19.56 508.38 19.56 508.38 0.01"/><polygon class="cls-1" points="521.58 0.01 523.02 0.01 523.02 19.56 521.58 19.56 521.58 0.01"/><polygon class="cls-1" points="514.98 0.01 516.42 0.01 516.42 19.56 514.98 19.56 514.98 0.01"/><polygon class="cls-1" points="528.18 0.01 529.62 0.01 529.62 19.56 528.18 19.56 528.18 0.01"/><polygon class="cls-1" points="534.79 0.01 536.23 0.01 536.23 19.56 534.79 19.56 534.79 0.01"/><polygon class="cls-1" points="541.39 0.01 542.83 0.01 542.83 19.56 541.39 19.56 541.39 0.01"/><polygon class="cls-1" points="547.99 0.01 549.43 0.01 549.43 19.56 547.99 19.56 547.99 0.01"/><polygon class="cls-1" points="554.59 0.01 556.03 0.01 556.03 19.56 554.59 19.56 554.59 0.01"/><polygon class="cls-1" points="561.2 0.01 562.63 0.01 562.63 19.56 561.2 19.56 561.2 0.01"/><polygon class="cls-1" points="567.8 0.01 569.24 0.01 569.24 19.56 567.8 19.56 567.8 0.01"/><polygon class="cls-1" points="574.4 0.01 575.84 0.01 575.84 19.56 574.4 19.56 574.4 0.01"/><polygon class="cls-1" points="581 0.01 582.44 0.01 582.44 19.56 581 19.56 581 0.01"/><polygon class="cls-1" points="587.61 0.01 589.04 0.01 589.04 19.56 587.61 19.56 587.61 0.01"/><polygon class="cls-1" points="594.21 0.01 595.65 0.01 595.65 19.56 594.21 19.56 594.21 0.01"/><polygon class="cls-1" points="600.81 0.01 602.25 0.01 602.25 19.56 600.81 19.56 600.81 0.01"/><polygon class="cls-1" points="614.01 0.01 615.45 0.01 615.45 19.56 614.01 19.56 614.01 0.01"/><polygon class="cls-1" points="607.41 0.01 608.85 0.01 608.85 19.56 607.41 19.56 607.41 0.01"/><polygon class="cls-1" points="620.62 0.01 622.05 0.01 622.05 19.56 620.62 19.56 620.62 0.01"/><polygon class="cls-1" points="627.22 0.01 628.66 0.01 628.66 19.56 627.22 19.56 627.22 0.01"/><polygon class="cls-1" points="633.82 0.01 635.26 0.01 635.26 19.56 633.82 19.56 633.82 0.01"/><polygon class="cls-1" points="640.42 0.01 641.86 0.01 641.86 19.56 640.42 19.56 640.42 0.01"/><polygon class="cls-1" points="647.03 0.01 648.46 0.01 648.46 19.56 647.03 19.56 647.03 0.01"/><polygon class="cls-1" points="653.63 0.01 655.07 0.01 655.07 19.56 653.63 19.56 653.63 0.01"/><polygon class="cls-1" points="660.23 0.01 661.67 0.01 661.67 19.56 660.23 19.56 660.23 0.01"/><polygon class="cls-1" points="673.43 0.01 674.87 0.01 674.87 19.56 673.43 19.56 673.43 0.01"/><polygon class="cls-1" points="666.83 0.01 668.27 0.01 668.27 19.56 666.83 19.56 666.83 0.01"/><polygon class="cls-1" points="680.04 0.01 681.48 0.01 681.48 19.56 680.04 19.56 680.04 0.01"/><polygon class="cls-1" points="693.24 0.01 694.68 0.01 694.68 19.56 693.24 19.56 693.24 0.01"/><polygon class="cls-1" points="686.64 0.01 688.08 0.01 688.08 19.56 686.64 19.56 686.64 0.01"/><polygon class="cls-1" points="699.84 0.01 701.28 0.01 701.28 19.56 699.84 19.56 699.84 0.01"/><polygon class="cls-1" points="706.45 0.01 707.88 0.01 707.88 19.56 706.45 19.56 706.45 0.01"/><polygon class="cls-1" points="713.05 0.01 714.49 0.01 714.49 19.56 713.05 19.56 713.05 0.01"/><polygon class="cls-1" points="719.65 0.01 721.09 0.01 721.09 19.56 719.65 19.56 719.65 0.01"/><polygon class="cls-1" points="726.25 0.01 727.69 0.01 727.69 19.56 726.25 19.56 726.25 0.01"/><polygon class="cls-1" points="732.86 0.01 734.29 0.01 734.29 19.56 732.86 19.56 732.86 0.01"/><polygon class="cls-1" points="739.46 0.01 740.9 0.01 740.9 19.56 739.46 19.56 739.46 0.01"/><polygon class="cls-1" points="759.26 0.01 760.7 0.01 760.7 19.56 759.26 19.56 759.26 0.01"/><polygon class="cls-1" points="752.66 0.01 754.1 0.01 754.1 19.56 752.66 19.56 752.66 0.01"/><polygon class="cls-1" points="746.06 0.01 747.5 0.01 747.5 19.56 746.06 19.56 746.06 0.01"/><polygon class="cls-1" points="765.87 0.01 767.3 0.01 767.3 19.56 765.87 19.56 765.87 0.01"/><polygon class="cls-1" points="785.67 0.01 787.11 0.01 787.11 19.56 785.67 19.56 785.67 0.01"/><polygon class="cls-1" points="779.07 0.01 780.51 0.01 780.51 19.56 779.07 19.56 779.07 0.01"/><polygon class="cls-1" points="772.47 0.01 773.91 0.01 773.91 19.56 772.47 19.56 772.47 0.01"/><polygon class="cls-1" points="792.28 0.01 793.72 0.01 793.72 19.56 792.28 19.56 792.28 0.01"/><polygon class="cls-1" points="798.88 0.01 800.32 0.01 800.32 19.56 798.88 19.56 798.88 0.01"/><polygon class="cls-1" points="805.48 0.01 806.92 0.01 806.92 19.56 805.48 19.56 805.48 0.01"/><polygon class="cls-1" points="818.69 0.01 820.12 0.01 820.12 19.56 818.69 19.56 818.69 0.01"/><polygon class="cls-1" points="812.08 0.01 813.52 0.01 813.52 19.56 812.08 19.56 812.08 0.01"/><polygon class="cls-1" points="825.29 0.01 826.73 0.01 826.73 19.56 825.29 19.56 825.29 0.01"/><polygon class="cls-1" points="838.49 0.01 839.93 0.01 839.93 19.56 838.49 19.56 838.49 0.01"/><polygon class="cls-1" points="831.89 0.01 833.33 0.01 833.33 19.56 831.89 19.56 831.89 0.01"/><polygon class="cls-1" points="845.1 0.01 846.53 0.01 846.53 19.56 845.1 19.56 845.1 0.01"/><polygon class="cls-1" points="851.7 0.01 853.13 0.01 853.13 19.56 851.7 19.56 851.7 0.01"/><polygon class="cls-1" points="864.9 0.01 866.34 0.01 866.34 19.56 864.9 19.56 864.9 0.01"/><polygon class="cls-1" points="858.3 0.01 859.74 0.01 859.74 19.56 858.3 19.56 858.3 0.01"/><polygon class="cls-1" points="871.5 0.01 872.94 0.01 872.94 19.56 871.5 19.56 871.5 0.01"/><polygon class="cls-1" points="878.11 0.01 879.54 0.01 879.54 19.56 878.11 19.56 878.11 0.01"/><polygon class="cls-1" points="884.71 0.01 886.15 0.01 886.15 19.56 884.71 19.56 884.71 0.01"/><polygon class="cls-1" points="891.31 0.01 892.75 0.01 892.75 19.56 891.31 19.56 891.31 0.01"/><polygon class="cls-1" points="897.91 0.01 899.35 0.01 899.35 19.56 897.91 19.56 897.91 0.01"/><polygon class="cls-1" points="904.51 0.01 905.95 0.01 905.95 19.56 904.51 19.56 904.51 0.01"/><polygon class="cls-1" points="911.12 0.01 912.56 0.01 912.56 19.56 911.12 19.56 911.12 0.01"/><polygon class="cls-1" points="917.72 0.01 919.16 0.01 919.16 19.56 917.72 19.56 917.72 0.01"/><polygon class="cls-1" points="924.32 0.01 925.76 0.01 925.76 19.56 924.32 19.56 924.32 0.01"/><polygon class="cls-1" points="930.92 0.01 932.36 0.01 932.36 19.56 930.92 19.56 930.92 0.01"/><polygon class="cls-1" points="937.53 0.01 938.97 0.01 938.97 19.56 937.53 19.56 937.53 0.01"/><polygon class="cls-1" points="944.13 0.01 945.57 0.01 945.57 19.56 944.13 19.56 944.13 0.01"/><polygon class="cls-1" points="950.73 0.01 952.17 0.01 952.17 19.56 950.73 19.56 950.73 0.01"/><polygon class="cls-1" points="957.33 0.01 958.77 0.01 958.77 19.56 957.33 19.56 957.33 0.01"/><polygon class="cls-1" points="963.94 0.01 965.38 0.01 965.38 19.56 963.94 19.56 963.94 0.01"/><polygon class="cls-1" points="970.54 0.01 971.98 0.01 971.98 19.56 970.54 19.56 970.54 0.01"/><polygon class="cls-1" points="977.14 0.01 978.58 0.01 978.58 19.56 977.14 19.56 977.14 0.01"/><polygon class="cls-1" points="983.74 0.01 985.18 0.01 985.18 19.56 983.74 19.56 983.74 0.01"/><polygon class="cls-1" points="996.95 0.01 998.39 0.01 998.39 19.56 996.95 19.56 996.95 0.01"/><polygon class="cls-1" points="990.35 0.01 991.78 0.01 991.78 19.56 990.35 19.56 990.35 0.01"/><polygon class="cls-1" points="1003.55 0.01 1004.99 0.01 1004.99 19.56 1003.55 19.56 1003.55 0.01"/><polygon class="cls-1" points="1016.75 0.01 1018.19 0.01 1018.19 19.56 1016.75 19.56 1016.75 0.01"/><polygon class="cls-1" points="1010.15 0.01 1011.59 0.01 1011.59 19.56 1010.15 19.56 1010.15 0.01"/><polygon class="cls-1" points="1023.36 0.01 1024.8 0.01 1024.8 19.56 1023.36 19.56 1023.36 0.01"/><polygon class="cls-1" points="1029.96 0.01 1031.4 0.01 1031.4 19.56 1029.96 19.56 1029.96 0.01"/><polygon class="cls-1" points="1036.56 0.01 1038 0.01 1038 19.56 1036.56 19.56 1036.56 0.01"/><polygon class="cls-1" points="1043.16 0.01 1044.6 0.01 1044.6 19.56 1043.16 19.56 1043.16 0.01"/><polygon class="cls-1" points="1049.77 0.01 1051.2 0.01 1051.2 19.56 1049.77 19.56 1049.77 0.01"/><polygon class="cls-1" points="1056.37 0.01 1057.81 0.01 1057.81 19.56 1056.37 19.56 1056.37 0.01"/></g></g></svg>