<svg xmlns="http://www.w3.org/2000/svg" viewBox="0 0 1064.41 19.57"><defs><style>.cls-1{fill:#fff;}</style></defs><g id="Layer_2" data-name="Layer 2"><g id="Layer_1-2" data-name="Layer 1"><rect width="1064.41" height="19.57"/><rect class="cls-1" x="1048.8" y="0.01" width="1.44" height="19.56"/><rect class="cls-1" x="1034.63" y="0.01" width="1.44" height="19.56"/><rect class="cls-1" x="1020.45" y="0.01" width="1.44" height="19.56"/><rect class="cls-1" x="1006.28" y="0.01" width="1.44" height="19.56"/><rect class="cls-1" x="992.11" y="0.01" width="1.44" height="19.56"/><rect class="cls-1" x="977.93" y="0.01" width="1.44" height="19.56"/><rect class="cls-1" x="963.76" y="0.01" width="1.44" height="19.56"/><rect class="cls-1" x="949.59" y="0.01" width="1.44" height="19.56"/><rect class="cls-1" x="935.41" y="0.01" width="1.44" height="19.56"/><rect class="cls-1" x="921.24" y="0.01" width="1.44" height="19.56"/><rect class="cls-1" x="907.07" y="0.01" width="1.44" height="19.56"/><rect class="cls-1" x="892.89" y="0.01" width="1.44" height="19.56"/><rect class="cls-1" x="878.72" y="0.01" width="1.44" height="19.56"/><rect class="cls-1" x="864.55" y="0.01" width="1.44" height="19.56"/><rect class="cls-1" x="850.37" y="0.01" width="1.44" height="19.56"/><rect class="cls-1" x="836.2" y="0.01" width="1.44" height="19.56"/><rect class="cls-1" x="822.03" y="0.01" width="1.44" height="19.56"/><rect class="cls-1" x="807.85" y="0.01" width="1.44" height="19.56"/><rect class="cls-1" x="793.68" y="0.01" width="1.44" height="19.56"/><rect class="cls-1" x="779.51" y="0.01" width="1.44" height="19.56"/><rect class="cls-1" x="765.34" y="0.01" width="1.44" height="19.56"/><rect class="cls-1" x="751.16" y="0.01" width="1.44" height="19.56"/><rect class="cls-1" x="736.99" y="0.01" width="1.44" height="19.56"/><rect class="cls-1" x="722.82" y="0.01" width="1.44" height="19.56"/><rect class="cls-1" x="708.64" y="0.01" width="1.44" height="19.56"/><rect class="cls-1" x="694.47" y="0.01" width="1.44" height="19.56"/><rect class="cls-1" x="680.3" y="0.01" width="1.44" height="19.56"/><rect class="cls-1" x="666.13" y="0.01" width="1.44" height="19.56"/><rect class="cls-1" x="651.95" y="0.01" width="1.44" height="19.56"/><rect class="cls-1" x="637.78" y="0.01" width="1.44" height="19.56"/><rect class="cls-1" x="623.61" y="0.01" width="1.44" height="19.56"/><rect class="cls-1" x="609.44" y="0.01" width="1.44" height="19.56"/><rect class="cls-1" x="595.26" y="0.01" width="1.44" height="19.56"/><rect class="cls-1" x="581.09" y="0.01" width="1.44" height="19.56"/><rect class="cls-1" x="566.92" y="0.01" width="1.44" height="19.56"/><rect class="cls-1" x="552.74" y="0.01" width="1.44" height="19.56"/><rect class="cls-1" x="538.57" y="0.01" width="1.44" height="19.56"/><rect class="cls-1" x="524.4" y="0.01" width="1.44" height="19.56"/><rect class="cls-1" x="510.23" y="0.01" width="1.44" height="19.56"/><rect class="cls-1" x="496.05" y="0.01" width="1.44" height="19.56"/><rect class="cls-1" x="481.88" y="0.01" width="1.44" height="19.56"/><rect class="cls-1" x="467.71" y="0.01" width="1.44" height="19.56"/><rect class="cls-1" x="453.53" y="0.01" width="1.44" height="19.56"/><rect class="cls-1" x="439.36" y="0.01" width="1.44" height="19.56"/><rect class="cls-1" x="425.19" y="0.01" width="1.44" height="19.56"/><rect class="cls-1" x="411.01" y="0.01" width="1.44" height="19.56"/><rect class="cls-1" x="396.84" y="0.01" width="1.44" height="19.56"/><rect class="cls-1" x="382.67" y="0.01" width="1.44" height="19.56"/><rect class="cls-1" x="368.49" y="0.01" width="1.44" height="19.56"/><rect class="cls-1" x="354.32" y="0.01" width="1.44" height="19.56"/><rect class="cls-1" x="340.15" y="0.01" width="1.44" height="19.56"/><rect class="cls-1" x="325.98" y="0.01" width="1.44" height="19.56"/><rect class="cls-1" x="311.8" y="0.01" width="1.44" height="19.56"/><rect class="cls-1" x="297.63" y="0.01" width="1.44" height="19.56"/><rect class="cls-1" x="283.46" y="0.01" width="1.44" height="19.56"/><rect class="cls-1" x="269.29" y="0.01" width="1.44" height="19.56"/><rect class="cls-1" x="255.11" y="0.01" width="1.44" height="19.56"/><rect class="cls-1" x="240.94" y="0.01" width="1.44" height="19.56"/><rect class="cls-1" x="226.77" y="0.01" width="1.44" height="19.56"/><rect class="cls-1" x="212.59" y="0.01" width="1.44" height="19.56"/><rect class="cls-1" x="198.42" y="0.01" width="1.44" height="19.56"/><rect class="cls-1" x="184.25" y="0.01" width="1.44" height="19.56"/><rect class="cls-1" x="170.08" y="0.01" width="1.44" height="19.56"/><rect class="cls-1" x="155.9" y="0.01" width="1.44" height="19.56"/><rect class="cls-1" x="141.73" y="0.01" width="1.44" height="19.56"/><rect class="cls-1" x="127.56" y="0.01" width="1.44" height="19.56"/><rect class="cls-1" x="113.38" y="0.01" width="1.44" height="19.56"/><rect class="cls-1" x="99.21" y="0.01" width="1.44" height="19.56"/><rect class="cls-1" x="85.04" y="0.01" width="1.44" height="19.56"/><rect class="cls-1" x="70.87" y="0.01" width="1.44" height="19.56"/><rect class="cls-1" x="56.69" y="0.01" width="1.44" height="19.56"/><rect class="cls-1" x="42.52" y="0.01" width="1.44" height="19.56"/><rect class="cls-1" x="28.35" y="0.01" width="1.44" height="19.56"/><rect class="cls-1" x="14.17" y="0.01" width="1.44" height="19.56"/></g></g></svg>