<svg xmlns="http://www.w3.org/2000/svg" viewBox="0 0 1064.41 19.57"><defs><style>.cls-1{fill:#fff;}</style></defs><g id="Layer_2" data-name="Layer 2"><g id="Layer_1-2" data-name="Layer 1"><rect width="1064.41" height="19.57"/><rect class="cls-1" x="1037.66" y="0.01" width="1.44" height="19.56"/><rect class="cls-1" x="1012.35" y="0.01" width="1.44" height="19.56"/><rect class="cls-1" x="987.04" y="0.01" width="1.44" height="19.56"/><rect class="cls-1" x="961.74" y="0.01" width="1.44" height="19.56"/><rect class="cls-1" x="936.43" y="0.01" width="1.44" height="19.56"/><rect class="cls-1" x="911.12" y="0.01" width="1.44" height="19.56"/><rect class="cls-1" x="885.81" y="0.01" width="1.44" height="19.56"/><rect class="cls-1" x="860.5" y="0.01" width="1.44" height="19.56"/><rect class="cls-1" x="835.19" y="0.01" width="1.44" height="19.56"/><rect class="cls-1" x="809.88" y="0.01" width="1.44" height="19.56"/><rect class="cls-1" x="784.57" y="0.01" width="1.44" height="19.56"/><rect class="cls-1" x="759.27" y="0.01" width="1.44" height="19.56"/><rect class="cls-1" x="733.96" y="0.01" width="1.44" height="19.56"/><rect class="cls-1" x="708.65" y="0.01" width="1.44" height="19.56"/><rect class="cls-1" x="683.34" y="0.01" width="1.44" height="19.56"/><rect class="cls-1" x="658.03" y="0.01" width="1.44" height="19.56"/><rect class="cls-1" x="632.72" y="0.01" width="1.44" height="19.56"/><rect class="cls-1" x="607.41" y="0.01" width="1.44" height="19.56"/><rect class="cls-1" x="582.1" y="0.01" width="1.44" height="19.56"/><rect class="cls-1" x="556.79" y="0.01" width="1.44" height="19.56"/><rect class="cls-1" x="531.49" y="0.01" width="1.44" height="19.56"/><rect class="cls-1" x="506.18" y="0.01" width="1.44" height="19.56"/><rect class="cls-1" x="480.87" y="0.01" width="1.44" height="19.56"/><rect class="cls-1" x="455.56" y="0.01" width="1.44" height="19.56"/><rect class="cls-1" x="430.25" y="0.01" width="1.44" height="19.56"/><rect class="cls-1" x="404.94" y="0.01" width="1.44" height="19.56"/><rect class="cls-1" x="379.63" y="0.01" width="1.44" height="19.56"/><rect class="cls-1" x="354.32" y="0.01" width="1.44" height="19.56"/><rect class="cls-1" x="329.01" y="0.01" width="1.44" height="19.56"/><rect class="cls-1" x="303.71" y="0.01" width="1.44" height="19.56"/><rect class="cls-1" x="278.4" y="0.01" width="1.44" height="19.56"/><rect class="cls-1" x="253.09" y="0.01" width="1.44" height="19.56"/><rect class="cls-1" x="227.78" y="0.01" width="1.44" height="19.56"/><rect class="cls-1" x="202.47" y="0.01" width="1.44" height="19.56"/><rect class="cls-1" x="177.16" y="0.01" width="1.44" height="19.56"/><rect class="cls-1" x="151.85" y="0.01" width="1.44" height="19.56"/><rect class="cls-1" x="126.54" y="0.01" width="1.44" height="19.56"/><rect class="cls-1" x="101.24" y="0.01" width="1.44" height="19.56"/><rect class="cls-1" x="75.93" y="0.01" width="1.44" height="19.56"/><rect class="cls-1" x="50.62" y="0.01" width="1.44" height="19.56"/><rect class="cls-1" x="25.31" y="0.01" width="1.44" height="19.56"/></g></g></svg>