<svg xmlns="http://www.w3.org/2000/svg" viewBox="0 0 1064.41 19.57"><defs><style>.cls-1{fill:#fff;}</style></defs><g id="Layer_2" data-name="Layer 2"><g id="Layer_1-2" data-name="Layer 1"><rect width="1064.41" height="19.57"/><rect class="cls-1" x="1038.81" width="1.44" height="19.56"/><rect class="cls-1" x="1014.65" width="1.44" height="19.56"/><rect class="cls-1" x="990.5" width="1.44" height="19.56"/><rect class="cls-1" x="966.34" width="1.44" height="19.56"/><rect class="cls-1" x="942.18" width="1.44" height="19.56"/><rect class="cls-1" x="918.02" width="1.44" height="19.56"/><rect class="cls-1" x="893.86" width="1.44" height="19.56"/><rect class="cls-1" x="869.7" width="1.44" height="19.56"/><rect class="cls-1" x="845.54" width="1.44" height="19.56"/><rect class="cls-1" x="821.39" width="1.44" height="19.56"/><rect class="cls-1" x="797.23" width="1.44" height="19.56"/><rect class="cls-1" x="773.07" width="1.44" height="19.56"/><rect class="cls-1" x="748.91" width="1.44" height="19.56"/><rect class="cls-1" x="724.75" width="1.44" height="19.56"/><rect class="cls-1" x="700.59" width="1.44" height="19.56"/><rect class="cls-1" x="676.44" width="1.44" height="19.56"/><rect class="cls-1" x="652.28" width="1.44" height="19.56"/><rect class="cls-1" x="628.12" width="1.44" height="19.56"/><rect class="cls-1" x="603.96" width="1.44" height="19.56"/><rect class="cls-1" x="579.8" width="1.44" height="19.56"/><rect class="cls-1" x="555.64" width="1.44" height="19.56"/><rect class="cls-1" x="531.48" width="1.44" height="19.56"/><rect class="cls-1" x="507.33" width="1.44" height="19.56"/><rect class="cls-1" x="483.17" width="1.44" height="19.56"/><rect class="cls-1" x="459.01" width="1.44" height="19.56"/><rect class="cls-1" x="434.85" width="1.44" height="19.56"/><rect class="cls-1" x="410.69" width="1.44" height="19.56"/><rect class="cls-1" x="386.53" width="1.44" height="19.56"/><rect class="cls-1" x="362.38" width="1.44" height="19.56"/><rect class="cls-1" x="338.22" width="1.44" height="19.56"/><rect class="cls-1" x="314.06" width="1.44" height="19.56"/><rect class="cls-1" x="289.9" width="1.44" height="19.56"/><rect class="cls-1" x="265.74" width="1.44" height="19.56"/><rect class="cls-1" x="241.58" width="1.44" height="19.56"/><rect class="cls-1" x="217.43" width="1.44" height="19.56"/><rect class="cls-1" x="193.27" width="1.44" height="19.56"/><rect class="cls-1" x="169.11" width="1.44" height="19.56"/><rect class="cls-1" x="144.95" width="1.44" height="19.56"/><rect class="cls-1" x="120.79" width="1.44" height="19.56"/><rect class="cls-1" x="96.63" width="1.44" height="19.56"/><rect class="cls-1" x="72.48" width="1.44" height="19.56"/><rect class="cls-1" x="48.32" width="1.44" height="19.56"/><rect class="cls-1" x="24.16" width="1.44" height="19.56"/></g></g></svg>