<svg xmlns="http://www.w3.org/2000/svg" viewBox="0 0 1064.41 19.57"><defs><style>.cls-1{fill:#fff;}</style></defs><g id="Layer_2" data-name="Layer 2"><g id="Layer_1-2" data-name="Layer 1"><rect width="1064.41" height="19.57"/><rect class="cls-1" x="1054.98" y="0.01" width="1.44" height="19.56"/><rect class="cls-1" x="1046.99" y="0.01" width="1.44" height="19.56"/><rect class="cls-1" x="1038.99" y="0.01" width="1.44" height="19.56"/><rect class="cls-1" x="1031" y="0.01" width="1.44" height="19.56"/><rect class="cls-1" x="1023.01" y="0.01" width="1.44" height="19.56"/><rect class="cls-1" x="1015.02" y="0.01" width="1.44" height="19.56"/><rect class="cls-1" x="1007.02" y="0.01" width="1.44" height="19.56"/><rect class="cls-1" x="999.03" y="0.01" width="1.44" height="19.56"/><rect class="cls-1" x="991.04" y="0.01" width="1.44" height="19.56"/><rect class="cls-1" x="983.05" y="0.01" width="1.44" height="19.56"/><rect class="cls-1" x="975.06" y="0.01" width="1.44" height="19.56"/><rect class="cls-1" x="967.06" y="0.01" width="1.44" height="19.56"/><rect class="cls-1" x="959.07" y="0.01" width="1.44" height="19.56"/><rect class="cls-1" x="951.08" y="0.01" width="1.44" height="19.56"/><rect class="cls-1" x="943.09" y="0.01" width="1.44" height="19.56"/><rect class="cls-1" x="935.09" y="0.01" width="1.44" height="19.56"/><rect class="cls-1" x="927.1" y="0.01" width="1.44" height="19.56"/><rect class="cls-1" x="919.11" y="0.01" width="1.44" height="19.56"/><rect class="cls-1" x="911.12" y="0.01" width="1.44" height="19.56"/><rect class="cls-1" x="903.13" y="0.01" width="1.44" height="19.56"/><rect class="cls-1" x="895.13" y="0.01" width="1.44" height="19.56"/><rect class="cls-1" x="887.14" y="0.01" width="1.44" height="19.56"/><rect class="cls-1" x="879.15" y="0.01" width="1.44" height="19.56"/><rect class="cls-1" x="871.16" y="0.01" width="1.44" height="19.56"/><rect class="cls-1" x="863.16" y="0.01" width="1.44" height="19.56"/><rect class="cls-1" x="855.17" y="0.01" width="1.44" height="19.56"/><rect class="cls-1" x="847.18" y="0.01" width="1.44" height="19.56"/><rect class="cls-1" x="839.19" y="0.01" width="1.44" height="19.56"/><rect class="cls-1" x="831.19" y="0.01" width="1.44" height="19.56"/><rect class="cls-1" x="823.2" y="0.01" width="1.44" height="19.56"/><rect class="cls-1" x="815.21" y="0.01" width="1.44" height="19.56"/><rect class="cls-1" x="807.22" y="0.01" width="1.44" height="19.56"/><rect class="cls-1" x="799.23" y="0.01" width="1.44" height="19.56"/><rect class="cls-1" x="791.23" y="0.01" width="1.44" height="19.56"/><rect class="cls-1" x="783.24" y="0.01" width="1.44" height="19.56"/><rect class="cls-1" x="775.25" y="0.01" width="1.44" height="19.56"/><rect class="cls-1" x="767.26" y="0.01" width="1.44" height="19.56"/><rect class="cls-1" x="759.26" y="0.01" width="1.44" height="19.56"/><rect class="cls-1" x="751.27" y="0.01" width="1.44" height="19.56"/><rect class="cls-1" x="743.28" y="0.01" width="1.44" height="19.56"/><rect class="cls-1" x="735.29" y="0.01" width="1.44" height="19.56"/><rect class="cls-1" x="727.29" y="0.01" width="1.44" height="19.56"/><rect class="cls-1" x="719.3" y="0.01" width="1.44" height="19.56"/><rect class="cls-1" x="711.31" y="0.01" width="1.44" height="19.56"/><rect class="cls-1" x="703.32" y="0.01" width="1.44" height="19.56"/><rect class="cls-1" x="695.33" y="0.01" width="1.44" height="19.56"/><rect class="cls-1" x="687.33" y="0.01" width="1.44" height="19.56"/><rect class="cls-1" x="679.34" y="0.01" width="1.44" height="19.56"/><rect class="cls-1" x="671.35" y="0.01" width="1.44" height="19.56"/><rect class="cls-1" x="663.36" y="0.01" width="1.44" height="19.56"/><rect class="cls-1" x="655.36" y="0.01" width="1.44" height="19.56"/><rect class="cls-1" x="647.37" y="0.01" width="1.44" height="19.56"/><rect class="cls-1" x="639.38" y="0.01" width="1.44" height="19.56"/><rect class="cls-1" x="631.39" y="0.01" width="1.44" height="19.56"/><rect class="cls-1" x="623.39" y="0.01" width="1.44" height="19.56"/><rect class="cls-1" x="615.4" y="0.01" width="1.44" height="19.56"/><rect class="cls-1" x="607.41" y="0.01" width="1.44" height="19.56"/><rect class="cls-1" x="599.42" y="0.01" width="1.44" height="19.56"/><rect class="cls-1" x="591.43" y="0.01" width="1.44" height="19.56"/><rect class="cls-1" x="583.43" y="0.01" width="1.44" height="19.56"/><rect class="cls-1" x="575.44" y="0.01" width="1.44" height="19.56"/><rect class="cls-1" x="567.45" y="0.01" width="1.44" height="19.56"/><rect class="cls-1" x="559.46" y="0.01" width="1.44" height="19.56"/><rect class="cls-1" x="551.46" y="0.01" width="1.44" height="19.56"/><rect class="cls-1" x="543.47" y="0.01" width="1.44" height="19.56"/><rect class="cls-1" x="535.48" y="0.01" width="1.44" height="19.56"/><rect class="cls-1" x="527.49" y="0.01" width="1.44" height="19.56"/><rect class="cls-1" x="519.49" y="0.01" width="1.44" height="19.56"/><rect class="cls-1" x="511.5" y="0.01" width="1.44" height="19.56"/><rect class="cls-1" x="503.51" y="0.01" width="1.44" height="19.56"/><rect class="cls-1" x="495.52" y="0.01" width="1.44" height="19.56"/><rect class="cls-1" x="487.53" y="0.01" width="1.44" height="19.56"/><rect class="cls-1" x="479.53" y="0.01" width="1.44" height="19.56"/><rect class="cls-1" x="471.54" y="0.01" width="1.44" height="19.56"/><rect class="cls-1" x="463.55" y="0.01" width="1.44" height="19.56"/><rect class="cls-1" x="455.56" y="0.01" width="1.44" height="19.56"/><rect class="cls-1" x="447.56" y="0.01" width="1.44" height="19.56"/><rect class="cls-1" x="439.57" y="0.01" width="1.44" height="19.56"/><rect class="cls-1" x="431.58" y="0.01" width="1.44" height="19.56"/><rect class="cls-1" x="423.59" y="0.01" width="1.44" height="19.56"/><rect class="cls-1" x="415.6" y="0.01" width="1.44" height="19.56"/><rect class="cls-1" x="407.6" y="0.01" width="1.44" height="19.56"/><rect class="cls-1" x="399.61" y="0.01" width="1.44" height="19.56"/><rect class="cls-1" x="391.62" y="0.01" width="1.44" height="19.56"/><rect class="cls-1" x="383.63" y="0.01" width="1.44" height="19.56"/><rect class="cls-1" x="375.63" y="0.01" width="1.44" height="19.56"/><rect class="cls-1" x="367.64" y="0.01" width="1.44" height="19.56"/><rect class="cls-1" x="359.65" y="0.01" width="1.44" height="19.56"/><rect class="cls-1" x="351.66" y="0.01" width="1.44" height="19.56"/><rect class="cls-1" x="343.67" y="0.01" width="1.44" height="19.56"/><rect class="cls-1" x="335.67" y="0.01" width="1.44" height="19.56"/><rect class="cls-1" x="327.68" y="0.01" width="1.44" height="19.56"/><rect class="cls-1" x="319.69" y="0.01" width="1.44" height="19.56"/><rect class="cls-1" x="311.7" y="0.01" width="1.44" height="19.56"/><rect class="cls-1" x="303.71" y="0.01" width="1.44" height="19.56"/><rect class="cls-1" x="295.71" y="0.01" width="1.44" height="19.56"/><rect class="cls-1" x="287.72" y="0.01" width="1.44" height="19.56"/><rect class="cls-1" x="279.73" y="0.01" width="1.44" height="19.56"/><rect class="cls-1" x="271.74" y="0.01" width="1.44" height="19.56"/><rect class="cls-1" x="263.74" y="0.01" width="1.44" height="19.56"/><rect class="cls-1" x="255.75" y="0.01" width="1.44" height="19.56"/><rect class="cls-1" x="247.76" y="0.01" width="1.44" height="19.56"/><rect class="cls-1" x="239.77" y="0.01" width="1.44" height="19.56"/><rect class="cls-1" x="231.78" y="0.01" width="1.44" height="19.56"/><rect class="cls-1" x="223.78" y="0.01" width="1.44" height="19.56"/><rect class="cls-1" x="215.79" y="0.01" width="1.44" height="19.56"/><rect class="cls-1" x="207.8" y="0.01" width="1.44" height="19.56"/><rect class="cls-1" x="199.81" y="0.01" width="1.44" height="19.56"/><rect class="cls-1" x="191.81" y="0.01" width="1.44" height="19.56"/><rect class="cls-1" x="183.82" y="0.01" width="1.44" height="19.56"/><rect class="cls-1" x="175.83" y="0.01" width="1.44" height="19.56"/><rect class="cls-1" x="167.84" y="0.01" width="1.44" height="19.56"/><rect class="cls-1" x="159.84" y="0.01" width="1.44" height="19.56"/><rect class="cls-1" x="151.85" y="0.01" width="1.44" height="19.56"/><rect class="cls-1" x="143.86" y="0.01" width="1.44" height="19.56"/><rect class="cls-1" x="135.87" y="0.01" width="1.44" height="19.56"/><rect class="cls-1" x="127.87" y="0.01" width="1.44" height="19.56"/><rect class="cls-1" x="119.88" y="0.01" width="1.44" height="19.56"/><rect class="cls-1" x="111.89" y="0.01" width="1.44" height="19.56"/><rect class="cls-1" x="103.9" y="0.01" width="1.44" height="19.56"/><rect class="cls-1" x="95.91" y="0.01" width="1.44" height="19.56"/><rect class="cls-1" x="87.91" y="0.01" width="1.44" height="19.56"/><rect class="cls-1" x="79.92" y="0.01" width="1.44" height="19.56"/><rect class="cls-1" x="71.93" y="0.01" width="1.44" height="19.56"/><rect class="cls-1" x="63.94" y="0.01" width="1.44" height="19.56"/><rect class="cls-1" x="55.95" y="0.01" width="1.44" height="19.56"/><rect class="cls-1" x="47.95" y="0.01" width="1.44" height="19.56"/><rect class="cls-1" x="39.96" y="0.01" width="1.44" height="19.56"/><rect class="cls-1" x="31.97" y="0.01" width="1.44" height="19.56"/><rect class="cls-1" x="23.98" y="0.01" width="1.44" height="19.56"/><rect class="cls-1" x="15.98" y="0.01" width="1.44" height="19.56"/><rect class="cls-1" x="7.99" y="0.01" width="1.44" height="19.56"/></g></g></svg>