<svg xmlns="http://www.w3.org/2000/svg" viewBox="0 0 1064.41 19.57"><defs><style>.cls-1{fill:#fff;}</style></defs><g id="Layer_2" data-name="Layer 2"><g id="Layer_1-2" data-name="Layer 1"><rect width="1064.41" height="19.57"/><rect class="cls-1" x="1052.45" y="0.01" width="1.44" height="19.56"/><rect class="cls-1" x="1041.92" y="0.01" width="1.44" height="19.56"/><rect class="cls-1" x="1031.4" y="0.01" width="1.44" height="19.56"/><rect class="cls-1" x="1020.87" y="0.01" width="1.44" height="19.56"/><rect class="cls-1" x="1010.35" y="0.01" width="1.44" height="19.56"/><rect class="cls-1" x="999.82" y="0.01" width="1.44" height="19.56"/><rect class="cls-1" x="989.3" y="0.01" width="1.44" height="19.56"/><rect class="cls-1" x="978.77" y="0.01" width="1.44" height="19.56"/><rect class="cls-1" x="968.25" y="0.01" width="1.44" height="19.56"/><rect class="cls-1" x="957.73" y="0.01" width="1.44" height="19.56"/><rect class="cls-1" x="947.2" y="0.01" width="1.44" height="19.56"/><rect class="cls-1" x="936.68" y="0.01" width="1.44" height="19.56"/><rect class="cls-1" x="926.15" y="0.01" width="1.44" height="19.56"/><rect class="cls-1" x="915.63" y="0.01" width="1.44" height="19.56"/><rect class="cls-1" x="905.1" y="0.01" width="1.44" height="19.56"/><rect class="cls-1" x="894.58" y="0.01" width="1.44" height="19.56"/><rect class="cls-1" x="884.06" y="0.01" width="1.44" height="19.56"/><rect class="cls-1" x="873.53" y="0.01" width="1.44" height="19.56"/><rect class="cls-1" x="863.01" y="0.01" width="1.44" height="19.56"/><rect class="cls-1" x="852.48" y="0.01" width="1.44" height="19.56"/><rect class="cls-1" x="841.96" y="0.01" width="1.44" height="19.56"/><rect class="cls-1" x="831.43" y="0.01" width="1.44" height="19.56"/><rect class="cls-1" x="820.91" y="0.01" width="1.44" height="19.56"/><rect class="cls-1" x="810.38" y="0.01" width="1.44" height="19.56"/><rect class="cls-1" x="799.86" y="0.01" width="1.44" height="19.56"/><rect class="cls-1" x="789.34" y="0.01" width="1.44" height="19.56"/><rect class="cls-1" x="778.81" y="0.01" width="1.44" height="19.56"/><rect class="cls-1" x="768.29" y="0.01" width="1.44" height="19.56"/><rect class="cls-1" x="757.76" y="0.01" width="1.44" height="19.56"/><rect class="cls-1" x="747.24" y="0.01" width="1.44" height="19.56"/><rect class="cls-1" x="736.71" y="0.01" width="1.44" height="19.56"/><rect class="cls-1" x="726.19" y="0.01" width="1.44" height="19.56"/><rect class="cls-1" x="715.66" y="0.01" width="1.44" height="19.56"/><rect class="cls-1" x="705.14" y="0.01" width="1.44" height="19.56"/><rect class="cls-1" x="694.61" y="0.01" width="1.44" height="19.56"/><rect class="cls-1" x="684.09" y="0.01" width="1.44" height="19.56"/><rect class="cls-1" x="673.57" y="0.01" width="1.44" height="19.56"/><rect class="cls-1" x="663.04" y="0.01" width="1.44" height="19.56"/><rect class="cls-1" x="652.52" y="0.01" width="1.44" height="19.56"/><rect class="cls-1" x="641.99" y="0.01" width="1.44" height="19.56"/><rect class="cls-1" x="631.47" y="0.01" width="1.44" height="19.56"/><rect class="cls-1" x="620.94" y="0.01" width="1.44" height="19.56"/><rect class="cls-1" x="610.42" y="0.01" width="1.44" height="19.56"/><rect class="cls-1" x="599.89" y="0.01" width="1.44" height="19.56"/><rect class="cls-1" x="589.37" y="0.01" width="1.44" height="19.56"/><rect class="cls-1" x="578.85" y="0.01" width="1.44" height="19.56"/><rect class="cls-1" x="568.32" y="0.01" width="1.44" height="19.56"/><rect class="cls-1" x="557.8" y="0.01" width="1.44" height="19.56"/><rect class="cls-1" x="547.27" y="0.01" width="1.44" height="19.56"/><rect class="cls-1" x="536.75" y="0.01" width="1.44" height="19.56"/><rect class="cls-1" x="526.22" y="0.01" width="1.44" height="19.56"/><rect class="cls-1" x="515.7" y="0.01" width="1.44" height="19.56"/><rect class="cls-1" x="505.17" y="0.01" width="1.44" height="19.56"/><rect class="cls-1" x="494.65" y="0.01" width="1.44" height="19.56"/><rect class="cls-1" x="484.12" y="0.01" width="1.44" height="19.56"/><rect class="cls-1" x="473.6" y="0.01" width="1.44" height="19.56"/><rect class="cls-1" x="463.08" y="0.01" width="1.44" height="19.56"/><rect class="cls-1" x="452.55" y="0.01" width="1.44" height="19.56"/><rect class="cls-1" x="442.03" y="0.01" width="1.44" height="19.56"/><rect class="cls-1" x="431.5" y="0.01" width="1.44" height="19.56"/><rect class="cls-1" x="420.98" y="0.01" width="1.44" height="19.56"/><rect class="cls-1" x="410.45" y="0.01" width="1.44" height="19.56"/><rect class="cls-1" x="399.93" y="0.01" width="1.44" height="19.56"/><rect class="cls-1" x="389.4" y="0.01" width="1.44" height="19.56"/><rect class="cls-1" x="378.88" y="0.01" width="1.44" height="19.56"/><rect class="cls-1" x="368.36" y="0.01" width="1.44" height="19.56"/><rect class="cls-1" x="357.83" y="0.01" width="1.44" height="19.56"/><rect class="cls-1" x="347.31" y="0.01" width="1.44" height="19.56"/><rect class="cls-1" x="336.78" y="0.01" width="1.44" height="19.56"/><rect class="cls-1" x="326.26" y="0.01" width="1.44" height="19.56"/><rect class="cls-1" x="315.73" y="0.01" width="1.44" height="19.56"/><rect class="cls-1" x="305.21" y="0.01" width="1.44" height="19.56"/><rect class="cls-1" x="294.68" y="0.01" width="1.44" height="19.56"/><rect class="cls-1" x="284.16" y="0.01" width="1.44" height="19.56"/><rect class="cls-1" x="273.63" y="0.01" width="1.44" height="19.56"/><rect class="cls-1" x="263.11" y="0.01" width="1.44" height="19.56"/><rect class="cls-1" x="252.59" y="0.01" width="1.44" height="19.56"/><rect class="cls-1" x="242.06" y="0.01" width="1.44" height="19.56"/><rect class="cls-1" x="231.54" y="0.01" width="1.44" height="19.56"/><rect class="cls-1" x="221.01" y="0.01" width="1.44" height="19.56"/><rect class="cls-1" x="210.49" y="0.01" width="1.44" height="19.56"/><rect class="cls-1" x="199.96" y="0.01" width="1.44" height="19.56"/><rect class="cls-1" x="189.44" y="0.01" width="1.44" height="19.56"/><rect class="cls-1" x="178.91" y="0.01" width="1.44" height="19.56"/><rect class="cls-1" x="168.39" y="0.01" width="1.44" height="19.56"/><rect class="cls-1" x="157.87" y="0.01" width="1.44" height="19.56"/><rect class="cls-1" x="147.34" y="0.01" width="1.44" height="19.56"/><rect class="cls-1" x="136.82" y="0.01" width="1.44" height="19.56"/><rect class="cls-1" x="126.29" y="0.01" width="1.44" height="19.56"/><rect class="cls-1" x="115.77" y="0.01" width="1.44" height="19.56"/><rect class="cls-1" x="105.24" y="0.01" width="1.44" height="19.56"/><rect class="cls-1" x="94.72" y="0.01" width="1.44" height="19.56"/><rect class="cls-1" x="84.19" y="0.01" width="1.44" height="19.56"/><rect class="cls-1" x="73.67" y="0.01" width="1.44" height="19.56"/><rect class="cls-1" x="63.15" y="0.01" width="1.44" height="19.56"/><rect class="cls-1" x="52.62" y="0.01" width="1.44" height="19.56"/><rect class="cls-1" x="42.1" y="0.01" width="1.44" height="19.56"/><rect class="cls-1" x="31.57" y="0.01" width="1.44" height="19.56"/><rect class="cls-1" x="21.05" y="0.01" width="1.44" height="19.56"/><rect class="cls-1" x="10.52" y="0.01" width="1.44" height="19.56"/></g></g></svg>