<svg xmlns="http://www.w3.org/2000/svg" viewBox="0 0 1064.41 19.57"><defs><style>.cls-1{fill:#fff;}</style></defs><g id="Layer_2" data-name="Layer 2"><g id="Layer_1-2" data-name="Layer 1"><rect width="1064.41" height="19.57"/><rect class="cls-1" x="1051.9" y="0.01" width="1.44" height="19.56"/><rect class="cls-1" x="1040.83" y="0.01" width="1.44" height="19.56"/><rect class="cls-1" x="1029.75" y="0.01" width="1.44" height="19.56"/><rect class="cls-1" x="1018.68" y="0.01" width="1.44" height="19.56"/><rect class="cls-1" x="1007.61" y="0.01" width="1.44" height="19.56"/><rect class="cls-1" x="996.54" y="0.01" width="1.44" height="19.56"/><rect class="cls-1" x="985.46" y="0.01" width="1.44" height="19.56"/><rect class="cls-1" x="974.39" y="0.01" width="1.44" height="19.56"/><rect class="cls-1" x="963.32" y="0.01" width="1.44" height="19.56"/><rect class="cls-1" x="952.24" y="0.01" width="1.44" height="19.56"/><rect class="cls-1" x="941.17" y="0.01" width="1.44" height="19.56"/><rect class="cls-1" x="930.1" y="0.01" width="1.44" height="19.56"/><rect class="cls-1" x="919.03" y="0.01" width="1.44" height="19.56"/><rect class="cls-1" x="907.95" y="0.01" width="1.44" height="19.56"/><rect class="cls-1" x="896.88" y="0.01" width="1.44" height="19.56"/><rect class="cls-1" x="885.81" y="0.01" width="1.44" height="19.56"/><rect class="cls-1" x="874.74" y="0.01" width="1.44" height="19.56"/><rect class="cls-1" x="863.66" y="0.01" width="1.44" height="19.56"/><rect class="cls-1" x="852.59" y="0.01" width="1.44" height="19.56"/><rect class="cls-1" x="841.52" y="0.01" width="1.44" height="19.56"/><rect class="cls-1" x="830.45" y="0.01" width="1.44" height="19.56"/><rect class="cls-1" x="819.37" y="0.01" width="1.44" height="19.56"/><rect class="cls-1" x="808.3" y="0.01" width="1.44" height="19.56"/><rect class="cls-1" x="797.23" y="0.01" width="1.44" height="19.56"/><rect class="cls-1" x="786.15" y="0.01" width="1.44" height="19.56"/><rect class="cls-1" x="775.08" y="0.01" width="1.44" height="19.56"/><rect class="cls-1" x="764.01" y="0.01" width="1.44" height="19.56"/><rect class="cls-1" x="752.94" y="0.01" width="1.44" height="19.56"/><rect class="cls-1" x="741.86" y="0.01" width="1.44" height="19.56"/><rect class="cls-1" x="730.79" y="0.01" width="1.44" height="19.56"/><rect class="cls-1" x="719.72" y="0.01" width="1.44" height="19.56"/><rect class="cls-1" x="708.65" y="0.01" width="1.44" height="19.56"/><rect class="cls-1" x="697.57" y="0.01" width="1.44" height="19.56"/><rect class="cls-1" x="686.5" y="0.01" width="1.44" height="19.56"/><rect class="cls-1" x="675.43" y="0.01" width="1.44" height="19.56"/><rect class="cls-1" x="664.36" y="0.01" width="1.44" height="19.56"/><rect class="cls-1" x="653.28" y="0.01" width="1.44" height="19.56"/><rect class="cls-1" x="642.21" y="0.01" width="1.44" height="19.56"/><rect class="cls-1" x="631.14" y="0.01" width="1.44" height="19.56"/><rect class="cls-1" x="620.07" y="0.01" width="1.44" height="19.56"/><rect class="cls-1" x="608.99" y="0.01" width="1.44" height="19.56"/><rect class="cls-1" x="597.92" y="0.01" width="1.44" height="19.56"/><rect class="cls-1" x="586.85" y="0.01" width="1.44" height="19.56"/><rect class="cls-1" x="575.77" y="0.01" width="1.44" height="19.56"/><rect class="cls-1" x="564.7" y="0.01" width="1.44" height="19.56"/><rect class="cls-1" x="553.63" y="0.01" width="1.44" height="19.56"/><rect class="cls-1" x="542.56" y="0.01" width="1.44" height="19.56"/><rect class="cls-1" x="531.48" y="0.01" width="1.44" height="19.56"/><rect class="cls-1" x="520.41" y="0.01" width="1.44" height="19.56"/><rect class="cls-1" x="509.34" y="0.01" width="1.44" height="19.56"/><rect class="cls-1" x="498.27" y="0.01" width="1.44" height="19.56"/><rect class="cls-1" x="487.19" y="0.01" width="1.44" height="19.56"/><rect class="cls-1" x="476.12" y="0.01" width="1.44" height="19.56"/><rect class="cls-1" x="465.05" y="0.01" width="1.44" height="19.56"/><rect class="cls-1" x="453.98" y="0.01" width="1.44" height="19.56"/><rect class="cls-1" x="442.9" y="0.01" width="1.44" height="19.56"/><rect class="cls-1" x="431.83" y="0.01" width="1.44" height="19.56"/><rect class="cls-1" x="420.76" y="0.01" width="1.44" height="19.56"/><rect class="cls-1" x="409.69" y="0.01" width="1.44" height="19.56"/><rect class="cls-1" x="398.61" y="0.01" width="1.44" height="19.56"/><rect class="cls-1" x="387.54" y="0.01" width="1.44" height="19.56"/><rect class="cls-1" x="376.47" y="0.01" width="1.44" height="19.56"/><rect class="cls-1" x="365.4" y="0.01" width="1.44" height="19.56"/><rect class="cls-1" x="354.32" y="0.01" width="1.44" height="19.56"/><rect class="cls-1" x="343.25" y="0.01" width="1.44" height="19.56"/><rect class="cls-1" x="332.18" y="0.01" width="1.44" height="19.56"/><rect class="cls-1" x="321.11" y="0.01" width="1.44" height="19.56"/><rect class="cls-1" x="310.03" y="0.01" width="1.44" height="19.56"/><rect class="cls-1" x="298.96" y="0.01" width="1.44" height="19.56"/><rect class="cls-1" x="287.89" y="0.01" width="1.44" height="19.56"/><rect class="cls-1" x="276.82" y="0.01" width="1.44" height="19.56"/><rect class="cls-1" x="265.74" y="0.01" width="1.44" height="19.56"/><rect class="cls-1" x="254.67" y="0.01" width="1.44" height="19.56"/><rect class="cls-1" x="243.6" y="0.01" width="1.44" height="19.56"/><rect class="cls-1" x="232.53" y="0.01" width="1.44" height="19.56"/><rect class="cls-1" x="221.45" y="0.01" width="1.44" height="19.56"/><rect class="cls-1" x="210.38" y="0.01" width="1.44" height="19.56"/><rect class="cls-1" x="199.31" y="0.01" width="1.44" height="19.56"/><rect class="cls-1" x="188.23" y="0.01" width="1.44" height="19.56"/><rect class="cls-1" x="177.16" y="0.01" width="1.44" height="19.56"/><rect class="cls-1" x="166.09" y="0.01" width="1.44" height="19.56"/><rect class="cls-1" x="155.02" y="0.01" width="1.44" height="19.56"/><rect class="cls-1" x="143.94" y="0.01" width="1.44" height="19.56"/><rect class="cls-1" x="132.87" y="0.01" width="1.44" height="19.56"/><rect class="cls-1" x="121.8" y="0.01" width="1.44" height="19.56"/><rect class="cls-1" x="110.73" y="0.01" width="1.44" height="19.56"/><rect class="cls-1" x="99.65" y="0.01" width="1.44" height="19.56"/><rect class="cls-1" x="88.58" y="0.01" width="1.44" height="19.56"/><rect class="cls-1" x="77.51" y="0.01" width="1.44" height="19.56"/><rect class="cls-1" x="66.44" y="0.01" width="1.44" height="19.56"/><rect class="cls-1" x="55.36" y="0.01" width="1.44" height="19.56"/><rect class="cls-1" x="44.29" y="0.01" width="1.44" height="19.56"/><rect class="cls-1" x="33.22" y="0.01" width="1.44" height="19.56"/><rect class="cls-1" x="22.15" y="0.01" width="1.44" height="19.56"/><rect class="cls-1" x="11.07" y="0.01" width="1.44" height="19.56"/></g></g></svg>