<svg xmlns="http://www.w3.org/2000/svg" viewBox="0 0 1064.41 19.57"><defs><style>.cls-1{fill:#fff;}</style></defs><g id="Layer_2" data-name="Layer 2"><g id="Layer_1-2" data-name="Layer 1"><rect width="1064.41" height="19.57"/><rect class="cls-1" x="1046.87" y="0.01" width="1.44" height="19.56"/><rect class="cls-1" x="1030.76" y="0.01" width="1.44" height="19.56"/><rect class="cls-1" x="1014.65" y="0.01" width="1.44" height="19.56"/><rect class="cls-1" x="998.55" y="0.01" width="1.44" height="19.56"/><rect class="cls-1" x="982.44" y="0.01" width="1.44" height="19.56"/><rect class="cls-1" x="966.34" y="0.01" width="1.44" height="19.56"/><rect class="cls-1" x="950.23" y="0.01" width="1.44" height="19.56"/><rect class="cls-1" x="934.13" y="0.01" width="1.44" height="19.56"/><rect class="cls-1" x="918.02" y="0.01" width="1.44" height="19.56"/><rect class="cls-1" x="901.91" y="0.01" width="1.44" height="19.56"/><rect class="cls-1" x="885.81" y="0.01" width="1.44" height="19.56"/><rect class="cls-1" x="869.7" y="0.01" width="1.44" height="19.56"/><rect class="cls-1" x="853.6" y="0.01" width="1.44" height="19.56"/><rect class="cls-1" x="837.49" y="0.01" width="1.44" height="19.56"/><rect class="cls-1" x="821.39" y="0.01" width="1.44" height="19.56"/><rect class="cls-1" x="805.28" y="0.01" width="1.44" height="19.56"/><rect class="cls-1" x="789.18" y="0.01" width="1.44" height="19.56"/><rect class="cls-1" x="773.07" y="0.01" width="1.44" height="19.56"/><rect class="cls-1" x="756.96" y="0.01" width="1.44" height="19.56"/><rect class="cls-1" x="740.86" y="0.01" width="1.44" height="19.56"/><rect class="cls-1" x="724.75" y="0.01" width="1.44" height="19.56"/><rect class="cls-1" x="708.65" y="0.01" width="1.44" height="19.56"/><rect class="cls-1" x="692.54" y="0.01" width="1.44" height="19.56"/><rect class="cls-1" x="676.44" y="0.01" width="1.44" height="19.56"/><rect class="cls-1" x="660.33" y="0.01" width="1.44" height="19.56"/><rect class="cls-1" x="644.22" y="0.01" width="1.44" height="19.56"/><rect class="cls-1" x="628.12" y="0.01" width="1.44" height="19.56"/><rect class="cls-1" x="612.01" y="0.01" width="1.44" height="19.56"/><rect class="cls-1" x="595.91" y="0.01" width="1.44" height="19.56"/><rect class="cls-1" x="579.8" y="0.01" width="1.44" height="19.56"/><rect class="cls-1" x="563.7" y="0.01" width="1.44" height="19.56"/><rect class="cls-1" x="547.59" y="0.01" width="1.44" height="19.56"/><rect class="cls-1" x="531.49" y="0.01" width="1.44" height="19.56"/><rect class="cls-1" x="515.38" y="0.01" width="1.44" height="19.56"/><rect class="cls-1" x="499.27" y="0.01" width="1.44" height="19.56"/><rect class="cls-1" x="483.17" y="0.01" width="1.44" height="19.56"/><rect class="cls-1" x="467.06" y="0.01" width="1.44" height="19.56"/><rect class="cls-1" x="450.96" y="0.01" width="1.44" height="19.56"/><rect class="cls-1" x="434.85" y="0.01" width="1.44" height="19.56"/><rect class="cls-1" x="418.75" y="0.01" width="1.44" height="19.56"/><rect class="cls-1" x="402.64" y="0.01" width="1.44" height="19.56"/><rect class="cls-1" x="386.53" y="0.01" width="1.44" height="19.56"/><rect class="cls-1" x="370.43" y="0.01" width="1.44" height="19.56"/><rect class="cls-1" x="354.32" y="0.01" width="1.44" height="19.56"/><rect class="cls-1" x="338.22" y="0.01" width="1.44" height="19.56"/><rect class="cls-1" x="322.11" y="0.01" width="1.44" height="19.56"/><rect class="cls-1" x="306.01" y="0.01" width="1.44" height="19.56"/><rect class="cls-1" x="289.9" y="0.01" width="1.44" height="19.56"/><rect class="cls-1" x="273.79" y="0.01" width="1.44" height="19.56"/><rect class="cls-1" x="257.69" y="0.01" width="1.44" height="19.56"/><rect class="cls-1" x="241.58" y="0.01" width="1.44" height="19.56"/><rect class="cls-1" x="225.48" y="0.01" width="1.44" height="19.56"/><rect class="cls-1" x="209.37" y="0.01" width="1.44" height="19.56"/><rect class="cls-1" x="193.27" y="0.01" width="1.44" height="19.56"/><rect class="cls-1" x="177.16" y="0.01" width="1.44" height="19.56"/><rect class="cls-1" x="161.06" y="0.01" width="1.44" height="19.56"/><rect class="cls-1" x="144.95" y="0.01" width="1.44" height="19.56"/><rect class="cls-1" x="128.85" y="0.01" width="1.44" height="19.56"/><rect class="cls-1" x="112.74" y="0.01" width="1.44" height="19.56"/><rect class="cls-1" x="96.63" y="0.01" width="1.44" height="19.56"/><rect class="cls-1" x="80.53" y="0.01" width="1.44" height="19.56"/><rect class="cls-1" x="64.42" y="0.01" width="1.44" height="19.56"/><rect class="cls-1" x="48.32" y="0.01" width="1.44" height="19.56"/><rect class="cls-1" x="32.21" y="0.01" width="1.44" height="19.56"/><rect class="cls-1" x="16.11" y="0.01" width="1.44" height="19.56"/></g></g></svg>