<svg xmlns="http://www.w3.org/2000/svg" viewBox="0 0 1064.41 19.57"><defs><style>.cls-1{fill:#fff;}</style></defs><g id="Layer_2" data-name="Layer 2"><g id="Layer_1-2" data-name="Layer 1"><rect width="1064.41" height="19.57"/><rect class="cls-1" x="1047.57" y="0.01" width="1.44" height="19.56"/><rect class="cls-1" x="1032.16" y="0.01" width="1.44" height="19.56"/><rect class="cls-1" x="1016.76" y="0.01" width="1.44" height="19.56"/><rect class="cls-1" x="1001.35" y="0.01" width="1.44" height="19.56"/><rect class="cls-1" x="985.94" y="0.01" width="1.44" height="19.56"/><rect class="cls-1" x="970.54" y="0.01" width="1.44" height="19.56"/><rect class="cls-1" x="955.13" y="0.01" width="1.44" height="19.56"/><rect class="cls-1" x="939.73" y="0.01" width="1.44" height="19.56"/><rect class="cls-1" x="924.32" y="0.01" width="1.44" height="19.56"/><rect class="cls-1" x="908.92" y="0.01" width="1.44" height="19.56"/><rect class="cls-1" x="893.51" y="0.01" width="1.44" height="19.56"/><rect class="cls-1" x="878.11" y="0.01" width="1.44" height="19.56"/><rect class="cls-1" x="862.7" y="0.01" width="1.44" height="19.56"/><rect class="cls-1" x="847.3" y="0.01" width="1.44" height="19.56"/><rect class="cls-1" x="831.89" y="0.01" width="1.44" height="19.56"/><rect class="cls-1" x="816.49" y="0.01" width="1.44" height="19.56"/><rect class="cls-1" x="801.08" y="0.01" width="1.44" height="19.56"/><rect class="cls-1" x="785.68" y="0.01" width="1.44" height="19.56"/><rect class="cls-1" x="770.27" y="0.01" width="1.44" height="19.56"/><rect class="cls-1" x="754.86" y="0.01" width="1.44" height="19.56"/><rect class="cls-1" x="739.46" y="0.01" width="1.44" height="19.56"/><rect class="cls-1" x="724.05" y="0.01" width="1.44" height="19.56"/><rect class="cls-1" x="708.65" y="0.01" width="1.44" height="19.56"/><rect class="cls-1" x="693.24" y="0.01" width="1.44" height="19.56"/><rect class="cls-1" x="677.84" y="0.01" width="1.44" height="19.56"/><rect class="cls-1" x="662.43" y="0.01" width="1.44" height="19.56"/><rect class="cls-1" x="647.03" y="0.01" width="1.44" height="19.56"/><rect class="cls-1" x="631.62" y="0.01" width="1.44" height="19.56"/><rect class="cls-1" x="616.22" y="0.01" width="1.44" height="19.56"/><rect class="cls-1" x="600.81" y="0.01" width="1.44" height="19.56"/><rect class="cls-1" x="585.41" y="0.01" width="1.44" height="19.56"/><rect class="cls-1" x="570" y="0.01" width="1.44" height="19.56"/><rect class="cls-1" x="554.59" y="0.01" width="1.44" height="19.56"/><rect class="cls-1" x="539.19" y="0.01" width="1.44" height="19.56"/><rect class="cls-1" x="523.78" y="0.01" width="1.44" height="19.56"/><rect class="cls-1" x="508.38" y="0.01" width="1.44" height="19.56"/><rect class="cls-1" x="492.97" y="0.01" width="1.44" height="19.56"/><rect class="cls-1" x="477.57" y="0.01" width="1.44" height="19.56"/><rect class="cls-1" x="462.16" y="0.01" width="1.44" height="19.56"/><rect class="cls-1" x="446.76" y="0.01" width="1.44" height="19.56"/><rect class="cls-1" x="431.35" y="0.01" width="1.44" height="19.56"/><rect class="cls-1" x="415.95" y="0.01" width="1.44" height="19.56"/><rect class="cls-1" x="400.54" y="0.01" width="1.44" height="19.56"/><rect class="cls-1" x="385.13" y="0.01" width="1.44" height="19.56"/><rect class="cls-1" x="369.73" y="0.01" width="1.44" height="19.56"/><rect class="cls-1" x="354.32" y="0.01" width="1.44" height="19.56"/><rect class="cls-1" x="338.92" y="0.01" width="1.44" height="19.56"/><rect class="cls-1" x="323.51" y="0.01" width="1.44" height="19.56"/><rect class="cls-1" x="308.11" y="0.01" width="1.44" height="19.56"/><rect class="cls-1" x="292.7" y="0.01" width="1.44" height="19.56"/><rect class="cls-1" x="277.3" y="0.01" width="1.44" height="19.56"/><rect class="cls-1" x="261.89" y="0.01" width="1.44" height="19.56"/><rect class="cls-1" x="246.49" y="0.01" width="1.44" height="19.56"/><rect class="cls-1" x="231.08" y="0.01" width="1.44" height="19.56"/><rect class="cls-1" x="215.68" y="0.01" width="1.44" height="19.56"/><rect class="cls-1" x="200.27" y="0.01" width="1.44" height="19.56"/><rect class="cls-1" x="184.86" y="0.01" width="1.44" height="19.56"/><rect class="cls-1" x="169.46" y="0.01" width="1.44" height="19.56"/><rect class="cls-1" x="154.05" y="0.01" width="1.44" height="19.56"/><rect class="cls-1" x="138.65" y="0.01" width="1.44" height="19.56"/><rect class="cls-1" x="123.24" y="0.01" width="1.44" height="19.56"/><rect class="cls-1" x="107.84" y="0.01" width="1.44" height="19.56"/><rect class="cls-1" x="92.43" y="0.01" width="1.44" height="19.56"/><rect class="cls-1" x="77.03" y="0.01" width="1.44" height="19.56"/><rect class="cls-1" x="61.62" y="0.01" width="1.44" height="19.56"/><rect class="cls-1" x="46.22" y="0.01" width="1.44" height="19.56"/><rect class="cls-1" x="30.81" y="0.01" width="1.44" height="19.56"/><rect class="cls-1" x="15.4" y="0.01" width="1.44" height="19.56"/></g></g></svg>