<svg xmlns="http://www.w3.org/2000/svg" viewBox="0 0 1064.41 19.57"><defs><style>.cls-1{fill:#fff;}</style></defs><g id="Layer_2" data-name="Layer 2"><g id="Layer_1-2" data-name="Layer 1"><rect width="1064.41" height="19.57"/><rect class="cls-1" x="1053.13" y="0.01" width="1.44" height="19.56"/><rect class="cls-1" x="1043.29" y="0.01" width="1.44" height="19.56"/><rect class="cls-1" x="1033.44" y="0.01" width="1.44" height="19.56"/><rect class="cls-1" x="1023.6" y="0.01" width="1.44" height="19.56"/><rect class="cls-1" x="1013.76" y="0.01" width="1.44" height="19.56"/><rect class="cls-1" x="1003.92" y="0.01" width="1.44" height="19.56"/><rect class="cls-1" x="994.07" y="0.01" width="1.44" height="19.56"/><rect class="cls-1" x="984.23" y="0.01" width="1.44" height="19.56"/><rect class="cls-1" x="974.39" y="0.01" width="1.44" height="19.56"/><rect class="cls-1" x="964.55" y="0.01" width="1.44" height="19.56"/><rect class="cls-1" x="954.71" y="0.01" width="1.44" height="19.56"/><rect class="cls-1" x="944.86" y="0.01" width="1.44" height="19.56"/><rect class="cls-1" x="935.02" y="0.01" width="1.44" height="19.56"/><rect class="cls-1" x="925.18" y="0.01" width="1.44" height="19.56"/><rect class="cls-1" x="915.34" y="0.01" width="1.44" height="19.56"/><rect class="cls-1" x="905.49" y="0.01" width="1.44" height="19.56"/><rect class="cls-1" x="895.65" y="0.01" width="1.44" height="19.56"/><rect class="cls-1" x="885.81" y="0.01" width="1.44" height="19.56"/><rect class="cls-1" x="875.97" y="0.01" width="1.44" height="19.56"/><rect class="cls-1" x="866.12" y="0.01" width="1.44" height="19.56"/><rect class="cls-1" x="856.28" y="0.01" width="1.44" height="19.56"/><rect class="cls-1" x="846.44" y="0.01" width="1.44" height="19.56"/><rect class="cls-1" x="836.6" y="0.01" width="1.44" height="19.56"/><rect class="cls-1" x="826.75" y="0.01" width="1.44" height="19.56"/><rect class="cls-1" x="816.91" y="0.01" width="1.44" height="19.56"/><rect class="cls-1" x="807.07" y="0.01" width="1.44" height="19.56"/><rect class="cls-1" x="797.23" y="0.01" width="1.44" height="19.56"/><rect class="cls-1" x="787.39" y="0.01" width="1.44" height="19.56"/><rect class="cls-1" x="777.54" y="0.01" width="1.44" height="19.56"/><rect class="cls-1" x="767.7" y="0.01" width="1.44" height="19.56"/><rect class="cls-1" x="757.86" y="0.01" width="1.44" height="19.56"/><rect class="cls-1" x="748.02" y="0.01" width="1.44" height="19.56"/><rect class="cls-1" x="738.17" y="0.01" width="1.44" height="19.56"/><rect class="cls-1" x="728.33" y="0.01" width="1.44" height="19.56"/><rect class="cls-1" x="718.49" y="0.01" width="1.44" height="19.56"/><rect class="cls-1" x="708.65" y="0.01" width="1.44" height="19.56"/><rect class="cls-1" x="698.8" y="0.01" width="1.44" height="19.56"/><rect class="cls-1" x="688.96" y="0.01" width="1.44" height="19.56"/><rect class="cls-1" x="679.12" y="0.01" width="1.44" height="19.56"/><rect class="cls-1" x="669.28" y="0.01" width="1.44" height="19.56"/><rect class="cls-1" x="659.44" y="0.01" width="1.44" height="19.56"/><rect class="cls-1" x="649.59" y="0.01" width="1.44" height="19.56"/><rect class="cls-1" x="639.75" y="0.01" width="1.44" height="19.56"/><rect class="cls-1" x="629.91" y="0.01" width="1.44" height="19.56"/><rect class="cls-1" x="620.07" y="0.01" width="1.44" height="19.56"/><rect class="cls-1" x="610.22" y="0.01" width="1.44" height="19.56"/><rect class="cls-1" x="600.38" y="0.01" width="1.44" height="19.56"/><rect class="cls-1" x="590.54" y="0.01" width="1.44" height="19.56"/><rect class="cls-1" x="580.7" y="0.01" width="1.44" height="19.56"/><rect class="cls-1" x="570.85" y="0.01" width="1.44" height="19.56"/><rect class="cls-1" x="561.01" y="0.01" width="1.44" height="19.56"/><rect class="cls-1" x="551.17" y="0.01" width="1.44" height="19.56"/><rect class="cls-1" x="541.33" y="0.01" width="1.44" height="19.56"/><rect class="cls-1" x="531.48" y="0.01" width="1.44" height="19.56"/><rect class="cls-1" x="521.64" y="0.01" width="1.44" height="19.56"/><rect class="cls-1" x="511.8" y="0.01" width="1.44" height="19.56"/><rect class="cls-1" x="501.96" y="0.01" width="1.44" height="19.56"/><rect class="cls-1" x="492.12" y="0.01" width="1.44" height="19.56"/><rect class="cls-1" x="482.27" y="0.01" width="1.44" height="19.56"/><rect class="cls-1" x="472.43" y="0.01" width="1.44" height="19.56"/><rect class="cls-1" x="462.59" y="0.01" width="1.44" height="19.56"/><rect class="cls-1" x="452.75" y="0.01" width="1.44" height="19.56"/><rect class="cls-1" x="442.9" y="0.01" width="1.44" height="19.56"/><rect class="cls-1" x="433.06" y="0.01" width="1.44" height="19.56"/><rect class="cls-1" x="423.22" y="0.01" width="1.44" height="19.56"/><rect class="cls-1" x="413.38" y="0.01" width="1.44" height="19.56"/><rect class="cls-1" x="403.53" y="0.01" width="1.44" height="19.56"/><rect class="cls-1" x="393.69" y="0.01" width="1.44" height="19.56"/><rect class="cls-1" x="383.85" y="0.01" width="1.44" height="19.56"/><rect class="cls-1" x="374.01" y="0.01" width="1.44" height="19.56"/><rect class="cls-1" x="364.16" y="0.01" width="1.44" height="19.56"/><rect class="cls-1" x="354.32" y="0.01" width="1.44" height="19.56"/><rect class="cls-1" x="344.48" y="0.01" width="1.44" height="19.56"/><rect class="cls-1" x="334.64" y="0.01" width="1.44" height="19.56"/><rect class="cls-1" x="324.8" y="0.01" width="1.44" height="19.56"/><rect class="cls-1" x="314.95" y="0.01" width="1.44" height="19.56"/><rect class="cls-1" x="305.11" y="0.01" width="1.44" height="19.56"/><rect class="cls-1" x="295.27" y="0.01" width="1.44" height="19.56"/><rect class="cls-1" x="285.43" y="0.01" width="1.44" height="19.56"/><rect class="cls-1" x="275.58" y="0.01" width="1.44" height="19.56"/><rect class="cls-1" x="265.74" y="0.01" width="1.44" height="19.56"/><rect class="cls-1" x="255.9" y="0.01" width="1.44" height="19.56"/><rect class="cls-1" x="246.06" y="0.01" width="1.44" height="19.56"/><rect class="cls-1" x="236.22" y="0.01" width="1.44" height="19.56"/><rect class="cls-1" x="226.37" y="0.01" width="1.44" height="19.56"/><rect class="cls-1" x="216.53" y="0.01" width="1.44" height="19.56"/><rect class="cls-1" x="206.69" y="0.01" width="1.44" height="19.56"/><rect class="cls-1" x="196.85" y="0.01" width="1.44" height="19.56"/><rect class="cls-1" x="187" y="0.01" width="1.44" height="19.56"/><rect class="cls-1" x="177.16" y="0.01" width="1.44" height="19.56"/><rect class="cls-1" x="167.32" y="0.01" width="1.44" height="19.56"/><rect class="cls-1" x="157.48" y="0.01" width="1.44" height="19.56"/><rect class="cls-1" x="147.63" y="0.01" width="1.44" height="19.56"/><rect class="cls-1" x="137.79" y="0.01" width="1.44" height="19.56"/><rect class="cls-1" x="127.95" y="0.01" width="1.44" height="19.56"/><rect class="cls-1" x="118.11" y="0.01" width="1.44" height="19.56"/><rect class="cls-1" x="108.26" y="0.01" width="1.44" height="19.56"/><rect class="cls-1" x="98.42" y="0.01" width="1.44" height="19.56"/><rect class="cls-1" x="88.58" y="0.01" width="1.44" height="19.56"/><rect class="cls-1" x="78.74" y="0.01" width="1.44" height="19.56"/><rect class="cls-1" x="68.9" y="0.01" width="1.44" height="19.56"/><rect class="cls-1" x="59.05" y="0.01" width="1.44" height="19.56"/><rect class="cls-1" x="49.21" y="0.01" width="1.44" height="19.56"/><rect class="cls-1" x="39.37" y="0.01" width="1.44" height="19.56"/><rect class="cls-1" x="29.53" y="0.01" width="1.44" height="19.56"/><rect class="cls-1" x="19.68" y="0.01" width="1.44" height="19.56"/><rect class="cls-1" x="9.84" y="0.01" width="1.44" height="19.56"/></g></g></svg>