<svg xmlns="http://www.w3.org/2000/svg" viewBox="0 0 1064.41 19.57"><defs><style>.cls-1{fill:#fff;}</style></defs><g id="Layer_2" data-name="Layer 2"><g id="Layer_1-2" data-name="Layer 1"><rect width="1064.41" height="19.57"/><rect class="cls-1" x="1055.04" y="0.01" width="1.44" height="19.56"/><rect class="cls-1" x="1047.11" y="0.01" width="1.44" height="19.56"/><rect class="cls-1" x="1039.17" y="0.01" width="1.44" height="19.56"/><rect class="cls-1" x="1031.24" y="0.01" width="1.44" height="19.56"/><rect class="cls-1" x="1023.31" y="0.01" width="1.44" height="19.56"/><rect class="cls-1" x="1015.37" y="0.01" width="1.44" height="19.56"/><rect class="cls-1" x="1007.44" y="0.01" width="1.44" height="19.56"/><rect class="cls-1" x="999.51" y="0.01" width="1.44" height="19.56"/><rect class="cls-1" x="991.58" y="0.01" width="1.44" height="19.56"/><rect class="cls-1" x="983.64" y="0.01" width="1.44" height="19.56"/><rect class="cls-1" x="975.71" y="0.01" width="1.44" height="19.56"/><rect class="cls-1" x="967.78" y="0.01" width="1.44" height="19.56"/><rect class="cls-1" x="959.85" y="0.01" width="1.44" height="19.56"/><rect class="cls-1" x="951.91" y="0.01" width="1.44" height="19.56"/><rect class="cls-1" x="943.98" y="0.01" width="1.44" height="19.56"/><rect class="cls-1" x="936.05" y="0.01" width="1.44" height="19.56"/><rect class="cls-1" x="928.12" y="0.01" width="1.44" height="19.56"/><rect class="cls-1" x="920.18" y="0.01" width="1.44" height="19.56"/><rect class="cls-1" x="912.25" y="0.01" width="1.44" height="19.56"/><rect class="cls-1" x="904.32" y="0.01" width="1.44" height="19.56"/><rect class="cls-1" x="896.38" y="0.01" width="1.44" height="19.56"/><rect class="cls-1" x="888.45" y="0.01" width="1.44" height="19.56"/><rect class="cls-1" x="880.52" y="0.01" width="1.44" height="19.56"/><rect class="cls-1" x="872.59" y="0.01" width="1.44" height="19.56"/><rect class="cls-1" x="864.65" y="0.01" width="1.44" height="19.56"/><rect class="cls-1" x="856.72" y="0.01" width="1.44" height="19.56"/><rect class="cls-1" x="848.79" y="0.01" width="1.44" height="19.56"/><rect class="cls-1" x="840.86" y="0.01" width="1.44" height="19.56"/><rect class="cls-1" x="832.92" y="0.01" width="1.44" height="19.56"/><rect class="cls-1" x="824.99" y="0.01" width="1.44" height="19.56"/><rect class="cls-1" x="817.06" y="0.01" width="1.44" height="19.56"/><rect class="cls-1" x="809.13" y="0.01" width="1.44" height="19.56"/><rect class="cls-1" x="801.19" y="0.01" width="1.44" height="19.56"/><rect class="cls-1" x="793.26" y="0.01" width="1.44" height="19.56"/><rect class="cls-1" x="785.33" y="0.01" width="1.44" height="19.56"/><rect class="cls-1" x="777.39" y="0.01" width="1.44" height="19.56"/><rect class="cls-1" x="769.46" y="0.01" width="1.44" height="19.56"/><rect class="cls-1" x="761.53" y="0.01" width="1.44" height="19.56"/><rect class="cls-1" x="753.6" y="0.01" width="1.44" height="19.56"/><rect class="cls-1" x="745.66" y="0.01" width="1.44" height="19.56"/><rect class="cls-1" x="737.73" y="0.01" width="1.44" height="19.56"/><rect class="cls-1" x="729.8" y="0.01" width="1.44" height="19.56"/><rect class="cls-1" x="721.87" y="0.01" width="1.44" height="19.56"/><rect class="cls-1" x="713.93" y="0.01" width="1.44" height="19.56"/><rect class="cls-1" x="706" y="0.01" width="1.44" height="19.56"/><rect class="cls-1" x="698.07" y="0.01" width="1.44" height="19.56"/><rect class="cls-1" x="690.14" y="0.01" width="1.44" height="19.56"/><rect class="cls-1" x="682.2" y="0.01" width="1.44" height="19.56"/><rect class="cls-1" x="674.27" y="0.01" width="1.44" height="19.56"/><rect class="cls-1" x="666.34" y="0.01" width="1.44" height="19.56"/><rect class="cls-1" x="658.4" y="0.01" width="1.44" height="19.56"/><rect class="cls-1" x="650.47" y="0.01" width="1.44" height="19.56"/><rect class="cls-1" x="642.54" y="0.01" width="1.44" height="19.56"/><rect class="cls-1" x="634.61" y="0.01" width="1.44" height="19.56"/><rect class="cls-1" x="626.67" y="0.01" width="1.44" height="19.56"/><rect class="cls-1" x="618.74" y="0.01" width="1.44" height="19.56"/><rect class="cls-1" x="610.81" y="0.01" width="1.44" height="19.56"/><rect class="cls-1" x="602.88" y="0.01" width="1.44" height="19.56"/><rect class="cls-1" x="594.94" y="0.01" width="1.44" height="19.56"/><rect class="cls-1" x="587.01" y="0.01" width="1.44" height="19.56"/><rect class="cls-1" x="579.08" y="0.01" width="1.44" height="19.56"/><rect class="cls-1" x="571.15" y="0.01" width="1.44" height="19.56"/><rect class="cls-1" x="563.21" y="0.01" width="1.44" height="19.56"/><rect class="cls-1" x="555.28" y="0.01" width="1.44" height="19.56"/><rect class="cls-1" x="547.35" y="0.01" width="1.44" height="19.56"/><rect class="cls-1" x="539.41" y="0.01" width="1.44" height="19.56"/><rect class="cls-1" x="531.48" y="0.01" width="1.44" height="19.56"/><rect class="cls-1" x="523.55" y="0.01" width="1.44" height="19.56"/><rect class="cls-1" x="515.62" y="0.01" width="1.44" height="19.56"/><rect class="cls-1" x="507.68" y="0.01" width="1.44" height="19.56"/><rect class="cls-1" x="499.75" y="0.01" width="1.44" height="19.56"/><rect class="cls-1" x="491.82" y="0.01" width="1.44" height="19.56"/><rect class="cls-1" x="483.89" y="0.01" width="1.44" height="19.56"/><rect class="cls-1" x="475.95" y="0.01" width="1.44" height="19.56"/><rect class="cls-1" x="468.02" y="0.01" width="1.44" height="19.56"/><rect class="cls-1" x="460.09" y="0.01" width="1.44" height="19.56"/><rect class="cls-1" x="452.15" y="0.01" width="1.44" height="19.56"/><rect class="cls-1" x="444.22" y="0.01" width="1.44" height="19.56"/><rect class="cls-1" x="436.29" y="0.01" width="1.44" height="19.56"/><rect class="cls-1" x="428.36" y="0.01" width="1.44" height="19.56"/><rect class="cls-1" x="420.42" y="0.01" width="1.44" height="19.56"/><rect class="cls-1" x="412.49" y="0.01" width="1.44" height="19.56"/><rect class="cls-1" x="404.56" y="0.01" width="1.44" height="19.56"/><rect class="cls-1" x="396.63" y="0.01" width="1.44" height="19.56"/><rect class="cls-1" x="388.69" y="0.01" width="1.44" height="19.56"/><rect class="cls-1" x="380.76" y="0.01" width="1.44" height="19.56"/><rect class="cls-1" x="372.83" y="0.01" width="1.44" height="19.56"/><rect class="cls-1" x="364.9" y="0.01" width="1.44" height="19.56"/><rect class="cls-1" x="356.96" y="0.01" width="1.44" height="19.56"/><rect class="cls-1" x="349.03" y="0.01" width="1.44" height="19.56"/><rect class="cls-1" x="341.1" y="0.01" width="1.44" height="19.56"/><rect class="cls-1" x="333.16" y="0.01" width="1.44" height="19.56"/><rect class="cls-1" x="325.23" y="0.01" width="1.44" height="19.56"/><rect class="cls-1" x="317.3" y="0.01" width="1.44" height="19.56"/><rect class="cls-1" x="309.37" y="0.01" width="1.44" height="19.56"/><rect class="cls-1" x="301.43" y="0.01" width="1.44" height="19.56"/><rect class="cls-1" x="293.5" y="0.01" width="1.44" height="19.56"/><rect class="cls-1" x="285.57" y="0.01" width="1.44" height="19.56"/><rect class="cls-1" x="277.64" y="0.01" width="1.44" height="19.56"/><rect class="cls-1" x="269.7" y="0.01" width="1.44" height="19.56"/><rect class="cls-1" x="261.77" y="0.01" width="1.44" height="19.56"/><rect class="cls-1" x="253.84" y="0.01" width="1.44" height="19.56"/><rect class="cls-1" x="245.91" y="0.01" width="1.44" height="19.56"/><rect class="cls-1" x="237.97" y="0.01" width="1.44" height="19.56"/><rect class="cls-1" x="230.04" y="0.01" width="1.44" height="19.56"/><rect class="cls-1" x="222.11" y="0.01" width="1.44" height="19.56"/><rect class="cls-1" x="214.18" y="0.01" width="1.44" height="19.56"/><rect class="cls-1" x="206.24" y="0.01" width="1.44" height="19.56"/><rect class="cls-1" x="198.31" y="0.01" width="1.44" height="19.56"/><rect class="cls-1" x="190.38" y="0.01" width="1.44" height="19.56"/><rect class="cls-1" x="182.45" y="0.01" width="1.44" height="19.56"/><rect class="cls-1" x="174.51" y="0.01" width="1.44" height="19.56"/><rect class="cls-1" x="166.58" y="0.01" width="1.44" height="19.56"/><rect class="cls-1" x="158.65" y="0.01" width="1.44" height="19.56"/><rect class="cls-1" x="150.71" y="0.01" width="1.44" height="19.56"/><rect class="cls-1" x="142.78" y="0.01" width="1.44" height="19.56"/><rect class="cls-1" x="134.85" y="0.01" width="1.44" height="19.56"/><rect class="cls-1" x="126.92" y="0.01" width="1.44" height="19.56"/><rect class="cls-1" x="118.98" y="0.01" width="1.44" height="19.56"/><rect class="cls-1" x="111.05" y="0.01" width="1.44" height="19.56"/><rect class="cls-1" x="103.12" y="0.01" width="1.44" height="19.56"/><rect class="cls-1" x="95.19" y="0.01" width="1.44" height="19.56"/><rect class="cls-1" x="87.26" y="0.01" width="1.44" height="19.56"/><rect class="cls-1" x="79.32" y="0.01" width="1.44" height="19.56"/><rect class="cls-1" x="71.39" y="0.01" width="1.44" height="19.56"/><rect class="cls-1" x="63.46" y="0.01" width="1.44" height="19.56"/><rect class="cls-1" x="55.53" y="0.01" width="1.44" height="19.56"/><rect class="cls-1" x="47.59" y="0.01" width="1.44" height="19.56"/><rect class="cls-1" x="39.66" y="0.01" width="1.44" height="19.56"/><rect class="cls-1" x="31.73" y="0.01" width="1.44" height="19.56"/><rect class="cls-1" x="23.8" y="0.01" width="1.44" height="19.56"/><rect class="cls-1" x="15.86" y="0.01" width="1.44" height="19.56"/><rect class="cls-1" x="7.93" y="0.01" width="1.44" height="19.56"/></g></g></svg>