<svg xmlns="http://www.w3.org/2000/svg" viewBox="0 0 1064.41 19.57"><defs><style>.cls-1{fill:#fff;}</style></defs><g id="Layer_2" data-name="Layer 2"><g id="Layer_1-2" data-name="Layer 1"><rect width="1064.41" height="19.57"/><rect class="cls-1" x="1020.45" y="0.01" width="1.44" height="19.56"/><rect class="cls-1" x="977.93" y="0.01" width="1.44" height="19.56"/><rect class="cls-1" x="935.41" y="0.01" width="1.44" height="19.56"/><rect class="cls-1" x="892.9" y="0.01" width="1.44" height="19.56"/><rect class="cls-1" x="850.38" y="0.01" width="1.44" height="19.56"/><rect class="cls-1" x="807.86" y="0.01" width="1.44" height="19.56"/><rect class="cls-1" x="765.34" y="0.01" width="1.44" height="19.56"/><rect class="cls-1" x="722.82" y="0.01" width="1.44" height="19.56"/><rect class="cls-1" x="680.3" y="0.01" width="1.44" height="19.56"/><rect class="cls-1" x="637.78" y="0.01" width="1.44" height="19.56"/><rect class="cls-1" x="595.26" y="0.01" width="1.44" height="19.56"/><rect class="cls-1" x="552.75" y="0.01" width="1.44" height="19.56"/><rect class="cls-1" x="510.23" y="0.01" width="1.44" height="19.56"/><rect class="cls-1" x="467.71" y="0.01" width="1.44" height="19.56"/><rect class="cls-1" x="425.19" y="0.01" width="1.44" height="19.56"/><rect class="cls-1" x="382.67" y="0.01" width="1.44" height="19.56"/><rect class="cls-1" x="340.15" y="0.01" width="1.44" height="19.56"/><rect class="cls-1" x="297.63" y="0.01" width="1.44" height="19.56"/><rect class="cls-1" x="255.11" y="0.01" width="1.44" height="19.56"/><rect class="cls-1" x="212.59" y="0.01" width="1.44" height="19.56"/><rect class="cls-1" x="170.08" y="0.01" width="1.44" height="19.56"/><rect class="cls-1" x="127.56" y="0.01" width="1.44" height="19.56"/><rect class="cls-1" x="85.04" y="0.01" width="1.44" height="19.56"/><rect class="cls-1" x="42.52" y="0.01" width="1.44" height="19.56"/></g></g></svg>