<svg xmlns="http://www.w3.org/2000/svg" viewBox="0 0 1064.41 19.57"><defs><style>.cls-1{fill:#fff;}</style></defs><g id="Layer_2" data-name="Layer 2"><g id="Layer_1-2" data-name="Layer 1"><rect width="1064.41" height="19.57"/><rect class="cls-1" x="1047.34" y="0.01" width="1.44" height="19.56"/><rect class="cls-1" x="1031.71" y="0.01" width="1.44" height="19.56"/><rect class="cls-1" x="1016.08" y="0.01" width="1.44" height="19.56"/><rect class="cls-1" x="1000.44" y="0.01" width="1.44" height="19.56"/><rect class="cls-1" x="984.81" y="0.01" width="1.44" height="19.56"/><rect class="cls-1" x="969.18" y="0.01" width="1.44" height="19.56"/><rect class="cls-1" x="953.55" y="0.01" width="1.44" height="19.56"/><rect class="cls-1" x="937.92" y="0.01" width="1.44" height="19.56"/><rect class="cls-1" x="922.28" y="0.01" width="1.44" height="19.56"/><rect class="cls-1" x="906.65" y="0.01" width="1.44" height="19.56"/><rect class="cls-1" x="891.02" y="0.01" width="1.44" height="19.56"/><rect class="cls-1" x="875.39" y="0.01" width="1.44" height="19.56"/><rect class="cls-1" x="859.76" y="0.01" width="1.44" height="19.56"/><rect class="cls-1" x="844.12" y="0.01" width="1.44" height="19.56"/><rect class="cls-1" x="828.49" y="0.01" width="1.44" height="19.56"/><rect class="cls-1" x="812.86" y="0.01" width="1.44" height="19.56"/><rect class="cls-1" x="797.23" y="0.01" width="1.44" height="19.56"/><rect class="cls-1" x="781.6" y="0.01" width="1.44" height="19.56"/><rect class="cls-1" x="765.96" y="0.01" width="1.44" height="19.56"/><rect class="cls-1" x="750.33" y="0.01" width="1.44" height="19.56"/><rect class="cls-1" x="734.7" y="0.01" width="1.44" height="19.56"/><rect class="cls-1" x="719.07" y="0.01" width="1.44" height="19.56"/><rect class="cls-1" x="703.44" y="0.01" width="1.44" height="19.56"/><rect class="cls-1" x="687.8" y="0.01" width="1.44" height="19.56"/><rect class="cls-1" x="672.17" y="0.01" width="1.44" height="19.56"/><rect class="cls-1" x="656.54" y="0.01" width="1.44" height="19.56"/><rect class="cls-1" x="640.91" y="0.01" width="1.44" height="19.56"/><rect class="cls-1" x="625.28" y="0.01" width="1.44" height="19.56"/><rect class="cls-1" x="609.64" y="0.01" width="1.44" height="19.56"/><rect class="cls-1" x="594.01" y="0.01" width="1.44" height="19.56"/><rect class="cls-1" x="578.38" y="0.01" width="1.44" height="19.56"/><rect class="cls-1" x="562.75" y="0.01" width="1.44" height="19.56"/><rect class="cls-1" x="547.12" y="0.01" width="1.44" height="19.56"/><rect class="cls-1" x="531.49" y="0.01" width="1.44" height="19.56"/><rect class="cls-1" x="515.85" y="0.01" width="1.44" height="19.56"/><rect class="cls-1" x="500.22" y="0.01" width="1.44" height="19.56"/><rect class="cls-1" x="484.59" y="0.01" width="1.44" height="19.56"/><rect class="cls-1" x="468.96" y="0.01" width="1.44" height="19.56"/><rect class="cls-1" x="453.33" y="0.01" width="1.44" height="19.56"/><rect class="cls-1" x="437.69" y="0.01" width="1.44" height="19.56"/><rect class="cls-1" x="422.06" y="0.01" width="1.44" height="19.56"/><rect class="cls-1" x="406.43" y="0.01" width="1.44" height="19.56"/><rect class="cls-1" x="390.8" y="0.01" width="1.44" height="19.56"/><rect class="cls-1" x="375.17" y="0.01" width="1.44" height="19.56"/><rect class="cls-1" x="359.53" y="0.01" width="1.44" height="19.56"/><rect class="cls-1" x="343.9" y="0.01" width="1.44" height="19.56"/><rect class="cls-1" x="328.27" y="0.01" width="1.44" height="19.56"/><rect class="cls-1" x="312.64" y="0.01" width="1.44" height="19.56"/><rect class="cls-1" x="297.01" y="0.01" width="1.44" height="19.56"/><rect class="cls-1" x="281.37" y="0.01" width="1.44" height="19.56"/><rect class="cls-1" x="265.74" y="0.01" width="1.44" height="19.56"/><rect class="cls-1" x="250.11" y="0.01" width="1.44" height="19.56"/><rect class="cls-1" x="234.48" y="0.01" width="1.44" height="19.56"/><rect class="cls-1" x="218.85" y="0.01" width="1.44" height="19.56"/><rect class="cls-1" x="203.22" y="0.01" width="1.44" height="19.56"/><rect class="cls-1" x="187.58" y="0.01" width="1.44" height="19.56"/><rect class="cls-1" x="171.95" y="0.01" width="1.44" height="19.56"/><rect class="cls-1" x="156.32" y="0.01" width="1.44" height="19.56"/><rect class="cls-1" x="140.69" y="0.01" width="1.44" height="19.56"/><rect class="cls-1" x="125.06" y="0.01" width="1.44" height="19.56"/><rect class="cls-1" x="109.42" y="0.01" width="1.44" height="19.56"/><rect class="cls-1" x="93.79" y="0.01" width="1.44" height="19.56"/><rect class="cls-1" x="78.16" y="0.01" width="1.44" height="19.56"/><rect class="cls-1" x="62.53" y="0.01" width="1.44" height="19.56"/><rect class="cls-1" x="46.9" y="0.01" width="1.44" height="19.56"/><rect class="cls-1" x="31.26" y="0.01" width="1.44" height="19.56"/><rect class="cls-1" x="15.63" y="0.01" width="1.44" height="19.56"/></g></g></svg>