<svg xmlns="http://www.w3.org/2000/svg" viewBox="0 0 1064.41 19.57"><defs><style>.cls-1{fill:#fff;}</style></defs><g id="Layer_2" data-name="Layer 2"><g id="Layer_1-2" data-name="Layer 1"><rect width="1064.41" height="19.57"/><rect class="cls-1" x="1051.29" y="0.01" width="1.44" height="19.56"/><rect class="cls-1" x="1039.61" y="0.01" width="1.44" height="19.56"/><rect class="cls-1" x="1027.93" y="0.01" width="1.44" height="19.56"/><rect class="cls-1" x="1016.25" y="0.01" width="1.44" height="19.56"/><rect class="cls-1" x="1004.57" y="0.01" width="1.44" height="19.56"/><rect class="cls-1" x="992.88" y="0.01" width="1.44" height="19.56"/><rect class="cls-1" x="981.2" y="0.01" width="1.44" height="19.56"/><rect class="cls-1" x="969.52" y="0.01" width="1.44" height="19.56"/><rect class="cls-1" x="957.84" y="0.01" width="1.44" height="19.56"/><rect class="cls-1" x="946.16" y="0.01" width="1.44" height="19.56"/><rect class="cls-1" x="934.48" y="0.01" width="1.44" height="19.56"/><rect class="cls-1" x="922.8" y="0.01" width="1.44" height="19.56"/><rect class="cls-1" x="911.12" y="0.01" width="1.44" height="19.56"/><rect class="cls-1" x="899.44" y="0.01" width="1.44" height="19.56"/><rect class="cls-1" x="887.76" y="0.01" width="1.44" height="19.56"/><rect class="cls-1" x="876.07" y="0.01" width="1.44" height="19.56"/><rect class="cls-1" x="864.39" y="0.01" width="1.44" height="19.56"/><rect class="cls-1" x="852.71" y="0.01" width="1.44" height="19.56"/><rect class="cls-1" x="841.03" y="0.01" width="1.44" height="19.56"/><rect class="cls-1" x="829.35" y="0.01" width="1.44" height="19.56"/><rect class="cls-1" x="817.67" y="0.01" width="1.44" height="19.56"/><rect class="cls-1" x="805.99" y="0.01" width="1.44" height="19.56"/><rect class="cls-1" x="794.31" y="0.01" width="1.44" height="19.56"/><rect class="cls-1" x="782.63" y="0.01" width="1.44" height="19.56"/><rect class="cls-1" x="770.95" y="0.01" width="1.44" height="19.56"/><rect class="cls-1" x="759.26" y="0.01" width="1.44" height="19.56"/><rect class="cls-1" x="747.58" y="0.01" width="1.44" height="19.56"/><rect class="cls-1" x="735.9" y="0.01" width="1.44" height="19.56"/><rect class="cls-1" x="724.22" y="0.01" width="1.44" height="19.56"/><rect class="cls-1" x="712.54" y="0.01" width="1.44" height="19.56"/><rect class="cls-1" x="700.86" y="0.01" width="1.44" height="19.56"/><rect class="cls-1" x="689.18" y="0.01" width="1.44" height="19.56"/><rect class="cls-1" x="677.5" y="0.01" width="1.44" height="19.56"/><rect class="cls-1" x="665.82" y="0.01" width="1.44" height="19.56"/><rect class="cls-1" x="654.13" y="0.01" width="1.44" height="19.56"/><rect class="cls-1" x="642.45" y="0.01" width="1.44" height="19.56"/><rect class="cls-1" x="630.77" y="0.01" width="1.44" height="19.56"/><rect class="cls-1" x="619.09" y="0.01" width="1.44" height="19.56"/><rect class="cls-1" x="607.41" y="0.01" width="1.44" height="19.56"/><rect class="cls-1" x="595.73" y="0.01" width="1.44" height="19.56"/><rect class="cls-1" x="584.05" y="0.01" width="1.44" height="19.56"/><rect class="cls-1" x="572.37" y="0.01" width="1.44" height="19.56"/><rect class="cls-1" x="560.69" y="0.01" width="1.44" height="19.56"/><rect class="cls-1" x="549.01" y="0.01" width="1.44" height="19.56"/><rect class="cls-1" x="537.32" y="0.01" width="1.44" height="19.56"/><rect class="cls-1" x="525.64" y="0.01" width="1.44" height="19.56"/><rect class="cls-1" x="513.96" y="0.01" width="1.44" height="19.56"/><rect class="cls-1" x="502.28" y="0.01" width="1.44" height="19.56"/><rect class="cls-1" x="490.6" y="0.01" width="1.44" height="19.56"/><rect class="cls-1" x="478.92" y="0.01" width="1.44" height="19.56"/><rect class="cls-1" x="467.24" y="0.01" width="1.44" height="19.56"/><rect class="cls-1" x="455.56" y="0.01" width="1.44" height="19.56"/><rect class="cls-1" x="443.88" y="0.01" width="1.44" height="19.56"/><rect class="cls-1" x="432.2" y="0.01" width="1.44" height="19.56"/><rect class="cls-1" x="420.51" y="0.01" width="1.44" height="19.56"/><rect class="cls-1" x="408.83" y="0.01" width="1.44" height="19.56"/><rect class="cls-1" x="397.15" y="0.01" width="1.44" height="19.56"/><rect class="cls-1" x="385.47" y="0.01" width="1.44" height="19.56"/><rect class="cls-1" x="373.79" y="0.01" width="1.44" height="19.56"/><rect class="cls-1" x="362.11" y="0.01" width="1.44" height="19.56"/><rect class="cls-1" x="350.43" y="0.01" width="1.44" height="19.56"/><rect class="cls-1" x="338.75" y="0.01" width="1.44" height="19.56"/><rect class="cls-1" x="327.07" y="0.01" width="1.44" height="19.56"/><rect class="cls-1" x="315.39" y="0.01" width="1.44" height="19.56"/><rect class="cls-1" x="303.7" y="0.01" width="1.44" height="19.56"/><rect class="cls-1" x="292.02" y="0.01" width="1.44" height="19.56"/><rect class="cls-1" x="280.34" y="0.01" width="1.44" height="19.56"/><rect class="cls-1" x="268.66" y="0.01" width="1.44" height="19.56"/><rect class="cls-1" x="256.98" y="0.01" width="1.44" height="19.56"/><rect class="cls-1" x="245.3" y="0.01" width="1.44" height="19.56"/><rect class="cls-1" x="233.62" y="0.01" width="1.44" height="19.56"/><rect class="cls-1" x="221.94" y="0.01" width="1.44" height="19.56"/><rect class="cls-1" x="210.26" y="0.01" width="1.44" height="19.56"/><rect class="cls-1" x="198.58" y="0.01" width="1.44" height="19.56"/><rect class="cls-1" x="186.89" y="0.01" width="1.44" height="19.56"/><rect class="cls-1" x="175.21" y="0.01" width="1.44" height="19.56"/><rect class="cls-1" x="163.53" y="0.01" width="1.44" height="19.56"/><rect class="cls-1" x="151.85" y="0.01" width="1.44" height="19.56"/><rect class="cls-1" x="140.17" y="0.01" width="1.44" height="19.56"/><rect class="cls-1" x="128.49" y="0.01" width="1.44" height="19.56"/><rect class="cls-1" x="116.81" y="0.01" width="1.44" height="19.56"/><rect class="cls-1" x="105.13" y="0.01" width="1.44" height="19.56"/><rect class="cls-1" x="93.45" y="0.01" width="1.44" height="19.56"/><rect class="cls-1" x="81.77" y="0.01" width="1.44" height="19.56"/><rect class="cls-1" x="70.08" y="0.01" width="1.44" height="19.56"/><rect class="cls-1" x="58.4" y="0.01" width="1.44" height="19.56"/><rect class="cls-1" x="46.72" y="0.01" width="1.44" height="19.56"/><rect class="cls-1" x="35.04" y="0.01" width="1.44" height="19.56"/><rect class="cls-1" x="23.36" y="0.01" width="1.44" height="19.56"/><rect class="cls-1" x="11.68" y="0.01" width="1.44" height="19.56"/></g></g></svg>