<svg xmlns="http://www.w3.org/2000/svg" viewBox="0 0 1064.41 19.57"><defs><style>.cls-1{fill:#fff;}</style></defs><g id="Layer_2" data-name="Layer 2"><g id="Layer_1-2" data-name="Layer 1"><rect width="1064.41" height="19.57"/><rect class="cls-1" x="1048.98" y="0.01" width="1.44" height="19.56"/><rect class="cls-1" x="1035" y="0.01" width="1.44" height="19.56"/><rect class="cls-1" x="1021.01" y="0.01" width="1.44" height="19.56"/><rect class="cls-1" x="1007.03" y="0.01" width="1.44" height="19.56"/><rect class="cls-1" x="993.04" y="0.01" width="1.44" height="19.56"/><rect class="cls-1" x="979.05" y="0.01" width="1.44" height="19.56"/><rect class="cls-1" x="965.07" y="0.01" width="1.44" height="19.56"/><rect class="cls-1" x="951.08" y="0.01" width="1.44" height="19.56"/><rect class="cls-1" x="937.09" y="0.01" width="1.44" height="19.56"/><rect class="cls-1" x="923.11" y="0.01" width="1.44" height="19.56"/><rect class="cls-1" x="909.12" y="0.01" width="1.44" height="19.56"/><rect class="cls-1" x="895.13" y="0.01" width="1.44" height="19.56"/><rect class="cls-1" x="881.15" y="0.01" width="1.44" height="19.56"/><rect class="cls-1" x="867.16" y="0.01" width="1.44" height="19.56"/><rect class="cls-1" x="853.17" y="0.01" width="1.44" height="19.56"/><rect class="cls-1" x="839.19" y="0.01" width="1.44" height="19.56"/><rect class="cls-1" x="825.2" y="0.01" width="1.44" height="19.56"/><rect class="cls-1" x="811.21" y="0.01" width="1.44" height="19.56"/><rect class="cls-1" x="797.23" y="0.01" width="1.44" height="19.56"/><rect class="cls-1" x="783.24" y="0.01" width="1.44" height="19.56"/><rect class="cls-1" x="769.26" y="0.01" width="1.44" height="19.56"/><rect class="cls-1" x="755.27" y="0.01" width="1.44" height="19.56"/><rect class="cls-1" x="741.28" y="0.01" width="1.44" height="19.56"/><rect class="cls-1" x="727.3" y="0.01" width="1.44" height="19.56"/><rect class="cls-1" x="713.31" y="0.01" width="1.44" height="19.56"/><rect class="cls-1" x="699.32" y="0.01" width="1.44" height="19.56"/><rect class="cls-1" x="685.34" y="0.01" width="1.44" height="19.56"/><rect class="cls-1" x="671.35" y="0.01" width="1.44" height="19.56"/><rect class="cls-1" x="657.36" y="0.01" width="1.44" height="19.56"/><rect class="cls-1" x="643.38" y="0.01" width="1.44" height="19.56"/><rect class="cls-1" x="629.39" y="0.01" width="1.44" height="19.56"/><rect class="cls-1" x="615.4" y="0.01" width="1.44" height="19.56"/><rect class="cls-1" x="601.42" y="0.01" width="1.44" height="19.56"/><rect class="cls-1" x="587.43" y="0.01" width="1.44" height="19.56"/><rect class="cls-1" x="573.45" y="0.01" width="1.44" height="19.56"/><rect class="cls-1" x="559.46" y="0.01" width="1.44" height="19.56"/><rect class="cls-1" x="545.47" y="0.01" width="1.44" height="19.56"/><rect class="cls-1" x="531.49" y="0.01" width="1.44" height="19.56"/><rect class="cls-1" x="517.5" y="0.01" width="1.44" height="19.56"/><rect class="cls-1" x="503.51" y="0.01" width="1.44" height="19.56"/><rect class="cls-1" x="489.53" y="0.01" width="1.44" height="19.56"/><rect class="cls-1" x="475.54" y="0.01" width="1.44" height="19.56"/><rect class="cls-1" x="461.55" y="0.01" width="1.44" height="19.56"/><rect class="cls-1" x="447.57" y="0.01" width="1.44" height="19.56"/><rect class="cls-1" x="433.58" y="0.01" width="1.44" height="19.56"/><rect class="cls-1" x="419.59" y="0.01" width="1.44" height="19.56"/><rect class="cls-1" x="405.61" y="0.01" width="1.44" height="19.56"/><rect class="cls-1" x="391.62" y="0.01" width="1.44" height="19.56"/><rect class="cls-1" x="377.63" y="0.01" width="1.44" height="19.56"/><rect class="cls-1" x="363.65" y="0.01" width="1.44" height="19.56"/><rect class="cls-1" x="349.66" y="0.01" width="1.44" height="19.56"/><rect class="cls-1" x="335.67" y="0.01" width="1.44" height="19.56"/><rect class="cls-1" x="321.69" y="0.01" width="1.44" height="19.56"/><rect class="cls-1" x="307.7" y="0.01" width="1.44" height="19.56"/><rect class="cls-1" x="293.72" y="0.01" width="1.44" height="19.56"/><rect class="cls-1" x="279.73" y="0.01" width="1.44" height="19.56"/><rect class="cls-1" x="265.74" y="0.01" width="1.44" height="19.56"/><rect class="cls-1" x="251.76" y="0.01" width="1.44" height="19.56"/><rect class="cls-1" x="237.77" y="0.01" width="1.44" height="19.56"/><rect class="cls-1" x="223.78" y="0.01" width="1.44" height="19.56"/><rect class="cls-1" x="209.8" y="0.01" width="1.44" height="19.56"/><rect class="cls-1" x="195.81" y="0.01" width="1.44" height="19.56"/><rect class="cls-1" x="181.82" y="0.01" width="1.44" height="19.56"/><rect class="cls-1" x="167.84" y="0.01" width="1.44" height="19.56"/><rect class="cls-1" x="153.85" y="0.01" width="1.44" height="19.56"/><rect class="cls-1" x="139.86" y="0.01" width="1.44" height="19.56"/><rect class="cls-1" x="125.88" y="0.01" width="1.44" height="19.56"/><rect class="cls-1" x="111.89" y="0.01" width="1.44" height="19.56"/><rect class="cls-1" x="97.9" y="0.01" width="1.44" height="19.56"/><rect class="cls-1" x="83.92" y="0.01" width="1.44" height="19.56"/><rect class="cls-1" x="69.93" y="0.01" width="1.44" height="19.56"/><rect class="cls-1" x="55.94" y="0.01" width="1.44" height="19.56"/><rect class="cls-1" x="41.96" y="0.01" width="1.44" height="19.56"/><rect class="cls-1" x="27.97" y="0.01" width="1.44" height="19.56"/><rect class="cls-1" x="13.99" y="0.01" width="1.44" height="19.56"/></g></g></svg>