<svg xmlns="http://www.w3.org/2000/svg" viewBox="0 0 1064.41 19.57"><defs><style>.cls-1{fill:#fff;}</style></defs><g id="Layer_2" data-name="Layer 2"><g id="Layer_1-2" data-name="Layer 1"><rect width="1064.41" height="19.57"/><rect class="cls-1" x="1055.59" y="0.01" width="1.44" height="19.56"/><rect class="cls-1" x="1048.21" y="0.01" width="1.44" height="19.56"/><rect class="cls-1" x="1040.83" y="0.01" width="1.44" height="19.56"/><rect class="cls-1" x="1033.44" y="0.01" width="1.44" height="19.56"/><rect class="cls-1" x="1026.06" y="0.01" width="1.44" height="19.56"/><rect class="cls-1" x="1018.68" y="0.01" width="1.44" height="19.56"/><rect class="cls-1" x="1011.3" y="0.01" width="1.44" height="19.56"/><rect class="cls-1" x="1003.92" y="0.01" width="1.44" height="19.56"/><rect class="cls-1" x="996.53" y="0.01" width="1.44" height="19.56"/><rect class="cls-1" x="989.15" y="0.01" width="1.44" height="19.56"/><rect class="cls-1" x="981.77" y="0.01" width="1.44" height="19.56"/><rect class="cls-1" x="974.39" y="0.01" width="1.44" height="19.56"/><rect class="cls-1" x="967.01" y="0.01" width="1.44" height="19.56"/><rect class="cls-1" x="959.63" y="0.01" width="1.44" height="19.56"/><rect class="cls-1" x="952.24" y="0.01" width="1.44" height="19.56"/><rect class="cls-1" x="944.86" y="0.01" width="1.44" height="19.56"/><rect class="cls-1" x="937.48" y="0.01" width="1.44" height="19.56"/><rect class="cls-1" x="930.1" y="0.01" width="1.44" height="19.56"/><rect class="cls-1" x="922.72" y="0.01" width="1.44" height="19.56"/><rect class="cls-1" x="915.34" y="0.01" width="1.44" height="19.56"/><rect class="cls-1" x="907.95" y="0.01" width="1.44" height="19.56"/><rect class="cls-1" x="900.57" y="0.01" width="1.44" height="19.56"/><rect class="cls-1" x="893.19" y="0.01" width="1.44" height="19.56"/><rect class="cls-1" x="885.81" y="0.01" width="1.44" height="19.56"/><rect class="cls-1" x="878.43" y="0.01" width="1.44" height="19.56"/><rect class="cls-1" x="871.04" y="0.01" width="1.44" height="19.56"/><rect class="cls-1" x="863.66" y="0.01" width="1.44" height="19.56"/><rect class="cls-1" x="856.28" y="0.01" width="1.44" height="19.56"/><rect class="cls-1" x="848.9" y="0.01" width="1.44" height="19.56"/><rect class="cls-1" x="841.52" y="0.01" width="1.44" height="19.56"/><rect class="cls-1" x="834.14" y="0.01" width="1.44" height="19.56"/><rect class="cls-1" x="826.75" y="0.01" width="1.44" height="19.56"/><rect class="cls-1" x="819.37" y="0.01" width="1.44" height="19.56"/><rect class="cls-1" x="811.99" y="0.01" width="1.44" height="19.56"/><rect class="cls-1" x="804.61" y="0.01" width="1.44" height="19.56"/><rect class="cls-1" x="797.23" y="0.01" width="1.44" height="19.56"/><rect class="cls-1" x="789.84" y="0.01" width="1.44" height="19.56"/><rect class="cls-1" x="782.46" y="0.01" width="1.44" height="19.56"/><rect class="cls-1" x="775.08" y="0.01" width="1.44" height="19.56"/><rect class="cls-1" x="767.7" y="0.01" width="1.44" height="19.56"/><rect class="cls-1" x="760.32" y="0.01" width="1.44" height="19.56"/><rect class="cls-1" x="752.94" y="0.01" width="1.44" height="19.56"/><rect class="cls-1" x="745.55" y="0.01" width="1.44" height="19.56"/><rect class="cls-1" x="738.17" y="0.01" width="1.44" height="19.56"/><rect class="cls-1" x="730.79" y="0.01" width="1.44" height="19.56"/><rect class="cls-1" x="723.41" y="0.01" width="1.44" height="19.56"/><rect class="cls-1" x="716.03" y="0.01" width="1.44" height="19.56"/><rect class="cls-1" x="708.65" y="0.01" width="1.44" height="19.56"/><rect class="cls-1" x="701.26" y="0.01" width="1.44" height="19.56"/><rect class="cls-1" x="693.88" y="0.01" width="1.44" height="19.56"/><rect class="cls-1" x="686.5" y="0.01" width="1.44" height="19.56"/><rect class="cls-1" x="679.12" y="0.01" width="1.44" height="19.56"/><rect class="cls-1" x="671.74" y="0.01" width="1.44" height="19.56"/><rect class="cls-1" x="664.35" y="0.01" width="1.44" height="19.56"/><rect class="cls-1" x="656.97" y="0.01" width="1.44" height="19.56"/><rect class="cls-1" x="649.59" y="0.01" width="1.44" height="19.56"/><rect class="cls-1" x="642.21" y="0.01" width="1.44" height="19.56"/><rect class="cls-1" x="634.83" y="0.01" width="1.44" height="19.56"/><rect class="cls-1" x="627.45" y="0.01" width="1.44" height="19.56"/><rect class="cls-1" x="620.06" y="0.01" width="1.44" height="19.56"/><rect class="cls-1" x="612.68" y="0.01" width="1.44" height="19.56"/><rect class="cls-1" x="605.3" y="0.01" width="1.44" height="19.56"/><rect class="cls-1" x="597.92" y="0.01" width="1.44" height="19.56"/><rect class="cls-1" x="590.54" y="0.01" width="1.44" height="19.56"/><rect class="cls-1" x="583.16" y="0.01" width="1.44" height="19.56"/><rect class="cls-1" x="575.77" y="0.01" width="1.44" height="19.56"/><rect class="cls-1" x="568.39" y="0.01" width="1.44" height="19.56"/><rect class="cls-1" x="561.01" y="0.01" width="1.44" height="19.56"/><rect class="cls-1" x="553.63" y="0.01" width="1.44" height="19.56"/><rect class="cls-1" x="546.25" y="0.01" width="1.44" height="19.56"/><rect class="cls-1" x="538.87" y="0.01" width="1.44" height="19.56"/><rect class="cls-1" x="531.48" y="0.01" width="1.44" height="19.56"/><rect class="cls-1" x="524.1" y="0.01" width="1.44" height="19.56"/><rect class="cls-1" x="516.72" y="0.01" width="1.44" height="19.56"/><rect class="cls-1" x="509.34" y="0.01" width="1.44" height="19.56"/><rect class="cls-1" x="501.96" y="0.01" width="1.44" height="19.56"/><rect class="cls-1" x="494.57" y="0.01" width="1.44" height="19.56"/><rect class="cls-1" x="487.19" y="0.01" width="1.44" height="19.56"/><rect class="cls-1" x="479.81" y="0.01" width="1.44" height="19.56"/><rect class="cls-1" x="472.43" y="0.01" width="1.44" height="19.56"/><rect class="cls-1" x="465.05" y="0.01" width="1.44" height="19.56"/><rect class="cls-1" x="457.67" y="0.01" width="1.44" height="19.56"/><rect class="cls-1" x="450.28" y="0.01" width="1.44" height="19.56"/><rect class="cls-1" x="442.9" y="0.01" width="1.44" height="19.56"/><rect class="cls-1" x="435.52" y="0.01" width="1.44" height="19.56"/><rect class="cls-1" x="428.14" y="0.01" width="1.44" height="19.56"/><rect class="cls-1" x="420.76" y="0.01" width="1.44" height="19.56"/><rect class="cls-1" x="413.38" y="0.01" width="1.44" height="19.56"/><rect class="cls-1" x="405.99" y="0.01" width="1.44" height="19.56"/><rect class="cls-1" x="398.61" y="0.01" width="1.44" height="19.56"/><rect class="cls-1" x="391.23" y="0.01" width="1.44" height="19.56"/><rect class="cls-1" x="383.85" y="0.01" width="1.44" height="19.56"/><rect class="cls-1" x="376.47" y="0.01" width="1.44" height="19.56"/><rect class="cls-1" x="369.09" y="0.01" width="1.44" height="19.56"/><rect class="cls-1" x="361.7" y="0.01" width="1.44" height="19.56"/><rect class="cls-1" x="354.32" y="0.01" width="1.44" height="19.56"/><rect class="cls-1" x="346.94" y="0.01" width="1.44" height="19.56"/><rect class="cls-1" x="339.56" y="0.01" width="1.44" height="19.56"/><rect class="cls-1" x="332.18" y="0.01" width="1.44" height="19.56"/><rect class="cls-1" x="324.8" y="0.01" width="1.44" height="19.56"/><rect class="cls-1" x="317.41" y="0.01" width="1.44" height="19.56"/><rect class="cls-1" x="310.03" y="0.01" width="1.44" height="19.56"/><rect class="cls-1" x="302.65" y="0.01" width="1.44" height="19.56"/><rect class="cls-1" x="295.27" y="0.01" width="1.44" height="19.56"/><rect class="cls-1" x="287.89" y="0.01" width="1.44" height="19.56"/><rect class="cls-1" x="280.5" y="0.01" width="1.44" height="19.56"/><rect class="cls-1" x="273.12" y="0.01" width="1.44" height="19.56"/><rect class="cls-1" x="265.74" y="0.01" width="1.44" height="19.56"/><rect class="cls-1" x="258.36" y="0.01" width="1.44" height="19.56"/><rect class="cls-1" x="250.98" y="0.01" width="1.44" height="19.56"/><rect class="cls-1" x="243.6" y="0.01" width="1.44" height="19.56"/><rect class="cls-1" x="236.21" y="0.01" width="1.44" height="19.56"/><rect class="cls-1" x="228.83" y="0.01" width="1.44" height="19.56"/><rect class="cls-1" x="221.45" y="0.01" width="1.44" height="19.56"/><rect class="cls-1" x="214.07" y="0.01" width="1.44" height="19.56"/><rect class="cls-1" x="206.69" y="0.01" width="1.44" height="19.56"/><rect class="cls-1" x="199.31" y="0.01" width="1.44" height="19.56"/><rect class="cls-1" x="191.92" y="0.01" width="1.44" height="19.56"/><rect class="cls-1" x="184.54" y="0.01" width="1.44" height="19.56"/><rect class="cls-1" x="177.16" y="0.01" width="1.44" height="19.56"/><rect class="cls-1" x="169.78" y="0.01" width="1.44" height="19.56"/><rect class="cls-1" x="162.4" y="0.01" width="1.44" height="19.56"/><rect class="cls-1" x="155.01" y="0.01" width="1.44" height="19.56"/><rect class="cls-1" x="147.63" y="0.01" width="1.44" height="19.56"/><rect class="cls-1" x="140.25" y="0.01" width="1.44" height="19.56"/><rect class="cls-1" x="132.87" y="0.01" width="1.44" height="19.56"/><rect class="cls-1" x="125.49" y="0.01" width="1.44" height="19.56"/><rect class="cls-1" x="118.11" y="0.01" width="1.44" height="19.56"/><rect class="cls-1" x="110.72" y="0.01" width="1.44" height="19.56"/><rect class="cls-1" x="103.34" y="0.01" width="1.44" height="19.56"/><rect class="cls-1" x="95.96" y="0.01" width="1.44" height="19.56"/><rect class="cls-1" x="88.58" y="0.01" width="1.44" height="19.56"/><rect class="cls-1" x="81.2" y="0.01" width="1.44" height="19.56"/><rect class="cls-1" x="73.82" y="0.01" width="1.44" height="19.56"/><rect class="cls-1" x="66.44" y="0.01" width="1.44" height="19.56"/><rect class="cls-1" x="59.05" y="0.01" width="1.44" height="19.56"/><rect class="cls-1" x="51.67" y="0.01" width="1.44" height="19.56"/><rect class="cls-1" x="44.29" y="0.01" width="1.44" height="19.56"/><rect class="cls-1" x="36.91" y="0.01" width="1.44" height="19.56"/><rect class="cls-1" x="29.53" y="0.01" width="1.44" height="19.56"/><rect class="cls-1" x="22.15" y="0.01" width="1.44" height="19.56"/><rect class="cls-1" x="14.76" y="0.01" width="1.44" height="19.56"/><rect class="cls-1" x="7.38" y="0.01" width="1.44" height="19.56"/></g></g></svg>