<svg xmlns="http://www.w3.org/2000/svg" viewBox="0 0 1064.41 19.57"><defs><style>.cls-1{fill:#fff;}</style></defs><g id="Layer_2" data-name="Layer 2"><g id="Layer_1-2" data-name="Layer 1"><rect width="1064.41" height="19.57"/><rect class="cls-1" x="1056.07" y="0.01" width="1.44" height="19.56"/><rect class="cls-1" x="1049.17" y="0.01" width="1.44" height="19.56"/><rect class="cls-1" x="1042.26" y="0.01" width="1.44" height="19.56"/><rect class="cls-1" x="1035.36" y="0.01" width="1.44" height="19.56"/><rect class="cls-1" x="1028.46" y="0.01" width="1.44" height="19.56"/><rect class="cls-1" x="1021.56" y="0.01" width="1.44" height="19.56"/><rect class="cls-1" x="1014.65" y="0.01" width="1.44" height="19.56"/><rect class="cls-1" x="1007.75" y="0.01" width="1.44" height="19.56"/><rect class="cls-1" x="1000.85" y="0.01" width="1.44" height="19.56"/><rect class="cls-1" x="993.95" y="0.01" width="1.44" height="19.56"/><rect class="cls-1" x="987.04" y="0.01" width="1.44" height="19.56"/><rect class="cls-1" x="980.14" y="0.01" width="1.44" height="19.56"/><rect class="cls-1" x="973.24" y="0.01" width="1.44" height="19.56"/><rect class="cls-1" x="966.34" y="0.01" width="1.44" height="19.56"/><rect class="cls-1" x="959.43" y="0.01" width="1.44" height="19.56"/><rect class="cls-1" x="952.53" y="0.01" width="1.44" height="19.56"/><rect class="cls-1" x="945.63" y="0.01" width="1.44" height="19.56"/><rect class="cls-1" x="938.73" y="0.01" width="1.44" height="19.56"/><rect class="cls-1" x="931.82" y="0.01" width="1.44" height="19.56"/><rect class="cls-1" x="924.92" y="0.01" width="1.44" height="19.56"/><rect class="cls-1" x="918.02" y="0.01" width="1.44" height="19.56"/><rect class="cls-1" x="911.12" y="0.01" width="1.44" height="19.56"/><rect class="cls-1" x="904.22" y="0.01" width="1.44" height="19.56"/><rect class="cls-1" x="897.31" y="0.01" width="1.44" height="19.56"/><rect class="cls-1" x="890.41" y="0.01" width="1.44" height="19.56"/><rect class="cls-1" x="883.51" y="0.01" width="1.44" height="19.56"/><rect class="cls-1" x="876.61" y="0.01" width="1.44" height="19.56"/><rect class="cls-1" x="869.7" y="0.01" width="1.44" height="19.56"/><rect class="cls-1" x="862.8" y="0.01" width="1.44" height="19.56"/><rect class="cls-1" x="855.9" y="0.01" width="1.44" height="19.56"/><rect class="cls-1" x="849" y="0.01" width="1.44" height="19.56"/><rect class="cls-1" x="842.09" y="0.01" width="1.44" height="19.56"/><rect class="cls-1" x="835.19" y="0.01" width="1.44" height="19.56"/><rect class="cls-1" x="828.29" y="0.01" width="1.44" height="19.56"/><rect class="cls-1" x="821.39" y="0.01" width="1.44" height="19.56"/><rect class="cls-1" x="814.48" y="0.01" width="1.44" height="19.56"/><rect class="cls-1" x="807.58" y="0.01" width="1.44" height="19.56"/><rect class="cls-1" x="800.68" y="0.01" width="1.44" height="19.56"/><rect class="cls-1" x="793.78" y="0.01" width="1.44" height="19.56"/><rect class="cls-1" x="786.87" y="0.01" width="1.44" height="19.56"/><rect class="cls-1" x="779.97" y="0.01" width="1.44" height="19.56"/><rect class="cls-1" x="773.07" y="0.01" width="1.44" height="19.56"/><rect class="cls-1" x="766.17" y="0.01" width="1.44" height="19.56"/><rect class="cls-1" x="759.26" y="0.01" width="1.44" height="19.56"/><rect class="cls-1" x="752.36" y="0.01" width="1.44" height="19.56"/><rect class="cls-1" x="745.46" y="0.01" width="1.44" height="19.56"/><rect class="cls-1" x="738.56" y="0.01" width="1.44" height="19.56"/><rect class="cls-1" x="731.65" y="0.01" width="1.44" height="19.56"/><rect class="cls-1" x="724.75" y="0.01" width="1.44" height="19.56"/><rect class="cls-1" x="717.85" y="0.01" width="1.44" height="19.56"/><rect class="cls-1" x="710.95" y="0.01" width="1.44" height="19.56"/><rect class="cls-1" x="704.04" y="0.01" width="1.44" height="19.56"/><rect class="cls-1" x="697.14" y="0.01" width="1.44" height="19.56"/><rect class="cls-1" x="690.24" y="0.01" width="1.44" height="19.56"/><rect class="cls-1" x="683.34" y="0.01" width="1.44" height="19.56"/><rect class="cls-1" x="676.43" y="0.01" width="1.44" height="19.56"/><rect class="cls-1" x="669.53" y="0.01" width="1.44" height="19.56"/><rect class="cls-1" x="662.63" y="0.01" width="1.44" height="19.56"/><rect class="cls-1" x="655.73" y="0.01" width="1.44" height="19.56"/><rect class="cls-1" x="648.82" y="0.01" width="1.44" height="19.56"/><rect class="cls-1" x="641.92" y="0.01" width="1.44" height="19.56"/><rect class="cls-1" x="635.02" y="0.01" width="1.44" height="19.56"/><rect class="cls-1" x="628.12" y="0.01" width="1.44" height="19.56"/><rect class="cls-1" x="621.22" y="0.01" width="1.44" height="19.56"/><rect class="cls-1" x="614.31" y="0.01" width="1.44" height="19.56"/><rect class="cls-1" x="607.41" y="0.01" width="1.44" height="19.56"/><rect class="cls-1" x="600.51" y="0.01" width="1.44" height="19.56"/><rect class="cls-1" x="593.61" y="0.01" width="1.44" height="19.56"/><rect class="cls-1" x="586.7" y="0.01" width="1.44" height="19.56"/><rect class="cls-1" x="579.8" y="0.01" width="1.44" height="19.56"/><rect class="cls-1" x="572.9" y="0.01" width="1.44" height="19.56"/><rect class="cls-1" x="566" y="0.01" width="1.44" height="19.56"/><rect class="cls-1" x="559.09" y="0.01" width="1.44" height="19.56"/><rect class="cls-1" x="552.19" y="0.01" width="1.44" height="19.56"/><rect class="cls-1" x="545.29" y="0.01" width="1.44" height="19.56"/><rect class="cls-1" x="538.39" y="0.01" width="1.44" height="19.56"/><rect class="cls-1" x="531.48" y="0.01" width="1.44" height="19.56"/><rect class="cls-1" x="524.58" y="0.01" width="1.44" height="19.56"/><rect class="cls-1" x="517.68" y="0.01" width="1.44" height="19.56"/><rect class="cls-1" x="510.78" y="0.01" width="1.44" height="19.56"/><rect class="cls-1" x="503.87" y="0.01" width="1.44" height="19.56"/><rect class="cls-1" x="496.97" y="0.01" width="1.44" height="19.56"/><rect class="cls-1" x="490.07" y="0.01" width="1.44" height="19.56"/><rect class="cls-1" x="483.17" y="0.01" width="1.44" height="19.56"/><rect class="cls-1" x="476.26" y="0.01" width="1.44" height="19.56"/><rect class="cls-1" x="469.36" y="0.01" width="1.44" height="19.56"/><rect class="cls-1" x="462.46" y="0.01" width="1.44" height="19.56"/><rect class="cls-1" x="455.56" y="0.01" width="1.44" height="19.56"/><rect class="cls-1" x="448.66" y="0.01" width="1.44" height="19.56"/><rect class="cls-1" x="441.75" y="0.01" width="1.44" height="19.56"/><rect class="cls-1" x="434.85" y="0.01" width="1.44" height="19.56"/><rect class="cls-1" x="427.95" y="0.01" width="1.44" height="19.56"/><rect class="cls-1" x="421.05" y="0.01" width="1.44" height="19.56"/><rect class="cls-1" x="414.14" y="0.01" width="1.44" height="19.56"/><rect class="cls-1" x="407.24" y="0.01" width="1.44" height="19.56"/><rect class="cls-1" x="400.34" y="0.01" width="1.44" height="19.56"/><rect class="cls-1" x="393.44" y="0.01" width="1.44" height="19.56"/><rect class="cls-1" x="386.53" y="0.01" width="1.44" height="19.56"/><rect class="cls-1" x="379.63" y="0.01" width="1.44" height="19.56"/><rect class="cls-1" x="372.73" y="0.01" width="1.44" height="19.56"/><rect class="cls-1" x="365.83" y="0.01" width="1.44" height="19.56"/><rect class="cls-1" x="358.92" y="0.01" width="1.44" height="19.56"/><rect class="cls-1" x="352.02" y="0.01" width="1.44" height="19.56"/><rect class="cls-1" x="345.12" y="0.01" width="1.44" height="19.56"/><rect class="cls-1" x="338.22" y="0.01" width="1.44" height="19.56"/><rect class="cls-1" x="331.31" y="0.01" width="1.44" height="19.56"/><rect class="cls-1" x="324.41" y="0.01" width="1.44" height="19.56"/><rect class="cls-1" x="317.51" y="0.01" width="1.44" height="19.56"/><rect class="cls-1" x="310.61" y="0.01" width="1.44" height="19.56"/><rect class="cls-1" x="303.7" y="0.01" width="1.44" height="19.56"/><rect class="cls-1" x="296.8" y="0.01" width="1.44" height="19.56"/><rect class="cls-1" x="289.9" y="0.01" width="1.44" height="19.56"/><rect class="cls-1" x="283" y="0.01" width="1.44" height="19.56"/><rect class="cls-1" x="276.09" y="0.01" width="1.44" height="19.56"/><rect class="cls-1" x="269.19" y="0.01" width="1.44" height="19.56"/><rect class="cls-1" x="262.29" y="0.01" width="1.44" height="19.56"/><rect class="cls-1" x="255.39" y="0.01" width="1.44" height="19.56"/><rect class="cls-1" x="248.49" y="0.01" width="1.44" height="19.56"/><rect class="cls-1" x="241.58" y="0.01" width="1.44" height="19.56"/><rect class="cls-1" x="234.68" y="0.01" width="1.44" height="19.56"/><rect class="cls-1" x="227.78" y="0.01" width="1.44" height="19.56"/><rect class="cls-1" x="220.88" y="0.01" width="1.44" height="19.56"/><rect class="cls-1" x="213.97" y="0.01" width="1.44" height="19.56"/><rect class="cls-1" x="207.07" y="0.01" width="1.44" height="19.56"/><rect class="cls-1" x="200.17" y="0.01" width="1.44" height="19.56"/><rect class="cls-1" x="193.27" y="0.01" width="1.44" height="19.56"/><rect class="cls-1" x="186.36" y="0.01" width="1.44" height="19.56"/><rect class="cls-1" x="179.46" y="0.01" width="1.44" height="19.56"/><rect class="cls-1" x="172.56" y="0.01" width="1.44" height="19.56"/><rect class="cls-1" x="165.66" y="0.01" width="1.44" height="19.56"/><rect class="cls-1" x="158.75" y="0.01" width="1.44" height="19.56"/><rect class="cls-1" x="151.85" y="0.01" width="1.44" height="19.56"/><rect class="cls-1" x="144.95" y="0.01" width="1.44" height="19.56"/><rect class="cls-1" x="138.05" y="0.01" width="1.44" height="19.56"/><rect class="cls-1" x="131.14" y="0.01" width="1.44" height="19.56"/><rect class="cls-1" x="124.24" y="0.01" width="1.44" height="19.56"/><rect class="cls-1" x="117.34" y="0.01" width="1.44" height="19.56"/><rect class="cls-1" x="110.44" y="0.01" width="1.44" height="19.56"/><rect class="cls-1" x="103.53" y="0.01" width="1.44" height="19.56"/><rect class="cls-1" x="96.63" y="0.01" width="1.44" height="19.56"/><rect class="cls-1" x="89.73" y="0.01" width="1.44" height="19.56"/><rect class="cls-1" x="82.83" y="0.01" width="1.44" height="19.56"/><rect class="cls-1" x="75.93" y="0.01" width="1.44" height="19.56"/><rect class="cls-1" x="69.02" y="0.01" width="1.44" height="19.56"/><rect class="cls-1" x="62.12" y="0.01" width="1.44" height="19.56"/><rect class="cls-1" x="55.22" y="0.01" width="1.44" height="19.56"/><rect class="cls-1" x="48.32" y="0.01" width="1.44" height="19.56"/><rect class="cls-1" x="41.41" y="0.01" width="1.44" height="19.56"/><rect class="cls-1" x="34.51" y="0.01" width="1.44" height="19.56"/><rect class="cls-1" x="27.61" y="0.01" width="1.44" height="19.56"/><rect class="cls-1" x="20.71" y="0.01" width="1.44" height="19.56"/><rect class="cls-1" x="13.8" y="0.01" width="1.44" height="19.56"/><rect class="cls-1" x="6.9" y="0.01" width="1.44" height="19.56"/></g></g></svg>