<svg xmlns="http://www.w3.org/2000/svg" viewBox="0 0 1064.41 19.57"><defs><style>.cls-1{fill:#fff;}</style></defs><g id="Layer_2" data-name="Layer 2"><g id="Layer_1-2" data-name="Layer 1"><rect width="1064.41" height="19.57"/><rect class="cls-1" x="1047.11" y="0.01" width="1.44" height="19.56"/><rect class="cls-1" x="1031.24" y="0.01" width="1.44" height="19.56"/><rect class="cls-1" x="1015.38" y="0.01" width="1.44" height="19.56"/><rect class="cls-1" x="999.51" y="0.01" width="1.44" height="19.56"/><rect class="cls-1" x="983.64" y="0.01" width="1.44" height="19.56"/><rect class="cls-1" x="967.78" y="0.01" width="1.44" height="19.56"/><rect class="cls-1" x="951.91" y="0.01" width="1.44" height="19.56"/><rect class="cls-1" x="936.05" y="0.01" width="1.44" height="19.56"/><rect class="cls-1" x="920.18" y="0.01" width="1.44" height="19.56"/><rect class="cls-1" x="904.32" y="0.01" width="1.44" height="19.56"/><rect class="cls-1" x="888.45" y="0.01" width="1.44" height="19.56"/><rect class="cls-1" x="872.59" y="0.01" width="1.44" height="19.56"/><rect class="cls-1" x="856.72" y="0.01" width="1.44" height="19.56"/><rect class="cls-1" x="840.86" y="0.01" width="1.44" height="19.56"/><rect class="cls-1" x="824.99" y="0.01" width="1.44" height="19.56"/><rect class="cls-1" x="809.13" y="0.01" width="1.44" height="19.56"/><rect class="cls-1" x="793.26" y="0.01" width="1.44" height="19.56"/><rect class="cls-1" x="777.4" y="0.01" width="1.44" height="19.56"/><rect class="cls-1" x="761.53" y="0.01" width="1.44" height="19.56"/><rect class="cls-1" x="745.67" y="0.01" width="1.44" height="19.56"/><rect class="cls-1" x="729.8" y="0.01" width="1.44" height="19.56"/><rect class="cls-1" x="713.94" y="0.01" width="1.44" height="19.56"/><rect class="cls-1" x="698.07" y="0.01" width="1.44" height="19.56"/><rect class="cls-1" x="682.21" y="0.01" width="1.44" height="19.56"/><rect class="cls-1" x="666.34" y="0.01" width="1.44" height="19.56"/><rect class="cls-1" x="650.48" y="0.01" width="1.44" height="19.56"/><rect class="cls-1" x="634.61" y="0.01" width="1.44" height="19.56"/><rect class="cls-1" x="618.74" y="0.01" width="1.44" height="19.56"/><rect class="cls-1" x="602.88" y="0.01" width="1.44" height="19.56"/><rect class="cls-1" x="587.01" y="0.01" width="1.44" height="19.56"/><rect class="cls-1" x="571.15" y="0.01" width="1.44" height="19.56"/><rect class="cls-1" x="555.28" y="0.01" width="1.44" height="19.56"/><rect class="cls-1" x="539.42" y="0.01" width="1.44" height="19.56"/><rect class="cls-1" x="523.55" y="0.01" width="1.44" height="19.56"/><rect class="cls-1" x="507.69" y="0.01" width="1.44" height="19.56"/><rect class="cls-1" x="491.82" y="0.01" width="1.44" height="19.56"/><rect class="cls-1" x="475.96" y="0.01" width="1.44" height="19.56"/><rect class="cls-1" x="460.09" y="0.01" width="1.44" height="19.56"/><rect class="cls-1" x="444.23" y="0.01" width="1.44" height="19.56"/><rect class="cls-1" x="428.36" y="0.01" width="1.44" height="19.56"/><rect class="cls-1" x="412.5" y="0.01" width="1.44" height="19.56"/><rect class="cls-1" x="396.63" y="0.01" width="1.44" height="19.56"/><rect class="cls-1" x="380.77" y="0.01" width="1.44" height="19.56"/><rect class="cls-1" x="364.9" y="0.01" width="1.44" height="19.56"/><rect class="cls-1" x="349.03" y="0.01" width="1.44" height="19.56"/><rect class="cls-1" x="333.17" y="0.01" width="1.44" height="19.56"/><rect class="cls-1" x="317.3" y="0.01" width="1.44" height="19.56"/><rect class="cls-1" x="301.44" y="0.01" width="1.44" height="19.56"/><rect class="cls-1" x="285.57" y="0.01" width="1.44" height="19.56"/><rect class="cls-1" x="269.71" y="0.01" width="1.44" height="19.56"/><rect class="cls-1" x="253.84" y="0.01" width="1.44" height="19.56"/><rect class="cls-1" x="237.98" y="0.01" width="1.44" height="19.56"/><rect class="cls-1" x="222.11" y="0.01" width="1.44" height="19.56"/><rect class="cls-1" x="206.25" y="0.01" width="1.44" height="19.56"/><rect class="cls-1" x="190.38" y="0.01" width="1.44" height="19.56"/><rect class="cls-1" x="174.52" y="0.01" width="1.44" height="19.56"/><rect class="cls-1" x="158.65" y="0.01" width="1.44" height="19.56"/><rect class="cls-1" x="142.79" y="0.01" width="1.44" height="19.56"/><rect class="cls-1" x="126.92" y="0.01" width="1.44" height="19.56"/><rect class="cls-1" x="111.06" y="0.01" width="1.44" height="19.56"/><rect class="cls-1" x="95.19" y="0.01" width="1.44" height="19.56"/><rect class="cls-1" x="79.33" y="0.01" width="1.44" height="19.56"/><rect class="cls-1" x="63.46" y="0.01" width="1.44" height="19.56"/><rect class="cls-1" x="47.59" y="0.01" width="1.44" height="19.56"/><rect class="cls-1" x="31.73" y="0.01" width="1.44" height="19.56"/><rect class="cls-1" x="15.87" y="0.01" width="1.44" height="19.56"/></g></g></svg>