<svg xmlns="http://www.w3.org/2000/svg" viewBox="0 0 1064.41 19.57"><defs><style>.cls-1{fill:#fff;}</style></defs><g id="Layer_2" data-name="Layer 2"><g id="Layer_1-2" data-name="Layer 1"><rect width="1064.41" height="19.57"/><rect class="cls-1" x="1057.84" y="0.01" width="1.44" height="19.56"/><rect class="cls-1" x="1052.7" y="0.01" width="1.44" height="19.56"/><rect class="cls-1" x="1047.57" y="0.01" width="1.44" height="19.56"/><rect class="cls-1" x="1042.43" y="0.01" width="1.44" height="19.56"/><rect class="cls-1" x="1037.3" y="0.01" width="1.44" height="19.56"/><rect class="cls-1" x="1032.16" y="0.01" width="1.44" height="19.56"/><rect class="cls-1" x="1027.03" y="0.01" width="1.44" height="19.56"/><rect class="cls-1" x="1021.89" y="0.01" width="1.44" height="19.56"/><rect class="cls-1" x="1016.76" y="0.01" width="1.44" height="19.56"/><rect class="cls-1" x="1011.62" y="0.01" width="1.44" height="19.56"/><rect class="cls-1" x="1006.48" y="0.01" width="1.44" height="19.56"/><rect class="cls-1" x="1001.35" y="0.01" width="1.44" height="19.56"/><rect class="cls-1" x="996.21" y="0.01" width="1.44" height="19.56"/><rect class="cls-1" x="991.08" y="0.01" width="1.44" height="19.56"/><rect class="cls-1" x="985.94" y="0.01" width="1.44" height="19.56"/><rect class="cls-1" x="980.81" y="0.01" width="1.44" height="19.56"/><rect class="cls-1" x="975.67" y="0.01" width="1.44" height="19.56"/><rect class="cls-1" x="970.54" y="0.01" width="1.44" height="19.56"/><rect class="cls-1" x="965.4" y="0.01" width="1.44" height="19.56"/><rect class="cls-1" x="960.27" y="0.01" width="1.44" height="19.56"/><rect class="cls-1" x="955.13" y="0.01" width="1.44" height="19.56"/><rect class="cls-1" x="950" y="0.01" width="1.44" height="19.56"/><rect class="cls-1" x="944.86" y="0.01" width="1.44" height="19.56"/><rect class="cls-1" x="939.73" y="0.01" width="1.44" height="19.56"/><rect class="cls-1" x="934.59" y="0.01" width="1.44" height="19.56"/><rect class="cls-1" x="929.46" y="0.01" width="1.44" height="19.56"/><rect class="cls-1" x="924.32" y="0.01" width="1.44" height="19.56"/><rect class="cls-1" x="919.19" y="0.01" width="1.44" height="19.56"/><rect class="cls-1" x="914.05" y="0.01" width="1.44" height="19.56"/><rect class="cls-1" x="908.92" y="0.01" width="1.44" height="19.56"/><rect class="cls-1" x="903.78" y="0.01" width="1.44" height="19.56"/><rect class="cls-1" x="898.65" y="0.01" width="1.44" height="19.56"/><rect class="cls-1" x="893.51" y="0.01" width="1.44" height="19.56"/><rect class="cls-1" x="888.38" y="0.01" width="1.44" height="19.56"/><rect class="cls-1" x="883.24" y="0.01" width="1.44" height="19.56"/><rect class="cls-1" x="878.11" y="0.01" width="1.44" height="19.56"/><rect class="cls-1" x="872.97" y="0.01" width="1.44" height="19.56"/><rect class="cls-1" x="867.84" y="0.01" width="1.44" height="19.56"/><rect class="cls-1" x="862.7" y="0.01" width="1.44" height="19.56"/><rect class="cls-1" x="857.57" y="0.01" width="1.44" height="19.56"/><rect class="cls-1" x="852.43" y="0.01" width="1.44" height="19.56"/><rect class="cls-1" x="847.3" y="0.01" width="1.44" height="19.56"/><rect class="cls-1" x="842.16" y="0.01" width="1.44" height="19.56"/><rect class="cls-1" x="837.03" y="0.01" width="1.44" height="19.56"/><rect class="cls-1" x="831.89" y="0.01" width="1.44" height="19.56"/><rect class="cls-1" x="826.76" y="0.01" width="1.44" height="19.56"/><rect class="cls-1" x="821.62" y="0.01" width="1.44" height="19.56"/><rect class="cls-1" x="816.48" y="0.01" width="1.44" height="19.56"/><rect class="cls-1" x="811.35" y="0.01" width="1.44" height="19.56"/><rect class="cls-1" x="806.21" y="0.01" width="1.44" height="19.56"/><rect class="cls-1" x="801.08" y="0.01" width="1.44" height="19.56"/><rect class="cls-1" x="795.94" y="0.01" width="1.44" height="19.56"/><rect class="cls-1" x="790.81" y="0.01" width="1.44" height="19.56"/><rect class="cls-1" x="785.67" y="0.01" width="1.44" height="19.56"/><rect class="cls-1" x="780.54" y="0.01" width="1.44" height="19.56"/><rect class="cls-1" x="775.4" y="0.01" width="1.44" height="19.56"/><rect class="cls-1" x="770.27" y="0.01" width="1.44" height="19.56"/><rect class="cls-1" x="765.13" y="0.01" width="1.44" height="19.56"/><rect class="cls-1" x="760" y="0.01" width="1.44" height="19.56"/><rect class="cls-1" x="754.86" y="0.01" width="1.44" height="19.56"/><rect class="cls-1" x="749.73" y="0.01" width="1.44" height="19.56"/><rect class="cls-1" x="744.59" y="0.01" width="1.44" height="19.56"/><rect class="cls-1" x="739.46" y="0.01" width="1.44" height="19.56"/><rect class="cls-1" x="734.32" y="0.01" width="1.44" height="19.56"/><rect class="cls-1" x="729.19" y="0.01" width="1.44" height="19.56"/><rect class="cls-1" x="724.05" y="0.01" width="1.44" height="19.56"/><rect class="cls-1" x="718.92" y="0.01" width="1.44" height="19.56"/><rect class="cls-1" x="713.78" y="0.01" width="1.44" height="19.56"/><rect class="cls-1" x="708.65" y="0.01" width="1.44" height="19.56"/><rect class="cls-1" x="703.51" y="0.01" width="1.44" height="19.56"/><rect class="cls-1" x="698.38" y="0.01" width="1.44" height="19.56"/><rect class="cls-1" x="693.24" y="0.01" width="1.44" height="19.56"/><rect class="cls-1" x="688.11" y="0.01" width="1.44" height="19.56"/><rect class="cls-1" x="682.97" y="0.01" width="1.44" height="19.56"/><rect class="cls-1" x="677.84" y="0.01" width="1.44" height="19.56"/><rect class="cls-1" x="672.7" y="0.01" width="1.44" height="19.56"/><rect class="cls-1" x="667.57" y="0.01" width="1.44" height="19.56"/><rect class="cls-1" x="662.43" y="0.01" width="1.44" height="19.56"/><rect class="cls-1" x="657.3" y="0.01" width="1.44" height="19.56"/><rect class="cls-1" x="652.16" y="0.01" width="1.44" height="19.56"/><rect class="cls-1" x="647.02" y="0.01" width="1.44" height="19.56"/><rect class="cls-1" x="641.89" y="0.01" width="1.44" height="19.56"/><rect class="cls-1" x="636.75" y="0.01" width="1.44" height="19.56"/><rect class="cls-1" x="631.62" y="0.01" width="1.44" height="19.56"/><rect class="cls-1" x="626.48" y="0.01" width="1.44" height="19.56"/><rect class="cls-1" x="621.35" y="0.01" width="1.44" height="19.56"/><rect class="cls-1" x="616.21" y="0.01" width="1.44" height="19.56"/><rect class="cls-1" x="611.08" y="0.01" width="1.44" height="19.56"/><rect class="cls-1" x="605.94" y="0.01" width="1.44" height="19.56"/><rect class="cls-1" x="600.81" y="0.01" width="1.44" height="19.56"/><rect class="cls-1" x="595.67" y="0.01" width="1.44" height="19.56"/><rect class="cls-1" x="590.54" y="0.01" width="1.44" height="19.56"/><rect class="cls-1" x="585.4" y="0.01" width="1.44" height="19.56"/><rect class="cls-1" x="580.27" y="0.01" width="1.44" height="19.56"/><rect class="cls-1" x="575.13" y="0.01" width="1.44" height="19.56"/><rect class="cls-1" x="570" y="0.01" width="1.44" height="19.56"/><rect class="cls-1" x="564.86" y="0.01" width="1.44" height="19.56"/><rect class="cls-1" x="559.73" y="0.01" width="1.44" height="19.56"/><rect class="cls-1" x="554.59" y="0.01" width="1.44" height="19.56"/><rect class="cls-1" x="549.46" y="0.01" width="1.44" height="19.56"/><rect class="cls-1" x="544.32" y="0.01" width="1.44" height="19.56"/><rect class="cls-1" x="539.19" y="0.01" width="1.44" height="19.56"/><rect class="cls-1" x="534.05" y="0.01" width="1.44" height="19.56"/><rect class="cls-1" x="528.92" y="0.01" width="1.44" height="19.56"/><rect class="cls-1" x="523.78" y="0.01" width="1.44" height="19.56"/><rect class="cls-1" x="518.65" y="0.01" width="1.44" height="19.56"/><rect class="cls-1" x="513.51" y="0.01" width="1.44" height="19.56"/><rect class="cls-1" x="508.38" y="0.01" width="1.44" height="19.56"/><rect class="cls-1" x="503.24" y="0.01" width="1.44" height="19.56"/><rect class="cls-1" x="498.11" y="0.01" width="1.44" height="19.56"/><rect class="cls-1" x="492.97" y="0.01" width="1.44" height="19.56"/><rect class="cls-1" x="487.84" y="0.01" width="1.44" height="19.56"/><rect class="cls-1" x="482.7" y="0.01" width="1.44" height="19.56"/><rect class="cls-1" x="477.57" y="0.01" width="1.44" height="19.56"/><rect class="cls-1" x="472.43" y="0.01" width="1.44" height="19.56"/><rect class="cls-1" x="467.3" y="0.01" width="1.44" height="19.56"/><rect class="cls-1" x="462.16" y="0.01" width="1.44" height="19.56"/><rect class="cls-1" x="457.03" y="0.01" width="1.44" height="19.56"/><rect class="cls-1" x="451.89" y="0.01" width="1.44" height="19.56"/><rect class="cls-1" x="446.75" y="0.01" width="1.44" height="19.56"/><rect class="cls-1" x="441.62" y="0.01" width="1.44" height="19.56"/><rect class="cls-1" x="436.48" y="0.01" width="1.44" height="19.56"/><rect class="cls-1" x="431.35" y="0.01" width="1.44" height="19.56"/><rect class="cls-1" x="426.21" y="0.01" width="1.44" height="19.56"/><rect class="cls-1" x="421.08" y="0.01" width="1.44" height="19.56"/><rect class="cls-1" x="415.94" y="0.01" width="1.44" height="19.56"/><rect class="cls-1" x="410.81" y="0.01" width="1.44" height="19.56"/><rect class="cls-1" x="405.67" y="0.01" width="1.44" height="19.56"/><rect class="cls-1" x="400.54" y="0.01" width="1.44" height="19.56"/><rect class="cls-1" x="395.4" y="0.01" width="1.44" height="19.56"/><rect class="cls-1" x="390.27" y="0.01" width="1.44" height="19.56"/><rect class="cls-1" x="385.13" y="0.01" width="1.44" height="19.56"/><rect class="cls-1" x="380" y="0.01" width="1.44" height="19.56"/><rect class="cls-1" x="374.86" y="0.01" width="1.44" height="19.56"/><rect class="cls-1" x="369.73" y="0.01" width="1.44" height="19.56"/><rect class="cls-1" x="364.59" y="0.01" width="1.44" height="19.56"/><rect class="cls-1" x="359.46" y="0.01" width="1.44" height="19.56"/><rect class="cls-1" x="354.32" y="0.01" width="1.44" height="19.56"/><rect class="cls-1" x="349.19" y="0.01" width="1.44" height="19.56"/><rect class="cls-1" x="344.05" y="0.01" width="1.44" height="19.56"/><rect class="cls-1" x="338.92" y="0.01" width="1.44" height="19.56"/><rect class="cls-1" x="333.78" y="0.01" width="1.44" height="19.56"/><rect class="cls-1" x="328.65" y="0.01" width="1.44" height="19.56"/><rect class="cls-1" x="323.51" y="0.01" width="1.44" height="19.56"/><rect class="cls-1" x="318.38" y="0.01" width="1.44" height="19.56"/><rect class="cls-1" x="313.24" y="0.01" width="1.44" height="19.56"/><rect class="cls-1" x="308.11" y="0.01" width="1.44" height="19.56"/><rect class="cls-1" x="302.97" y="0.01" width="1.44" height="19.56"/><rect class="cls-1" x="297.84" y="0.01" width="1.44" height="19.56"/><rect class="cls-1" x="292.7" y="0.01" width="1.44" height="19.56"/><rect class="cls-1" x="287.57" y="0.01" width="1.44" height="19.56"/><rect class="cls-1" x="282.43" y="0.01" width="1.44" height="19.56"/><rect class="cls-1" x="277.29" y="0.01" width="1.44" height="19.56"/><rect class="cls-1" x="272.16" y="0.01" width="1.44" height="19.56"/><rect class="cls-1" x="267.02" y="0.01" width="1.44" height="19.56"/><rect class="cls-1" x="261.89" y="0.01" width="1.44" height="19.56"/><rect class="cls-1" x="256.75" y="0.01" width="1.44" height="19.56"/><rect class="cls-1" x="251.62" y="0.01" width="1.44" height="19.56"/><rect class="cls-1" x="246.48" y="0.01" width="1.44" height="19.56"/><rect class="cls-1" x="241.35" y="0.01" width="1.44" height="19.56"/><rect class="cls-1" x="236.21" y="0.01" width="1.44" height="19.56"/><rect class="cls-1" x="231.08" y="0.01" width="1.44" height="19.56"/><rect class="cls-1" x="225.94" y="0.01" width="1.44" height="19.56"/><rect class="cls-1" x="220.81" y="0.01" width="1.44" height="19.56"/><rect class="cls-1" x="215.67" y="0.01" width="1.44" height="19.56"/><rect class="cls-1" x="210.54" y="0.01" width="1.44" height="19.56"/><rect class="cls-1" x="205.4" y="0.01" width="1.44" height="19.56"/><rect class="cls-1" x="200.27" y="0.01" width="1.44" height="19.56"/><rect class="cls-1" x="195.13" y="0.01" width="1.44" height="19.56"/><rect class="cls-1" x="190" y="0.01" width="1.44" height="19.56"/><rect class="cls-1" x="184.86" y="0.01" width="1.44" height="19.56"/><rect class="cls-1" x="179.73" y="0.01" width="1.44" height="19.56"/><rect class="cls-1" x="174.59" y="0.01" width="1.44" height="19.56"/><rect class="cls-1" x="169.46" y="0.01" width="1.44" height="19.56"/><rect class="cls-1" x="164.32" y="0.01" width="1.44" height="19.56"/><rect class="cls-1" x="159.19" y="0.01" width="1.44" height="19.56"/><rect class="cls-1" x="154.05" y="0.01" width="1.44" height="19.56"/><rect class="cls-1" x="148.92" y="0.01" width="1.44" height="19.56"/><rect class="cls-1" x="143.78" y="0.01" width="1.44" height="19.56"/><rect class="cls-1" x="138.65" y="0.01" width="1.44" height="19.56"/><rect class="cls-1" x="133.51" y="0.01" width="1.44" height="19.56"/><rect class="cls-1" x="128.38" y="0.01" width="1.44" height="19.56"/><rect class="cls-1" x="123.24" y="0.01" width="1.44" height="19.56"/><rect class="cls-1" x="118.1" y="0.01" width="1.44" height="19.56"/><rect class="cls-1" x="112.97" y="0.01" width="1.44" height="19.56"/><rect class="cls-1" x="107.83" y="0.01" width="1.44" height="19.56"/><rect class="cls-1" x="102.7" y="0.01" width="1.44" height="19.56"/><rect class="cls-1" x="97.56" y="0.01" width="1.44" height="19.56"/><rect class="cls-1" x="92.43" y="0.01" width="1.44" height="19.56"/><rect class="cls-1" x="87.29" y="0.01" width="1.44" height="19.56"/><rect class="cls-1" x="82.16" y="0.01" width="1.44" height="19.56"/><rect class="cls-1" x="77.02" y="0.01" width="1.44" height="19.56"/><rect class="cls-1" x="71.89" y="0.01" width="1.44" height="19.56"/><rect class="cls-1" x="66.75" y="0.01" width="1.44" height="19.56"/><rect class="cls-1" x="61.62" y="0.01" width="1.44" height="19.56"/><rect class="cls-1" x="56.49" y="0.01" width="1.44" height="19.56"/><rect class="cls-1" x="51.35" y="0.01" width="1.44" height="19.56"/><rect class="cls-1" x="46.21" y="0.01" width="1.44" height="19.56"/><rect class="cls-1" x="41.08" y="0.01" width="1.44" height="19.56"/><rect class="cls-1" x="35.95" y="0.01" width="1.44" height="19.56"/><rect class="cls-1" x="30.81" y="0.01" width="1.44" height="19.56"/><rect class="cls-1" x="25.68" y="0.01" width="1.44" height="19.56"/><rect class="cls-1" x="20.54" y="0.01" width="1.44" height="19.56"/><rect class="cls-1" x="15.4" y="0.01" width="1.44" height="19.56"/><rect class="cls-1" x="10.27" y="0.01" width="1.44" height="19.56"/><rect class="cls-1" x="5.13" y="0.01" width="1.44" height="19.56"/></g></g></svg>