<svg xmlns="http://www.w3.org/2000/svg" viewBox="0 0 1064.41 19.57"><defs><style>.cls-1{fill:#fff;}</style></defs><g id="Layer_2" data-name="Layer 2"><g id="Layer_1-2" data-name="Layer 1"><rect width="1064.41" height="19.57"/><rect class="cls-1" x="1045.83" y="0.01" width="1.44" height="19.56"/><rect class="cls-1" x="1028.68" y="0.01" width="1.44" height="19.56"/><rect class="cls-1" x="1011.54" y="0.01" width="1.44" height="19.56"/><rect class="cls-1" x="994.39" y="0.01" width="1.44" height="19.56"/><rect class="cls-1" x="977.25" y="0.01" width="1.44" height="19.56"/><rect class="cls-1" x="960.1" y="0.01" width="1.44" height="19.56"/><rect class="cls-1" x="942.96" y="0.01" width="1.44" height="19.56"/><rect class="cls-1" x="925.81" y="0.01" width="1.44" height="19.56"/><rect class="cls-1" x="908.67" y="0.01" width="1.44" height="19.56"/><rect class="cls-1" x="891.52" y="0.01" width="1.44" height="19.56"/><rect class="cls-1" x="874.38" y="0.01" width="1.44" height="19.56"/><rect class="cls-1" x="857.23" y="0.01" width="1.44" height="19.56"/><rect class="cls-1" x="840.09" y="0.01" width="1.44" height="19.56"/><rect class="cls-1" x="822.95" y="0.01" width="1.44" height="19.56"/><rect class="cls-1" x="805.8" y="0.01" width="1.44" height="19.56"/><rect class="cls-1" x="788.66" y="0.01" width="1.44" height="19.56"/><rect class="cls-1" x="771.51" y="0.01" width="1.44" height="19.56"/><rect class="cls-1" x="754.37" y="0.01" width="1.44" height="19.56"/><rect class="cls-1" x="737.22" y="0.01" width="1.44" height="19.56"/><rect class="cls-1" x="720.08" y="0.01" width="1.44" height="19.56"/><rect class="cls-1" x="702.93" y="0.01" width="1.44" height="19.56"/><rect class="cls-1" x="685.79" y="0.01" width="1.44" height="19.56"/><rect class="cls-1" x="668.64" y="0.01" width="1.44" height="19.56"/><rect class="cls-1" x="651.5" y="0.01" width="1.44" height="19.56"/><rect class="cls-1" x="634.35" y="0.01" width="1.44" height="19.56"/><rect class="cls-1" x="617.21" y="0.01" width="1.44" height="19.56"/><rect class="cls-1" x="600.06" y="0.01" width="1.44" height="19.56"/><rect class="cls-1" x="582.92" y="0.01" width="1.44" height="19.56"/><rect class="cls-1" x="565.77" y="0.01" width="1.44" height="19.56"/><rect class="cls-1" x="548.63" y="0.01" width="1.44" height="19.56"/><rect class="cls-1" x="531.49" y="0.01" width="1.44" height="19.56"/><rect class="cls-1" x="514.34" y="0.01" width="1.44" height="19.56"/><rect class="cls-1" x="497.2" y="0.01" width="1.44" height="19.56"/><rect class="cls-1" x="480.05" y="0.01" width="1.44" height="19.56"/><rect class="cls-1" x="462.91" y="0.01" width="1.44" height="19.56"/><rect class="cls-1" x="445.76" y="0.01" width="1.44" height="19.56"/><rect class="cls-1" x="428.62" y="0.01" width="1.44" height="19.56"/><rect class="cls-1" x="411.47" y="0.01" width="1.44" height="19.56"/><rect class="cls-1" x="394.33" y="0.01" width="1.44" height="19.56"/><rect class="cls-1" x="377.18" y="0.01" width="1.44" height="19.56"/><rect class="cls-1" x="360.04" y="0.01" width="1.44" height="19.56"/><rect class="cls-1" x="342.89" y="0.01" width="1.44" height="19.56"/><rect class="cls-1" x="325.75" y="0.01" width="1.44" height="19.56"/><rect class="cls-1" x="308.6" y="0.01" width="1.44" height="19.56"/><rect class="cls-1" x="291.46" y="0.01" width="1.44" height="19.56"/><rect class="cls-1" x="274.31" y="0.01" width="1.44" height="19.56"/><rect class="cls-1" x="257.17" y="0.01" width="1.44" height="19.56"/><rect class="cls-1" x="240.03" y="0.01" width="1.44" height="19.56"/><rect class="cls-1" x="222.88" y="0.01" width="1.44" height="19.56"/><rect class="cls-1" x="205.74" y="0.01" width="1.44" height="19.56"/><rect class="cls-1" x="188.59" y="0.01" width="1.44" height="19.56"/><rect class="cls-1" x="171.45" y="0.01" width="1.44" height="19.56"/><rect class="cls-1" x="154.3" y="0.01" width="1.44" height="19.56"/><rect class="cls-1" x="137.16" y="0.01" width="1.44" height="19.56"/><rect class="cls-1" x="120.01" y="0.01" width="1.44" height="19.56"/><rect class="cls-1" x="102.87" y="0.01" width="1.44" height="19.56"/><rect class="cls-1" x="85.72" y="0.01" width="1.44" height="19.56"/><rect class="cls-1" x="68.58" y="0.01" width="1.44" height="19.56"/><rect class="cls-1" x="51.43" y="0.01" width="1.44" height="19.56"/><rect class="cls-1" x="34.29" y="0.01" width="1.44" height="19.56"/><rect class="cls-1" x="17.14" y="0.01" width="1.44" height="19.56"/></g></g></svg>