<svg xmlns="http://www.w3.org/2000/svg" viewBox="0 0 1064.41 19.57"><defs><style>.cls-1{fill:#fff;}</style></defs><g id="Layer_2" data-name="Layer 2"><g id="Layer_1-2" data-name="Layer 1"><rect width="1064.41" height="19.57"/><rect class="cls-1" x="1051.66" y="0.01" width="1.44" height="19.56"/><rect class="cls-1" x="1040.35" y="0.01" width="1.44" height="19.56"/><rect class="cls-1" x="1029.05" y="0.01" width="1.44" height="19.56"/><rect class="cls-1" x="1017.74" y="0.01" width="1.44" height="19.56"/><rect class="cls-1" x="1006.43" y="0.01" width="1.44" height="19.56"/><rect class="cls-1" x="995.12" y="0.01" width="1.44" height="19.56"/><rect class="cls-1" x="983.81" y="0.01" width="1.44" height="19.56"/><rect class="cls-1" x="972.51" y="0.01" width="1.44" height="19.56"/><rect class="cls-1" x="961.2" y="0.01" width="1.44" height="19.56"/><rect class="cls-1" x="949.89" y="0.01" width="1.44" height="19.56"/><rect class="cls-1" x="938.58" y="0.01" width="1.44" height="19.56"/><rect class="cls-1" x="927.27" y="0.01" width="1.44" height="19.56"/><rect class="cls-1" x="915.96" y="0.01" width="1.44" height="19.56"/><rect class="cls-1" x="904.66" y="0.01" width="1.44" height="19.56"/><rect class="cls-1" x="893.35" y="0.01" width="1.44" height="19.56"/><rect class="cls-1" x="882.04" y="0.01" width="1.44" height="19.56"/><rect class="cls-1" x="870.73" y="0.01" width="1.44" height="19.56"/><rect class="cls-1" x="859.42" y="0.01" width="1.44" height="19.56"/><rect class="cls-1" x="848.12" y="0.01" width="1.44" height="19.56"/><rect class="cls-1" x="836.81" y="0.01" width="1.44" height="19.56"/><rect class="cls-1" x="825.5" y="0.01" width="1.44" height="19.56"/><rect class="cls-1" x="814.19" y="0.01" width="1.44" height="19.56"/><rect class="cls-1" x="802.88" y="0.01" width="1.44" height="19.56"/><rect class="cls-1" x="791.57" y="0.01" width="1.44" height="19.56"/><rect class="cls-1" x="780.27" y="0.01" width="1.44" height="19.56"/><rect class="cls-1" x="768.96" y="0.01" width="1.44" height="19.56"/><rect class="cls-1" x="757.65" y="0.01" width="1.44" height="19.56"/><rect class="cls-1" x="746.34" y="0.01" width="1.44" height="19.56"/><rect class="cls-1" x="735.03" y="0.01" width="1.44" height="19.56"/><rect class="cls-1" x="723.73" y="0.01" width="1.44" height="19.56"/><rect class="cls-1" x="712.42" y="0.01" width="1.44" height="19.56"/><rect class="cls-1" x="701.11" y="0.01" width="1.44" height="19.56"/><rect class="cls-1" x="689.8" y="0.01" width="1.44" height="19.56"/><rect class="cls-1" x="678.49" y="0.01" width="1.44" height="19.56"/><rect class="cls-1" x="667.18" y="0.01" width="1.44" height="19.56"/><rect class="cls-1" x="655.88" y="0.01" width="1.44" height="19.56"/><rect class="cls-1" x="644.57" y="0.01" width="1.44" height="19.56"/><rect class="cls-1" x="633.26" y="0.01" width="1.44" height="19.56"/><rect class="cls-1" x="621.95" y="0.01" width="1.44" height="19.56"/><rect class="cls-1" x="610.64" y="0.01" width="1.44" height="19.56"/><rect class="cls-1" x="599.34" y="0.01" width="1.44" height="19.56"/><rect class="cls-1" x="588.03" y="0.01" width="1.44" height="19.56"/><rect class="cls-1" x="576.72" y="0.01" width="1.44" height="19.56"/><rect class="cls-1" x="565.41" y="0.01" width="1.44" height="19.56"/><rect class="cls-1" x="554.1" y="0.01" width="1.44" height="19.56"/><rect class="cls-1" x="542.79" y="0.01" width="1.44" height="19.56"/><rect class="cls-1" x="531.49" y="0.01" width="1.44" height="19.56"/><rect class="cls-1" x="520.18" y="0.01" width="1.44" height="19.56"/><rect class="cls-1" x="508.87" y="0.01" width="1.44" height="19.56"/><rect class="cls-1" x="497.56" y="0.01" width="1.44" height="19.56"/><rect class="cls-1" x="486.25" y="0.01" width="1.44" height="19.56"/><rect class="cls-1" x="474.95" y="0.01" width="1.44" height="19.56"/><rect class="cls-1" x="463.64" y="0.01" width="1.44" height="19.56"/><rect class="cls-1" x="452.33" y="0.01" width="1.44" height="19.56"/><rect class="cls-1" x="441.02" y="0.01" width="1.44" height="19.56"/><rect class="cls-1" x="429.71" y="0.01" width="1.44" height="19.56"/><rect class="cls-1" x="418.4" y="0.01" width="1.44" height="19.56"/><rect class="cls-1" x="407.1" y="0.01" width="1.44" height="19.56"/><rect class="cls-1" x="395.79" y="0.01" width="1.44" height="19.56"/><rect class="cls-1" x="384.48" y="0.01" width="1.44" height="19.56"/><rect class="cls-1" x="373.17" y="0.01" width="1.44" height="19.56"/><rect class="cls-1" x="361.86" y="0.01" width="1.44" height="19.56"/><rect class="cls-1" x="350.55" y="0.01" width="1.44" height="19.56"/><rect class="cls-1" x="339.25" y="0.01" width="1.44" height="19.56"/><rect class="cls-1" x="327.94" y="0.01" width="1.44" height="19.56"/><rect class="cls-1" x="316.63" y="0.01" width="1.44" height="19.56"/><rect class="cls-1" x="305.32" y="0.01" width="1.44" height="19.56"/><rect class="cls-1" x="294.01" y="0.01" width="1.44" height="19.56"/><rect class="cls-1" x="282.71" y="0.01" width="1.44" height="19.56"/><rect class="cls-1" x="271.4" y="0.01" width="1.44" height="19.56"/><rect class="cls-1" x="260.09" y="0.01" width="1.44" height="19.56"/><rect class="cls-1" x="248.78" y="0.01" width="1.44" height="19.56"/><rect class="cls-1" x="237.47" y="0.01" width="1.44" height="19.56"/><rect class="cls-1" x="226.16" y="0.01" width="1.44" height="19.56"/><rect class="cls-1" x="214.86" y="0.01" width="1.44" height="19.56"/><rect class="cls-1" x="203.55" y="0.01" width="1.44" height="19.56"/><rect class="cls-1" x="192.24" y="0.01" width="1.44" height="19.56"/><rect class="cls-1" x="180.93" y="0.01" width="1.44" height="19.56"/><rect class="cls-1" x="169.62" y="0.01" width="1.44" height="19.56"/><rect class="cls-1" x="158.32" y="0.01" width="1.44" height="19.56"/><rect class="cls-1" x="147.01" y="0.01" width="1.44" height="19.56"/><rect class="cls-1" x="135.7" y="0.01" width="1.44" height="19.56"/><rect class="cls-1" x="124.39" y="0.01" width="1.44" height="19.56"/><rect class="cls-1" x="113.08" y="0.01" width="1.44" height="19.56"/><rect class="cls-1" x="101.77" y="0.01" width="1.44" height="19.56"/><rect class="cls-1" x="90.47" y="0.01" width="1.44" height="19.56"/><rect class="cls-1" x="79.16" y="0.01" width="1.44" height="19.56"/><rect class="cls-1" x="67.85" y="0.01" width="1.44" height="19.56"/><rect class="cls-1" x="56.54" y="0.01" width="1.44" height="19.56"/><rect class="cls-1" x="45.23" y="0.01" width="1.44" height="19.56"/><rect class="cls-1" x="33.92" y="0.01" width="1.44" height="19.56"/><rect class="cls-1" x="22.62" y="0.01" width="1.44" height="19.56"/><rect class="cls-1" x="11.31" y="0.01" width="1.44" height="19.56"/></g></g></svg>