<svg xmlns="http://www.w3.org/2000/svg" viewBox="0 0 1064.41 19.57"><defs><style>.cls-1{fill:#fff;}</style></defs><g id="Layer_2" data-name="Layer 2"><g id="Layer_1-2" data-name="Layer 1"><rect width="1064.41" height="19.57"/><rect class="cls-1" x="1044.64" y="0.01" width="1.44" height="19.56"/><rect class="cls-1" x="1026.32" y="0.01" width="1.44" height="19.56"/><rect class="cls-1" x="1007.99" y="0.01" width="1.44" height="19.56"/><rect class="cls-1" x="989.66" y="0.01" width="1.44" height="19.56"/><rect class="cls-1" x="971.34" y="0.01" width="1.44" height="19.56"/><rect class="cls-1" x="953.01" y="0.01" width="1.44" height="19.56"/><rect class="cls-1" x="934.68" y="0.01" width="1.44" height="19.56"/><rect class="cls-1" x="916.35" y="0.01" width="1.44" height="19.56"/><rect class="cls-1" x="898.03" y="0.01" width="1.44" height="19.56"/><rect class="cls-1" x="879.7" y="0.01" width="1.44" height="19.56"/><rect class="cls-1" x="861.37" y="0.01" width="1.44" height="19.56"/><rect class="cls-1" x="843.05" y="0.01" width="1.44" height="19.56"/><rect class="cls-1" x="824.72" y="0.01" width="1.44" height="19.56"/><rect class="cls-1" x="806.39" y="0.01" width="1.44" height="19.56"/><rect class="cls-1" x="788.06" y="0.01" width="1.44" height="19.56"/><rect class="cls-1" x="769.74" y="0.01" width="1.44" height="19.56"/><rect class="cls-1" x="751.41" y="0.01" width="1.44" height="19.56"/><rect class="cls-1" x="733.08" y="0.01" width="1.44" height="19.56"/><rect class="cls-1" x="714.76" y="0.01" width="1.44" height="19.56"/><rect class="cls-1" x="696.43" y="0.01" width="1.44" height="19.56"/><rect class="cls-1" x="678.1" y="0.01" width="1.44" height="19.56"/><rect class="cls-1" x="659.78" y="0.01" width="1.44" height="19.56"/><rect class="cls-1" x="641.45" y="0.01" width="1.44" height="19.56"/><rect class="cls-1" x="623.12" y="0.01" width="1.44" height="19.56"/><rect class="cls-1" x="604.79" y="0.01" width="1.44" height="19.56"/><rect class="cls-1" x="586.47" y="0.01" width="1.44" height="19.56"/><rect class="cls-1" x="568.14" y="0.01" width="1.44" height="19.56"/><rect class="cls-1" x="549.81" y="0.01" width="1.44" height="19.56"/><rect class="cls-1" x="531.49" y="0.01" width="1.44" height="19.56"/><rect class="cls-1" x="513.16" y="0.01" width="1.44" height="19.56"/><rect class="cls-1" x="494.83" y="0.01" width="1.44" height="19.56"/><rect class="cls-1" x="476.5" y="0.01" width="1.44" height="19.56"/><rect class="cls-1" x="458.18" y="0.01" width="1.44" height="19.56"/><rect class="cls-1" x="439.85" y="0.01" width="1.44" height="19.56"/><rect class="cls-1" x="421.52" y="0.01" width="1.44" height="19.56"/><rect class="cls-1" x="403.2" y="0.01" width="1.44" height="19.56"/><rect class="cls-1" x="384.87" y="0.01" width="1.44" height="19.56"/><rect class="cls-1" x="366.54" y="0.01" width="1.44" height="19.56"/><rect class="cls-1" x="348.21" y="0.01" width="1.44" height="19.56"/><rect class="cls-1" x="329.89" y="0.01" width="1.44" height="19.56"/><rect class="cls-1" x="311.56" y="0.01" width="1.44" height="19.56"/><rect class="cls-1" x="293.23" y="0.01" width="1.44" height="19.56"/><rect class="cls-1" x="274.91" y="0.01" width="1.44" height="19.56"/><rect class="cls-1" x="256.58" y="0.01" width="1.44" height="19.56"/><rect class="cls-1" x="238.25" y="0.01" width="1.44" height="19.56"/><rect class="cls-1" x="219.93" y="0.01" width="1.44" height="19.56"/><rect class="cls-1" x="201.6" y="0.01" width="1.44" height="19.56"/><rect class="cls-1" x="183.27" y="0.01" width="1.44" height="19.56"/><rect class="cls-1" x="164.94" y="0.01" width="1.44" height="19.56"/><rect class="cls-1" x="146.62" y="0.01" width="1.44" height="19.56"/><rect class="cls-1" x="128.29" y="0.01" width="1.44" height="19.56"/><rect class="cls-1" x="109.96" y="0.01" width="1.44" height="19.56"/><rect class="cls-1" x="91.64" y="0.01" width="1.44" height="19.56"/><rect class="cls-1" x="73.31" y="0.01" width="1.44" height="19.56"/><rect class="cls-1" x="54.98" y="0.01" width="1.44" height="19.56"/><rect class="cls-1" x="36.65" y="0.01" width="1.44" height="19.56"/><rect class="cls-1" x="18.33" y="0.01" width="1.44" height="19.56"/></g></g></svg>