<svg xmlns="http://www.w3.org/2000/svg" viewBox="0 0 188.89 77.78"><defs><style>.cls-1{fill:#231f20;}</style></defs><g id="Layer_2" data-name="Layer 2"><g id="Layer_1-2" data-name="Layer 1"><rect class="cls-1" y="22.22" width="11.11" height="33.33"/><rect class="cls-1" x="22.22" y="66.67" width="11.11" height="11.11"/><rect class="cls-1" x="66.66" y="66.67" width="11.11" height="11.11"/><rect class="cls-1" x="44.44" y="44.44" width="11.11" height="11.11"/><rect class="cls-1" x="22.22" width="11.11" height="11.11"/><rect class="cls-1" x="66.66" width="11.11" height="11.11"/><rect class="cls-1" x="44.44" y="22.22" width="11.11" height="11.11"/><rect class="cls-1" x="33.33" y="33.33" width="11.11" height="11.11"/><rect class="cls-1" x="55.55" y="33.33" width="11.11" height="11.11"/><rect class="cls-1" x="11.11" y="55.55" width="11.11" height="11.12"/><rect class="cls-1" x="11.11" y="11.11" width="11.11" height="11.11"/><rect class="cls-1" x="177.78" y="22.22" width="11.11" height="33.33"/><rect class="cls-1" x="111.11" y="66.67" width="11.11" height="11.11"/><rect class="cls-1" x="155.55" y="66.67" width="11.11" height="11.11"/><rect class="cls-1" x="133.33" y="44.44" width="11.11" height="11.11"/><rect class="cls-1" x="111.11" width="11.11" height="11.11"/><rect class="cls-1" x="155.55" width="11.11" height="11.11"/><rect class="cls-1" x="133.33" y="22.22" width="11.11" height="11.11"/><rect class="cls-1" x="122.22" y="33.33" width="11.11" height="11.11"/><rect class="cls-1" x="166.66" y="11.11" width="11.12" height="11.11"/><rect class="cls-1" x="166.66" y="55.55" width="11.12" height="11.12"/><rect class="cls-1" x="144.44" y="33.33" width="11.11" height="11.11"/><polygon class="cls-1" points="100 55.55 100 22.22 111.11 22.22 111.11 11.11 100 11.11 100 22.22 88.89 22.22 88.89 11.11 77.77 11.11 77.77 22.22 88.89 22.22 88.89 55.55 77.77 55.55 77.77 66.67 88.89 66.67 88.89 55.55 100 55.55 100 66.67 111.11 66.67 111.11 55.55 100 55.55"/></g></g></svg>