<svg id="Layer_1" data-name="Layer 1" xmlns="http://www.w3.org/2000/svg" viewBox="0 0 595.29 595.28"><defs><style>.cls-1{fill:#231f20;}</style></defs><polygon class="cls-1" points="132.33 0 132.33 66.14 66.14 66.14 66.14 132.27 0 132.27 0 0 132.33 0"/><polygon class="cls-1" points="132.33 529.14 132.33 595.27 0 595.27 0 463 66.14 463 66.14 529.14 132.33 529.14"/><polygon class="cls-1" points="595.29 463.01 595.29 595.28 463.02 595.28 463.02 529.14 529.15 529.14 529.15 463.01 595.29 463.01"/><polygon class="cls-1" points="595.29 0 595.29 132.27 529.15 132.27 529.15 66.14 463.02 66.14 463.02 0 595.29 0"/><polygon class="cls-1" points="462.94 463 462.94 529.14 396.87 529.14 396.87 595.27 198.4 595.27 198.4 529.14 132.27 529.14 132.27 463 264.6 463 264.6 529.14 330.73 529.14 330.73 463 462.94 463"/><polygon class="cls-1" points="462.94 66.14 462.94 132.27 330.73 132.27 330.73 66.14 264.6 66.14 264.6 132.27 132.27 132.27 132.27 66.14 198.4 66.14 198.4 0 396.87 0 396.87 66.14 462.94 66.14"/><polygon class="cls-1" points="132.27 132.27 132.27 264.54 66.14 264.54 66.14 330.67 132.27 330.67 132.27 463 66.14 463 66.14 396.81 0 396.81 0 198.4 66.14 198.4 66.14 132.27 132.27 132.27"/><polygon class="cls-1" points="595.27 198.4 595.27 396.81 529.14 396.81 529.14 463 462.94 463 462.94 396.81 463 396.81 463 330.67 529.14 330.67 529.14 264.54 463 264.54 463 198.4 462.94 198.4 462.94 132.27 529.14 132.27 529.14 198.4 595.27 198.4"/><rect class="cls-1" x="198.45" y="198.44" width="198.4" height="198.4"/></svg>