<svg width="100" height="78" viewBox="0 0 100 78" fill="none" xmlns="http://www.w3.org/2000/svg">
<path d="M11.11 22.22H0V55.55H11.11V22.22Z" fill="black"/>
<path d="M100 22.22H88.8901V55.55H100V22.22Z" fill="black"/>
<path d="M33.3297 66.6699H22.2197V77.7799H33.3297V66.6699Z" fill="black"/>
<path d="M77.7701 66.6699H66.6602V77.7799H77.7701V66.6699Z" fill="black"/>
<path d="M55.5499 44.4399H44.4399V55.5499H55.5499V44.4399Z" fill="black"/>
<path d="M33.3297 0H22.2197V11.11H33.3297V0Z" fill="black"/>
<path d="M77.7701 0H66.6602V11.11H77.7701V0Z" fill="black"/>
<path d="M55.5499 22.22H44.4399V33.33H55.5499V22.22Z" fill="black"/>
<path d="M44.4401 33.3301H33.3301V44.4401H44.4401V33.3301Z" fill="black"/>
<path d="M88.89 11.1099H77.77V22.2199H88.89V11.1099Z" fill="black"/>
<path d="M88.89 55.55H77.77V66.67H88.89V55.55Z" fill="black"/>
<path d="M66.6598 33.3301H55.5498V44.4401H66.6598V33.3301Z" fill="black"/>
<path d="M22.2204 55.55H11.1104V66.67H22.2204V55.55Z" fill="black"/>
<path d="M22.2204 11.1099H11.1104V22.2199H22.2204V11.1099Z" fill="black"/>
</svg>
