<svg xmlns="http://www.w3.org/2000/svg" viewBox="0 0 1064.41 19.85"><defs><style>.cls-1{fill:#fff;}</style></defs><g id="Layer_2" data-name="Layer 2"><g id="Layer_1-2" data-name="Layer 1"><rect width="1064.41" height="19.57"/><polygon class="cls-1" points="1.44 0.16 2.88 0.16 2.88 19.85 1.44 19.85 1.44 0.16"/><polygon class="cls-1" points="9.35 0.16 10.79 0.16 10.79 19.85 9.35 19.85 9.35 0.16"/><polygon class="cls-1" points="37.4 0.16 38.84 0.16 38.84 19.85 37.4 19.85 37.4 0.16"/><polygon class="cls-1" points="47.47 0.16 48.91 0.16 48.91 19.85 47.47 19.85 47.47 0.16"/><polygon class="cls-1" points="47.47 0.16 48.91 0.16 48.91 19.85 47.47 19.85 47.47 0.16"/><polygon class="cls-1" points="48.19 0.16 49.62 0.16 49.62 19.85 48.19 19.85 48.19 0.16"/><polygon class="cls-1" points="48.91 0.16 50.34 0.16 50.34 19.85 48.91 19.85 48.91 0.16"/><polygon class="cls-1" points="49.62 0.16 51.06 0.16 51.06 19.85 49.62 19.85 49.62 0.16"/><polygon class="cls-1" points="53.22 0.16 54.66 0.16 54.66 19.85 53.22 19.85 53.22 0.16"/><polygon class="cls-1" points="54.66 0.16 56.1 0.16 56.1 19.85 54.66 19.85 54.66 0.16"/><polygon class="cls-1" points="56.1 0.16 57.54 0.16 57.54 19.85 56.1 19.85 56.1 0.16"/><polygon class="cls-1" points="59.69 0.16 61.13 0.16 61.13 19.85 59.69 19.85 59.69 0.16"/><polygon class="cls-1" points="60.41 0.16 61.85 0.16 61.85 19.85 60.41 19.85 60.41 0.16"/><polygon class="cls-1" points="61.85 0.16 63.29 0.16 63.29 19.85 61.85 19.85 61.85 0.16"/><polygon class="cls-1" points="64.01 0.16 65.45 0.16 65.45 19.85 64.01 19.85 64.01 0.16"/><polygon class="cls-1" points="77.67 0.16 79.11 0.16 79.11 19.85 77.67 19.85 77.67 0.16"/><polygon class="cls-1" points="81.99 0.16 83.43 0.16 83.43 19.85 81.99 19.85 81.99 0.16"/><polygon class="cls-1" points="91.34 0.16 92.78 0.16 92.78 19.85 91.34 19.85 91.34 0.16"/><polygon class="cls-1" points="93.5 0.16 94.93 0.16 94.93 19.85 93.5 19.85 93.5 0.16"/><polygon class="cls-1" points="94.93 0.16 96.37 0.16 96.37 19.85 94.93 19.85 94.93 0.16"/><polygon class="cls-1" points="95.65 0.16 97.09 0.16 97.09 19.85 95.65 19.85 95.65 0.16"/><polygon class="cls-1" points="98.53 0.16 99.97 0.16 99.97 19.85 98.53 19.85 98.53 0.16"/><polygon class="cls-1" points="146 0.16 147.44 0.16 147.44 19.85 146 19.85 146 0.16"/><polygon class="cls-1" points="157.5 0.16 158.94 0.16 158.94 19.85 157.5 19.85 157.5 0.16"/><polygon class="cls-1" points="160.38 0.16 161.82 0.16 161.82 19.85 160.38 19.85 160.38 0.16"/><polygon class="cls-1" points="161.82 0.16 163.26 0.16 163.26 19.85 161.82 19.85 161.82 0.16"/><polygon class="cls-1" points="166.85 0.16 168.29 0.16 168.29 19.85 166.85 19.85 166.85 0.16"/><polygon class="cls-1" points="197.06 0.16 198.5 0.16 198.5 19.85 197.06 19.85 197.06 0.16"/><polygon class="cls-1" points="206.41 0.16 207.85 0.16 207.85 19.85 206.41 19.85 206.41 0.16"/><polygon class="cls-1" points="206.41 0.16 207.85 0.16 207.85 19.85 206.41 19.85 206.41 0.16"/><polygon class="cls-1" points="206.41 0.16 207.85 0.16 207.85 19.85 206.41 19.85 206.41 0.16"/><polygon class="cls-1" points="208.57 0.16 210 0.16 210 19.85 208.57 19.85 208.57 0.16"/><polygon class="cls-1" points="225.11 0.16 226.55 0.16 226.55 19.85 225.11 19.85 225.11 0.16"/><polygon class="cls-1" points="231.58 0.16 233.02 0.16 233.02 19.85 231.58 19.85 231.58 0.16"/><polygon class="cls-1" points="233.02 0.16 234.46 0.16 234.46 19.85 233.02 19.85 233.02 0.16"/><polygon class="cls-1" points="234.46 0.16 235.9 0.16 235.9 19.85 234.46 19.85 234.46 0.16"/><polygon class="cls-1" points="236.62 0.16 238.05 0.16 238.05 19.85 236.62 19.85 236.62 0.16"/><polygon class="cls-1" points="238.05 0.16 239.49 0.16 239.49 19.85 238.05 19.85 238.05 0.16"/><polygon class="cls-1" points="250.28 0.16 251.72 0.16 251.72 19.85 250.28 19.85 250.28 0.16"/><polygon class="cls-1" points="250.28 0.16 251.72 0.16 251.72 19.85 250.28 19.85 250.28 0.16"/><polygon class="cls-1" points="258.19 0.16 259.63 0.16 259.63 19.85 258.19 19.85 258.19 0.16"/><polygon class="cls-1" points="266.1 0.16 267.54 0.16 267.54 19.85 266.1 19.85 266.1 0.16"/><polygon class="cls-1" points="271.14 0.16 272.57 0.16 272.57 19.85 271.14 19.85 271.14 0.16"/><polygon class="cls-1" points="271.14 0.16 272.57 0.16 272.57 19.85 271.14 19.85 271.14 0.16"/><polygon class="cls-1" points="273.29 0.16 274.73 0.16 274.73 19.85 273.29 19.85 273.29 0.16"/><polygon class="cls-1" points="281.93 0.16 283.36 0.16 283.36 19.85 281.93 19.85 281.93 0.16"/><polygon class="cls-1" points="282.64 0.16 284.08 0.16 284.08 19.85 282.64 19.85 282.64 0.16"/><polygon class="cls-1" points="287.68 0.16 289.12 0.16 289.12 19.85 287.68 19.85 287.68 0.16"/><polygon class="cls-1" points="289.12 0.16 290.56 0.16 290.56 19.85 289.12 19.85 289.12 0.16"/><polygon class="cls-1" points="289.84 0.16 291.27 0.16 291.27 19.85 289.84 19.85 289.84 0.16"/><polygon class="cls-1" points="291.27 0.16 292.71 0.16 292.71 19.85 291.27 19.85 291.27 0.16"/><polygon class="cls-1" points="299.9 0.16 301.34 0.16 301.34 19.85 299.9 19.85 299.9 0.16"/><polygon class="cls-1" points="301.34 0.16 302.78 0.16 302.78 19.85 301.34 19.85 301.34 0.16"/><polygon class="cls-1" points="315.01 0.16 316.45 0.16 316.45 19.85 315.01 19.85 315.01 0.16"/><polygon class="cls-1" points="315.01 0.16 316.45 0.16 316.45 19.85 315.01 19.85 315.01 0.16"/><polygon class="cls-1" points="316.45 0.16 317.88 0.16 317.88 19.85 316.45 19.85 316.45 0.16"/><polygon class="cls-1" points="345.93 0.16 347.37 0.16 347.37 19.85 345.93 19.85 345.93 0.16"/><polygon class="cls-1" points="347.37 0.16 348.81 0.16 348.81 19.85 347.37 19.85 347.37 0.16"/><polygon class="cls-1" points="381.89 0.16 383.33 0.16 383.33 19.85 381.89 19.85 381.89 0.16"/><polygon class="cls-1" points="399.15 0.16 400.59 0.16 400.59 19.85 399.15 19.85 399.15 0.16"/><polygon class="cls-1" points="399.15 0.16 400.59 0.16 400.59 19.85 399.15 19.85 399.15 0.16"/><polygon class="cls-1" points="399.87 0.16 401.31 0.16 401.31 19.85 399.87 19.85 399.87 0.16"/><polygon class="cls-1" points="400.59 0.16 402.03 0.16 402.03 19.85 400.59 19.85 400.59 0.16"/><polygon class="cls-1" points="401.31 0.16 402.75 0.16 402.75 19.85 401.31 19.85 401.31 0.16"/><polygon class="cls-1" points="402.03 0.16 403.47 0.16 403.47 19.85 402.03 19.85 402.03 0.16"/><polygon class="cls-1" points="402.03 0.16 403.47 0.16 403.47 19.85 402.03 19.85 402.03 0.16"/><polygon class="cls-1" points="402.75 0.16 404.19 0.16 404.19 19.85 402.75 19.85 402.75 0.16"/><polygon class="cls-1" points="402.75 0.16 404.19 0.16 404.19 19.85 402.75 19.85 402.75 0.16"/><polygon class="cls-1" points="402.75 0.16 404.19 0.16 404.19 19.85 402.75 19.85 402.75 0.16"/><polygon class="cls-1" points="403.47 0.16 404.91 0.16 404.91 19.85 403.47 19.85 403.47 0.16"/><polygon class="cls-1" points="404.19 0.16 405.63 0.16 405.63 19.85 404.19 19.85 404.19 0.16"/><polygon class="cls-1" points="412.82 0.16 414.26 0.16 414.26 19.85 412.82 19.85 412.82 0.16"/><polygon class="cls-1" points="414.26 0.16 415.69 0.16 415.69 19.85 414.26 19.85 414.26 0.16"/><polygon class="cls-1" points="414.98 0.16 416.41 0.16 416.41 19.85 414.98 19.85 414.98 0.16"/><polygon class="cls-1" points="417.85 0.16 419.29 0.16 419.29 19.85 417.85 19.85 417.85 0.16"/><polygon class="cls-1" points="417.85 0.16 419.29 0.16 419.29 19.85 417.85 19.85 417.85 0.16"/><polygon class="cls-1" points="423.61 0.16 425.04 0.16 425.04 19.85 423.61 19.85 423.61 0.16"/><polygon class="cls-1" points="425.04 0.16 426.48 0.16 426.48 19.85 425.04 19.85 425.04 0.16"/><polygon class="cls-1" points="430.08 0.16 431.52 0.16 431.52 19.85 430.08 19.85 430.08 0.16"/><polygon class="cls-1" points="430.08 0.16 431.52 0.16 431.52 19.85 430.08 19.85 430.08 0.16"/><polygon class="cls-1" points="432.24 0.16 433.68 0.16 433.68 19.85 432.24 19.85 432.24 0.16"/><polygon class="cls-1" points="434.39 0.16 435.83 0.16 435.83 19.85 434.39 19.85 434.39 0.16"/><polygon class="cls-1" points="435.83 0.16 437.27 0.16 437.27 19.85 435.83 19.85 435.83 0.16"/><polygon class="cls-1" points="437.27 0.16 438.71 0.16 438.71 19.85 437.27 19.85 437.27 0.16"/><polygon class="cls-1" points="450.22 0.16 451.65 0.16 451.65 19.85 450.22 19.85 450.22 0.16"/><polygon class="cls-1" points="467.48 0.16 468.92 0.16 468.92 19.85 467.48 19.85 467.48 0.16"/><polygon class="cls-1" points="468.2 0.16 469.63 0.16 469.63 19.85 468.2 19.85 468.2 0.16"/><polygon class="cls-1" points="471.79 0.16 473.23 0.16 473.23 19.85 471.79 19.85 471.79 0.16"/><polygon class="cls-1" points="473.23 0.16 474.67 0.16 474.67 19.85 473.23 19.85 473.23 0.16"/><polygon class="cls-1" points="478.98 0.16 480.42 0.16 480.42 19.85 478.98 19.85 478.98 0.16"/><polygon class="cls-1" points="480.42 0.16 481.86 0.16 481.86 19.85 480.42 19.85 480.42 0.16"/><polygon class="cls-1" points="484.02 0.16 485.46 0.16 485.46 19.85 484.02 19.85 484.02 0.16"/><polygon class="cls-1" points="486.18 0.16 487.61 0.16 487.61 19.85 486.18 19.85 486.18 0.16"/><polygon class="cls-1" points="486.18 0.16 487.61 0.16 487.61 19.85 486.18 19.85 486.18 0.16"/><polygon class="cls-1" points="502 0.16 503.44 0.16 503.44 19.85 502 19.85 502 0.16"/><polygon class="cls-1" points="502.72 0.16 504.16 0.16 504.16 19.85 502.72 19.85 502.72 0.16"/><polygon class="cls-1" points="509.91 0.16 511.35 0.16 511.35 19.85 509.91 19.85 509.91 0.16"/><polygon class="cls-1" points="534.36 0.16 535.8 0.16 535.8 19.85 534.36 19.85 534.36 0.16"/><polygon class="cls-1" points="537.24 0.16 538.68 0.16 538.68 19.85 537.24 19.85 537.24 0.16"/><polygon class="cls-1" points="538.68 0.16 540.12 0.16 540.12 19.85 538.68 19.85 538.68 0.16"/><polygon class="cls-1" points="539.4 0.16 540.84 0.16 540.84 19.85 539.4 19.85 539.4 0.16"/><polygon class="cls-1" points="541.55 0.16 542.99 0.16 542.99 19.85 541.55 19.85 541.55 0.16"/><polygon class="cls-1" points="541.55 0.16 542.99 0.16 542.99 19.85 541.55 19.85 541.55 0.16"/><polygon class="cls-1" points="545.15 0.16 546.59 0.16 546.59 19.85 545.15 19.85 545.15 0.16"/><polygon class="cls-1" points="554.5 0.16 555.94 0.16 555.94 19.85 554.5 19.85 554.5 0.16"/><polygon class="cls-1" points="554.5 0.16 555.94 0.16 555.94 19.85 554.5 19.85 554.5 0.16"/><polygon class="cls-1" points="560.25 0.16 561.69 0.16 561.69 19.85 560.25 19.85 560.25 0.16"/><polygon class="cls-1" points="581.83 0.16 583.27 0.16 583.27 19.85 581.83 19.85 581.83 0.16"/><polygon class="cls-1" points="586.86 0.16 588.3 0.16 588.3 19.85 586.86 19.85 586.86 0.16"/><polygon class="cls-1" points="640.8 0.16 642.24 0.16 642.24 19.85 640.8 19.85 640.8 0.16"/><polygon class="cls-1" points="660.22 0.16 661.66 0.16 661.66 19.85 660.22 19.85 660.22 0.16"/><polygon class="cls-1" points="665.26 0.16 666.69 0.16 666.69 19.85 665.26 19.85 665.26 0.16"/><polygon class="cls-1" points="680.36 0.16 681.8 0.16 681.8 19.85 680.36 19.85 680.36 0.16"/><polygon class="cls-1" points="693.3 0.16 694.74 0.16 694.74 19.85 693.3 19.85 693.3 0.16"/><polygon class="cls-1" points="693.3 0.16 694.74 0.16 694.74 19.85 693.3 19.85 693.3 0.16"/><polygon class="cls-1" points="693.3 0.16 694.74 0.16 694.74 19.85 693.3 19.85 693.3 0.16"/><polygon class="cls-1" points="694.02 0.16 695.46 0.16 695.46 19.85 694.02 19.85 694.02 0.16"/><polygon class="cls-1" points="697.62 0.16 699.06 0.16 699.06 19.85 697.62 19.85 697.62 0.16"/><polygon class="cls-1" points="697.62 0.16 699.06 0.16 699.06 19.85 697.62 19.85 697.62 0.16"/><polygon class="cls-1" points="697.62 0.16 699.06 0.16 699.06 19.85 697.62 19.85 697.62 0.16"/><polygon class="cls-1" points="718.48 0.16 719.91 0.16 719.91 19.85 718.48 19.85 718.48 0.16"/><polygon class="cls-1" points="741.49 0.16 742.93 0.16 742.93 19.85 741.49 19.85 741.49 0.16"/><polygon class="cls-1" points="744.37 0.16 745.81 0.16 745.81 19.85 744.37 19.85 744.37 0.16"/><polygon class="cls-1" points="750.84 0.16 752.28 0.16 752.28 19.85 750.84 19.85 750.84 0.16"/><polygon class="cls-1" points="750.84 0.16 752.28 0.16 752.28 19.85 750.84 19.85 750.84 0.16"/><polygon class="cls-1" points="751.56 0.16 753 0.16 753 19.85 751.56 19.85 751.56 0.16"/><polygon class="cls-1" points="752.28 0.16 753.72 0.16 753.72 19.85 752.28 19.85 752.28 0.16"/><polygon class="cls-1" points="752.28 0.16 753.72 0.16 753.72 19.85 752.28 19.85 752.28 0.16"/><polygon class="cls-1" points="753.72 0.16 755.15 0.16 755.15 19.85 753.72 19.85 753.72 0.16"/><polygon class="cls-1" points="754.44 0.16 755.87 0.16 755.87 19.85 754.44 19.85 754.44 0.16"/><polygon class="cls-1" points="755.15 0.16 756.59 0.16 756.59 19.85 755.15 19.85 755.15 0.16"/><polygon class="cls-1" points="755.15 0.16 756.59 0.16 756.59 19.85 755.15 19.85 755.15 0.16"/><polygon class="cls-1" points="755.87 0.16 757.31 0.16 757.31 19.85 755.87 19.85 755.87 0.16"/><polygon class="cls-1" points="757.31 0.16 758.75 0.16 758.75 19.85 757.31 19.85 757.31 0.16"/><polygon class="cls-1" points="758.75 0.16 760.19 0.16 760.19 19.85 758.75 19.85 758.75 0.16"/><polygon class="cls-1" points="759.47 0.16 760.91 0.16 760.91 19.85 759.47 19.85 759.47 0.16"/><polygon class="cls-1" points="787.52 0.16 788.96 0.16 788.96 19.85 787.52 19.85 787.52 0.16"/><polygon class="cls-1" points="796.15 0.16 797.59 0.16 797.59 19.85 796.15 19.85 796.15 0.16"/><polygon class="cls-1" points="798.31 0.16 799.75 0.16 799.75 19.85 798.31 19.85 798.31 0.16"/><polygon class="cls-1" points="819.16 0.16 820.6 0.16 820.6 19.85 819.16 19.85 819.16 0.16"/><polygon class="cls-1" points="864.47 0.16 865.91 0.16 865.91 19.85 864.47 19.85 864.47 0.16"/><polygon class="cls-1" points="876.7 0.16 878.14 0.16 878.14 19.85 876.7 19.85 876.7 0.16"/><polygon class="cls-1" points="879.58 0.16 881.01 0.16 881.01 19.85 879.58 19.85 879.58 0.16"/><polygon class="cls-1" points="896.84 0.16 898.27 0.16 898.27 19.85 896.84 19.85 896.84 0.16"/><polygon class="cls-1" points="905.47 0.16 906.9 0.16 906.9 19.85 905.47 19.85 905.47 0.16"/><polygon class="cls-1" points="939.99 0.16 941.43 0.16 941.43 19.85 939.99 19.85 939.99 0.16"/><polygon class="cls-1" points="968.04 0.16 969.48 0.16 969.48 19.85 968.04 19.85 968.04 0.16"/><polygon class="cls-1" points="1001.12 0.16 1002.56 0.16 1002.56 19.85 1001.12 19.85 1001.12 0.16"/><polygon class="cls-1" points="1011.19 0.16 1012.63 0.16 1012.63 19.85 1011.19 19.85 1011.19 0.16"/><polygon class="cls-1" points="1014.78 0.16 1016.22 0.16 1016.22 19.85 1014.78 19.85 1014.78 0.16"/><polygon class="cls-1" points="1015.5 0.16 1016.94 0.16 1016.94 19.85 1015.5 19.85 1015.5 0.16"/><polygon class="cls-1" points="1015.5 0.16 1016.94 0.16 1016.94 19.85 1015.5 19.85 1015.5 0.16"/><polygon class="cls-1" points="1016.94 0.16 1018.38 0.16 1018.38 19.85 1016.94 19.85 1016.94 0.16"/><polygon class="cls-1" points="1021.26 0.16 1022.7 0.16 1022.7 19.85 1021.26 19.85 1021.26 0.16"/><polygon class="cls-1" points="1021.26 0.16 1022.7 0.16 1022.7 19.85 1021.26 19.85 1021.26 0.16"/><polygon class="cls-1" points="1021.98 0.16 1023.41 0.16 1023.41 19.85 1021.98 19.85 1021.98 0.16"/><polygon class="cls-1" points="1023.41 0.16 1024.85 0.16 1024.85 19.85 1023.41 19.85 1023.41 0.16"/><polygon class="cls-1" points="1025.57 0.16 1027.01 0.16 1027.01 19.85 1025.57 19.85 1025.57 0.16"/><polygon class="cls-1" points="1030.61 0.16 1032.05 0.16 1032.05 19.85 1030.61 19.85 1030.61 0.16"/><polygon class="cls-1" points="1037.08 0.16 1038.52 0.16 1038.52 19.85 1037.08 19.85 1037.08 0.16"/><polygon class="cls-1" points="1037.8 0.16 1039.24 0.16 1039.24 19.85 1037.8 19.85 1037.8 0.16"/><polygon class="cls-1" points="1042.83 0.16 1044.27 0.16 1044.27 19.85 1042.83 19.85 1042.83 0.16"/></g></g></svg>