<svg xmlns="http://www.w3.org/2000/svg" viewBox="0 0 1064.41 19.64"><defs><style>.cls-1{fill:#fff;}</style></defs><g id="Layer_2" data-name="Layer 2"><g id="Layer_1-2" data-name="Layer 1"><rect y="0.07" width="1064.41" height="19.57"/><rect class="cls-1" x="39.48" width="1.44" height="19.56"/><rect class="cls-1" x="41.2" width="1.44" height="19.56"/><rect class="cls-1" x="42.06" width="1.44" height="19.56"/><rect class="cls-1" x="99.34" width="1.44" height="19.56"/><rect class="cls-1" x="101.41" width="1.44" height="19.56"/><rect class="cls-1" x="121.94" width="1.44" height="19.56"/><rect class="cls-1" x="155.58" width="1.44" height="19.56"/><rect class="cls-1" x="156.44" width="1.44" height="19.56"/><rect class="cls-1" x="266.16" width="1.44" height="19.56"/><rect class="cls-1" x="347.24" width="1.44" height="19.56"/><rect class="cls-1" x="422.11" width="1.44" height="19.56"/><rect class="cls-1" x="498.88" width="1.44" height="19.56"/><rect class="cls-1" x="501.47" width="1.44" height="19.56"/><rect class="cls-1" x="504.75" width="1.44" height="19.56"/><rect class="cls-1" x="506.13" width="1.44" height="19.56"/><rect class="cls-1" x="588.93" width="1.44" height="19.56"/><rect class="cls-1" x="590.14" width="1.44" height="19.56"/><rect class="cls-1" x="640.34" width="1.44" height="19.56"/><rect class="cls-1" x="731.08" width="1.44" height="19.56"/><rect class="cls-1" x="920.33" width="1.44" height="19.56"/><rect class="cls-1" x="1009" width="1.44" height="19.56"/></g></g></svg>