<svg xmlns="http://www.w3.org/2000/svg" viewBox="0 0 1064.41 19.65"><defs><style>.cls-1{fill:#fff;}</style></defs><g id="Layer_2" data-name="Layer 2"><g id="Layer_1-2" data-name="Layer 1"><rect y="0.08" width="1064.41" height="19.57"/><rect class="cls-1" x="9.05" width="1.44" height="19.56"/><rect class="cls-1" x="12.95" width="1.44" height="19.56"/><rect class="cls-1" x="15.09" width="1.44" height="19.56"/><rect class="cls-1" x="15.44" width="1.44" height="19.56"/><rect class="cls-1" x="16.51" width="1.44" height="19.56"/><rect class="cls-1" x="17.22" width="1.44" height="19.56"/><rect class="cls-1" x="17.93" width="1.44" height="19.56"/><rect class="cls-1" x="34.8" width="1.44" height="19.56"/><rect class="cls-1" x="36.4" width="1.44" height="19.56"/><rect class="cls-1" x="37.81" width="1.44" height="19.56"/><rect class="cls-1" x="38.35" width="1.44" height="19.56"/><rect class="cls-1" x="39.06" width="1.44" height="19.56"/><rect class="cls-1" x="40.48" width="1.44" height="19.56"/><rect class="cls-1" x="41.54" width="1.44" height="19.56"/><rect class="cls-1" x="42.61" width="1.44" height="19.56"/><rect class="cls-1" x="44.92" width="1.44" height="19.56"/><rect class="cls-1" x="46.69" width="1.44" height="19.56"/><rect class="cls-1" x="47.05" width="1.44" height="19.56"/><rect class="cls-1" x="51.31" width="1.44" height="19.56"/><rect class="cls-1" x="51.67" width="1.44" height="19.56"/><rect class="cls-1" x="53.97" width="1.44" height="19.56"/><rect class="cls-1" x="56.99" width="1.44" height="19.56"/><rect class="cls-1" x="57.35" width="1.44" height="19.56"/><rect class="cls-1" x="57.88" width="1.44" height="19.56"/><rect class="cls-1" x="71.73" width="1.44" height="19.56"/><rect class="cls-1" x="74.57" width="1.44" height="19.56"/><rect class="cls-1" x="90.73" width="1.44" height="19.56"/><rect class="cls-1" x="90.91" width="1.44" height="19.56"/><rect class="cls-1" x="93.75" width="1.44" height="19.56"/><rect class="cls-1" x="98.72" width="1.44" height="19.56"/><rect class="cls-1" x="102.45" width="1.44" height="19.56"/><rect class="cls-1" x="109.74" width="1.44" height="19.56"/><rect class="cls-1" x="114.89" width="1.44" height="19.56"/><rect class="cls-1" x="118.08" width="1.44" height="19.56"/><rect class="cls-1" x="128.56" width="1.44" height="19.56"/><rect class="cls-1" x="136.55" width="1.44" height="19.56"/><rect class="cls-1" x="137.62" width="1.44" height="19.56"/><rect class="cls-1" x="140.99" width="1.44" height="19.56"/><rect class="cls-1" x="148.63" width="1.44" height="19.56"/><rect class="cls-1" x="149.69" width="1.44" height="19.56"/><rect class="cls-1" x="153.06" width="1.44" height="19.56"/><rect class="cls-1" x="153.77" width="1.44" height="19.56"/><rect class="cls-1" x="155.02" width="1.44" height="19.56"/><rect class="cls-1" x="156.08" width="1.44" height="19.56"/><rect class="cls-1" x="157.15" width="1.44" height="19.56"/><rect class="cls-1" x="159.46" width="1.44" height="19.56"/><rect class="cls-1" x="173.49" width="1.44" height="19.56"/><rect class="cls-1" x="175.44" width="1.44" height="19.56"/><rect class="cls-1" x="176.68" width="1.44" height="19.56"/><rect class="cls-1" x="179.35" width="1.44" height="19.56"/><rect class="cls-1" x="180.59" width="1.44" height="19.56"/><rect class="cls-1" x="180.95" width="1.44" height="19.56"/><rect class="cls-1" x="183.96" width="1.44" height="19.56"/><rect class="cls-1" x="185.03" width="1.44" height="19.56"/><rect class="cls-1" x="187.51" width="1.44" height="19.56"/><rect class="cls-1" x="188.05" width="1.44" height="19.56"/><rect class="cls-1" x="188.93" width="1.44" height="19.56"/><rect class="cls-1" x="190.36" width="1.44" height="19.56"/><rect class="cls-1" x="195.33" width="1.44" height="19.56"/><rect class="cls-1" x="196.22" width="1.44" height="19.56"/><rect class="cls-1" x="196.39" width="1.44" height="19.56"/><rect class="cls-1" x="196.93" width="1.44" height="19.56"/><rect class="cls-1" x="201.54" width="1.44" height="19.56"/><rect class="cls-1" x="216.28" width="1.44" height="19.56"/><rect class="cls-1" x="217.53" width="1.44" height="19.56"/><rect class="cls-1" x="219.48" width="1.44" height="19.56"/><rect class="cls-1" x="227.12" width="1.44" height="19.56"/><rect class="cls-1" x="228" width="1.44" height="19.56"/><rect class="cls-1" x="236.53" width="1.44" height="19.56"/><rect class="cls-1" x="247" width="1.44" height="19.56"/><rect class="cls-1" x="248.6" width="1.44" height="19.56"/><rect class="cls-1" x="254.29" width="1.44" height="19.56"/><rect class="cls-1" x="266.18" width="1.44" height="19.56"/><rect class="cls-1" x="269.02" width="1.44" height="19.56"/><rect class="cls-1" x="279.5" width="1.44" height="19.56"/><rect class="cls-1" x="311.29" width="1.44" height="19.56"/><rect class="cls-1" x="317.15" width="1.44" height="19.56"/><rect class="cls-1" x="322.48" width="1.44" height="19.56"/><rect class="cls-1" x="332.42" width="1.44" height="19.56"/><rect class="cls-1" x="338.28" width="1.44" height="19.56"/><rect class="cls-1" x="343.07" width="1.44" height="19.56"/><rect class="cls-1" x="346.63" width="1.44" height="19.56"/><rect class="cls-1" x="368.47" width="1.44" height="19.56"/><rect class="cls-1" x="375.75" width="1.44" height="19.56"/><rect class="cls-1" x="381.43" width="1.44" height="19.56"/><rect class="cls-1" x="383.38" width="1.44" height="19.56"/><rect class="cls-1" x="388.71" width="1.44" height="19.56"/><rect class="cls-1" x="389.24" width="1.44" height="19.56"/><rect class="cls-1" x="399.72" width="1.44" height="19.56"/><rect class="cls-1" x="400.26" width="1.44" height="19.56"/><rect class="cls-1" x="400.43" width="1.44" height="19.56"/><rect class="cls-1" x="400.79" width="1.44" height="19.56"/><rect class="cls-1" x="401.32" width="1.44" height="19.56"/><rect class="cls-1" x="402.74" width="1.44" height="19.56"/><rect class="cls-1" x="405.05" width="1.44" height="19.56"/><rect class="cls-1" x="405.23" width="1.44" height="19.56"/><rect class="cls-1" x="408.42" width="1.44" height="19.56"/><rect class="cls-1" x="419.26" width="1.44" height="19.56"/><rect class="cls-1" x="430.09" width="1.44" height="19.56"/><rect class="cls-1" x="432.75" width="1.44" height="19.56"/><rect class="cls-1" x="441.99" width="1.44" height="19.56"/><rect class="cls-1" x="445.18" width="1.44" height="19.56"/><rect class="cls-1" x="455.66" width="1.44" height="19.56"/><rect class="cls-1" x="456.19" width="1.44" height="19.56"/><rect class="cls-1" x="457.79" width="1.44" height="19.56"/><rect class="cls-1" x="462.05" width="1.44" height="19.56"/><rect class="cls-1" x="473.42" width="1.44" height="19.56"/><rect class="cls-1" x="482.47" width="1.44" height="19.56"/><rect class="cls-1" x="493.13" width="1.44" height="19.56"/><rect class="cls-1" x="498.81" width="1.44" height="19.56"/><rect class="cls-1" x="500.23" width="1.44" height="19.56"/><rect class="cls-1" x="501.65" width="1.44" height="19.56"/><rect class="cls-1" x="503.78" width="1.44" height="19.56"/><rect class="cls-1" x="511.6" width="1.44" height="19.56"/><rect class="cls-1" x="513.2" width="1.44" height="19.56"/><rect class="cls-1" x="513.73" width="1.44" height="19.56"/><rect class="cls-1" x="514.44" width="1.44" height="19.56"/><rect class="cls-1" x="516.75" width="1.44" height="19.56"/><rect class="cls-1" x="544.8" width="1.44" height="19.56"/><rect class="cls-1" x="554.04" width="1.44" height="19.56"/><rect class="cls-1" x="554.57" width="1.44" height="19.56"/><rect class="cls-1" x="555.1" width="1.44" height="19.56"/><rect class="cls-1" x="557.95" width="1.44" height="19.56"/><rect class="cls-1" x="558.48" width="1.44" height="19.56"/><rect class="cls-1" x="561.85" width="1.44" height="19.56"/><rect class="cls-1" x="563.09" width="1.44" height="19.56"/><rect class="cls-1" x="567" width="1.44" height="19.56"/><rect class="cls-1" x="569.66" width="1.44" height="19.56"/><rect class="cls-1" x="574.99" width="1.44" height="19.56"/><rect class="cls-1" x="578.54" width="1.44" height="19.56"/><rect class="cls-1" x="588.49" width="1.44" height="19.56"/><rect class="cls-1" x="589.73" width="1.44" height="19.56"/><rect class="cls-1" x="591.68" width="1.44" height="19.56"/><rect class="cls-1" x="598.43" width="1.44" height="19.56"/><rect class="cls-1" x="598.97" width="1.44" height="19.56"/><rect class="cls-1" x="605.54" width="1.44" height="19.56"/><rect class="cls-1" x="611.22" width="1.44" height="19.56"/><rect class="cls-1" x="621.34" width="1.44" height="19.56"/><rect class="cls-1" x="634.84" width="1.44" height="19.56"/><rect class="cls-1" x="671.06" width="1.44" height="19.56"/><rect class="cls-1" x="679.59" width="1.44" height="19.56"/><rect class="cls-1" x="683.32" width="1.44" height="19.56"/><rect class="cls-1" x="684.2" width="1.44" height="19.56"/><rect class="cls-1" x="693.79" width="1.44" height="19.56"/><rect class="cls-1" x="694.68" width="1.44" height="19.56"/><rect class="cls-1" x="694.86" width="1.44" height="19.56"/><rect class="cls-1" x="698.05" width="1.44" height="19.56"/><rect class="cls-1" x="699.83" width="1.44" height="19.56"/><rect class="cls-1" x="700.9" width="1.44" height="19.56"/><rect class="cls-1" x="701.07" width="1.44" height="19.56"/><rect class="cls-1" x="702.67" width="1.44" height="19.56"/><rect class="cls-1" x="703.74" width="1.44" height="19.56"/><rect class="cls-1" x="704.45" width="1.44" height="19.56"/><rect class="cls-1" x="706.22" width="1.44" height="19.56"/><rect class="cls-1" x="707.64" width="1.44" height="19.56"/><rect class="cls-1" x="708.35" width="1.44" height="19.56"/><rect class="cls-1" x="709.95" width="1.44" height="19.56"/><rect class="cls-1" x="716.52" width="1.44" height="19.56"/><rect class="cls-1" x="728.07" width="1.44" height="19.56"/><rect class="cls-1" x="730.02" width="1.44" height="19.56"/><rect class="cls-1" x="737.3" width="1.44" height="19.56"/><rect class="cls-1" x="738.36" width="1.44" height="19.56"/><rect class="cls-1" x="762.34" width="1.44" height="19.56"/><rect class="cls-1" x="763.05" width="1.44" height="19.56"/><rect class="cls-1" x="764.11" width="1.44" height="19.56"/><rect class="cls-1" x="770.15" width="1.44" height="19.56"/><rect class="cls-1" x="771.4" width="1.44" height="19.56"/><rect class="cls-1" x="773.17" width="1.44" height="19.56"/><rect class="cls-1" x="776.72" width="1.44" height="19.56"/><rect class="cls-1" x="777.61" width="1.44" height="19.56"/><rect class="cls-1" x="777.97" width="1.44" height="19.56"/><rect class="cls-1" x="780.1" width="1.44" height="19.56"/><rect class="cls-1" x="791.28" width="1.44" height="19.56"/><rect class="cls-1" x="792.53" width="1.44" height="19.56"/><rect class="cls-1" x="792.88" width="1.44" height="19.56"/><rect class="cls-1" x="801.23" width="1.44" height="19.56"/><rect class="cls-1" x="809.22" width="1.44" height="19.56"/><rect class="cls-1" x="811.35" width="1.44" height="19.56"/><rect class="cls-1" x="827.69" width="1.44" height="19.56"/><rect class="cls-1" x="833.9" width="1.44" height="19.56"/><rect class="cls-1" x="837.81" width="1.44" height="19.56"/><rect class="cls-1" x="839.76" width="1.44" height="19.56"/><rect class="cls-1" x="860.18" width="1.44" height="19.56"/><rect class="cls-1" x="861.43" width="1.44" height="19.56"/><rect class="cls-1" x="861.6" width="1.44" height="19.56"/><rect class="cls-1" x="861.96" width="1.44" height="19.56"/><rect class="cls-1" x="862.14" width="1.44" height="19.56"/><rect class="cls-1" x="862.67" width="1.44" height="19.56"/><rect class="cls-1" x="863.03" width="1.44" height="19.56"/><rect class="cls-1" x="864.98" width="1.44" height="19.56"/><rect class="cls-1" x="866.04" width="1.44" height="19.56"/><rect class="cls-1" x="867.11" width="1.44" height="19.56"/><rect class="cls-1" x="869.42" width="1.44" height="19.56"/><rect class="cls-1" x="870.48" width="1.44" height="19.56"/><rect class="cls-1" x="871.2" width="1.44" height="19.56"/><rect class="cls-1" x="872.79" width="1.44" height="19.56"/><rect class="cls-1" x="872.97" width="1.44" height="19.56"/><rect class="cls-1" x="874.04" width="1.44" height="19.56"/><rect class="cls-1" x="874.39" width="1.44" height="19.56"/><rect class="cls-1" x="882.56" width="1.44" height="19.56"/><rect class="cls-1" x="890.91" width="1.44" height="19.56"/><rect class="cls-1" x="891.79" width="1.44" height="19.56"/><rect class="cls-1" x="903.51" width="1.44" height="19.56"/><rect class="cls-1" x="920.74" width="1.44" height="19.56"/><rect class="cls-1" x="921.63" width="1.44" height="19.56"/><rect class="cls-1" x="927.84" width="1.44" height="19.56"/><rect class="cls-1" x="931.75" width="1.44" height="19.56"/><rect class="cls-1" x="932.46" width="1.44" height="19.56"/><rect class="cls-1" x="933.17" width="1.44" height="19.56"/><rect class="cls-1" x="943.29" width="1.44" height="19.56"/><rect class="cls-1" x="953.59" width="1.44" height="19.56"/><rect class="cls-1" x="957.14" width="1.44" height="19.56"/><rect class="cls-1" x="958.21" width="1.44" height="19.56"/><rect class="cls-1" x="960.87" width="1.44" height="19.56"/><rect class="cls-1" x="963.36" width="1.44" height="19.56"/><rect class="cls-1" x="973.48" width="1.44" height="19.56"/><rect class="cls-1" x="978.45" width="1.44" height="19.56"/><rect class="cls-1" x="985.2" width="1.44" height="19.56"/><rect class="cls-1" x="986.62" width="1.44" height="19.56"/><rect class="cls-1" x="998.34" width="1.44" height="19.56"/></g></g></svg>