<svg xmlns="http://www.w3.org/2000/svg" viewBox="0 0 1064.41 19.66"><defs><style>.cls-1{fill:#fff;}</style></defs><g id="Layer_2" data-name="Layer 2"><g id="Layer_1-2" data-name="Layer 1"><rect y="0.09" width="1064.41" height="19.57"/><rect class="cls-1" x="3.54" width="1.44" height="19.56"/><rect class="cls-1" x="3.86" width="1.44" height="19.56"/><rect class="cls-1" x="7.33" width="1.44" height="19.56"/><rect class="cls-1" x="11.91" width="1.44" height="19.56"/><rect class="cls-1" x="13.96" width="1.44" height="19.56"/><rect class="cls-1" x="14.44" width="1.44" height="19.56"/><rect class="cls-1" x="15.7" width="1.44" height="19.56"/><rect class="cls-1" x="18.7" width="1.44" height="19.56"/><rect class="cls-1" x="20.75" width="1.44" height="19.56"/><rect class="cls-1" x="21.85" width="1.44" height="19.56"/><rect class="cls-1" x="25.01" width="1.44" height="19.56"/><rect class="cls-1" x="26.75" width="1.44" height="19.56"/><rect class="cls-1" x="27.22" width="1.44" height="19.56"/><rect class="cls-1" x="27.69" width="1.44" height="19.56"/><rect class="cls-1" x="28.96" width="1.44" height="19.56"/><rect class="cls-1" x="29.43" width="1.44" height="19.56"/><rect class="cls-1" x="43.48" width="1.44" height="19.56"/><rect class="cls-1" x="49.32" width="1.44" height="19.56"/><rect class="cls-1" x="49.95" width="1.44" height="19.56"/><rect class="cls-1" x="52.79" width="1.44" height="19.56"/><rect class="cls-1" x="53.27" width="1.44" height="19.56"/><rect class="cls-1" x="55.32" width="1.44" height="19.56"/><rect class="cls-1" x="55.48" width="1.44" height="19.56"/><rect class="cls-1" x="55.79" width="1.44" height="19.56"/><rect class="cls-1" x="57.53" width="1.44" height="19.56"/><rect class="cls-1" x="59.42" width="1.44" height="19.56"/><rect class="cls-1" x="62.11" width="1.44" height="19.56"/><rect class="cls-1" x="63.21" width="1.44" height="19.56"/><rect class="cls-1" x="70" width="1.44" height="19.56"/><rect class="cls-1" x="70.63" width="1.44" height="19.56"/><rect class="cls-1" x="71.74" width="1.44" height="19.56"/><rect class="cls-1" x="74.89" width="1.44" height="19.56"/><rect class="cls-1" x="76.47" width="1.44" height="19.56"/><rect class="cls-1" x="77.1" width="1.44" height="19.56"/><rect class="cls-1" x="79" width="1.44" height="19.56"/><rect class="cls-1" x="79.31" width="1.44" height="19.56"/><rect class="cls-1" x="82.31" width="1.44" height="19.56"/><rect class="cls-1" x="83.89" width="1.44" height="19.56"/><rect class="cls-1" x="99.83" width="1.44" height="19.56"/><rect class="cls-1" x="103.15" width="1.44" height="19.56"/><rect class="cls-1" x="103.62" width="1.44" height="19.56"/><rect class="cls-1" x="105.2" width="1.44" height="19.56"/><rect class="cls-1" x="108.04" width="1.44" height="19.56"/><rect class="cls-1" x="112.62" width="1.44" height="19.56"/><rect class="cls-1" x="113.72" width="1.44" height="19.56"/><rect class="cls-1" x="117.67" width="1.44" height="19.56"/><rect class="cls-1" x="124.78" width="1.44" height="19.56"/><rect class="cls-1" x="132.04" width="1.44" height="19.56"/><rect class="cls-1" x="132.35" width="1.44" height="19.56"/><rect class="cls-1" x="132.51" width="1.44" height="19.56"/><rect class="cls-1" x="161.87" width="1.44" height="19.56"/><rect class="cls-1" x="162.19" width="1.44" height="19.56"/><rect class="cls-1" x="162.5" width="1.44" height="19.56"/><rect class="cls-1" x="165.5" width="1.44" height="19.56"/><rect class="cls-1" x="171.34" width="1.44" height="19.56"/><rect class="cls-1" x="171.82" width="1.44" height="19.56"/><rect class="cls-1" x="172.6" width="1.44" height="19.56"/><rect class="cls-1" x="173.87" width="1.44" height="19.56"/><rect class="cls-1" x="186.34" width="1.44" height="19.56"/><rect class="cls-1" x="202.44" width="1.44" height="19.56"/><rect class="cls-1" x="203.07" width="1.44" height="19.56"/><rect class="cls-1" x="220.12" width="1.44" height="19.56"/><rect class="cls-1" x="245.69" width="1.44" height="19.56"/><rect class="cls-1" x="246.16" width="1.44" height="19.56"/><rect class="cls-1" x="248.06" width="1.44" height="19.56"/><rect class="cls-1" x="250.27" width="1.44" height="19.56"/><rect class="cls-1" x="254.85" width="1.44" height="19.56"/><rect class="cls-1" x="255.01" width="1.44" height="19.56"/><rect class="cls-1" x="263.05" width="1.44" height="19.56"/><rect class="cls-1" x="266.37" width="1.44" height="19.56"/><rect class="cls-1" x="266.53" width="1.44" height="19.56"/><rect class="cls-1" x="267.16" width="1.44" height="19.56"/><rect class="cls-1" x="267.95" width="1.44" height="19.56"/><rect class="cls-1" x="267.95" width="1.44" height="19.56"/><rect class="cls-1" x="268.11" width="1.44" height="19.56"/><rect class="cls-1" x="268.26" width="1.44" height="19.56"/><rect class="cls-1" x="268.42" width="1.44" height="19.56"/><rect class="cls-1" x="268.42" width="1.44" height="19.56"/><rect class="cls-1" x="268.58" width="1.44" height="19.56"/><rect class="cls-1" x="268.58" width="1.44" height="19.56"/><rect class="cls-1" x="268.74" width="1.44" height="19.56"/><rect class="cls-1" x="268.9" width="1.44" height="19.56"/><rect class="cls-1" x="268.9" width="1.44" height="19.56"/><rect class="cls-1" x="268.9" width="1.44" height="19.56"/><rect class="cls-1" x="268.9" width="1.44" height="19.56"/><rect class="cls-1" x="269.05" width="1.44" height="19.56"/><rect class="cls-1" x="269.05" width="1.44" height="19.56"/><rect class="cls-1" x="269.05" width="1.44" height="19.56"/><rect class="cls-1" x="269.21" width="1.44" height="19.56"/><rect class="cls-1" x="269.21" width="1.44" height="19.56"/><rect class="cls-1" x="269.21" width="1.44" height="19.56"/><rect class="cls-1" x="269.21" width="1.44" height="19.56"/><rect class="cls-1" x="269.37" width="1.44" height="19.56"/><rect class="cls-1" x="269.37" width="1.44" height="19.56"/><rect class="cls-1" x="269.37" width="1.44" height="19.56"/><rect class="cls-1" x="269.37" width="1.44" height="19.56"/><rect class="cls-1" x="279" width="1.44" height="19.56"/><rect class="cls-1" x="279.16" width="1.44" height="19.56"/><rect class="cls-1" x="279.16" width="1.44" height="19.56"/><rect class="cls-1" x="291.31" width="1.44" height="19.56"/><rect class="cls-1" x="295.57" width="1.44" height="19.56"/><rect class="cls-1" x="295.73" width="1.44" height="19.56"/><rect class="cls-1" x="295.89" width="1.44" height="19.56"/><rect class="cls-1" x="296.05" width="1.44" height="19.56"/><rect class="cls-1" x="299.52" width="1.44" height="19.56"/><rect class="cls-1" x="299.99" width="1.44" height="19.56"/><rect class="cls-1" x="300.15" width="1.44" height="19.56"/><rect class="cls-1" x="300.31" width="1.44" height="19.56"/><rect class="cls-1" x="300.31" width="1.44" height="19.56"/><rect class="cls-1" x="300.31" width="1.44" height="19.56"/><rect class="cls-1" x="300.47" width="1.44" height="19.56"/><rect class="cls-1" x="300.47" width="1.44" height="19.56"/><rect class="cls-1" x="300.47" width="1.44" height="19.56"/><rect class="cls-1" x="301.57" width="1.44" height="19.56"/><rect class="cls-1" x="312.46" width="1.44" height="19.56"/><rect class="cls-1" x="321.93" width="1.44" height="19.56"/><rect class="cls-1" x="333.77" width="1.44" height="19.56"/><rect class="cls-1" x="334.88" width="1.44" height="19.56"/><rect class="cls-1" x="337.56" width="1.44" height="19.56"/><rect class="cls-1" x="341.04" width="1.44" height="19.56"/><rect class="cls-1" x="351.93" width="1.44" height="19.56"/><rect class="cls-1" x="358.4" width="1.44" height="19.56"/><rect class="cls-1" x="358.71" width="1.44" height="19.56"/><rect class="cls-1" x="359.66" width="1.44" height="19.56"/><rect class="cls-1" x="360.77" width="1.44" height="19.56"/><rect class="cls-1" x="361.55" width="1.44" height="19.56"/><rect class="cls-1" x="363.61" width="1.44" height="19.56"/><rect class="cls-1" x="367.24" width="1.44" height="19.56"/><rect class="cls-1" x="368.19" width="1.44" height="19.56"/><rect class="cls-1" x="370.24" width="1.44" height="19.56"/><rect class="cls-1" x="373.71" width="1.44" height="19.56"/><rect class="cls-1" x="386.34" width="1.44" height="19.56"/><rect class="cls-1" x="389.65" width="1.44" height="19.56"/><rect class="cls-1" x="396.44" width="1.44" height="19.56"/><rect class="cls-1" x="397.7" width="1.44" height="19.56"/><rect class="cls-1" x="404.81" width="1.44" height="19.56"/><rect class="cls-1" x="407.17" width="1.44" height="19.56"/><rect class="cls-1" x="412.54" width="1.44" height="19.56"/><rect class="cls-1" x="416.96" width="1.44" height="19.56"/><rect class="cls-1" x="418.23" width="1.44" height="19.56"/><rect class="cls-1" x="419.02" width="1.44" height="19.56"/><rect class="cls-1" x="421.86" width="1.44" height="19.56"/><rect class="cls-1" x="429.59" width="1.44" height="19.56"/><rect class="cls-1" x="432.75" width="1.44" height="19.56"/><rect class="cls-1" x="440.64" width="1.44" height="19.56"/><rect class="cls-1" x="448.06" width="1.44" height="19.56"/><rect class="cls-1" x="454.22" width="1.44" height="19.56"/><rect class="cls-1" x="454.37" width="1.44" height="19.56"/><rect class="cls-1" x="455.16" width="1.44" height="19.56"/><rect class="cls-1" x="455.32" width="1.44" height="19.56"/><rect class="cls-1" x="463.69" width="1.44" height="19.56"/><rect class="cls-1" x="464.16" width="1.44" height="19.56"/><rect class="cls-1" x="477.89" width="1.44" height="19.56"/><rect class="cls-1" x="479.16" width="1.44" height="19.56"/><rect class="cls-1" x="482.31" width="1.44" height="19.56"/><rect class="cls-1" x="486.42" width="1.44" height="19.56"/><rect class="cls-1" x="510.57" width="1.44" height="19.56"/><rect class="cls-1" x="514.04" width="1.44" height="19.56"/><rect class="cls-1" x="514.67" width="1.44" height="19.56"/><rect class="cls-1" x="520.36" width="1.44" height="19.56"/><rect class="cls-1" x="524.93" width="1.44" height="19.56"/><rect class="cls-1" x="525.88" width="1.44" height="19.56"/><rect class="cls-1" x="529.67" width="1.44" height="19.56"/><rect class="cls-1" x="542.61" width="1.44" height="19.56"/><rect class="cls-1" x="550.82" width="1.44" height="19.56"/><rect class="cls-1" x="552.4" width="1.44" height="19.56"/><rect class="cls-1" x="556.98" width="1.44" height="19.56"/><rect class="cls-1" x="560.45" width="1.44" height="19.56"/><rect class="cls-1" x="560.77" width="1.44" height="19.56"/><rect class="cls-1" x="563.92" width="1.44" height="19.56"/><rect class="cls-1" x="567.87" width="1.44" height="19.56"/><rect class="cls-1" x="568.19" width="1.44" height="19.56"/><rect class="cls-1" x="568.66" width="1.44" height="19.56"/><rect class="cls-1" x="578.92" width="1.44" height="19.56"/><rect class="cls-1" x="580.66" width="1.44" height="19.56"/><rect class="cls-1" x="583.81" width="1.44" height="19.56"/><rect class="cls-1" x="592.97" width="1.44" height="19.56"/><rect class="cls-1" x="601.02" width="1.44" height="19.56"/><rect class="cls-1" x="609.86" width="1.44" height="19.56"/><rect class="cls-1" x="615.7" width="1.44" height="19.56"/><rect class="cls-1" x="616.96" width="1.44" height="19.56"/><rect class="cls-1" x="620.91" width="1.44" height="19.56"/><rect class="cls-1" x="644.27" width="1.44" height="19.56"/><rect class="cls-1" x="645.38" width="1.44" height="19.56"/><rect class="cls-1" x="645.85" width="1.44" height="19.56"/><rect class="cls-1" x="664" width="1.44" height="19.56"/><rect class="cls-1" x="669.37" width="1.44" height="19.56"/><rect class="cls-1" x="673.79" width="1.44" height="19.56"/><rect class="cls-1" x="684.21" width="1.44" height="19.56"/><rect class="cls-1" x="688.95" width="1.44" height="19.56"/><rect class="cls-1" x="707.73" width="1.44" height="19.56"/><rect class="cls-1" x="711.04" width="1.44" height="19.56"/><rect class="cls-1" x="729.04" width="1.44" height="19.56"/><rect class="cls-1" x="730.78" width="1.44" height="19.56"/><rect class="cls-1" x="737.09" width="1.44" height="19.56"/><rect class="cls-1" x="750.19" width="1.44" height="19.56"/><rect class="cls-1" x="751.77" width="1.44" height="19.56"/><rect class="cls-1" x="752.09" width="1.44" height="19.56"/><rect class="cls-1" x="756.82" width="1.44" height="19.56"/><rect class="cls-1" x="757.61" width="1.44" height="19.56"/><rect class="cls-1" x="759.98" width="1.44" height="19.56"/><rect class="cls-1" x="763.45" width="1.44" height="19.56"/><rect class="cls-1" x="791.87" width="1.44" height="19.56"/><rect class="cls-1" x="799.28" width="1.44" height="19.56"/><rect class="cls-1" x="813.18" width="1.44" height="19.56"/><rect class="cls-1" x="823.28" width="1.44" height="19.56"/><rect class="cls-1" x="825.96" width="1.44" height="19.56"/><rect class="cls-1" x="828.65" width="1.44" height="19.56"/><rect class="cls-1" x="845.06" width="1.44" height="19.56"/><rect class="cls-1" x="858.8" width="1.44" height="19.56"/><rect class="cls-1" x="876.16" width="1.44" height="19.56"/><rect class="cls-1" x="877.58" width="1.44" height="19.56"/><rect class="cls-1" x="881.68" width="1.44" height="19.56"/><rect class="cls-1" x="881.84" width="1.44" height="19.56"/><rect class="cls-1" x="882.32" width="1.44" height="19.56"/><rect class="cls-1" x="912.62" width="1.44" height="19.56"/><rect class="cls-1" x="936.78" width="1.44" height="19.56"/><rect class="cls-1" x="939.93" width="1.44" height="19.56"/><rect class="cls-1" x="940.56" width="1.44" height="19.56"/><rect class="cls-1" x="944.35" width="1.44" height="19.56"/><rect class="cls-1" x="946.09" width="1.44" height="19.56"/><rect class="cls-1" x="954.3" width="1.44" height="19.56"/><rect class="cls-1" x="954.93" width="1.44" height="19.56"/><rect class="cls-1" x="955.24" width="1.44" height="19.56"/><rect class="cls-1" x="955.88" width="1.44" height="19.56"/><rect class="cls-1" x="957.45" width="1.44" height="19.56"/><rect class="cls-1" x="969.77" width="1.44" height="19.56"/><rect class="cls-1" x="970.08" width="1.44" height="19.56"/><rect class="cls-1" x="972.29" width="1.44" height="19.56"/><rect class="cls-1" x="972.61" width="1.44" height="19.56"/><rect class="cls-1" x="974.34" width="1.44" height="19.56"/><rect class="cls-1" x="974.5" width="1.44" height="19.56"/><rect class="cls-1" x="974.82" width="1.44" height="19.56"/><rect class="cls-1" x="975.61" width="1.44" height="19.56"/><rect class="cls-1" x="984.6" width="1.44" height="19.56"/><rect class="cls-1" x="985.55" width="1.44" height="19.56"/><rect class="cls-1" x="996.45" width="1.44" height="19.56"/><rect class="cls-1" x="998.81" width="1.44" height="19.56"/><rect class="cls-1" x="1001.02" width="1.44" height="19.56"/><rect class="cls-1" x="1027.07" width="1.44" height="19.56"/><rect class="cls-1" x="1027.23" width="1.44" height="19.56"/><rect class="cls-1" x="1027.38" width="1.44" height="19.56"/><rect class="cls-1" x="1059.74" width="1.44" height="19.56"/></g></g></svg>