<svg xmlns="http://www.w3.org/2000/svg" viewBox="0 0 1064.41 19.67"><defs><style>.cls-1{fill:#fff;}</style></defs><g id="Layer_2" data-name="Layer 2"><g id="Layer_1-2" data-name="Layer 1"><rect y="0.11" width="1064.41" height="19.57"/><rect class="cls-1" x="7.12" width="1.44" height="19.56"/><rect class="cls-1" x="24.65" width="1.44" height="19.56"/><rect class="cls-1" x="26.8" width="1.44" height="19.56"/><rect class="cls-1" x="27.72" width="1.44" height="19.56"/><rect class="cls-1" x="27.88" width="1.44" height="19.56"/><rect class="cls-1" x="28.34" width="1.44" height="19.56"/><rect class="cls-1" x="29.11" width="1.44" height="19.56"/><rect class="cls-1" x="29.26" width="1.44" height="19.56"/><rect class="cls-1" x="29.42" width="1.44" height="19.56"/><rect class="cls-1" x="29.57" width="1.44" height="19.56"/><rect class="cls-1" x="30.49" width="1.44" height="19.56"/><rect class="cls-1" x="32.18" width="1.44" height="19.56"/><rect class="cls-1" x="32.34" width="1.44" height="19.56"/><rect class="cls-1" x="44.64" width="1.44" height="19.56"/><rect class="cls-1" x="44.94" width="1.44" height="19.56"/><rect class="cls-1" x="46.17" width="1.44" height="19.56"/><rect class="cls-1" x="50.02" width="1.44" height="19.56"/><rect class="cls-1" x="50.63" width="1.44" height="19.56"/><rect class="cls-1" x="58.63" width="1.44" height="19.56"/><rect class="cls-1" x="58.78" width="1.44" height="19.56"/><rect class="cls-1" x="59.09" width="1.44" height="19.56"/><rect class="cls-1" x="60.32" width="1.44" height="19.56"/><rect class="cls-1" x="70.31" width="1.44" height="19.56"/><rect class="cls-1" x="70.47" width="1.44" height="19.56"/><rect class="cls-1" x="82.31" width="1.44" height="19.56"/><rect class="cls-1" x="90.76" width="1.44" height="19.56"/><rect class="cls-1" x="91.07" width="1.44" height="19.56"/><rect class="cls-1" x="92.91" width="1.44" height="19.56"/><rect class="cls-1" x="95.22" width="1.44" height="19.56"/><rect class="cls-1" x="96.14" width="1.44" height="19.56"/><rect class="cls-1" x="96.76" width="1.44" height="19.56"/><rect class="cls-1" x="97.53" width="1.44" height="19.56"/><rect class="cls-1" x="98.45" width="1.44" height="19.56"/><rect class="cls-1" x="124.89" width="1.44" height="19.56"/><rect class="cls-1" x="129.66" width="1.44" height="19.56"/><rect class="cls-1" x="129.97" width="1.44" height="19.56"/><rect class="cls-1" x="131.81" width="1.44" height="19.56"/><rect class="cls-1" x="133.2" width="1.44" height="19.56"/><rect class="cls-1" x="139.35" width="1.44" height="19.56"/><rect class="cls-1" x="141.81" width="1.44" height="19.56"/><rect class="cls-1" x="142.27" width="1.44" height="19.56"/><rect class="cls-1" x="142.58" width="1.44" height="19.56"/><rect class="cls-1" x="143.5" width="1.44" height="19.56"/><rect class="cls-1" x="144.57" width="1.44" height="19.56"/><rect class="cls-1" x="145.34" width="1.44" height="19.56"/><rect class="cls-1" x="146.73" width="1.44" height="19.56"/><rect class="cls-1" x="147.34" width="1.44" height="19.56"/><rect class="cls-1" x="154.57" width="1.44" height="19.56"/><rect class="cls-1" x="155.34" width="1.44" height="19.56"/><rect class="cls-1" x="157.8" width="1.44" height="19.56"/><rect class="cls-1" x="158.41" width="1.44" height="19.56"/><rect class="cls-1" x="158.57" width="1.44" height="19.56"/><rect class="cls-1" x="162.26" width="1.44" height="19.56"/><rect class="cls-1" x="165.79" width="1.44" height="19.56"/><rect class="cls-1" x="169.02" width="1.44" height="19.56"/><rect class="cls-1" x="171.17" width="1.44" height="19.56"/><rect class="cls-1" x="171.48" width="1.44" height="19.56"/><rect class="cls-1" x="176.25" width="1.44" height="19.56"/><rect class="cls-1" x="177.32" width="1.44" height="19.56"/><rect class="cls-1" x="180.09" width="1.44" height="19.56"/><rect class="cls-1" x="194.54" width="1.44" height="19.56"/><rect class="cls-1" x="202.54" width="1.44" height="19.56"/><rect class="cls-1" x="204.07" width="1.44" height="19.56"/><rect class="cls-1" x="205.77" width="1.44" height="19.56"/><rect class="cls-1" x="206.38" width="1.44" height="19.56"/><rect class="cls-1" x="207.92" width="1.44" height="19.56"/><rect class="cls-1" x="208.53" width="1.44" height="19.56"/><rect class="cls-1" x="209.3" width="1.44" height="19.56"/><rect class="cls-1" x="211.61" width="1.44" height="19.56"/><rect class="cls-1" x="213.61" width="1.44" height="19.56"/><rect class="cls-1" x="218.84" width="1.44" height="19.56"/><rect class="cls-1" x="220.07" width="1.44" height="19.56"/><rect class="cls-1" x="223.91" width="1.44" height="19.56"/><rect class="cls-1" x="224.99" width="1.44" height="19.56"/><rect class="cls-1" x="228.21" width="1.44" height="19.56"/><rect class="cls-1" x="232.21" width="1.44" height="19.56"/><rect class="cls-1" x="232.98" width="1.44" height="19.56"/><rect class="cls-1" x="234.36" width="1.44" height="19.56"/><rect class="cls-1" x="234.67" width="1.44" height="19.56"/><rect class="cls-1" x="235.9" width="1.44" height="19.56"/><rect class="cls-1" x="260.96" width="1.44" height="19.56"/><rect class="cls-1" x="262.81" width="1.44" height="19.56"/><rect class="cls-1" x="263.27" width="1.44" height="19.56"/><rect class="cls-1" x="264.19" width="1.44" height="19.56"/><rect class="cls-1" x="264.5" width="1.44" height="19.56"/><rect class="cls-1" x="264.96" width="1.44" height="19.56"/><rect class="cls-1" x="265.58" width="1.44" height="19.56"/><rect class="cls-1" x="266.04" width="1.44" height="19.56"/><rect class="cls-1" x="267.27" width="1.44" height="19.56"/><rect class="cls-1" x="268.5" width="1.44" height="19.56"/><rect class="cls-1" x="270.19" width="1.44" height="19.56"/><rect class="cls-1" x="271.57" width="1.44" height="19.56"/><rect class="cls-1" x="275.57" width="1.44" height="19.56"/><rect class="cls-1" x="313.08" width="1.44" height="19.56"/><rect class="cls-1" x="324.61" width="1.44" height="19.56"/><rect class="cls-1" x="325.85" width="1.44" height="19.56"/><rect class="cls-1" x="330.77" width="1.44" height="19.56"/><rect class="cls-1" x="342.14" width="1.44" height="19.56"/><rect class="cls-1" x="342.3" width="1.44" height="19.56"/><rect class="cls-1" x="351.06" width="1.44" height="19.56"/><rect class="cls-1" x="384.73" width="1.44" height="19.56"/><rect class="cls-1" x="460.53" width="1.44" height="19.56"/><rect class="cls-1" x="504.5" width="1.44" height="19.56"/><rect class="cls-1" x="529.26" width="1.44" height="19.56"/><rect class="cls-1" x="530.49" width="1.44" height="19.56"/><rect class="cls-1" x="534.02" width="1.44" height="19.56"/><rect class="cls-1" x="546.78" width="1.44" height="19.56"/><rect class="cls-1" x="555.55" width="1.44" height="19.56"/><rect class="cls-1" x="555.7" width="1.44" height="19.56"/><rect class="cls-1" x="556.01" width="1.44" height="19.56"/><rect class="cls-1" x="564.62" width="1.44" height="19.56"/><rect class="cls-1" x="568.46" width="1.44" height="19.56"/><rect class="cls-1" x="589.99" width="1.44" height="19.56"/><rect class="cls-1" x="598.14" width="1.44" height="19.56"/><rect class="cls-1" x="624.58" width="1.44" height="19.56"/><rect class="cls-1" x="625.97" width="1.44" height="19.56"/><rect class="cls-1" x="658.1" width="1.44" height="19.56"/><rect class="cls-1" x="659.48" width="1.44" height="19.56"/><rect class="cls-1" x="660.56" width="1.44" height="19.56"/><rect class="cls-1" x="662.1" width="1.44" height="19.56"/><rect class="cls-1" x="664.71" width="1.44" height="19.56"/><rect class="cls-1" x="727.44" width="1.44" height="19.56"/><rect class="cls-1" x="741.74" width="1.44" height="19.56"/><rect class="cls-1" x="753.58" width="1.44" height="19.56"/><rect class="cls-1" x="754.5" width="1.44" height="19.56"/><rect class="cls-1" x="755.42" width="1.44" height="19.56"/><rect class="cls-1" x="755.58" width="1.44" height="19.56"/><rect class="cls-1" x="756.04" width="1.44" height="19.56"/><rect class="cls-1" x="768.18" width="1.44" height="19.56"/><rect class="cls-1" x="770.03" width="1.44" height="19.56"/><rect class="cls-1" x="771.1" width="1.44" height="19.56"/><rect class="cls-1" x="775.72" width="1.44" height="19.56"/><rect class="cls-1" x="784.48" width="1.44" height="19.56"/><rect class="cls-1" x="784.64" width="1.44" height="19.56"/><rect class="cls-1" x="785.4" width="1.44" height="19.56"/><rect class="cls-1" x="791.25" width="1.44" height="19.56"/><rect class="cls-1" x="796.93" width="1.44" height="19.56"/><rect class="cls-1" x="804.78" width="1.44" height="19.56"/><rect class="cls-1" x="808.16" width="1.44" height="19.56"/><rect class="cls-1" x="835.06" width="1.44" height="19.56"/><rect class="cls-1" x="835.53" width="1.44" height="19.56"/><rect class="cls-1" x="846.59" width="1.44" height="19.56"/><rect class="cls-1" x="848.44" width="1.44" height="19.56"/><rect class="cls-1" x="869.97" width="1.44" height="19.56"/><rect class="cls-1" x="893.8" width="1.44" height="19.56"/><rect class="cls-1" x="896.72" width="1.44" height="19.56"/><rect class="cls-1" x="936.39" width="1.44" height="19.56"/><rect class="cls-1" x="940.54" width="1.44" height="19.56"/><rect class="cls-1" x="944.84" width="1.44" height="19.56"/><rect class="cls-1" x="946.38" width="1.44" height="19.56"/><rect class="cls-1" x="950.68" width="1.44" height="19.56"/><rect class="cls-1" x="961.14" width="1.44" height="19.56"/><rect class="cls-1" x="965.75" width="1.44" height="19.56"/><rect class="cls-1" x="968.83" width="1.44" height="19.56"/><rect class="cls-1" x="972.21" width="1.44" height="19.56"/><rect class="cls-1" x="973.44" width="1.44" height="19.56"/><rect class="cls-1" x="975.13" width="1.44" height="19.56"/><rect class="cls-1" x="975.59" width="1.44" height="19.56"/></g></g></svg>