<svg xmlns="http://www.w3.org/2000/svg" viewBox="0 0 1064.41 19.69"><defs><style>.cls-1{fill:#fff;}</style></defs><g id="Layer_2" data-name="Layer 2"><g id="Layer_1-2" data-name="Layer 1"><rect y="0.12" width="1064.41" height="19.57"/><rect class="cls-1" x="3.9" width="1.44" height="19.56"/><rect class="cls-1" x="4.98" width="1.44" height="19.56"/><rect class="cls-1" x="19.61" width="1.44" height="19.56"/><rect class="cls-1" x="21.3" width="1.44" height="19.56"/><rect class="cls-1" x="26.85" width="1.44" height="19.56"/><rect class="cls-1" x="27.77" width="1.44" height="19.56"/><rect class="cls-1" x="31.77" width="1.44" height="19.56"/><rect class="cls-1" x="35.78" width="1.44" height="19.56"/><rect class="cls-1" x="41.17" width="1.44" height="19.56"/><rect class="cls-1" x="61.49" width="1.44" height="19.56"/><rect class="cls-1" x="66.88" width="1.44" height="19.56"/><rect class="cls-1" x="69.96" width="1.44" height="19.56"/><rect class="cls-1" x="77.51" width="1.44" height="19.56"/><rect class="cls-1" x="87.52" width="1.44" height="19.56"/><rect class="cls-1" x="89.21" width="1.44" height="19.56"/><rect class="cls-1" x="91.22" width="1.44" height="19.56"/><rect class="cls-1" x="93.83" width="1.44" height="19.56"/><rect class="cls-1" x="95.37" width="1.44" height="19.56"/><rect class="cls-1" x="98.3" width="1.44" height="19.56"/><rect class="cls-1" x="100.92" width="1.44" height="19.56"/><rect class="cls-1" x="104.61" width="1.44" height="19.56"/><rect class="cls-1" x="107.23" width="1.44" height="19.56"/><rect class="cls-1" x="121.86" width="1.44" height="19.56"/><rect class="cls-1" x="150.35" width="1.44" height="19.56"/><rect class="cls-1" x="152.35" width="1.44" height="19.56"/><rect class="cls-1" x="156.05" width="1.44" height="19.56"/><rect class="cls-1" x="156.97" width="1.44" height="19.56"/><rect class="cls-1" x="157.13" width="1.44" height="19.56"/><rect class="cls-1" x="159.28" width="1.44" height="19.56"/><rect class="cls-1" x="165.6" width="1.44" height="19.56"/><rect class="cls-1" x="174.53" width="1.44" height="19.56"/><rect class="cls-1" x="174.83" width="1.44" height="19.56"/><rect class="cls-1" x="182.69" width="1.44" height="19.56"/><rect class="cls-1" x="235.05" width="1.44" height="19.56"/><rect class="cls-1" x="249.37" width="1.44" height="19.56"/><rect class="cls-1" x="260.3" width="1.44" height="19.56"/><rect class="cls-1" x="263.84" width="1.44" height="19.56"/><rect class="cls-1" x="270.16" width="1.44" height="19.56"/><rect class="cls-1" x="294.33" width="1.44" height="19.56"/><rect class="cls-1" x="317.13" width="1.44" height="19.56"/><rect class="cls-1" x="332.22" width="1.44" height="19.56"/><rect class="cls-1" x="340.84" width="1.44" height="19.56"/><rect class="cls-1" x="341.76" width="1.44" height="19.56"/><rect class="cls-1" x="342.69" width="1.44" height="19.56"/><rect class="cls-1" x="344.38" width="1.44" height="19.56"/><rect class="cls-1" x="356.09" width="1.44" height="19.56"/><rect class="cls-1" x="360.09" width="1.44" height="19.56"/><rect class="cls-1" x="366.71" width="1.44" height="19.56"/><rect class="cls-1" x="372.56" width="1.44" height="19.56"/><rect class="cls-1" x="393.05" width="1.44" height="19.56"/><rect class="cls-1" x="401.82" width="1.44" height="19.56"/><rect class="cls-1" x="410.6" width="1.44" height="19.56"/><rect class="cls-1" x="418.61" width="1.44" height="19.56"/><rect class="cls-1" x="447.71" width="1.44" height="19.56"/><rect class="cls-1" x="456.64" width="1.44" height="19.56"/><rect class="cls-1" x="458.34" width="1.44" height="19.56"/><rect class="cls-1" x="488.52" width="1.44" height="19.56"/><rect class="cls-1" x="490.68" width="1.44" height="19.56"/><rect class="cls-1" x="500.38" width="1.44" height="19.56"/><rect class="cls-1" x="505.92" width="1.44" height="19.56"/><rect class="cls-1" x="515.47" width="1.44" height="19.56"/><rect class="cls-1" x="530.25" width="1.44" height="19.56"/><rect class="cls-1" x="540.42" width="1.44" height="19.56"/><rect class="cls-1" x="540.72" width="1.44" height="19.56"/><rect class="cls-1" x="541.03" width="1.44" height="19.56"/><rect class="cls-1" x="541.34" width="1.44" height="19.56"/><rect class="cls-1" x="541.49" width="1.44" height="19.56"/><rect class="cls-1" x="541.65" width="1.44" height="19.56"/><rect class="cls-1" x="541.8" width="1.44" height="19.56"/><rect class="cls-1" x="541.96" width="1.44" height="19.56"/><rect class="cls-1" x="542.27" width="1.44" height="19.56"/><rect class="cls-1" x="552.74" width="1.44" height="19.56"/><rect class="cls-1" x="624.34" width="1.44" height="19.56"/><rect class="cls-1" x="626.65" width="1.44" height="19.56"/><rect class="cls-1" x="642.05" width="1.44" height="19.56"/><rect class="cls-1" x="646.21" width="1.44" height="19.56"/><rect class="cls-1" x="647.14" width="1.44" height="19.56"/><rect class="cls-1" x="682.71" width="1.44" height="19.56"/><rect class="cls-1" x="683.02" width="1.44" height="19.56"/><rect class="cls-1" x="687.94" width="1.44" height="19.56"/><rect class="cls-1" x="712.58" width="1.44" height="19.56"/><rect class="cls-1" x="719.97" width="1.44" height="19.56"/><rect class="cls-1" x="753.7" width="1.44" height="19.56"/><rect class="cls-1" x="753.85" width="1.44" height="19.56"/><rect class="cls-1" x="755.24" width="1.44" height="19.56"/><rect class="cls-1" x="755.55" width="1.44" height="19.56"/><rect class="cls-1" x="756.47" width="1.44" height="19.56"/><rect class="cls-1" x="757.4" width="1.44" height="19.56"/><rect class="cls-1" x="759.55" width="1.44" height="19.56"/><rect class="cls-1" x="760.32" width="1.44" height="19.56"/><rect class="cls-1" x="762.17" width="1.44" height="19.56"/><rect class="cls-1" x="762.78" width="1.44" height="19.56"/><rect class="cls-1" x="766.79" width="1.44" height="19.56"/><rect class="cls-1" x="767.1" width="1.44" height="19.56"/><rect class="cls-1" x="790.5" width="1.44" height="19.56"/><rect class="cls-1" x="809.6" width="1.44" height="19.56"/><rect class="cls-1" x="850.25" width="1.44" height="19.56"/><rect class="cls-1" x="852.56" width="1.44" height="19.56"/><rect class="cls-1" x="886.13" width="1.44" height="19.56"/><rect class="cls-1" x="893.53" width="1.44" height="19.56"/><rect class="cls-1" x="919.24" width="1.44" height="19.56"/><rect class="cls-1" x="961.13" width="1.44" height="19.56"/><rect class="cls-1" x="963.44" width="1.44" height="19.56"/><rect class="cls-1" x="963.9" width="1.44" height="19.56"/><rect class="cls-1" x="966.37" width="1.44" height="19.56"/><rect class="cls-1" x="968.83" width="1.44" height="19.56"/><rect class="cls-1" x="969.91" width="1.44" height="19.56"/><rect class="cls-1" x="992.85" width="1.44" height="19.56"/><rect class="cls-1" x="993.78" width="1.44" height="19.56"/><rect class="cls-1" x="994.85" width="1.44" height="19.56"/><rect class="cls-1" x="995.62" width="1.44" height="19.56"/><rect class="cls-1" x="996.55" width="1.44" height="19.56"/><rect class="cls-1" x="997.63" width="1.44" height="19.56"/><rect class="cls-1" x="999.01" width="1.44" height="19.56"/><rect class="cls-1" x="1000.09" width="1.44" height="19.56"/><rect class="cls-1" x="1002.4" width="1.44" height="19.56"/><rect class="cls-1" x="1003.48" width="1.44" height="19.56"/><rect class="cls-1" x="1004.25" width="1.44" height="19.56"/><rect class="cls-1" x="1005.94" width="1.44" height="19.56"/></g></g></svg>