<svg xmlns="http://www.w3.org/2000/svg" viewBox="0 0 1064.41 19.7"><defs><style>.cls-1{fill:#fff;}</style></defs><g id="Layer_2" data-name="Layer 2"><g id="Layer_1-2" data-name="Layer 1"><rect y="0.13" width="1064.41" height="19.57"/><rect class="cls-1" x="7.19" width="1.44" height="19.56"/><rect class="cls-1" x="7.89" width="1.44" height="19.56"/><rect class="cls-1" x="8.81" width="1.44" height="19.56"/><rect class="cls-1" x="9.16" width="1.44" height="19.56"/><rect class="cls-1" x="13.7" width="1.44" height="19.56"/><rect class="cls-1" x="15.56" width="1.44" height="19.56"/><rect class="cls-1" x="28" width="1.44" height="19.56"/><rect class="cls-1" x="32.88" width="1.44" height="19.56"/><rect class="cls-1" x="37.53" width="1.44" height="19.56"/><rect class="cls-1" x="41.37" width="1.44" height="19.56"/><rect class="cls-1" x="42.76" width="1.44" height="19.56"/><rect class="cls-1" x="43.23" width="1.44" height="19.56"/><rect class="cls-1" x="44.28" width="1.44" height="19.56"/><rect class="cls-1" x="45.21" width="1.44" height="19.56"/><rect class="cls-1" x="46.02" width="1.44" height="19.56"/><rect class="cls-1" x="46.49" width="1.44" height="19.56"/><rect class="cls-1" x="49.51" width="1.44" height="19.56"/><rect class="cls-1" x="49.86" width="1.44" height="19.56"/><rect class="cls-1" x="52.3" width="1.44" height="19.56"/><rect class="cls-1" x="54.97" width="1.44" height="19.56"/><rect class="cls-1" x="55.55" width="1.44" height="19.56"/><rect class="cls-1" x="57.41" width="1.44" height="19.56"/><rect class="cls-1" x="57.65" width="1.44" height="19.56"/><rect class="cls-1" x="57.88" width="1.44" height="19.56"/><rect class="cls-1" x="59.51" width="1.44" height="19.56"/><rect class="cls-1" x="61.02" width="1.44" height="19.56"/><rect class="cls-1" x="65.44" width="1.44" height="19.56"/><rect class="cls-1" x="67.88" width="1.44" height="19.56"/><rect class="cls-1" x="69.5" width="1.44" height="19.56"/><rect class="cls-1" x="73.11" width="1.44" height="19.56"/><rect class="cls-1" x="75.2" width="1.44" height="19.56"/><rect class="cls-1" x="77.88" width="1.44" height="19.56"/><rect class="cls-1" x="78.46" width="1.44" height="19.56"/><rect class="cls-1" x="78.69" width="1.44" height="19.56"/><rect class="cls-1" x="79.39" width="1.44" height="19.56"/><rect class="cls-1" x="81.01" width="1.44" height="19.56"/><rect class="cls-1" x="83.22" width="1.44" height="19.56"/><rect class="cls-1" x="85.08" width="1.44" height="19.56"/><rect class="cls-1" x="89.27" width="1.44" height="19.56"/><rect class="cls-1" x="90.43" width="1.44" height="19.56"/><rect class="cls-1" x="94.27" width="1.44" height="19.56"/><rect class="cls-1" x="95.78" width="1.44" height="19.56"/><rect class="cls-1" x="108.69" width="1.44" height="19.56"/><rect class="cls-1" x="109.85" width="1.44" height="19.56"/><rect class="cls-1" x="110.43" width="1.44" height="19.56"/><rect class="cls-1" x="111.59" width="1.44" height="19.56"/><rect class="cls-1" x="112.17" width="1.44" height="19.56"/><rect class="cls-1" x="113.34" width="1.44" height="19.56"/><rect class="cls-1" x="119.27" width="1.44" height="19.56"/><rect class="cls-1" x="121.94" width="1.44" height="19.56"/><rect class="cls-1" x="127.87" width="1.44" height="19.56"/><rect class="cls-1" x="128.68" width="1.44" height="19.56"/><rect class="cls-1" x="132.4" width="1.44" height="19.56"/><rect class="cls-1" x="135.54" width="1.44" height="19.56"/><rect class="cls-1" x="137.29" width="1.44" height="19.56"/><rect class="cls-1" x="137.52" width="1.44" height="19.56"/><rect class="cls-1" x="138.45" width="1.44" height="19.56"/><rect class="cls-1" x="140.78" width="1.44" height="19.56"/><rect class="cls-1" x="150.43" width="1.44" height="19.56"/><rect class="cls-1" x="166.82" width="1.44" height="19.56"/><rect class="cls-1" x="173.1" width="1.44" height="19.56"/><rect class="cls-1" x="173.79" width="1.44" height="19.56"/><rect class="cls-1" x="176.24" width="1.44" height="19.56"/><rect class="cls-1" x="177.98" width="1.44" height="19.56"/><rect class="cls-1" x="181" width="1.44" height="19.56"/><rect class="cls-1" x="183.33" width="1.44" height="19.56"/><rect class="cls-1" x="187.98" width="1.44" height="19.56"/><rect class="cls-1" x="189.72" width="1.44" height="19.56"/><rect class="cls-1" x="191.35" width="1.44" height="19.56"/><rect class="cls-1" x="191.82" width="1.44" height="19.56"/><rect class="cls-1" x="193.33" width="1.44" height="19.56"/><rect class="cls-1" x="222.39" width="1.44" height="19.56"/><rect class="cls-1" x="231.81" width="1.44" height="19.56"/><rect class="cls-1" x="238.9" width="1.44" height="19.56"/><rect class="cls-1" x="239.14" width="1.44" height="19.56"/><rect class="cls-1" x="239.72" width="1.44" height="19.56"/><rect class="cls-1" x="240.3" width="1.44" height="19.56"/><rect class="cls-1" x="241.23" width="1.44" height="19.56"/><rect class="cls-1" x="242.74" width="1.44" height="19.56"/><rect class="cls-1" x="245.88" width="1.44" height="19.56"/><rect class="cls-1" x="246.23" width="1.44" height="19.56"/><rect class="cls-1" x="246.93" width="1.44" height="19.56"/><rect class="cls-1" x="248.09" width="1.44" height="19.56"/><rect class="cls-1" x="248.44" width="1.44" height="19.56"/><rect class="cls-1" x="257.51" width="1.44" height="19.56"/><rect class="cls-1" x="258.44" width="1.44" height="19.56"/><rect class="cls-1" x="273.55" width="1.44" height="19.56"/><rect class="cls-1" x="277.74" width="1.44" height="19.56"/><rect class="cls-1" x="290.76" width="1.44" height="19.56"/><rect class="cls-1" x="293.43" width="1.44" height="19.56"/><rect class="cls-1" x="293.78" width="1.44" height="19.56"/><rect class="cls-1" x="294.48" width="1.44" height="19.56"/><rect class="cls-1" x="294.94" width="1.44" height="19.56"/><rect class="cls-1" x="306.8" width="1.44" height="19.56"/><rect class="cls-1" x="326.8" width="1.44" height="19.56"/><rect class="cls-1" x="340.29" width="1.44" height="19.56"/><rect class="cls-1" x="345.05" width="1.44" height="19.56"/><rect class="cls-1" x="358.66" width="1.44" height="19.56"/><rect class="cls-1" x="366.91" width="1.44" height="19.56"/><rect class="cls-1" x="383.65" width="1.44" height="19.56"/><rect class="cls-1" x="395.98" width="1.44" height="19.56"/><rect class="cls-1" x="421.9" width="1.44" height="19.56"/><rect class="cls-1" x="422.49" width="1.44" height="19.56"/><rect class="cls-1" x="423.53" width="1.44" height="19.56"/><rect class="cls-1" x="434.23" width="1.44" height="19.56"/><rect class="cls-1" x="438.76" width="1.44" height="19.56"/><rect class="cls-1" x="439.46" width="1.44" height="19.56"/><rect class="cls-1" x="440.04" width="1.44" height="19.56"/><rect class="cls-1" x="446.32" width="1.44" height="19.56"/><rect class="cls-1" x="459.92" width="1.44" height="19.56"/><rect class="cls-1" x="462.83" width="1.44" height="19.56"/><rect class="cls-1" x="463.76" width="1.44" height="19.56"/><rect class="cls-1" x="464.58" width="1.44" height="19.56"/><rect class="cls-1" x="467.71" width="1.44" height="19.56"/><rect class="cls-1" x="468.06" width="1.44" height="19.56"/><rect class="cls-1" x="501.55" width="1.44" height="19.56"/><rect class="cls-1" x="503.52" width="1.44" height="19.56"/><rect class="cls-1" x="515.96" width="1.44" height="19.56"/><rect class="cls-1" x="517.59" width="1.44" height="19.56"/><rect class="cls-1" x="520.38" width="1.44" height="19.56"/><rect class="cls-1" x="528.64" width="1.44" height="19.56"/><rect class="cls-1" x="532.59" width="1.44" height="19.56"/><rect class="cls-1" x="548.29" width="1.44" height="19.56"/><rect class="cls-1" x="572.24" width="1.44" height="19.56"/><rect class="cls-1" x="574.21" width="1.44" height="19.56"/><rect class="cls-1" x="575.72" width="1.44" height="19.56"/><rect class="cls-1" x="595.49" width="1.44" height="19.56"/><rect class="cls-1" x="623.63" width="1.44" height="19.56"/><rect class="cls-1" x="627.23" width="1.44" height="19.56"/><rect class="cls-1" x="627.81" width="1.44" height="19.56"/><rect class="cls-1" x="635.37" width="1.44" height="19.56"/><rect class="cls-1" x="637.34" width="1.44" height="19.56"/><rect class="cls-1" x="638.39" width="1.44" height="19.56"/><rect class="cls-1" x="650.02" width="1.44" height="19.56"/><rect class="cls-1" x="652.23" width="1.44" height="19.56"/><rect class="cls-1" x="653.04" width="1.44" height="19.56"/><rect class="cls-1" x="654.09" width="1.44" height="19.56"/><rect class="cls-1" x="654.78" width="1.44" height="19.56"/><rect class="cls-1" x="658.85" width="1.44" height="19.56"/><rect class="cls-1" x="662.11" width="1.44" height="19.56"/><rect class="cls-1" x="662.46" width="1.44" height="19.56"/><rect class="cls-1" x="663.27" width="1.44" height="19.56"/><rect class="cls-1" x="665.6" width="1.44" height="19.56"/><rect class="cls-1" x="665.83" width="1.44" height="19.56"/><rect class="cls-1" x="666.29" width="1.44" height="19.56"/><rect class="cls-1" x="669.78" width="1.44" height="19.56"/><rect class="cls-1" x="674.32" width="1.44" height="19.56"/><rect class="cls-1" x="677.46" width="1.44" height="19.56"/><rect class="cls-1" x="680.83" width="1.44" height="19.56"/><rect class="cls-1" x="686.06" width="1.44" height="19.56"/><rect class="cls-1" x="686.41" width="1.44" height="19.56"/><rect class="cls-1" x="687.69" width="1.44" height="19.56"/><rect class="cls-1" x="688.73" width="1.44" height="19.56"/><rect class="cls-1" x="690.94" width="1.44" height="19.56"/><rect class="cls-1" x="704.31" width="1.44" height="19.56"/><rect class="cls-1" x="705.71" width="1.44" height="19.56"/><rect class="cls-1" x="706.52" width="1.44" height="19.56"/><rect class="cls-1" x="707.1" width="1.44" height="19.56"/><rect class="cls-1" x="711.06" width="1.44" height="19.56"/><rect class="cls-1" x="712.45" width="1.44" height="19.56"/><rect class="cls-1" x="712.8" width="1.44" height="19.56"/><rect class="cls-1" x="713.15" width="1.44" height="19.56"/><rect class="cls-1" x="715.01" width="1.44" height="19.56"/><rect class="cls-1" x="716.99" width="1.44" height="19.56"/><rect class="cls-1" x="719.31" width="1.44" height="19.56"/><rect class="cls-1" x="720.82" width="1.44" height="19.56"/><rect class="cls-1" x="722.92" width="1.44" height="19.56"/><rect class="cls-1" x="723.27" width="1.44" height="19.56"/><rect class="cls-1" x="723.73" width="1.44" height="19.56"/><rect class="cls-1" x="724.66" width="1.44" height="19.56"/><rect class="cls-1" x="728.5" width="1.44" height="19.56"/><rect class="cls-1" x="728.85" width="1.44" height="19.56"/><rect class="cls-1" x="730.59" width="1.44" height="19.56"/><rect class="cls-1" x="731.87" width="1.44" height="19.56"/><rect class="cls-1" x="732.91" width="1.44" height="19.56"/><rect class="cls-1" x="733.15" width="1.44" height="19.56"/><rect class="cls-1" x="734.66" width="1.44" height="19.56"/><rect class="cls-1" x="735.94" width="1.44" height="19.56"/><rect class="cls-1" x="736.52" width="1.44" height="19.56"/><rect class="cls-1" x="740.24" width="1.44" height="19.56"/><rect class="cls-1" x="740.82" width="1.44" height="19.56"/><rect class="cls-1" x="741.64" width="1.44" height="19.56"/><rect class="cls-1" x="749.31" width="1.44" height="19.56"/><rect class="cls-1" x="749.77" width="1.44" height="19.56"/><rect class="cls-1" x="758.73" width="1.44" height="19.56"/><rect class="cls-1" x="758.96" width="1.44" height="19.56"/><rect class="cls-1" x="760.59" width="1.44" height="19.56"/><rect class="cls-1" x="764.07" width="1.44" height="19.56"/><rect class="cls-1" x="764.42" width="1.44" height="19.56"/><rect class="cls-1" x="767.1" width="1.44" height="19.56"/><rect class="cls-1" x="768.38" width="1.44" height="19.56"/><rect class="cls-1" x="768.96" width="1.44" height="19.56"/><rect class="cls-1" x="769.54" width="1.44" height="19.56"/><rect class="cls-1" x="771.98" width="1.44" height="19.56"/><rect class="cls-1" x="772.91" width="1.44" height="19.56"/><rect class="cls-1" x="773.84" width="1.44" height="19.56"/><rect class="cls-1" x="776.4" width="1.44" height="19.56"/><rect class="cls-1" x="776.98" width="1.44" height="19.56"/><rect class="cls-1" x="778.26" width="1.44" height="19.56"/><rect class="cls-1" x="780.47" width="1.44" height="19.56"/><rect class="cls-1" x="788.96" width="1.44" height="19.56"/><rect class="cls-1" x="789.19" width="1.44" height="19.56"/><rect class="cls-1" x="790.7" width="1.44" height="19.56"/><rect class="cls-1" x="791.63" width="1.44" height="19.56"/><rect class="cls-1" x="807.67" width="1.44" height="19.56"/><rect class="cls-1" x="807.79" width="1.44" height="19.56"/><rect class="cls-1" x="808.72" width="1.44" height="19.56"/><rect class="cls-1" x="826.97" width="1.44" height="19.56"/><rect class="cls-1" x="838.72" width="1.44" height="19.56"/><rect class="cls-1" x="842.9" width="1.44" height="19.56"/><rect class="cls-1" x="843.25" width="1.44" height="19.56"/><rect class="cls-1" x="845.81" width="1.44" height="19.56"/><rect class="cls-1" x="852.09" width="1.44" height="19.56"/><rect class="cls-1" x="856.39" width="1.44" height="19.56"/><rect class="cls-1" x="858.13" width="1.44" height="19.56"/><rect class="cls-1" x="864.29" width="1.44" height="19.56"/><rect class="cls-1" x="880.11" width="1.44" height="19.56"/><rect class="cls-1" x="883.94" width="1.44" height="19.56"/><rect class="cls-1" x="884.53" width="1.44" height="19.56"/><rect class="cls-1" x="901.62" width="1.44" height="19.56"/><rect class="cls-1" x="902.9" width="1.44" height="19.56"/><rect class="cls-1" x="903.24" width="1.44" height="19.56"/><rect class="cls-1" x="908.24" width="1.44" height="19.56"/><rect class="cls-1" x="917.31" width="1.44" height="19.56"/><rect class="cls-1" x="936.61" width="1.44" height="19.56"/><rect class="cls-1" x="940.8" width="1.44" height="19.56"/><rect class="cls-1" x="941.03" width="1.44" height="19.56"/><rect class="cls-1" x="944.63" width="1.44" height="19.56"/><rect class="cls-1" x="945.8" width="1.44" height="19.56"/><rect class="cls-1" x="948.7" width="1.44" height="19.56"/><rect class="cls-1" x="958.24" width="1.44" height="19.56"/><rect class="cls-1" x="964.86" width="1.44" height="19.56"/><rect class="cls-1" x="968.47" width="1.44" height="19.56"/><rect class="cls-1" x="984.75" width="1.44" height="19.56"/><rect class="cls-1" x="985.09" width="1.44" height="19.56"/></g></g></svg>