<svg xmlns="http://www.w3.org/2000/svg" viewBox="0 0 1064.41 19.71"><defs><style>.cls-1{fill:#fff;}</style></defs><g id="Layer_2" data-name="Layer 2"><g id="Layer_1-2" data-name="Layer 1"><rect y="0.14" width="1064.41" height="19.57"/><rect class="cls-1" x="13.14" width="1.44" height="19.56"/><rect class="cls-1" x="13.67" width="1.44" height="19.56"/><rect class="cls-1" x="47.24" width="1.44" height="19.56"/><rect class="cls-1" x="57.9" width="1.44" height="19.56"/><rect class="cls-1" x="96.54" width="1.44" height="19.56"/><rect class="cls-1" x="114.93" width="1.44" height="19.56"/><rect class="cls-1" x="118.39" width="1.44" height="19.56"/><rect class="cls-1" x="118.66" width="1.44" height="19.56"/><rect class="cls-1" x="121.99" width="1.44" height="19.56"/><rect class="cls-1" x="123.99" width="1.44" height="19.56"/><rect class="cls-1" x="155.57" width="1.44" height="19.56"/><rect class="cls-1" x="193.94" width="1.44" height="19.56"/><rect class="cls-1" x="272.41" width="1.44" height="19.56"/><rect class="cls-1" x="288.13" width="1.44" height="19.56"/><rect class="cls-1" x="304.25" width="1.44" height="19.56"/><rect class="cls-1" x="315.58" width="1.44" height="19.56"/><rect class="cls-1" x="316.24" width="1.44" height="19.56"/><rect class="cls-1" x="319.44" width="1.44" height="19.56"/><rect class="cls-1" x="328.1" width="1.44" height="19.56"/><rect class="cls-1" x="331.03" width="1.44" height="19.56"/><rect class="cls-1" x="337.43" width="1.44" height="19.56"/><rect class="cls-1" x="344.09" width="1.44" height="19.56"/><rect class="cls-1" x="344.49" width="1.44" height="19.56"/><rect class="cls-1" x="372.07" width="1.44" height="19.56"/><rect class="cls-1" x="374.47" width="1.44" height="19.56"/><rect class="cls-1" x="402.18" width="1.44" height="19.56"/><rect class="cls-1" x="484.92" width="1.44" height="19.56"/><rect class="cls-1" x="486.92" width="1.44" height="19.56"/><rect class="cls-1" x="489.72" width="1.44" height="19.56"/><rect class="cls-1" x="489.98" width="1.44" height="19.56"/><rect class="cls-1" x="493.18" width="1.44" height="19.56"/><rect class="cls-1" x="536.61" width="1.44" height="19.56"/><rect class="cls-1" x="548.74" width="1.44" height="19.56"/><rect class="cls-1" x="563.4" width="1.44" height="19.56"/><rect class="cls-1" x="586.04" width="1.44" height="19.56"/><rect class="cls-1" x="606.3" width="1.44" height="19.56"/><rect class="cls-1" x="652.66" width="1.44" height="19.56"/><rect class="cls-1" x="732.74" width="1.44" height="19.56"/><rect class="cls-1" x="734.2" width="1.44" height="19.56"/><rect class="cls-1" x="755.25" width="1.44" height="19.56"/><rect class="cls-1" x="756.59" width="1.44" height="19.56"/><rect class="cls-1" x="764.05" width="1.44" height="19.56"/><rect class="cls-1" x="804.55" width="1.44" height="19.56"/><rect class="cls-1" x="863.57" width="1.44" height="19.56"/><rect class="cls-1" x="863.71" width="1.44" height="19.56"/><rect class="cls-1" x="876.23" width="1.44" height="19.56"/><rect class="cls-1" x="906.21" width="1.44" height="19.56"/><rect class="cls-1" x="909.54" width="1.44" height="19.56"/><rect class="cls-1" x="949.64" width="1.44" height="19.56"/><rect class="cls-1" x="997.21" width="1.44" height="19.56"/><rect class="cls-1" x="1017.46" width="1.44" height="19.56"/><rect class="cls-1" x="1018.92" width="1.44" height="19.56"/></g></g></svg>