<svg xmlns="http://www.w3.org/2000/svg" viewBox="0 0 1064.41 19.72"><defs><style>.cls-1{fill:#fff;}</style></defs><g id="Layer_2" data-name="Layer 2"><g id="Layer_1-2" data-name="Layer 1"><rect y="0.15" width="1064.41" height="19.57"/><rect class="cls-1" x="6.11" width="1.44" height="19.56"/><rect class="cls-1" x="8.58" width="1.44" height="19.56"/><rect class="cls-1" x="10.94" width="1.44" height="19.56"/><rect class="cls-1" x="21.89" width="1.44" height="19.56"/><rect class="cls-1" x="58.04" width="1.44" height="19.56"/><rect class="cls-1" x="69.35" width="1.44" height="19.56"/><rect class="cls-1" x="69.7" width="1.44" height="19.56"/><rect class="cls-1" x="70.41" width="1.44" height="19.56"/><rect class="cls-1" x="72.06" width="1.44" height="19.56"/><rect class="cls-1" x="77.12" width="1.44" height="19.56"/><rect class="cls-1" x="78.53" width="1.44" height="19.56"/><rect class="cls-1" x="85.83" width="1.44" height="19.56"/><rect class="cls-1" x="86.19" width="1.44" height="19.56"/><rect class="cls-1" x="86.54" width="1.44" height="19.56"/><rect class="cls-1" x="194.05" width="1.44" height="19.56"/><rect class="cls-1" x="197.47" width="1.44" height="19.56"/><rect class="cls-1" x="197.94" width="1.44" height="19.56"/><rect class="cls-1" x="210.3" width="1.44" height="19.56"/><rect class="cls-1" x="210.54" width="1.44" height="19.56"/><rect class="cls-1" x="213.95" width="1.44" height="19.56"/><rect class="cls-1" x="247.04" width="1.44" height="19.56"/><rect class="cls-1" x="247.4" width="1.44" height="19.56"/><rect class="cls-1" x="396.95" width="1.44" height="19.56"/><rect class="cls-1" x="464.66" width="1.44" height="19.56"/><rect class="cls-1" x="475.37" width="1.44" height="19.56"/><rect class="cls-1" x="483.73" width="1.44" height="19.56"/><rect class="cls-1" x="569.58" width="1.44" height="19.56"/><rect class="cls-1" x="570.29" width="1.44" height="19.56"/><rect class="cls-1" x="962.65" width="1.44" height="19.56"/><rect class="cls-1" x="964.07" width="1.44" height="19.56"/></g></g></svg>