<svg xmlns="http://www.w3.org/2000/svg" viewBox="0 0 1064.41 19.7"><defs><style>.cls-1{fill:#fff;}</style></defs><g id="Layer_2" data-name="Layer 2"><g id="Layer_1-2" data-name="Layer 1"><rect y="0.13" width="1064.41" height="19.57"/><rect class="cls-1" x="4.89" width="1.44" height="19.52"/><rect class="cls-1" x="5.45" width="1.44" height="19.52"/><rect class="cls-1" x="8.53" width="1.44" height="19.52"/><rect class="cls-1" x="54.21" width="1.44" height="19.52"/><rect class="cls-1" x="57.01" width="1.44" height="19.52"/><rect class="cls-1" x="81.68" width="1.44" height="19.52"/><rect class="cls-1" x="86.02" width="1.44" height="19.52"/><rect class="cls-1" x="87" width="1.44" height="19.52"/><rect class="cls-1" x="87.42" width="1.44" height="19.52"/><rect class="cls-1" x="89.38" width="1.44" height="19.52"/><rect class="cls-1" x="103.82" width="1.44" height="19.52"/><rect class="cls-1" x="103.96" width="1.44" height="19.52"/><rect class="cls-1" x="105.08" width="1.44" height="19.52"/><rect class="cls-1" x="113.76" width="1.44" height="19.52"/><rect class="cls-1" x="116.29" width="1.44" height="19.52"/><rect class="cls-1" x="120.91" width="1.44" height="19.52"/><rect class="cls-1" x="121.33" width="1.44" height="19.52"/><rect class="cls-1" x="122.03" width="1.44" height="19.52"/><rect class="cls-1" x="154.68" width="1.44" height="19.52"/><rect class="cls-1" x="156.92" width="1.44" height="19.52"/><rect class="cls-1" x="157.76" width="1.44" height="19.52"/><rect class="cls-1" x="158.89" width="1.44" height="19.52"/><rect class="cls-1" x="165.05" width="1.44" height="19.52"/><rect class="cls-1" x="168.7" width="1.44" height="19.52"/><rect class="cls-1" x="175.28" width="1.44" height="19.52"/><rect class="cls-1" x="195.18" width="1.44" height="19.52"/><rect class="cls-1" x="199.94" width="1.44" height="19.52"/><rect class="cls-1" x="208.21" width="1.44" height="19.52"/><rect class="cls-1" x="209.75" width="1.44" height="19.52"/><rect class="cls-1" x="218.58" width="1.44" height="19.52"/><rect class="cls-1" x="219.98" width="1.44" height="19.52"/><rect class="cls-1" x="222.22" width="1.44" height="19.52"/><rect class="cls-1" x="222.64" width="1.44" height="19.52"/><rect class="cls-1" x="228.53" width="1.44" height="19.52"/><rect class="cls-1" x="241.28" width="1.44" height="19.52"/><rect class="cls-1" x="260.34" width="1.44" height="19.52"/><rect class="cls-1" x="286.82" width="1.44" height="19.52"/><rect class="cls-1" x="288.08" width="1.44" height="19.52"/><rect class="cls-1" x="289.77" width="1.44" height="19.52"/><rect class="cls-1" x="290.75" width="1.44" height="19.52"/><rect class="cls-1" x="291.17" width="1.44" height="19.52"/><rect class="cls-1" x="291.59" width="1.44" height="19.52"/><rect class="cls-1" x="323.4" width="1.44" height="19.52"/><rect class="cls-1" x="324.94" width="1.44" height="19.52"/><rect class="cls-1" x="326.2" width="1.44" height="19.52"/><rect class="cls-1" x="326.9" width="1.44" height="19.52"/><rect class="cls-1" x="336.71" width="1.44" height="19.52"/><rect class="cls-1" x="340.63" width="1.44" height="19.52"/><rect class="cls-1" x="341.47" width="1.44" height="19.52"/><rect class="cls-1" x="343.57" width="1.44" height="19.52"/><rect class="cls-1" x="344.7" width="1.44" height="19.52"/><rect class="cls-1" x="348.48" width="1.44" height="19.52"/><rect class="cls-1" x="352.96" width="1.44" height="19.52"/><rect class="cls-1" x="364.17" width="1.44" height="19.52"/><rect class="cls-1" x="382.11" width="1.44" height="19.52"/><rect class="cls-1" x="410.7" width="1.44" height="19.52"/><rect class="cls-1" x="411.54" width="1.44" height="19.52"/><rect class="cls-1" x="412.52" width="1.44" height="19.52"/><rect class="cls-1" x="448.95" width="1.44" height="19.52"/><rect class="cls-1" x="449.79" width="1.44" height="19.52"/><rect class="cls-1" x="466.05" width="1.44" height="19.52"/><rect class="cls-1" x="467.03" width="1.44" height="19.52"/><rect class="cls-1" x="473.75" width="1.44" height="19.52"/><rect class="cls-1" x="475.01" width="1.44" height="19.52"/><rect class="cls-1" x="480.06" width="1.44" height="19.52"/><rect class="cls-1" x="482.3" width="1.44" height="19.52"/><rect class="cls-1" x="487.77" width="1.44" height="19.52"/><rect class="cls-1" x="500.38" width="1.44" height="19.52"/><rect class="cls-1" x="503.32" width="1.44" height="19.52"/><rect class="cls-1" x="504.3" width="1.44" height="19.52"/><rect class="cls-1" x="516.35" width="1.44" height="19.52"/><rect class="cls-1" x="516.77" width="1.44" height="19.52"/><rect class="cls-1" x="533.17" width="1.44" height="19.52"/><rect class="cls-1" x="560.35" width="1.44" height="19.52"/><rect class="cls-1" x="567.22" width="1.44" height="19.52"/><rect class="cls-1" x="610.94" width="1.44" height="19.52"/><rect class="cls-1" x="643.87" width="1.44" height="19.52"/><rect class="cls-1" x="667.27" width="1.44" height="19.52"/><rect class="cls-1" x="680.16" width="1.44" height="19.52"/><rect class="cls-1" x="712.67" width="1.44" height="19.52"/><rect class="cls-1" x="713.51" width="1.44" height="19.52"/><rect class="cls-1" x="713.93" width="1.44" height="19.52"/><rect class="cls-1" x="780.35" width="1.44" height="19.52"/><rect class="cls-1" x="784.56" width="1.44" height="19.52"/><rect class="cls-1" x="805.86" width="1.44" height="19.52"/><rect class="cls-1" x="819.17" width="1.44" height="19.52"/><rect class="cls-1" x="854.2" width="1.44" height="19.52"/><rect class="cls-1" x="861.07" width="1.44" height="19.52"/><rect class="cls-1" x="865.27" width="1.44" height="19.52"/><rect class="cls-1" x="875.08" width="1.44" height="19.52"/><rect class="cls-1" x="950.61" width="1.44" height="19.52"/><rect class="cls-1" x="955.65" width="1.44" height="19.52"/><rect class="cls-1" x="967.28" width="1.44" height="19.52"/><rect class="cls-1" x="991.53" width="1.44" height="19.52"/><rect class="cls-1" x="992.79" width="1.44" height="19.52"/></g></g></svg>