<svg xmlns="http://www.w3.org/2000/svg" viewBox="0 0 1064.41 19.74"><defs><style>.cls-1{fill:#fff;}</style></defs><g id="Layer_2" data-name="Layer 2"><g id="Layer_1-2" data-name="Layer 1"><rect y="0.17" width="1064.41" height="19.57"/><rect class="cls-1" x="9.35" width="1.44" height="19.59"/><rect class="cls-1" x="17.98" width="1.44" height="19.59"/><rect class="cls-1" x="28.77" width="1.44" height="19.59"/><rect class="cls-1" x="35.24" width="1.44" height="19.59"/><rect class="cls-1" x="36.68" width="1.44" height="19.59"/><rect class="cls-1" x="36.68" width="1.44" height="19.59"/><rect class="cls-1" x="37.4" width="1.44" height="19.59"/><rect class="cls-1" x="38.84" width="1.44" height="19.59"/><rect class="cls-1" x="39.56" width="1.44" height="19.59"/><rect class="cls-1" x="39.56" width="1.44" height="19.59"/><rect class="cls-1" x="39.56" width="1.44" height="19.59"/><rect class="cls-1" x="40.28" width="1.44" height="19.59"/><rect class="cls-1" x="40.99" width="1.44" height="19.59"/><rect class="cls-1" x="41.71" width="1.44" height="19.59"/><rect class="cls-1" x="43.15" width="1.44" height="19.59"/><rect class="cls-1" x="43.15" width="1.44" height="19.59"/><rect class="cls-1" x="43.87" width="1.44" height="19.59"/><rect class="cls-1" x="44.59" width="1.44" height="19.59"/><rect class="cls-1" x="46.03" width="1.44" height="19.59"/><rect class="cls-1" x="60.41" width="1.44" height="19.59"/><rect class="cls-1" x="77.67" width="1.44" height="19.59"/><rect class="cls-1" x="78.39" width="1.44" height="19.59"/><rect class="cls-1" x="90.62" width="1.44" height="19.59"/><rect class="cls-1" x="93.5" width="1.44" height="19.59"/><rect class="cls-1" x="105.72" width="1.44" height="19.59"/><rect class="cls-1" x="105.72" width="1.44" height="19.59"/><rect class="cls-1" x="108.6" width="1.44" height="19.59"/><rect class="cls-1" x="110.04" width="1.44" height="19.59"/><rect class="cls-1" x="110.76" width="1.44" height="19.59"/><rect class="cls-1" x="114.35" width="1.44" height="19.59"/><rect class="cls-1" x="120.11" width="1.44" height="19.59"/><rect class="cls-1" x="125.14" width="1.44" height="19.59"/><rect class="cls-1" x="133.05" width="1.44" height="19.59"/><rect class="cls-1" x="148.15" width="1.44" height="19.59"/><rect class="cls-1" x="179.08" width="1.44" height="19.59"/><rect class="cls-1" x="199.22" width="1.44" height="19.59"/><rect class="cls-1" x="199.94" width="1.44" height="19.59"/><rect class="cls-1" x="223.67" width="1.44" height="19.59"/><rect class="cls-1" x="225.83" width="1.44" height="19.59"/><rect class="cls-1" x="233.74" width="1.44" height="19.59"/><rect class="cls-1" x="234.46" width="1.44" height="19.59"/><rect class="cls-1" x="235.18" width="1.44" height="19.59"/><rect class="cls-1" x="235.18" width="1.44" height="19.59"/><rect class="cls-1" x="237.34" width="1.44" height="19.59"/><rect class="cls-1" x="318.6" width="1.44" height="19.59"/><rect class="cls-1" x="354.56" width="1.44" height="19.59"/><rect class="cls-1" x="355.28" width="1.44" height="19.59"/><rect class="cls-1" x="364.63" width="1.44" height="19.59"/><rect class="cls-1" x="367.51" width="1.44" height="19.59"/><rect class="cls-1" x="371.82" width="1.44" height="19.59"/><rect class="cls-1" x="390.52" width="1.44" height="19.59"/><rect class="cls-1" x="392.68" width="1.44" height="19.59"/><rect class="cls-1" x="393.4" width="1.44" height="19.59"/><rect class="cls-1" x="394.12" width="1.44" height="19.59"/><rect class="cls-1" x="410.66" width="1.44" height="19.59"/><rect class="cls-1" x="412.82" width="1.44" height="19.59"/><rect class="cls-1" x="414.26" width="1.44" height="19.59"/><rect class="cls-1" x="415.7" width="1.44" height="19.59"/><rect class="cls-1" x="439.43" width="1.44" height="19.59"/><rect class="cls-1" x="450.22" width="1.44" height="19.59"/><rect class="cls-1" x="458.13" width="1.44" height="19.59"/><rect class="cls-1" x="458.85" width="1.44" height="19.59"/><rect class="cls-1" x="461.72" width="1.44" height="19.59"/><rect class="cls-1" x="472.51" width="1.44" height="19.59"/><rect class="cls-1" x="474.67" width="1.44" height="19.59"/><rect class="cls-1" x="479.7" width="1.44" height="19.59"/><rect class="cls-1" x="480.42" width="1.44" height="19.59"/><rect class="cls-1" x="483.3" width="1.44" height="19.59"/><rect class="cls-1" x="484.74" width="1.44" height="19.59"/><rect class="cls-1" x="489.05" width="1.44" height="19.59"/><rect class="cls-1" x="490.49" width="1.44" height="19.59"/><rect class="cls-1" x="513.51" width="1.44" height="19.59"/><rect class="cls-1" x="517.82" width="1.44" height="19.59"/><rect class="cls-1" x="518.54" width="1.44" height="19.59"/><rect class="cls-1" x="525.01" width="1.44" height="19.59"/><rect class="cls-1" x="531.48" width="1.44" height="19.59"/><rect class="cls-1" x="549.47" width="1.44" height="19.59"/><rect class="cls-1" x="552.34" width="1.44" height="19.59"/><rect class="cls-1" x="558.09" width="1.44" height="19.59"/><rect class="cls-1" x="565.29" width="1.44" height="19.59"/><rect class="cls-1" x="569.6" width="1.44" height="19.59"/><rect class="cls-1" x="578.95" width="1.44" height="19.59"/><rect class="cls-1" x="612.03" width="1.44" height="19.59"/><rect class="cls-1" x="621.39" width="1.44" height="19.59"/><rect class="cls-1" x="645.84" width="1.44" height="19.59"/><rect class="cls-1" x="660.94" width="1.44" height="19.59"/><rect class="cls-1" x="671.01" width="1.44" height="19.59"/><rect class="cls-1" x="674.6" width="1.44" height="19.59"/><rect class="cls-1" x="768.1" width="1.44" height="19.59"/><rect class="cls-1" x="768.1" width="1.44" height="19.59"/><rect class="cls-1" x="771.7" width="1.44" height="19.59"/><rect class="cls-1" x="857.28" width="1.44" height="19.59"/><rect class="cls-1" x="859.44" width="1.44" height="19.59"/><rect class="cls-1" x="860.16" width="1.44" height="19.59"/><rect class="cls-1" x="880.29" width="1.44" height="19.59"/><rect class="cls-1" x="898.28" width="1.44" height="19.59"/><rect class="cls-1" x="903.31" width="1.44" height="19.59"/><rect class="cls-1" x="932.08" width="1.44" height="19.59"/><rect class="cls-1" x="934.23" width="1.44" height="19.59"/><rect class="cls-1" x="935.67" width="1.44" height="19.59"/><rect class="cls-1" x="958.69" width="1.44" height="19.59"/><rect class="cls-1" x="960.13" width="1.44" height="19.59"/><rect class="cls-1" x="968.04" width="1.44" height="19.59"/><rect class="cls-1" x="990.33" width="1.44" height="19.59"/></g></g></svg>