<svg xmlns="http://www.w3.org/2000/svg" viewBox="0 0 1064.41 19.71"><defs><style>.cls-1{fill:#fff;}</style></defs><g id="Layer_2" data-name="Layer 2"><g id="Layer_1-2" data-name="Layer 1"><rect width="1064.41" height="19.57"/><polygon class="cls-1" points="2.88 0.15 4.32 0.15 4.32 19.71 2.88 19.71 2.88 0.15"/><polygon class="cls-1" points="4.32 0.15 5.75 0.15 5.75 19.71 4.32 19.71 4.32 0.15"/><polygon class="cls-1" points="5.03 0.15 6.47 0.15 6.47 19.71 5.03 19.71 5.03 0.15"/><polygon class="cls-1" points="6.47 0.15 7.91 0.15 7.91 19.71 6.47 19.71 6.47 0.15"/><polygon class="cls-1" points="9.35 0.15 10.79 0.15 10.79 19.71 9.35 19.71 9.35 0.15"/><polygon class="cls-1" points="9.35 0.15 10.79 0.15 10.79 19.71 9.35 19.71 9.35 0.15"/><polygon class="cls-1" points="13.66 0.15 15.1 0.15 15.1 19.71 13.66 19.71 13.66 0.15"/><polygon class="cls-1" points="13.66 0.15 15.1 0.15 15.1 19.71 13.66 19.71 13.66 0.15"/><polygon class="cls-1" points="13.66 0.15 15.1 0.15 15.1 19.71 13.66 19.71 13.66 0.15"/><polygon class="cls-1" points="16.54 0.15 17.98 0.15 17.98 19.71 16.54 19.71 16.54 0.15"/><polygon class="cls-1" points="17.26 0.15 18.7 0.15 18.7 19.71 17.26 19.71 17.26 0.15"/><polygon class="cls-1" points="17.98 0.15 19.42 0.15 19.42 19.71 17.98 19.71 17.98 0.15"/><polygon class="cls-1" points="20.14 0.15 21.57 0.15 21.57 19.71 20.14 19.71 20.14 0.15"/><polygon class="cls-1" points="26.61 0.15 28.05 0.15 28.05 19.71 26.61 19.71 26.61 0.15"/><polygon class="cls-1" points="26.61 0.15 28.05 0.15 28.05 19.71 26.61 19.71 26.61 0.15"/><polygon class="cls-1" points="41.71 0.15 43.15 0.15 43.15 19.71 41.71 19.71 41.71 0.15"/><polygon class="cls-1" points="66.16 0.15 67.6 0.15 67.6 19.71 66.16 19.71 66.16 0.15"/><polygon class="cls-1" points="67.6 0.15 69.04 0.15 69.04 19.71 67.6 19.71 67.6 0.15"/><polygon class="cls-1" points="69.04 0.15 70.48 0.15 70.48 19.71 69.04 19.71 69.04 0.15"/><polygon class="cls-1" points="71.19 0.15 72.63 0.15 72.63 19.71 71.19 19.71 71.19 0.15"/><polygon class="cls-1" points="89.89 0.15 91.33 0.15 91.33 19.71 89.89 19.71 89.89 0.15"/><polygon class="cls-1" points="95.65 0.15 97.08 0.15 97.08 19.71 95.65 19.71 95.65 0.15"/><polygon class="cls-1" points="97.08 0.15 98.52 0.15 98.52 19.71 97.08 19.71 97.08 0.15"/><polygon class="cls-1" points="99.24 0.15 100.68 0.15 100.68 19.71 99.24 19.71 99.24 0.15"/><polygon class="cls-1" points="102.84 0.15 104.28 0.15 104.28 19.71 102.84 19.71 102.84 0.15"/><polygon class="cls-1" points="110.75 0.15 112.19 0.15 112.19 19.71 110.75 19.71 110.75 0.15"/><polygon class="cls-1" points="125.85 0.15 127.29 0.15 127.29 19.71 125.85 19.71 125.85 0.15"/><polygon class="cls-1" points="132.32 0.15 133.76 0.15 133.76 19.71 132.32 19.71 132.32 0.15"/><polygon class="cls-1" points="192.73 0.15 194.17 0.15 194.17 19.71 192.73 19.71 192.73 0.15"/><polygon class="cls-1" points="192.73 0.15 194.17 0.15 194.17 19.71 192.73 19.71 192.73 0.15"/><polygon class="cls-1" points="197.04 0.15 198.48 0.15 198.48 19.71 197.04 19.71 197.04 0.15"/><polygon class="cls-1" points="201.36 0.15 202.8 0.15 202.8 19.71 201.36 19.71 201.36 0.15"/><polygon class="cls-1" points="205.68 0.15 207.11 0.15 207.11 19.71 205.68 19.71 205.68 0.15"/><polygon class="cls-1" points="207.11 0.15 208.55 0.15 208.55 19.71 207.11 19.71 207.11 0.15"/><polygon class="cls-1" points="212.15 0.15 213.59 0.15 213.59 19.71 212.15 19.71 212.15 0.15"/><polygon class="cls-1" points="213.59 0.15 215.02 0.15 215.02 19.71 213.59 19.71 213.59 0.15"/><polygon class="cls-1" points="226.53 0.15 227.97 0.15 227.97 19.71 226.53 19.71 226.53 0.15"/><polygon class="cls-1" points="231.56 0.15 233 0.15 233 19.71 231.56 19.71 231.56 0.15"/><polygon class="cls-1" points="234.44 0.15 235.88 0.15 235.88 19.71 234.44 19.71 234.44 0.15"/><polygon class="cls-1" points="235.16 0.15 236.6 0.15 236.6 19.71 235.16 19.71 235.16 0.15"/><polygon class="cls-1" points="238.76 0.15 240.19 0.15 240.19 19.71 238.76 19.71 238.76 0.15"/><polygon class="cls-1" points="241.63 0.15 243.07 0.15 243.07 19.71 241.63 19.71 241.63 0.15"/><polygon class="cls-1" points="243.79 0.15 245.23 0.15 245.23 19.71 243.79 19.71 243.79 0.15"/><polygon class="cls-1" points="245.23 0.15 246.67 0.15 246.67 19.71 245.23 19.71 245.23 0.15"/><polygon class="cls-1" points="249.54 0.15 250.98 0.15 250.98 19.71 249.54 19.71 249.54 0.15"/><polygon class="cls-1" points="272.56 0.15 273.99 0.15 273.99 19.71 272.56 19.71 272.56 0.15"/><polygon class="cls-1" points="279.03 0.15 280.47 0.15 280.47 19.71 279.03 19.71 279.03 0.15"/><polygon class="cls-1" points="283.34 0.15 284.78 0.15 284.78 19.71 283.34 19.71 283.34 0.15"/><polygon class="cls-1" points="285.5 0.15 286.94 0.15 286.94 19.71 285.5 19.71 285.5 0.15"/><polygon class="cls-1" points="285.5 0.15 286.94 0.15 286.94 19.71 285.5 19.71 285.5 0.15"/><polygon class="cls-1" points="289.1 0.15 290.53 0.15 290.53 19.71 289.1 19.71 289.1 0.15"/><polygon class="cls-1" points="297.01 0.15 298.44 0.15 298.44 19.71 297.01 19.71 297.01 0.15"/><polygon class="cls-1" points="354.54 0.15 355.98 0.15 355.98 19.71 354.54 19.71 354.54 0.15"/><polygon class="cls-1" points="360.29 0.15 361.73 0.15 361.73 19.71 360.29 19.71 360.29 0.15"/><polygon class="cls-1" points="378.99 0.15 380.43 0.15 380.43 19.71 378.99 19.71 378.99 0.15"/><polygon class="cls-1" points="386.18 0.15 387.62 0.15 387.62 19.71 386.18 19.71 386.18 0.15"/><polygon class="cls-1" points="387.62 0.15 389.06 0.15 389.06 19.71 387.62 19.71 387.62 0.15"/><polygon class="cls-1" points="394.09 0.15 395.53 0.15 395.53 19.71 394.09 19.71 394.09 0.15"/><polygon class="cls-1" points="447.31 0.15 448.75 0.15 448.75 19.71 447.31 19.71 447.31 0.15"/><polygon class="cls-1" points="449.46 0.15 450.9 0.15 450.9 19.71 449.46 19.71 449.46 0.15"/><polygon class="cls-1" points="453.78 0.15 455.22 0.15 455.22 19.71 453.78 19.71 453.78 0.15"/><polygon class="cls-1" points="458.81 0.15 460.25 0.15 460.25 19.71 458.81 19.71 458.81 0.15"/><polygon class="cls-1" points="483.26 0.15 484.7 0.15 484.7 19.71 483.26 19.71 483.26 0.15"/><polygon class="cls-1" points="497.65 0.15 499.08 0.15 499.08 19.71 497.65 19.71 497.65 0.15"/><polygon class="cls-1" points="497.65 0.15 499.08 0.15 499.08 19.71 497.65 19.71 497.65 0.15"/><polygon class="cls-1" points="515.63 0.15 517.06 0.15 517.06 19.71 515.63 19.71 515.63 0.15"/><polygon class="cls-1" points="515.63 0.15 517.06 0.15 517.06 19.71 515.63 19.71 515.63 0.15"/><polygon class="cls-1" points="522.82 0.15 524.25 0.15 524.25 19.71 522.82 19.71 522.82 0.15"/><polygon class="cls-1" points="561.65 0.15 563.09 0.15 563.09 19.71 561.65 19.71 561.65 0.15"/><polygon class="cls-1" points="565.97 0.15 567.4 0.15 567.4 19.71 565.97 19.71 565.97 0.15"/><polygon class="cls-1" points="566.68 0.15 568.12 0.15 568.12 19.71 566.68 19.71 566.68 0.15"/><polygon class="cls-1" points="568.12 0.15 569.56 0.15 569.56 19.71 568.12 19.71 568.12 0.15"/><polygon class="cls-1" points="568.84 0.15 570.28 0.15 570.28 19.71 568.84 19.71 568.84 0.15"/><polygon class="cls-1" points="581.79 0.15 583.23 0.15 583.23 19.71 581.79 19.71 581.79 0.15"/><polygon class="cls-1" points="605.52 0.15 606.96 0.15 606.96 19.71 605.52 19.71 605.52 0.15"/><polygon class="cls-1" points="613.43 0.15 614.87 0.15 614.87 19.71 613.43 19.71 613.43 0.15"/><polygon class="cls-1" points="622.78 0.15 624.22 0.15 624.22 19.71 622.78 19.71 622.78 0.15"/><polygon class="cls-1" points="637.88 0.15 639.32 0.15 639.32 19.71 637.88 19.71 637.88 0.15"/><polygon class="cls-1" points="641.48 0.15 642.91 0.15 642.91 19.71 641.48 19.71 641.48 0.15"/><polygon class="cls-1" points="651.54 0.15 652.98 0.15 652.98 19.71 651.54 19.71 651.54 0.15"/><polygon class="cls-1" points="653.7 0.15 655.14 0.15 655.14 19.71 653.7 19.71 653.7 0.15"/><polygon class="cls-1" points="670.24 0.15 671.68 0.15 671.68 19.71 670.24 19.71 670.24 0.15"/><polygon class="cls-1" points="671.68 0.15 673.12 0.15 673.12 19.71 671.68 19.71 671.68 0.15"/><polygon class="cls-1" points="674.56 0.15 676 0.15 676 19.71 674.56 19.71 674.56 0.15"/><polygon class="cls-1" points="702.6 0.15 704.04 0.15 704.04 19.71 702.6 19.71 702.6 0.15"/><polygon class="cls-1" points="720.58 0.15 722.02 0.15 722.02 19.71 720.58 19.71 720.58 0.15"/><polygon class="cls-1" points="724.9 0.15 726.34 0.15 726.34 19.71 724.9 19.71 724.9 0.15"/><polygon class="cls-1" points="806.16 0.15 807.6 0.15 807.6 19.71 806.16 19.71 806.16 0.15"/><polygon class="cls-1" points="807.6 0.15 809.04 0.15 809.04 19.71 807.6 19.71 807.6 0.15"/><polygon class="cls-1" points="829.89 0.15 831.33 0.15 831.33 19.71 829.89 19.71 829.89 0.15"/><polygon class="cls-1" points="843.55 0.15 844.99 0.15 844.99 19.71 843.55 19.71 843.55 0.15"/><polygon class="cls-1" points="889.58 0.15 891.02 0.15 891.02 19.71 889.58 19.71 889.58 0.15"/><polygon class="cls-1" points="903.24 0.15 904.68 0.15 904.68 19.71 903.24 19.71 903.24 0.15"/><polygon class="cls-1" points="1003.92 0.15 1005.36 0.15 1005.36 19.71 1003.92 19.71 1003.92 0.15"/><polygon class="cls-1" points="1022.62 0.15 1024.06 0.15 1024.06 19.71 1022.62 19.71 1022.62 0.15"/></g></g></svg>