<svg xmlns="http://www.w3.org/2000/svg" viewBox="0 0 1064.41 19.7"><defs><style>.cls-1{fill:#fff;}</style></defs><g id="Layer_2" data-name="Layer 2"><g id="Layer_1-2" data-name="Layer 1"><rect width="1064.41" height="19.57"/><polygon class="cls-1" points="16.54 0.14 17.98 0.14 17.98 19.7 16.54 19.7 16.54 0.14"/><polygon class="cls-1" points="41.71 0.14 43.15 0.14 43.15 19.7 41.71 19.7 41.71 0.14"/><polygon class="cls-1" points="54.66 0.14 56.1 0.14 56.1 19.7 54.66 19.7 54.66 0.14"/><polygon class="cls-1" points="71.92 0.14 73.36 0.14 73.36 19.7 71.92 19.7 71.92 0.14"/><polygon class="cls-1" points="72.64 0.14 74.08 0.14 74.08 19.7 72.64 19.7 72.64 0.14"/><polygon class="cls-1" points="84.86 0.14 86.3 0.14 86.3 19.7 84.86 19.7 84.86 0.14"/><polygon class="cls-1" points="114.35 0.14 115.79 0.14 115.79 19.7 114.35 19.7 114.35 0.14"/><polygon class="cls-1" points="143.12 0.14 144.56 0.14 144.56 19.7 143.12 19.7 143.12 0.14"/><polygon class="cls-1" points="144.56 0.14 146 0.14 146 19.7 144.56 19.7 144.56 0.14"/><polygon class="cls-1" points="147.44 0.14 148.87 0.14 148.87 19.7 147.44 19.7 147.44 0.14"/><polygon class="cls-1" points="148.87 0.14 150.31 0.14 150.31 19.7 148.87 19.7 148.87 0.14"/><polygon class="cls-1" points="165.41 0.14 166.85 0.14 166.85 19.7 165.41 19.7 165.41 0.14"/><polygon class="cls-1" points="224.39 0.14 225.83 0.14 225.83 19.7 224.39 19.7 224.39 0.14"/><polygon class="cls-1" points="226.55 0.14 227.99 0.14 227.99 19.7 226.55 19.7 226.55 0.14"/><polygon class="cls-1" points="227.99 0.14 229.42 0.14 229.42 19.7 227.99 19.7 227.99 0.14"/><polygon class="cls-1" points="228.7 0.14 230.14 0.14 230.14 19.7 228.7 19.7 228.7 0.14"/><polygon class="cls-1" points="231.58 0.14 233.02 0.14 233.02 19.7 231.58 19.7 231.58 0.14"/><polygon class="cls-1" points="254.59 0.14 256.03 0.14 256.03 19.7 254.59 19.7 254.59 0.14"/><polygon class="cls-1" points="265.38 0.14 266.82 0.14 266.82 19.7 265.38 19.7 265.38 0.14"/><polygon class="cls-1" points="269.7 0.14 271.14 0.14 271.14 19.7 269.7 19.7 269.7 0.14"/><polygon class="cls-1" points="270.42 0.14 271.86 0.14 271.86 19.7 270.42 19.7 270.42 0.14"/><polygon class="cls-1" points="270.42 0.14 271.86 0.14 271.86 19.7 270.42 19.7 270.42 0.14"/><polygon class="cls-1" points="274.73 0.14 276.17 0.14 276.17 19.7 274.73 19.7 274.73 0.14"/><polygon class="cls-1" points="275.45 0.14 276.89 0.14 276.89 19.7 275.45 19.7 275.45 0.14"/><polygon class="cls-1" points="276.17 0.14 277.61 0.14 277.61 19.7 276.17 19.7 276.17 0.14"/><polygon class="cls-1" points="295.59 0.14 297.03 0.14 297.03 19.7 295.59 19.7 295.59 0.14"/><polygon class="cls-1" points="384.77 0.14 386.21 0.14 386.21 19.7 384.77 19.7 384.77 0.14"/><polygon class="cls-1" points="427.2 0.14 428.64 0.14 428.64 19.7 427.2 19.7 427.2 0.14"/><polygon class="cls-1" points="506.31 0.14 507.75 0.14 507.75 19.7 506.31 19.7 506.31 0.14"/><polygon class="cls-1" points="533.64 0.14 535.08 0.14 535.08 19.7 533.64 19.7 533.64 0.14"/><polygon class="cls-1" points="569.6 0.14 571.04 0.14 571.04 19.7 569.6 19.7 569.6 0.14"/><polygon class="cls-1" points="572.48 0.14 573.92 0.14 573.92 19.7 572.48 19.7 572.48 0.14"/><polygon class="cls-1" points="575.36 0.14 576.79 0.14 576.79 19.7 575.36 19.7 575.36 0.14"/><polygon class="cls-1" points="575.36 0.14 576.79 0.14 576.79 19.7 575.36 19.7 575.36 0.14"/><polygon class="cls-1" points="576.79 0.14 578.23 0.14 578.23 19.7 576.79 19.7 576.79 0.14"/><polygon class="cls-1" points="580.39 0.14 581.83 0.14 581.83 19.7 580.39 19.7 580.39 0.14"/><polygon class="cls-1" points="581.83 0.14 583.27 0.14 583.27 19.7 581.83 19.7 581.83 0.14"/><polygon class="cls-1" points="598.37 0.14 599.81 0.14 599.81 19.7 598.37 19.7 598.37 0.14"/><polygon class="cls-1" points="603.4 0.14 604.84 0.14 604.84 19.7 603.4 19.7 603.4 0.14"/><polygon class="cls-1" points="686.11 0.14 687.55 0.14 687.55 19.7 686.11 19.7 686.11 0.14"/><polygon class="cls-1" points="693.3 0.14 694.74 0.14 694.74 19.7 693.3 19.7 693.3 0.14"/><polygon class="cls-1" points="724.23 0.14 725.67 0.14 725.67 19.7 724.23 19.7 724.23 0.14"/><polygon class="cls-1" points="748.68 0.14 750.12 0.14 750.12 19.7 748.68 19.7 748.68 0.14"/><polygon class="cls-1" points="763.78 0.14 765.22 0.14 765.22 19.7 763.78 19.7 763.78 0.14"/><polygon class="cls-1" points="763.78 0.14 765.22 0.14 765.22 19.7 763.78 19.7 763.78 0.14"/><polygon class="cls-1" points="834.99 0.14 836.42 0.14 836.42 19.7 834.99 19.7 834.99 0.14"/><polygon class="cls-1" points="858 0.14 859.44 0.14 859.44 19.7 858 19.7 858 0.14"/><polygon class="cls-1" points="882.45 0.14 883.89 0.14 883.89 19.7 882.45 19.7 882.45 0.14"/><polygon class="cls-1" points="883.17 0.14 884.61 0.14 884.61 19.7 883.17 19.7 883.17 0.14"/><polygon class="cls-1" points="883.17 0.14 884.61 0.14 884.61 19.7 883.17 19.7 883.17 0.14"/><polygon class="cls-1" points="891.08 0.14 892.52 0.14 892.52 19.7 891.08 19.7 891.08 0.14"/><polygon class="cls-1" points="891.8 0.14 893.24 0.14 893.24 19.7 891.8 19.7 891.8 0.14"/><polygon class="cls-1" points="895.4 0.14 896.84 0.14 896.84 19.7 895.4 19.7 895.4 0.14"/><polygon class="cls-1" points="895.4 0.14 896.84 0.14 896.84 19.7 895.4 19.7 895.4 0.14"/><polygon class="cls-1" points="896.12 0.14 897.56 0.14 897.56 19.7 896.12 19.7 896.12 0.14"/><polygon class="cls-1" points="896.12 0.14 897.56 0.14 897.56 19.7 896.12 19.7 896.12 0.14"/><polygon class="cls-1" points="896.12 0.14 897.56 0.14 897.56 19.7 896.12 19.7 896.12 0.14"/><polygon class="cls-1" points="896.12 0.14 897.56 0.14 897.56 19.7 896.12 19.7 896.12 0.14"/><polygon class="cls-1" points="896.84 0.14 898.27 0.14 898.27 19.7 896.84 19.7 896.84 0.14"/><polygon class="cls-1" points="911.94 0.14 913.38 0.14 913.38 19.7 911.94 19.7 911.94 0.14"/><polygon class="cls-1" points="916.97 0.14 918.41 0.14 918.41 19.7 916.97 19.7 916.97 0.14"/><polygon class="cls-1" points="924.17 0.14 925.6 0.14 925.6 19.7 924.17 19.7 924.17 0.14"/><polygon class="cls-1" points="929.92 0.14 931.36 0.14 931.36 19.7 929.92 19.7 929.92 0.14"/><polygon class="cls-1" points="931.36 0.14 932.8 0.14 932.8 19.7 931.36 19.7 931.36 0.14"/><polygon class="cls-1" points="934.24 0.14 935.67 0.14 935.67 19.7 934.24 19.7 934.24 0.14"/></g></g></svg>