<svg xmlns="http://www.w3.org/2000/svg" viewBox="0 0 1064.41 19.79"><defs><style>.cls-1{fill:#fff;}</style></defs><g id="Layer_2" data-name="Layer 2"><g id="Layer_1-2" data-name="Layer 1"><rect width="1064.41" height="19.57"/><rect class="cls-1" x="3.76" y="0.23" width="1.44" height="19.56"/><rect class="cls-1" x="11.77" y="0.23" width="1.44" height="19.56"/><rect class="cls-1" x="12.04" y="0.23" width="1.44" height="19.56"/><rect class="cls-1" x="22.77" y="0.23" width="1.44" height="19.56"/><rect class="cls-1" x="25.21" y="0.23" width="1.44" height="19.56"/><rect class="cls-1" x="35.53" y="0.23" width="1.44" height="19.56"/><rect class="cls-1" x="64.45" y="0.23" width="1.44" height="19.56"/><rect class="cls-1" x="78.84" y="0.23" width="1.44" height="19.56"/><rect class="cls-1" x="119.98" y="0.23" width="1.44" height="19.56"/><rect class="cls-1" x="120.39" y="0.23" width="1.44" height="19.56"/><rect class="cls-1" x="121.06" y="0.23" width="1.44" height="19.56"/><rect class="cls-1" x="124.46" y="0.23" width="1.44" height="19.56"/><rect class="cls-1" x="124.73" y="0.23" width="1.44" height="19.56"/><rect class="cls-1" x="125.68" y="0.23" width="1.44" height="19.56"/><rect class="cls-1" x="128.12" y="0.23" width="1.44" height="19.56"/><rect class="cls-1" x="129.35" y="0.23" width="1.44" height="19.56"/><rect class="cls-1" x="129.75" y="0.23" width="1.44" height="19.56"/><rect class="cls-1" x="130.84" y="0.23" width="1.44" height="19.56"/><rect class="cls-1" x="139.93" y="0.23" width="1.44" height="19.56"/><rect class="cls-1" x="140.88" y="0.23" width="1.44" height="19.56"/><rect class="cls-1" x="149.98" y="0.23" width="1.44" height="19.56"/><rect class="cls-1" x="151.07" y="0.23" width="1.44" height="19.56"/><rect class="cls-1" x="210.94" y="0.23" width="1.44" height="19.56"/><rect class="cls-1" x="216.91" y="0.23" width="1.44" height="19.56"/><rect class="cls-1" x="217.87" y="0.23" width="1.44" height="19.56"/><rect class="cls-1" x="257.78" y="0.23" width="1.44" height="19.56"/><rect class="cls-1" x="258.19" y="0.23" width="1.44" height="19.56"/><rect class="cls-1" x="258.73" y="0.23" width="1.44" height="19.56"/><rect class="cls-1" x="259" y="0.23" width="1.44" height="19.56"/><rect class="cls-1" x="266.88" y="0.23" width="1.44" height="19.56"/><rect class="cls-1" x="276.79" y="0.23" width="1.44" height="19.56"/><rect class="cls-1" x="279.64" y="0.23" width="1.44" height="19.56"/><rect class="cls-1" x="280.32" y="0.23" width="1.44" height="19.56"/><rect class="cls-1" x="282.9" y="0.23" width="1.44" height="19.56"/><rect class="cls-1" x="285.75" y="0.23" width="1.44" height="19.56"/><rect class="cls-1" x="287.38" y="0.23" width="1.44" height="19.56"/><rect class="cls-1" x="288.46" y="0.23" width="1.44" height="19.56"/><rect class="cls-1" x="297.56" y="0.23" width="1.44" height="19.56"/><rect class="cls-1" x="297.97" y="0.23" width="1.44" height="19.56"/><rect class="cls-1" x="299.46" y="0.23" width="1.44" height="19.56"/><rect class="cls-1" x="303.94" y="0.23" width="1.44" height="19.56"/><rect class="cls-1" x="316.16" y="0.23" width="1.44" height="19.56"/><rect class="cls-1" x="317.25" y="0.23" width="1.44" height="19.56"/><rect class="cls-1" x="325.26" y="0.23" width="1.44" height="19.56"/><rect class="cls-1" x="325.66" y="0.23" width="1.44" height="19.56"/><rect class="cls-1" x="326.07" y="0.23" width="1.44" height="19.56"/><rect class="cls-1" x="336.66" y="0.23" width="1.44" height="19.56"/><rect class="cls-1" x="341.82" y="0.23" width="1.44" height="19.56"/><rect class="cls-1" x="343.18" y="0.23" width="1.44" height="19.56"/><rect class="cls-1" x="345.35" y="0.23" width="1.44" height="19.56"/><rect class="cls-1" x="353.63" y="0.23" width="1.44" height="19.56"/><rect class="cls-1" x="362.05" y="0.23" width="1.44" height="19.56"/><rect class="cls-1" x="367.21" y="0.23" width="1.44" height="19.56"/><rect class="cls-1" x="370.74" y="0.23" width="1.44" height="19.56"/><rect class="cls-1" x="371.14" y="0.23" width="1.44" height="19.56"/><rect class="cls-1" x="436.99" y="0.23" width="1.44" height="19.56"/><rect class="cls-1" x="517.09" y="0.23" width="1.44" height="19.56"/><rect class="cls-1" x="543.43" y="0.23" width="1.44" height="19.56"/><rect class="cls-1" x="544.25" y="0.23" width="1.44" height="19.56"/><rect class="cls-1" x="548.86" y="0.23" width="1.44" height="19.56"/><rect class="cls-1" x="562.3" y="0.23" width="1.44" height="19.56"/><rect class="cls-1" x="586.06" y="0.23" width="1.44" height="19.56"/><rect class="cls-1" x="595.02" y="0.23" width="1.44" height="19.56"/><rect class="cls-1" x="595.43" y="0.23" width="1.44" height="19.56"/><rect class="cls-1" x="595.57" y="0.23" width="1.44" height="19.56"/><rect class="cls-1" x="597.2" y="0.23" width="1.44" height="19.56"/><rect class="cls-1" x="814.56" y="0.23" width="1.44" height="19.56"/><rect class="cls-1" x="824.33" y="0.23" width="1.44" height="19.56"/><rect class="cls-1" x="824.47" y="0.23" width="1.44" height="19.56"/><rect class="cls-1" x="840.63" y="0.23" width="1.44" height="19.56"/><rect class="cls-1" x="841.03" y="0.23" width="1.44" height="19.56"/><rect class="cls-1" x="880.41" y="0.23" width="1.44" height="19.56"/><rect class="cls-1" x="932.13" y="0.23" width="1.44" height="19.56"/><rect class="cls-1" x="939.6" y="0.23" width="1.44" height="19.56"/></g></g></svg>