<svg xmlns="http://www.w3.org/2000/svg" viewBox="0 0 1064.41 19.78"><defs><style>.cls-1{fill:#fff;}</style></defs><g id="Layer_2" data-name="Layer 2"><g id="Layer_1-2" data-name="Layer 1"><rect width="1064.41" height="19.57"/><rect class="cls-1" x="10.55" y="0.22" width="1.44" height="19.56"/><rect class="cls-1" x="11.74" y="0.22" width="1.44" height="19.56"/><rect class="cls-1" x="14.46" y="0.22" width="1.44" height="19.56"/><rect class="cls-1" x="15.77" y="0.22" width="1.44" height="19.56"/><rect class="cls-1" x="26.21" y="0.22" width="1.44" height="19.56"/><rect class="cls-1" x="37.24" y="0.22" width="1.44" height="19.56"/><rect class="cls-1" x="56.22" y="0.22" width="1.44" height="19.56"/><rect class="cls-1" x="71.52" y="0.22" width="1.44" height="19.56"/><rect class="cls-1" x="76.62" y="0.22" width="1.44" height="19.56"/><rect class="cls-1" x="90.03" y="0.22" width="1.44" height="19.56"/><rect class="cls-1" x="152.19" y="0.22" width="1.44" height="19.56"/><rect class="cls-1" x="173.3" y="0.22" width="1.44" height="19.56"/><rect class="cls-1" x="220.99" y="0.22" width="1.44" height="19.56"/><rect class="cls-1" x="225.14" y="0.22" width="1.44" height="19.56"/><rect class="cls-1" x="225.61" y="0.22" width="1.44" height="19.56"/><rect class="cls-1" x="239.38" y="0.22" width="1.44" height="19.56"/><rect class="cls-1" x="380.3" y="0.22" width="1.44" height="19.56"/><rect class="cls-1" x="380.54" y="0.22" width="1.44" height="19.56"/><rect class="cls-1" x="381.13" y="0.22" width="1.44" height="19.56"/><rect class="cls-1" x="381.6" y="0.22" width="1.44" height="19.56"/><rect class="cls-1" x="382.32" y="0.22" width="1.44" height="19.56"/><rect class="cls-1" x="384.93" y="0.22" width="1.44" height="19.56"/><rect class="cls-1" x="385.4" y="0.22" width="1.44" height="19.56"/><rect class="cls-1" x="544.24" y="0.22" width="1.44" height="19.56"/><rect class="cls-1" x="544.83" y="0.22" width="1.44" height="19.56"/><rect class="cls-1" x="546.02" y="0.22" width="1.44" height="19.56"/><rect class="cls-1" x="547.32" y="0.22" width="1.44" height="19.56"/><rect class="cls-1" x="550.05" y="0.22" width="1.44" height="19.56"/><rect class="cls-1" x="550.76" y="0.22" width="1.44" height="19.56"/><rect class="cls-1" x="572.83" y="0.22" width="1.44" height="19.56"/><rect class="cls-1" x="733.92" y="0.22" width="1.44" height="19.56"/><rect class="cls-1" x="736.65" y="0.22" width="1.44" height="19.56"/><rect class="cls-1" x="831.31" y="0.22" width="1.44" height="19.56"/><rect class="cls-1" x="836.41" y="0.22" width="1.44" height="19.56"/><rect class="cls-1" x="842.93" y="0.22" width="1.44" height="19.56"/><rect class="cls-1" x="843.17" y="0.22" width="1.44" height="19.56"/><rect class="cls-1" x="847.44" y="0.22" width="1.44" height="19.56"/><rect class="cls-1" x="881.01" y="0.22" width="1.44" height="19.56"/><rect class="cls-1" x="883.03" y="0.22" width="1.44" height="19.56"/><rect class="cls-1" x="905.68" y="0.22" width="1.44" height="19.56"/><rect class="cls-1" x="1008.41" y="0.22" width="1.44" height="19.56"/></g></g></svg>