<svg xmlns="http://www.w3.org/2000/svg" viewBox="0 0 1064.41 19.77"><defs><style>.cls-1{fill:#fff;}</style></defs><g id="Layer_2" data-name="Layer 2"><g id="Layer_1-2" data-name="Layer 1"><rect width="1064.41" height="19.57"/><rect class="cls-1" x="8.86" y="0.21" width="1.44" height="19.56"/><rect class="cls-1" x="9.13" y="0.21" width="1.44" height="19.56"/><rect class="cls-1" x="9.66" y="0.21" width="1.44" height="19.56"/><rect class="cls-1" x="10.73" y="0.21" width="1.44" height="19.56"/><rect class="cls-1" x="11.13" y="0.21" width="1.44" height="19.56"/><rect class="cls-1" x="11.92" y="0.21" width="1.44" height="19.56"/><rect class="cls-1" x="13.79" y="0.21" width="1.44" height="19.56"/><rect class="cls-1" x="14.19" y="0.21" width="1.44" height="19.56"/><rect class="cls-1" x="32.55" y="0.21" width="1.44" height="19.56"/><rect class="cls-1" x="55.44" y="0.21" width="1.44" height="19.56"/><rect class="cls-1" x="55.84" y="0.21" width="1.44" height="19.56"/><rect class="cls-1" x="56.24" y="0.21" width="1.44" height="19.56"/><rect class="cls-1" x="58.1" y="0.21" width="1.44" height="19.56"/><rect class="cls-1" x="61.83" y="0.21" width="1.44" height="19.56"/><rect class="cls-1" x="63.03" y="0.21" width="1.44" height="19.56"/><rect class="cls-1" x="69.55" y="0.21" width="1.44" height="19.56"/><rect class="cls-1" x="72.88" y="0.21" width="1.44" height="19.56"/><rect class="cls-1" x="80.86" y="0.21" width="1.44" height="19.56"/><rect class="cls-1" x="94.04" y="0.21" width="1.44" height="19.56"/><rect class="cls-1" x="94.7" y="0.21" width="1.44" height="19.56"/><rect class="cls-1" x="95.23" y="0.21" width="1.44" height="19.56"/><rect class="cls-1" x="100.43" y="0.21" width="1.44" height="19.56"/><rect class="cls-1" x="102.42" y="0.21" width="1.44" height="19.56"/><rect class="cls-1" x="103.49" y="0.21" width="1.44" height="19.56"/><rect class="cls-1" x="109.07" y="0.21" width="1.44" height="19.56"/><rect class="cls-1" x="139.02" y="0.21" width="1.44" height="19.56"/><rect class="cls-1" x="139.82" y="0.21" width="1.44" height="19.56"/><rect class="cls-1" x="141.68" y="0.21" width="1.44" height="19.56"/><rect class="cls-1" x="144.74" y="0.21" width="1.44" height="19.56"/><rect class="cls-1" x="151.13" y="0.21" width="1.44" height="19.56"/><rect class="cls-1" x="164.44" y="0.21" width="1.44" height="19.56"/><rect class="cls-1" x="165.1" y="0.21" width="1.44" height="19.56"/><rect class="cls-1" x="167.23" y="0.21" width="1.44" height="19.56"/><rect class="cls-1" x="222.73" y="0.21" width="1.44" height="19.56"/><rect class="cls-1" x="223.4" y="0.21" width="1.44" height="19.56"/><rect class="cls-1" x="224.73" y="0.21" width="1.44" height="19.56"/><rect class="cls-1" x="227.92" y="0.21" width="1.44" height="19.56"/><rect class="cls-1" x="233.38" y="0.21" width="1.44" height="19.56"/><rect class="cls-1" x="234.18" y="0.21" width="1.44" height="19.56"/><rect class="cls-1" x="235.9" y="0.21" width="1.44" height="19.56"/><rect class="cls-1" x="239.1" y="0.21" width="1.44" height="19.56"/><rect class="cls-1" x="239.5" y="0.21" width="1.44" height="19.56"/><rect class="cls-1" x="240.96" y="0.21" width="1.44" height="19.56"/><rect class="cls-1" x="241.76" y="0.21" width="1.44" height="19.56"/><rect class="cls-1" x="242.56" y="0.21" width="1.44" height="19.56"/><rect class="cls-1" x="247.22" y="0.21" width="1.44" height="19.56"/><rect class="cls-1" x="282.62" y="0.21" width="1.44" height="19.56"/><rect class="cls-1" x="284.48" y="0.21" width="1.44" height="19.56"/><rect class="cls-1" x="289.67" y="0.21" width="1.44" height="19.56"/><rect class="cls-1" x="290.34" y="0.21" width="1.44" height="19.56"/><rect class="cls-1" x="317.75" y="0.21" width="1.44" height="19.56"/><rect class="cls-1" x="322.68" y="0.21" width="1.44" height="19.56"/><rect class="cls-1" x="340.11" y="0.21" width="1.44" height="19.56"/><rect class="cls-1" x="347.3" y="0.21" width="1.44" height="19.56"/><rect class="cls-1" x="349.56" y="0.21" width="1.44" height="19.56"/><rect class="cls-1" x="351.16" y="0.21" width="1.44" height="19.56"/><rect class="cls-1" x="357.14" y="0.21" width="1.44" height="19.56"/><rect class="cls-1" x="363.8" y="0.21" width="1.44" height="19.56"/><rect class="cls-1" x="387.62" y="0.21" width="1.44" height="19.56"/><rect class="cls-1" x="389.62" y="0.21" width="1.44" height="19.56"/><rect class="cls-1" x="390.42" y="0.21" width="1.44" height="19.56"/><rect class="cls-1" x="393.21" y="0.21" width="1.44" height="19.56"/><rect class="cls-1" x="518.98" y="0.21" width="1.44" height="19.56"/><rect class="cls-1" x="559.83" y="0.21" width="1.44" height="19.56"/><rect class="cls-1" x="560.36" y="0.21" width="1.44" height="19.56"/><rect class="cls-1" x="563.29" y="0.21" width="1.44" height="19.56"/><rect class="cls-1" x="594.43" y="0.21" width="1.44" height="19.56"/><rect class="cls-1" x="862.6" y="0.21" width="1.44" height="19.56"/><rect class="cls-1" x="863.66" y="0.21" width="1.44" height="19.56"/><rect class="cls-1" x="864.86" y="0.21" width="1.44" height="19.56"/></g></g></svg>