<svg xmlns="http://www.w3.org/2000/svg" viewBox="0 0 1064.41 19.75"><defs><style>.cls-1{fill:#fff;}</style></defs><g id="Layer_2" data-name="Layer 2"><g id="Layer_1-2" data-name="Layer 1"><rect width="1064.41" height="19.57"/><rect class="cls-1" x="4.04" y="0.2" width="1.44" height="19.56"/><rect class="cls-1" x="84.11" y="0.2" width="1.44" height="19.56"/><rect class="cls-1" x="168.02" y="0.2" width="1.44" height="19.56"/><rect class="cls-1" x="196.33" y="0.2" width="1.44" height="19.56"/><rect class="cls-1" x="196.8" y="0.2" width="1.44" height="19.56"/><rect class="cls-1" x="202.48" y="0.2" width="1.44" height="19.56"/><rect class="cls-1" x="217.11" y="0.2" width="1.44" height="19.56"/><rect class="cls-1" x="266.31" y="0.2" width="1.44" height="19.56"/><rect class="cls-1" x="266.89" y="0.2" width="1.44" height="19.56"/><rect class="cls-1" x="270.26" y="0.2" width="1.44" height="19.56"/><rect class="cls-1" x="284.42" y="0.2" width="1.44" height="19.56"/><rect class="cls-1" x="292.65" y="0.2" width="1.44" height="19.56"/><rect class="cls-1" x="296.37" y="0.2" width="1.44" height="19.56"/><rect class="cls-1" x="324.8" y="0.2" width="1.44" height="19.56"/><rect class="cls-1" x="327.47" y="0.2" width="1.44" height="19.56"/><rect class="cls-1" x="335.94" y="0.2" width="1.44" height="19.56"/><rect class="cls-1" x="338.38" y="0.2" width="1.44" height="19.56"/><rect class="cls-1" x="421.24" y="0.2" width="1.44" height="19.56"/><rect class="cls-1" x="426.58" y="0.2" width="1.44" height="19.56"/><rect class="cls-1" x="453.5" y="0.2" width="1.44" height="19.56"/><rect class="cls-1" x="466.5" y="0.2" width="1.44" height="19.56"/><rect class="cls-1" x="477.41" y="0.2" width="1.44" height="19.56"/><rect class="cls-1" x="477.52" y="0.2" width="1.44" height="19.56"/><rect class="cls-1" x="482.63" y="0.2" width="1.44" height="19.56"/><rect class="cls-1" x="490.4" y="0.2" width="1.44" height="19.56"/><rect class="cls-1" x="525.45" y="0.2" width="1.44" height="19.56"/><rect class="cls-1" x="529.86" y="0.2" width="1.44" height="19.56"/><rect class="cls-1" x="699.99" y="0.2" width="1.44" height="19.56"/><rect class="cls-1" x="754.3" y="0.2" width="1.44" height="19.56"/><rect class="cls-1" x="762.66" y="0.2" width="1.44" height="19.56"/><rect class="cls-1" x="805.71" y="0.2" width="1.44" height="19.56"/><rect class="cls-1" x="810.47" y="0.2" width="1.44" height="19.56"/><rect class="cls-1" x="841.34" y="0.2" width="1.44" height="19.56"/><rect class="cls-1" x="851.55" y="0.2" width="1.44" height="19.56"/><rect class="cls-1" x="858.17" y="0.2" width="1.44" height="19.56"/><rect class="cls-1" x="911.9" y="0.2" width="1.44" height="19.56"/><rect class="cls-1" x="912.71" y="0.2" width="1.44" height="19.56"/><rect class="cls-1" x="928.96" y="0.2" width="1.44" height="19.56"/><rect class="cls-1" x="976.65" y="0.2" width="1.44" height="19.56"/><rect class="cls-1" x="997.08" y="0.2" width="1.44" height="19.56"/><rect class="cls-1" x="1012.63" y="0.2" width="1.44" height="19.56"/><rect class="cls-1" x="1013.44" y="0.2" width="1.44" height="19.56"/><rect class="cls-1" x="1018.43" y="0.2" width="1.44" height="19.56"/></g></g></svg>