<svg xmlns="http://www.w3.org/2000/svg" viewBox="0 0 1064.41 19.74"><defs><style>.cls-1{fill:#fff;}</style></defs><g id="Layer_2" data-name="Layer 2"><g id="Layer_1-2" data-name="Layer 1"><rect width="1064.41" height="19.57"/><rect class="cls-1" x="3.11" y="0.19" width="1.44" height="19.56"/><rect class="cls-1" x="6.83" y="0.19" width="1.44" height="19.56"/><rect class="cls-1" x="13.44" y="0.19" width="1.44" height="19.56"/><rect class="cls-1" x="14.95" y="0.19" width="1.44" height="19.56"/><rect class="cls-1" x="18.55" y="0.19" width="1.44" height="19.56"/><rect class="cls-1" x="20.18" y="0.19" width="1.44" height="19.56"/><rect class="cls-1" x="26.68" y="0.19" width="1.44" height="19.56"/><rect class="cls-1" x="27.84" y="0.19" width="1.44" height="19.56"/><rect class="cls-1" x="32.6" y="0.19" width="1.44" height="19.56"/><rect class="cls-1" x="50.01" y="0.19" width="1.44" height="19.56"/><rect class="cls-1" x="59.88" y="0.19" width="1.44" height="19.56"/><rect class="cls-1" x="61.04" y="0.19" width="1.44" height="19.56"/><rect class="cls-1" x="77.87" y="0.19" width="1.44" height="19.56"/><rect class="cls-1" x="80.19" y="0.19" width="1.44" height="19.56"/><rect class="cls-1" x="84.37" y="0.19" width="1.44" height="19.56"/><rect class="cls-1" x="85.65" y="0.19" width="1.44" height="19.56"/><rect class="cls-1" x="85.88" y="0.19" width="1.44" height="19.56"/><rect class="cls-1" x="86.35" y="0.19" width="1.44" height="19.56"/><rect class="cls-1" x="90.06" y="0.19" width="1.44" height="19.56"/><rect class="cls-1" x="114.09" y="0.19" width="1.44" height="19.56"/><rect class="cls-1" x="121.52" y="0.19" width="1.44" height="19.56"/><rect class="cls-1" x="150.89" y="0.19" width="1.44" height="19.56"/><rect class="cls-1" x="160.29" y="0.19" width="1.44" height="19.56"/><rect class="cls-1" x="161.11" y="0.19" width="1.44" height="19.56"/><rect class="cls-1" x="162.96" y="0.19" width="1.44" height="19.56"/><rect class="cls-1" x="163.54" y="0.19" width="1.44" height="19.56"/><rect class="cls-1" x="170.51" y="0.19" width="1.44" height="19.56"/><rect class="cls-1" x="174.69" y="0.19" width="1.44" height="19.56"/><rect class="cls-1" x="177.13" y="0.19" width="1.44" height="19.56"/><rect class="cls-1" x="178.06" y="0.19" width="1.44" height="19.56"/><rect class="cls-1" x="178.4" y="0.19" width="1.44" height="19.56"/><rect class="cls-1" x="178.87" y="0.19" width="1.44" height="19.56"/><rect class="cls-1" x="186.3" y="0.19" width="1.44" height="19.56"/><rect class="cls-1" x="188.97" y="0.19" width="1.44" height="19.56"/><rect class="cls-1" x="189.43" y="0.19" width="1.44" height="19.56"/><rect class="cls-1" x="189.66" y="0.19" width="1.44" height="19.56"/><rect class="cls-1" x="190.24" y="0.19" width="1.44" height="19.56"/><rect class="cls-1" x="191.29" y="0.19" width="1.44" height="19.56"/><rect class="cls-1" x="191.52" y="0.19" width="1.44" height="19.56"/><rect class="cls-1" x="192.34" y="0.19" width="1.44" height="19.56"/><rect class="cls-1" x="192.57" y="0.19" width="1.44" height="19.56"/><rect class="cls-1" x="193.26" y="0.19" width="1.44" height="19.56"/><rect class="cls-1" x="194.54" y="0.19" width="1.44" height="19.56"/><rect class="cls-1" x="202.2" y="0.19" width="1.44" height="19.56"/><rect class="cls-1" x="202.55" y="0.19" width="1.44" height="19.56"/><rect class="cls-1" x="206.38" y="0.19" width="1.44" height="19.56"/><rect class="cls-1" x="211.02" y="0.19" width="1.44" height="19.56"/><rect class="cls-1" x="235.29" y="0.19" width="1.44" height="19.56"/><rect class="cls-1" x="238.42" y="0.19" width="1.44" height="19.56"/><rect class="cls-1" x="245.5" y="0.19" width="1.44" height="19.56"/><rect class="cls-1" x="248.06" y="0.19" width="1.44" height="19.56"/><rect class="cls-1" x="255.49" y="0.19" width="1.44" height="19.56"/><rect class="cls-1" x="259.43" y="0.19" width="1.44" height="19.56"/><rect class="cls-1" x="262.92" y="0.19" width="1.44" height="19.56"/><rect class="cls-1" x="263.96" y="0.19" width="1.44" height="19.56"/><rect class="cls-1" x="264.77" y="0.19" width="1.44" height="19.56"/><rect class="cls-1" x="268.14" y="0.19" width="1.44" height="19.56"/><rect class="cls-1" x="270.69" y="0.19" width="1.44" height="19.56"/><rect class="cls-1" x="271.51" y="0.19" width="1.44" height="19.56"/><rect class="cls-1" x="272.2" y="0.19" width="1.44" height="19.56"/><rect class="cls-1" x="273.36" y="0.19" width="1.44" height="19.56"/><rect class="cls-1" x="275.34" y="0.19" width="1.44" height="19.56"/><rect class="cls-1" x="276.96" y="0.19" width="1.44" height="19.56"/><rect class="cls-1" x="279.63" y="0.19" width="1.44" height="19.56"/><rect class="cls-1" x="279.98" y="0.19" width="1.44" height="19.56"/><rect class="cls-1" x="280.68" y="0.19" width="1.44" height="19.56"/><rect class="cls-1" x="284.51" y="0.19" width="1.44" height="19.56"/><rect class="cls-1" x="285.79" y="0.19" width="1.44" height="19.56"/><rect class="cls-1" x="291.71" y="0.19" width="1.44" height="19.56"/><rect class="cls-1" x="292.17" y="0.19" width="1.44" height="19.56"/><rect class="cls-1" x="292.87" y="0.19" width="1.44" height="19.56"/><rect class="cls-1" x="297.63" y="0.19" width="1.44" height="19.56"/><rect class="cls-1" x="298.09" y="0.19" width="1.44" height="19.56"/><rect class="cls-1" x="298.79" y="0.19" width="1.44" height="19.56"/><rect class="cls-1" x="299.48" y="0.19" width="1.44" height="19.56"/><rect class="cls-1" x="299.83" y="0.19" width="1.44" height="19.56"/><rect class="cls-1" x="304.71" y="0.19" width="1.44" height="19.56"/><rect class="cls-1" x="315.5" y="0.19" width="1.44" height="19.56"/><rect class="cls-1" x="317.13" y="0.19" width="1.44" height="19.56"/><rect class="cls-1" x="325.49" y="0.19" width="1.44" height="19.56"/><rect class="cls-1" x="337.44" y="0.19" width="1.44" height="19.56"/><rect class="cls-1" x="348.59" y="0.19" width="1.44" height="19.56"/><rect class="cls-1" x="348.71" y="0.19" width="1.44" height="19.56"/><rect class="cls-1" x="352.77" y="0.19" width="1.44" height="19.56"/><rect class="cls-1" x="355.21" y="0.19" width="1.44" height="19.56"/><rect class="cls-1" x="356.83" y="0.19" width="1.44" height="19.56"/><rect class="cls-1" x="359.39" y="0.19" width="1.44" height="19.56"/><rect class="cls-1" x="394.21" y="0.19" width="1.44" height="19.56"/><rect class="cls-1" x="439.6" y="0.19" width="1.44" height="19.56"/><rect class="cls-1" x="444.25" y="0.19" width="1.44" height="19.56"/><rect class="cls-1" x="470.25" y="0.19" width="1.44" height="19.56"/><rect class="cls-1" x="478.49" y="0.19" width="1.44" height="19.56"/><rect class="cls-1" x="487.08" y="0.19" width="1.44" height="19.56"/><rect class="cls-1" x="488.36" y="0.19" width="1.44" height="19.56"/><rect class="cls-1" x="493.82" y="0.19" width="1.44" height="19.56"/><rect class="cls-1" x="495.56" y="0.19" width="1.44" height="19.56"/><rect class="cls-1" x="513.09" y="0.19" width="1.44" height="19.56"/><rect class="cls-1" x="516.8" y="0.19" width="1.44" height="19.56"/><rect class="cls-1" x="520.86" y="0.19" width="1.44" height="19.56"/><rect class="cls-1" x="533.98" y="0.19" width="1.44" height="19.56"/><rect class="cls-1" x="541.88" y="0.19" width="1.44" height="19.56"/><rect class="cls-1" x="543.15" y="0.19" width="1.44" height="19.56"/><rect class="cls-1" x="556.85" y="0.19" width="1.44" height="19.56"/><rect class="cls-1" x="568.69" y="0.19" width="1.44" height="19.56"/><rect class="cls-1" x="585.06" y="0.19" width="1.44" height="19.56"/><rect class="cls-1" x="587.5" y="0.19" width="1.44" height="19.56"/><rect class="cls-1" x="588.08" y="0.19" width="1.44" height="19.56"/><rect class="cls-1" x="601.31" y="0.19" width="1.44" height="19.56"/><rect class="cls-1" x="635.91" y="0.19" width="1.44" height="19.56"/><rect class="cls-1" x="662.38" y="0.19" width="1.44" height="19.56"/><rect class="cls-1" x="665.97" y="0.19" width="1.44" height="19.56"/><rect class="cls-1" x="683.97" y="0.19" width="1.44" height="19.56"/><rect class="cls-1" x="685.01" y="0.19" width="1.44" height="19.56"/><rect class="cls-1" x="685.48" y="0.19" width="1.44" height="19.56"/><rect class="cls-1" x="698.24" y="0.19" width="1.44" height="19.56"/><rect class="cls-1" x="700.92" y="0.19" width="1.44" height="19.56"/><rect class="cls-1" x="701.15" y="0.19" width="1.44" height="19.56"/><rect class="cls-1" x="763.6" y="0.19" width="1.44" height="19.56"/><rect class="cls-1" x="794.25" y="0.19" width="1.44" height="19.56"/><rect class="cls-1" x="831.52" y="0.19" width="1.44" height="19.56"/><rect class="cls-1" x="831.63" y="0.19" width="1.44" height="19.56"/><rect class="cls-1" x="843.35" y="0.19" width="1.44" height="19.56"/><rect class="cls-1" x="881.55" y="0.19" width="1.44" height="19.56"/><rect class="cls-1" x="924.27" y="0.19" width="1.44" height="19.56"/><rect class="cls-1" x="934.14" y="0.19" width="1.44" height="19.56"/><rect class="cls-1" x="934.25" y="0.19" width="1.44" height="19.56"/><rect class="cls-1" x="940.17" y="0.19" width="1.44" height="19.56"/><rect class="cls-1" x="981.27" y="0.19" width="1.44" height="19.56"/><rect class="cls-1" x="981.85" y="0.19" width="1.44" height="19.56"/><rect class="cls-1" x="987.54" y="0.19" width="1.44" height="19.56"/><rect class="cls-1" x="991.83" y="0.19" width="1.44" height="19.56"/><rect class="cls-1" x="1012.61" y="0.19" width="1.44" height="19.56"/></g></g></svg>