<svg xmlns="http://www.w3.org/2000/svg" viewBox="0 0 1064.41 19.73"><defs><style>.cls-1{fill:#fff;}</style></defs><g id="Layer_2" data-name="Layer 2"><g id="Layer_1-2" data-name="Layer 1"><rect width="1064.41" height="19.57"/><rect class="cls-1" x="4.28" y="0.17" width="1.44" height="19.56"/><rect class="cls-1" x="8.3" y="0.17" width="1.44" height="19.56"/><rect class="cls-1" x="15.36" y="0.17" width="1.44" height="19.56"/><rect class="cls-1" x="29.86" y="0.17" width="1.44" height="19.56"/><rect class="cls-1" x="30.22" y="0.17" width="1.44" height="19.56"/><rect class="cls-1" x="31.32" y="0.17" width="1.44" height="19.56"/><rect class="cls-1" x="33.39" y="0.17" width="1.44" height="19.56"/><rect class="cls-1" x="34.12" y="0.17" width="1.44" height="19.56"/><rect class="cls-1" x="60.67" y="0.17" width="1.44" height="19.56"/><rect class="cls-1" x="89.3" y="0.17" width="1.44" height="19.56"/><rect class="cls-1" x="91.49" y="0.17" width="1.44" height="19.56"/><rect class="cls-1" x="93.2" y="0.17" width="1.44" height="19.56"/><rect class="cls-1" x="100.14" y="0.17" width="1.44" height="19.56"/><rect class="cls-1" x="100.75" y="0.17" width="1.44" height="19.56"/><rect class="cls-1" x="106.6" y="0.17" width="1.44" height="19.56"/><rect class="cls-1" x="106.72" y="0.17" width="1.44" height="19.56"/><rect class="cls-1" x="112.45" y="0.17" width="1.44" height="19.56"/><rect class="cls-1" x="152.04" y="0.17" width="1.44" height="19.56"/><rect class="cls-1" x="156.91" y="0.17" width="1.44" height="19.56"/><rect class="cls-1" x="157.27" y="0.17" width="1.44" height="19.56"/><rect class="cls-1" x="157.52" y="0.17" width="1.44" height="19.56"/><rect class="cls-1" x="166.53" y="0.17" width="1.44" height="19.56"/><rect class="cls-1" x="173.6" y="0.17" width="1.44" height="19.56"/><rect class="cls-1" x="174.33" y="0.17" width="1.44" height="19.56"/><rect class="cls-1" x="179.44" y="0.17" width="1.44" height="19.56"/><rect class="cls-1" x="183.59" y="0.17" width="1.44" height="19.56"/><rect class="cls-1" x="189.31" y="0.17" width="1.44" height="19.56"/><rect class="cls-1" x="190.53" y="0.17" width="1.44" height="19.56"/><rect class="cls-1" x="205.39" y="0.17" width="1.44" height="19.56"/><rect class="cls-1" x="208.68" y="0.17" width="1.44" height="19.56"/><rect class="cls-1" x="221.59" y="0.17" width="1.44" height="19.56"/><rect class="cls-1" x="241.45" y="0.17" width="1.44" height="19.56"/><rect class="cls-1" x="242.79" y="0.17" width="1.44" height="19.56"/><rect class="cls-1" x="250.58" y="0.17" width="1.44" height="19.56"/><rect class="cls-1" x="251.07" y="0.17" width="1.44" height="19.56"/><rect class="cls-1" x="252.29" y="0.17" width="1.44" height="19.56"/><rect class="cls-1" x="281.89" y="0.17" width="1.44" height="19.56"/><rect class="cls-1" x="289.68" y="0.17" width="1.44" height="19.56"/><rect class="cls-1" x="296.26" y="0.17" width="1.44" height="19.56"/><rect class="cls-1" x="315.63" y="0.17" width="1.44" height="19.56"/><rect class="cls-1" x="316.12" y="0.17" width="1.44" height="19.56"/><rect class="cls-1" x="318.8" y="0.17" width="1.44" height="19.56"/><rect class="cls-1" x="319.04" y="0.17" width="1.44" height="19.56"/><rect class="cls-1" x="320.26" y="0.17" width="1.44" height="19.56"/><rect class="cls-1" x="321.36" y="0.17" width="1.44" height="19.56"/><rect class="cls-1" x="323.43" y="0.17" width="1.44" height="19.56"/><rect class="cls-1" x="331.35" y="0.17" width="1.44" height="19.56"/><rect class="cls-1" x="335" y="0.17" width="1.44" height="19.56"/><rect class="cls-1" x="340.73" y="0.17" width="1.44" height="19.56"/><rect class="cls-1" x="350.23" y="0.17" width="1.44" height="19.56"/><rect class="cls-1" x="406.5" y="0.17" width="1.44" height="19.56"/><rect class="cls-1" x="434.89" y="0.17" width="1.44" height="19.56"/><rect class="cls-1" x="438.79" y="0.17" width="1.44" height="19.56"/><rect class="cls-1" x="439.03" y="0.17" width="1.44" height="19.56"/><rect class="cls-1" x="443.54" y="0.17" width="1.44" height="19.56"/><rect class="cls-1" x="453.16" y="0.17" width="1.44" height="19.56"/><rect class="cls-1" x="456.33" y="0.17" width="1.44" height="19.56"/><rect class="cls-1" x="464.85" y="0.17" width="1.44" height="19.56"/><rect class="cls-1" x="483.98" y="0.17" width="1.44" height="19.56"/><rect class="cls-1" x="522.96" y="0.17" width="1.44" height="19.56"/><rect class="cls-1" x="526" y="0.17" width="1.44" height="19.56"/><rect class="cls-1" x="526.49" y="0.17" width="1.44" height="19.56"/><rect class="cls-1" x="548.91" y="0.17" width="1.44" height="19.56"/><rect class="cls-1" x="569.37" y="0.17" width="1.44" height="19.56"/><rect class="cls-1" x="569.86" y="0.17" width="1.44" height="19.56"/><rect class="cls-1" x="585.21" y="0.17" width="1.44" height="19.56"/><rect class="cls-1" x="596.05" y="0.17" width="1.44" height="19.56"/><rect class="cls-1" x="644.16" y="0.17" width="1.44" height="19.56"/><rect class="cls-1" x="644.28" y="0.17" width="1.44" height="19.56"/><rect class="cls-1" x="662.92" y="0.17" width="1.44" height="19.56"/><rect class="cls-1" x="699.1" y="0.17" width="1.44" height="19.56"/><rect class="cls-1" x="727.24" y="0.17" width="1.44" height="19.56"/><rect class="cls-1" x="758.18" y="0.17" width="1.44" height="19.56"/><rect class="cls-1" x="773.29" y="0.17" width="1.44" height="19.56"/><rect class="cls-1" x="774.14" y="0.17" width="1.44" height="19.56"/><rect class="cls-1" x="775.11" y="0.17" width="1.44" height="19.56"/><rect class="cls-1" x="782.06" y="0.17" width="1.44" height="19.56"/><rect class="cls-1" x="783.15" y="0.17" width="1.44" height="19.56"/><rect class="cls-1" x="785.59" y="0.17" width="1.44" height="19.56"/><rect class="cls-1" x="821.65" y="0.17" width="1.44" height="19.56"/><rect class="cls-1" x="823.35" y="0.17" width="1.44" height="19.56"/><rect class="cls-1" x="826.88" y="0.17" width="1.44" height="19.56"/><rect class="cls-1" x="857.95" y="0.17" width="1.44" height="19.56"/><rect class="cls-1" x="875.24" y="0.17" width="1.44" height="19.56"/><rect class="cls-1" x="876.83" y="0.17" width="1.44" height="19.56"/><rect class="cls-1" x="882.31" y="0.17" width="1.44" height="19.56"/><rect class="cls-1" x="888.77" y="0.17" width="1.44" height="19.56"/><rect class="cls-1" x="895.71" y="0.17" width="1.44" height="19.56"/><rect class="cls-1" x="907.28" y="0.17" width="1.44" height="19.56"/><rect class="cls-1" x="918" y="0.17" width="1.44" height="19.56"/><rect class="cls-1" x="919.95" y="0.17" width="1.44" height="19.56"/><rect class="cls-1" x="930.91" y="0.17" width="1.44" height="19.56"/><rect class="cls-1" x="939.8" y="0.17" width="1.44" height="19.56"/><rect class="cls-1" x="942.36" y="0.17" width="1.44" height="19.56"/><rect class="cls-1" x="946.51" y="0.17" width="1.44" height="19.56"/><rect class="cls-1" x="951.26" y="0.17" width="1.44" height="19.56"/><rect class="cls-1" x="951.62" y="0.17" width="1.44" height="19.56"/><rect class="cls-1" x="961.49" y="0.17" width="1.44" height="19.56"/><rect class="cls-1" x="964.53" y="0.17" width="1.44" height="19.56"/><rect class="cls-1" x="1008.02" y="0.17" width="1.44" height="19.56"/></g></g></svg>