<svg xmlns="http://www.w3.org/2000/svg" viewBox="0 0 1064.41 19.68"><defs><style>.cls-1{fill:#fff;}</style></defs><g id="Layer_2" data-name="Layer 2"><g id="Layer_1-2" data-name="Layer 1"><rect width="1064.41" height="19.57"/><rect class="cls-1" x="5.2" y="0.13" width="1.44" height="19.56"/><rect class="cls-1" x="39.27" y="0.13" width="1.44" height="19.56"/><rect class="cls-1" x="41.78" y="0.13" width="1.44" height="19.56"/><rect class="cls-1" x="44.83" y="0.13" width="1.44" height="19.56"/><rect class="cls-1" x="47.7" y="0.13" width="1.44" height="19.56"/><rect class="cls-1" x="72.08" y="0.13" width="1.44" height="19.56"/><rect class="cls-1" x="80.51" y="0.13" width="1.44" height="19.56"/><rect class="cls-1" x="88.76" y="0.13" width="1.44" height="19.56"/><rect class="cls-1" x="94.5" y="0.13" width="1.44" height="19.56"/><rect class="cls-1" x="114.4" y="0.13" width="1.44" height="19.56"/><rect class="cls-1" x="123.01" y="0.13" width="1.44" height="19.56"/><rect class="cls-1" x="126.06" y="0.13" width="1.44" height="19.56"/><rect class="cls-1" x="128.21" y="0.13" width="1.44" height="19.56"/><rect class="cls-1" x="131.79" y="0.13" width="1.44" height="19.56"/><rect class="cls-1" x="133.59" y="0.13" width="1.44" height="19.56"/><rect class="cls-1" x="142.37" y="0.13" width="1.44" height="19.56"/><rect class="cls-1" x="145.42" y="0.13" width="1.44" height="19.56"/><rect class="cls-1" x="158.15" y="0.13" width="1.44" height="19.56"/><rect class="cls-1" x="179.13" y="0.13" width="1.44" height="19.56"/><rect class="cls-1" x="187.56" y="0.13" width="1.44" height="19.56"/><rect class="cls-1" x="217.33" y="0.13" width="1.44" height="19.56"/><rect class="cls-1" x="227.73" y="0.13" width="1.44" height="19.56"/><rect class="cls-1" x="228.8" y="0.13" width="1.44" height="19.56"/><rect class="cls-1" x="232.21" y="0.13" width="1.44" height="19.56"/><rect class="cls-1" x="267.36" y="0.13" width="1.44" height="19.56"/><rect class="cls-1" x="273.27" y="0.13" width="1.44" height="19.56"/><rect class="cls-1" x="274.17" y="0.13" width="1.44" height="19.56"/><rect class="cls-1" x="279.01" y="0.13" width="1.44" height="19.56"/><rect class="cls-1" x="281.16" y="0.13" width="1.44" height="19.56"/><rect class="cls-1" x="285.83" y="0.13" width="1.44" height="19.56"/><rect class="cls-1" x="291.92" y="0.13" width="1.44" height="19.56"/><rect class="cls-1" x="293.36" y="0.13" width="1.44" height="19.56"/><rect class="cls-1" x="310.03" y="0.13" width="1.44" height="19.56"/><rect class="cls-1" x="313.8" y="0.13" width="1.44" height="19.56"/><rect class="cls-1" x="318.46" y="0.13" width="1.44" height="19.56"/><rect class="cls-1" x="334.78" y="0.13" width="1.44" height="19.56"/><rect class="cls-1" x="341.05" y="0.13" width="1.44" height="19.56"/><rect class="cls-1" x="342.67" y="0.13" width="1.44" height="19.56"/><rect class="cls-1" x="347.87" y="0.13" width="1.44" height="19.56"/><rect class="cls-1" x="350.74" y="0.13" width="1.44" height="19.56"/><rect class="cls-1" x="363.47" y="0.13" width="1.44" height="19.56"/><rect class="cls-1" x="392.34" y="0.13" width="1.44" height="19.56"/><rect class="cls-1" x="429.45" y="0.13" width="1.44" height="19.56"/><rect class="cls-1" x="430.53" y="0.13" width="1.44" height="19.56"/><rect class="cls-1" x="476.97" y="0.13" width="1.44" height="19.56"/><rect class="cls-1" x="539.38" y="0.13" width="1.44" height="19.56"/><rect class="cls-1" x="630.47" y="0.13" width="1.44" height="19.56"/><rect class="cls-1" x="644.63" y="0.13" width="1.44" height="19.56"/><rect class="cls-1" x="674.04" y="0.13" width="1.44" height="19.56"/><rect class="cls-1" x="679.06" y="0.13" width="1.44" height="19.56"/><rect class="cls-1" x="685.88" y="0.13" width="1.44" height="19.56"/><rect class="cls-1" x="720.48" y="0.13" width="1.44" height="19.56"/><rect class="cls-1" x="723.53" y="0.13" width="1.44" height="19.56"/><rect class="cls-1" x="727.12" y="0.13" width="1.44" height="19.56"/><rect class="cls-1" x="728.91" y="0.13" width="1.44" height="19.56"/><rect class="cls-1" x="739.31" y="0.13" width="1.44" height="19.56"/><rect class="cls-1" x="756.17" y="0.13" width="1.44" height="19.56"/><rect class="cls-1" x="795.08" y="0.13" width="1.44" height="19.56"/><rect class="cls-1" x="844.03" y="0.13" width="1.44" height="19.56"/><rect class="cls-1" x="845.64" y="0.13" width="1.44" height="19.56"/><rect class="cls-1" x="858.55" y="0.13" width="1.44" height="19.56"/><rect class="cls-1" x="860.71" y="0.13" width="1.44" height="19.56"/><rect class="cls-1" x="866.8" y="0.13" width="1.44" height="19.56"/><rect class="cls-1" x="874.16" y="0.13" width="1.44" height="19.56"/><rect class="cls-1" x="875.41" y="0.13" width="1.44" height="19.56"/><rect class="cls-1" x="884.02" y="0.13" width="1.44" height="19.56"/><rect class="cls-1" x="969.19" y="0.13" width="1.44" height="19.56"/><rect class="cls-1" x="1011.15" y="0.13" width="1.44" height="19.56"/></g></g></svg>