<svg xmlns="http://www.w3.org/2000/svg" viewBox="0 0 1064.41 19.67"><defs><style>.cls-1{fill:#fff;}</style></defs><g id="Layer_2" data-name="Layer 2"><g id="Layer_1-2" data-name="Layer 1"><rect width="1064.41" height="19.57"/><rect class="cls-1" x="5.92" y="0.12" width="1.44" height="19.56"/><rect class="cls-1" x="38.84" y="0.12" width="1.44" height="19.56"/><rect class="cls-1" x="41.86" y="0.12" width="1.44" height="19.56"/><rect class="cls-1" x="45.33" y="0.12" width="1.44" height="19.56"/><rect class="cls-1" x="66.62" y="0.12" width="1.44" height="19.56"/><rect class="cls-1" x="69.03" y="0.12" width="1.44" height="19.56"/><rect class="cls-1" x="69.79" y="0.12" width="1.44" height="19.56"/><rect class="cls-1" x="71.15" y="0.12" width="1.44" height="19.56"/><rect class="cls-1" x="73.11" y="0.12" width="1.44" height="19.56"/><rect class="cls-1" x="74.02" y="0.12" width="1.44" height="19.56"/><rect class="cls-1" x="76.43" y="0.12" width="1.44" height="19.56"/><rect class="cls-1" x="86.4" y="0.12" width="1.44" height="19.56"/><rect class="cls-1" x="87.61" y="0.12" width="1.44" height="19.56"/><rect class="cls-1" x="88.21" y="0.12" width="1.44" height="19.56"/><rect class="cls-1" x="88.96" y="0.12" width="1.44" height="19.56"/><rect class="cls-1" x="89.72" y="0.12" width="1.44" height="19.56"/><rect class="cls-1" x="90.17" y="0.12" width="1.44" height="19.56"/><rect class="cls-1" x="90.32" y="0.12" width="1.44" height="19.56"/><rect class="cls-1" x="92.89" y="0.12" width="1.44" height="19.56"/><rect class="cls-1" x="94.1" y="0.12" width="1.44" height="19.56"/><rect class="cls-1" x="95.3" y="0.12" width="1.44" height="19.56"/><rect class="cls-1" x="101.95" y="0.12" width="1.44" height="19.56"/><rect class="cls-1" x="105.12" y="0.12" width="1.44" height="19.56"/><rect class="cls-1" x="117.05" y="0.12" width="1.44" height="19.56"/><rect class="cls-1" x="126.41" y="0.12" width="1.44" height="19.56"/><rect class="cls-1" x="131.24" y="0.12" width="1.44" height="19.56"/><rect class="cls-1" x="132.75" y="0.12" width="1.44" height="19.56"/><rect class="cls-1" x="135.01" y="0.12" width="1.44" height="19.56"/><rect class="cls-1" x="141.65" y="0.12" width="1.44" height="19.56"/><rect class="cls-1" x="142.71" y="0.12" width="1.44" height="19.56"/><rect class="cls-1" x="144.37" y="0.12" width="1.44" height="19.56"/><rect class="cls-1" x="144.98" y="0.12" width="1.44" height="19.56"/><rect class="cls-1" x="145.73" y="0.12" width="1.44" height="19.56"/><rect class="cls-1" x="177.44" y="0.12" width="1.44" height="19.56"/><rect class="cls-1" x="209.29" y="0.12" width="1.44" height="19.56"/><rect class="cls-1" x="211.26" y="0.12" width="1.44" height="19.56"/><rect class="cls-1" x="221.98" y="0.12" width="1.44" height="19.56"/><rect class="cls-1" x="222.58" y="0.12" width="1.44" height="19.56"/><rect class="cls-1" x="224.85" y="0.12" width="1.44" height="19.56"/><rect class="cls-1" x="225.6" y="0.12" width="1.44" height="19.56"/><rect class="cls-1" x="226.66" y="0.12" width="1.44" height="19.56"/><rect class="cls-1" x="230.88" y="0.12" width="1.44" height="19.56"/><rect class="cls-1" x="236.47" y="0.12" width="1.44" height="19.56"/><rect class="cls-1" x="237.38" y="0.12" width="1.44" height="19.56"/><rect class="cls-1" x="237.83" y="0.12" width="1.44" height="19.56"/><rect class="cls-1" x="239.49" y="0.12" width="1.44" height="19.56"/><rect class="cls-1" x="281.76" y="0.12" width="1.44" height="19.56"/><rect class="cls-1" x="286.29" y="0.12" width="1.44" height="19.56"/><rect class="cls-1" x="287.5" y="0.12" width="1.44" height="19.56"/><rect class="cls-1" x="317.4" y="0.12" width="1.44" height="19.56"/><rect class="cls-1" x="318.3" y="0.12" width="1.44" height="19.56"/><rect class="cls-1" x="319.81" y="0.12" width="1.44" height="19.56"/><rect class="cls-1" x="322.68" y="0.12" width="1.44" height="19.56"/><rect class="cls-1" x="324.34" y="0.12" width="1.44" height="19.56"/><rect class="cls-1" x="333.25" y="0.12" width="1.44" height="19.56"/><rect class="cls-1" x="334" y="0.12" width="1.44" height="19.56"/><rect class="cls-1" x="337.17" y="0.12" width="1.44" height="19.56"/><rect class="cls-1" x="340.04" y="0.12" width="1.44" height="19.56"/><rect class="cls-1" x="341.25" y="0.12" width="1.44" height="19.56"/><rect class="cls-1" x="357.41" y="0.12" width="1.44" height="19.56"/><rect class="cls-1" x="378.09" y="0.12" width="1.44" height="19.56"/><rect class="cls-1" x="383.83" y="0.12" width="1.44" height="19.56"/><rect class="cls-1" x="388.05" y="0.12" width="1.44" height="19.56"/><rect class="cls-1" x="389.11" y="0.12" width="1.44" height="19.56"/><rect class="cls-1" x="391.07" y="0.12" width="1.44" height="19.56"/><rect class="cls-1" x="396.96" y="0.12" width="1.44" height="19.56"/><rect class="cls-1" x="401.95" y="0.12" width="1.44" height="19.56"/><rect class="cls-1" x="415.53" y="0.12" width="1.44" height="19.56"/><rect class="cls-1" x="424.29" y="0.12" width="1.44" height="19.56"/><rect class="cls-1" x="428.21" y="0.12" width="1.44" height="19.56"/><rect class="cls-1" x="431.23" y="0.12" width="1.44" height="19.56"/><rect class="cls-1" x="433.95" y="0.12" width="1.44" height="19.56"/><rect class="cls-1" x="441.05" y="0.12" width="1.44" height="19.56"/><rect class="cls-1" x="441.5" y="0.12" width="1.44" height="19.56"/><rect class="cls-1" x="455.69" y="0.12" width="1.44" height="19.56"/><rect class="cls-1" x="457.05" y="0.12" width="1.44" height="19.56"/><rect class="cls-1" x="458.41" y="0.12" width="1.44" height="19.56"/><rect class="cls-1" x="461.58" y="0.12" width="1.44" height="19.56"/><rect class="cls-1" x="463.39" y="0.12" width="1.44" height="19.56"/><rect class="cls-1" x="470.34" y="0.12" width="1.44" height="19.56"/><rect class="cls-1" x="472.3" y="0.12" width="1.44" height="19.56"/><rect class="cls-1" x="474.26" y="0.12" width="1.44" height="19.56"/><rect class="cls-1" x="485.74" y="0.12" width="1.44" height="19.56"/><rect class="cls-1" x="500.08" y="0.12" width="1.44" height="19.56"/><rect class="cls-1" x="500.69" y="0.12" width="1.44" height="19.56"/><rect class="cls-1" x="501.59" y="0.12" width="1.44" height="19.56"/><rect class="cls-1" x="512.01" y="0.12" width="1.44" height="19.56"/><rect class="cls-1" x="514.42" y="0.12" width="1.44" height="19.56"/><rect class="cls-1" x="516.24" y="0.12" width="1.44" height="19.56"/><rect class="cls-1" x="520.16" y="0.12" width="1.44" height="19.56"/><rect class="cls-1" x="522.58" y="0.12" width="1.44" height="19.56"/><rect class="cls-1" x="531.48" y="0.12" width="1.44" height="19.56"/><rect class="cls-1" x="533.9" y="0.12" width="1.44" height="19.56"/><rect class="cls-1" x="536.32" y="0.12" width="1.44" height="19.56"/><rect class="cls-1" x="542.21" y="0.12" width="1.44" height="19.56"/><rect class="cls-1" x="549" y="0.12" width="1.44" height="19.56"/><rect class="cls-1" x="616.18" y="0.12" width="1.44" height="19.56"/><rect class="cls-1" x="657.71" y="0.12" width="1.44" height="19.56"/><rect class="cls-1" x="731.38" y="0.12" width="1.44" height="19.56"/><rect class="cls-1" x="793.89" y="0.12" width="1.44" height="19.56"/><rect class="cls-1" x="805.21" y="0.12" width="1.44" height="19.56"/><rect class="cls-1" x="808.38" y="0.12" width="1.44" height="19.56"/><rect class="cls-1" x="815.03" y="0.12" width="1.44" height="19.56"/><rect class="cls-1" x="940.79" y="0.12" width="1.44" height="19.56"/><rect class="cls-1" x="958.61" y="0.12" width="1.44" height="19.56"/><rect class="cls-1" x="973.1" y="0.12" width="1.44" height="19.56"/><rect class="cls-1" x="993.48" y="0.12" width="1.44" height="19.56"/></g></g></svg>