<svg xmlns="http://www.w3.org/2000/svg" viewBox="0 0 1064.41 19.66"><defs><style>.cls-1{fill:#fff;}</style></defs><g id="Layer_2" data-name="Layer 2"><g id="Layer_1-2" data-name="Layer 1"><rect width="1064.41" height="19.57"/><rect class="cls-1" x="4.18" y="0.1" width="1.44" height="19.56"/><rect class="cls-1" x="4.94" y="0.1" width="1.44" height="19.56"/><rect class="cls-1" x="5.7" y="0.1" width="1.44" height="19.56"/><rect class="cls-1" x="8.92" y="0.1" width="1.44" height="19.56"/><rect class="cls-1" x="9.68" y="0.1" width="1.44" height="19.56"/><rect class="cls-1" x="10.6" y="0.1" width="1.44" height="19.56"/><rect class="cls-1" x="11.21" y="0.1" width="1.44" height="19.56"/><rect class="cls-1" x="12.89" y="0.1" width="1.44" height="19.56"/><rect class="cls-1" x="14.73" y="0.1" width="1.44" height="19.56"/><rect class="cls-1" x="15.34" y="0.1" width="1.44" height="19.56"/><rect class="cls-1" x="16.87" y="0.1" width="1.44" height="19.56"/><rect class="cls-1" x="17.63" y="0.1" width="1.44" height="19.56"/><rect class="cls-1" x="21.46" y="0.1" width="1.44" height="19.56"/><rect class="cls-1" x="24.51" y="0.1" width="1.44" height="19.56"/><rect class="cls-1" x="24.97" y="0.1" width="1.44" height="19.56"/><rect class="cls-1" x="25.13" y="0.1" width="1.44" height="19.56"/><rect class="cls-1" x="29.71" y="0.1" width="1.44" height="19.56"/><rect class="cls-1" x="30.33" y="0.1" width="1.44" height="19.56"/><rect class="cls-1" x="31.09" y="0.1" width="1.44" height="19.56"/><rect class="cls-1" x="31.85" y="0.1" width="1.44" height="19.56"/><rect class="cls-1" x="32.01" y="0.1" width="1.44" height="19.56"/><rect class="cls-1" x="32.16" y="0.1" width="1.44" height="19.56"/><rect class="cls-1" x="33.08" y="0.1" width="1.44" height="19.56"/><rect class="cls-1" x="34" y="0.1" width="1.44" height="19.56"/><rect class="cls-1" x="34.15" y="0.1" width="1.44" height="19.56"/><rect class="cls-1" x="34.3" y="0.1" width="1.44" height="19.56"/><rect class="cls-1" x="54.95" y="0.1" width="1.44" height="19.56"/><rect class="cls-1" x="56.48" y="0.1" width="1.44" height="19.56"/><rect class="cls-1" x="57.4" y="0.1" width="1.44" height="19.56"/><rect class="cls-1" x="57.7" y="0.1" width="1.44" height="19.56"/><rect class="cls-1" x="58.01" y="0.1" width="1.44" height="19.56"/><rect class="cls-1" x="58.47" y="0.1" width="1.44" height="19.56"/><rect class="cls-1" x="59.69" y="0.1" width="1.44" height="19.56"/><rect class="cls-1" x="60.15" y="0.1" width="1.44" height="19.56"/><rect class="cls-1" x="60.45" y="0.1" width="1.44" height="19.56"/><rect class="cls-1" x="60.61" y="0.1" width="1.44" height="19.56"/><rect class="cls-1" x="61.22" y="0.1" width="1.44" height="19.56"/><rect class="cls-1" x="61.52" y="0.1" width="1.44" height="19.56"/><rect class="cls-1" x="75.14" y="0.1" width="1.44" height="19.56"/><rect class="cls-1" x="81.71" y="0.1" width="1.44" height="19.56"/><rect class="cls-1" x="82.78" y="0.1" width="1.44" height="19.56"/><rect class="cls-1" x="83.24" y="0.1" width="1.44" height="19.56"/><rect class="cls-1" x="84.01" y="0.1" width="1.44" height="19.56"/><rect class="cls-1" x="86.3" y="0.1" width="1.44" height="19.56"/><rect class="cls-1" x="87.52" y="0.1" width="1.44" height="19.56"/><rect class="cls-1" x="89.05" y="0.1" width="1.44" height="19.56"/><rect class="cls-1" x="95.78" y="0.1" width="1.44" height="19.56"/><rect class="cls-1" x="98.07" y="0.1" width="1.44" height="19.56"/><rect class="cls-1" x="104.04" y="0.1" width="1.44" height="19.56"/><rect class="cls-1" x="106.49" y="0.1" width="1.44" height="19.56"/><rect class="cls-1" x="107.71" y="0.1" width="1.44" height="19.56"/><rect class="cls-1" x="109.54" y="0.1" width="1.44" height="19.56"/><rect class="cls-1" x="132.94" y="0.1" width="1.44" height="19.56"/><rect class="cls-1" x="134.01" y="0.1" width="1.44" height="19.56"/><rect class="cls-1" x="135.54" y="0.1" width="1.44" height="19.56"/><rect class="cls-1" x="139.06" y="0.1" width="1.44" height="19.56"/><rect class="cls-1" x="150.99" y="0.1" width="1.44" height="19.56"/><rect class="cls-1" x="159.55" y="0.1" width="1.44" height="19.56"/><rect class="cls-1" x="166.13" y="0.1" width="1.44" height="19.56"/><rect class="cls-1" x="166.74" y="0.1" width="1.44" height="19.56"/><rect class="cls-1" x="173.93" y="0.1" width="1.44" height="19.56"/><rect class="cls-1" x="176.07" y="0.1" width="1.44" height="19.56"/><rect class="cls-1" x="199.77" y="0.1" width="1.44" height="19.56"/><rect class="cls-1" x="203.6" y="0.1" width="1.44" height="19.56"/><rect class="cls-1" x="226.39" y="0.1" width="1.44" height="19.56"/><rect class="cls-1" x="226.54" y="0.1" width="1.44" height="19.56"/><rect class="cls-1" x="226.84" y="0.1" width="1.44" height="19.56"/><rect class="cls-1" x="227.3" y="0.1" width="1.44" height="19.56"/><rect class="cls-1" x="234.64" y="0.1" width="1.44" height="19.56"/><rect class="cls-1" x="295.2" y="0.1" width="1.44" height="19.56"/><rect class="cls-1" x="295.66" y="0.1" width="1.44" height="19.56"/><rect class="cls-1" x="312.79" y="0.1" width="1.44" height="19.56"/><rect class="cls-1" x="314.02" y="0.1" width="1.44" height="19.56"/><rect class="cls-1" x="322.73" y="0.1" width="1.44" height="19.56"/><rect class="cls-1" x="323.65" y="0.1" width="1.44" height="19.56"/><rect class="cls-1" x="325.33" y="0.1" width="1.44" height="19.56"/><rect class="cls-1" x="325.95" y="0.1" width="1.44" height="19.56"/><rect class="cls-1" x="327.47" y="0.1" width="1.44" height="19.56"/><rect class="cls-1" x="328.39" y="0.1" width="1.44" height="19.56"/><rect class="cls-1" x="329.31" y="0.1" width="1.44" height="19.56"/><rect class="cls-1" x="330.23" y="0.1" width="1.44" height="19.56"/><rect class="cls-1" x="330.99" y="0.1" width="1.44" height="19.56"/><rect class="cls-1" x="333.74" y="0.1" width="1.44" height="19.56"/><rect class="cls-1" x="336.04" y="0.1" width="1.44" height="19.56"/><rect class="cls-1" x="338.03" y="0.1" width="1.44" height="19.56"/><rect class="cls-1" x="338.79" y="0.1" width="1.44" height="19.56"/><rect class="cls-1" x="340.47" y="0.1" width="1.44" height="19.56"/><rect class="cls-1" x="341.54" y="0.1" width="1.44" height="19.56"/><rect class="cls-1" x="342.46" y="0.1" width="1.44" height="19.56"/><rect class="cls-1" x="343.68" y="0.1" width="1.44" height="19.56"/><rect class="cls-1" x="346.29" y="0.1" width="1.44" height="19.56"/><rect class="cls-1" x="346.74" y="0.1" width="1.44" height="19.56"/><rect class="cls-1" x="375.8" y="0.1" width="1.44" height="19.56"/><rect class="cls-1" x="439.57" y="0.1" width="1.44" height="19.56"/><rect class="cls-1" x="512.67" y="0.1" width="1.44" height="19.56"/><rect class="cls-1" x="516.5" y="0.1" width="1.44" height="19.56"/><rect class="cls-1" x="529.5" y="0.1" width="1.44" height="19.56"/><rect class="cls-1" x="569.57" y="0.1" width="1.44" height="19.56"/><rect class="cls-1" x="580.88" y="0.1" width="1.44" height="19.56"/><rect class="cls-1" x="607.95" y="0.1" width="1.44" height="19.56"/><rect class="cls-1" x="610.25" y="0.1" width="1.44" height="19.56"/><rect class="cls-1" x="610.4" y="0.1" width="1.44" height="19.56"/><rect class="cls-1" x="620.34" y="0.1" width="1.44" height="19.56"/><rect class="cls-1" x="621.1" y="0.1" width="1.44" height="19.56"/><rect class="cls-1" x="694.05" y="0.1" width="1.44" height="19.56"/><rect class="cls-1" x="698.03" y="0.1" width="1.44" height="19.56"/><rect class="cls-1" x="703.08" y="0.1" width="1.44" height="19.56"/><rect class="cls-1" x="703.99" y="0.1" width="1.44" height="19.56"/><rect class="cls-1" x="704.76" y="0.1" width="1.44" height="19.56"/><rect class="cls-1" x="723.26" y="0.1" width="1.44" height="19.56"/><rect class="cls-1" x="745.59" y="0.1" width="1.44" height="19.56"/><rect class="cls-1" x="747.27" y="0.1" width="1.44" height="19.56"/><rect class="cls-1" x="839.03" y="0.1" width="1.44" height="19.56"/><rect class="cls-1" x="890.88" y="0.1" width="1.44" height="19.56"/><rect class="cls-1" x="917.33" y="0.1" width="1.44" height="19.56"/><rect class="cls-1" x="922.53" y="0.1" width="1.44" height="19.56"/><rect class="cls-1" x="922.84" y="0.1" width="1.44" height="19.56"/><rect class="cls-1" x="923.45" y="0.1" width="1.44" height="19.56"/><rect class="cls-1" x="924.98" y="0.1" width="1.44" height="19.56"/><rect class="cls-1" x="925.74" y="0.1" width="1.44" height="19.56"/><rect class="cls-1" x="929.57" y="0.1" width="1.44" height="19.56"/><rect class="cls-1" x="935.38" y="0.1" width="1.44" height="19.56"/><rect class="cls-1" x="937.06" y="0.1" width="1.44" height="19.56"/><rect class="cls-1" x="937.52" y="0.1" width="1.44" height="19.56"/><rect class="cls-1" x="941.65" y="0.1" width="1.44" height="19.56"/><rect class="cls-1" x="947.61" y="0.1" width="1.44" height="19.56"/><rect class="cls-1" x="956.79" y="0.1" width="1.44" height="19.56"/><rect class="cls-1" x="965.81" y="0.1" width="1.44" height="19.56"/><rect class="cls-1" x="978.51" y="0.1" width="1.44" height="19.56"/><rect class="cls-1" x="998.69" y="0.1" width="1.44" height="19.56"/><rect class="cls-1" x="1004.66" y="0.1" width="1.44" height="19.56"/><rect class="cls-1" x="1016.74" y="0.1" width="1.44" height="19.56"/><rect class="cls-1" x="1017.05" y="0.1" width="1.44" height="19.56"/></g></g></svg>