<svg xmlns="http://www.w3.org/2000/svg" viewBox="0 0 1064.41 19.65"><defs><style>.cls-1{fill:#fff;}</style></defs><g id="Layer_2" data-name="Layer 2"><g id="Layer_1-2" data-name="Layer 1"><rect width="1064.41" height="19.57"/><rect class="cls-1" x="15.9" y="0.09" width="1.44" height="19.56"/><rect class="cls-1" x="16.2" y="0.09" width="1.44" height="19.56"/><rect class="cls-1" x="20.78" y="0.09" width="1.44" height="19.56"/><rect class="cls-1" x="21.39" y="0.09" width="1.44" height="19.56"/><rect class="cls-1" x="77.03" y="0.09" width="1.44" height="19.56"/><rect class="cls-1" x="77.64" y="0.09" width="1.44" height="19.56"/><rect class="cls-1" x="105.69" y="0.09" width="1.44" height="19.56"/><rect class="cls-1" x="108.74" y="0.09" width="1.44" height="19.56"/><rect class="cls-1" x="274" y="0.09" width="1.44" height="19.56"/><rect class="cls-1" x="275.22" y="0.09" width="1.44" height="19.56"/><rect class="cls-1" x="278.27" y="0.09" width="1.44" height="19.56"/><rect class="cls-1" x="279.48" y="0.09" width="1.44" height="19.56"/><rect class="cls-1" x="284.67" y="0.09" width="1.44" height="19.56"/><rect class="cls-1" x="288.33" y="0.09" width="1.44" height="19.56"/><rect class="cls-1" x="330.25" y="0.09" width="1.44" height="19.56"/><rect class="cls-1" x="597.65" y="0.09" width="1.44" height="19.56"/><rect class="cls-1" x="604.05" y="0.09" width="1.44" height="19.56"/><rect class="cls-1" x="624.02" y="0.09" width="1.44" height="19.56"/><rect class="cls-1" x="647.8" y="0.09" width="1.44" height="19.56"/><rect class="cls-1" x="705.28" y="0.09" width="1.44" height="19.56"/><rect class="cls-1" x="719.3" y="0.09" width="1.44" height="19.56"/><rect class="cls-1" x="723.12" y="0.09" width="1.44" height="19.56"/><rect class="cls-1" x="746.29" y="0.09" width="1.44" height="19.56"/><rect class="cls-1" x="808.03" y="0.09" width="1.44" height="19.56"/></g></g></svg>