<svg xmlns="http://www.w3.org/2000/svg" viewBox="0 0 1064.41 19.64"><defs><style>.cls-1{fill:#fff;}</style></defs><g id="Layer_2" data-name="Layer 2"><g id="Layer_1-2" data-name="Layer 1"><rect width="1064.41" height="19.57"/><rect class="cls-1" x="11.91" y="0.08" width="1.44" height="19.56"/><rect class="cls-1" x="16.91" y="0.08" width="1.44" height="19.56"/><rect class="cls-1" x="17.75" y="0.08" width="1.44" height="19.56"/><rect class="cls-1" x="18.3" y="0.08" width="1.44" height="19.56"/><rect class="cls-1" x="19.13" y="0.08" width="1.44" height="19.56"/><rect class="cls-1" x="20.38" y="0.08" width="1.44" height="19.56"/><rect class="cls-1" x="21.77" y="0.08" width="1.44" height="19.56"/><rect class="cls-1" x="24.55" y="0.08" width="1.44" height="19.56"/><rect class="cls-1" x="35.79" y="0.08" width="1.44" height="19.56"/><rect class="cls-1" x="38.57" y="0.08" width="1.44" height="19.56"/><rect class="cls-1" x="40.1" y="0.08" width="1.44" height="19.56"/><rect class="cls-1" x="42.18" y="0.08" width="1.44" height="19.56"/><rect class="cls-1" x="42.46" y="0.08" width="1.44" height="19.56"/><rect class="cls-1" x="43.57" y="0.08" width="1.44" height="19.56"/><rect class="cls-1" x="43.85" y="0.08" width="1.44" height="19.56"/><rect class="cls-1" x="44.68" y="0.08" width="1.44" height="19.56"/><rect class="cls-1" x="45.23" y="0.08" width="1.44" height="19.56"/><rect class="cls-1" x="45.79" y="0.08" width="1.44" height="19.56"/><rect class="cls-1" x="48.43" y="0.08" width="1.44" height="19.56"/><rect class="cls-1" x="48.7" y="0.08" width="1.44" height="19.56"/><rect class="cls-1" x="51.48" y="0.08" width="1.44" height="19.56"/><rect class="cls-1" x="60.09" y="0.08" width="1.44" height="19.56"/><rect class="cls-1" x="75.64" y="0.08" width="1.44" height="19.56"/><rect class="cls-1" x="76.61" y="0.08" width="1.44" height="19.56"/><rect class="cls-1" x="83.97" y="0.08" width="1.44" height="19.56"/><rect class="cls-1" x="84.38" y="0.08" width="1.44" height="19.56"/><rect class="cls-1" x="87.02" y="0.08" width="1.44" height="19.56"/><rect class="cls-1" x="87.3" y="0.08" width="1.44" height="19.56"/><rect class="cls-1" x="87.71" y="0.08" width="1.44" height="19.56"/><rect class="cls-1" x="89.24" y="0.08" width="1.44" height="19.56"/><rect class="cls-1" x="89.66" y="0.08" width="1.44" height="19.56"/><rect class="cls-1" x="90.49" y="0.08" width="1.44" height="19.56"/><rect class="cls-1" x="92.85" y="0.08" width="1.44" height="19.56"/><rect class="cls-1" x="99.65" y="0.08" width="1.44" height="19.56"/><rect class="cls-1" x="104.1" y="0.08" width="1.44" height="19.56"/><rect class="cls-1" x="106.6" y="0.08" width="1.44" height="19.56"/><rect class="cls-1" x="109.37" y="0.08" width="1.44" height="19.56"/><rect class="cls-1" x="122.01" y="0.08" width="1.44" height="19.56"/><rect class="cls-1" x="147.97" y="0.08" width="1.44" height="19.56"/><rect class="cls-1" x="174.9" y="0.08" width="1.44" height="19.56"/><rect class="cls-1" x="187.54" y="0.08" width="1.44" height="19.56"/><rect class="cls-1" x="203.08" y="0.08" width="1.44" height="19.56"/><rect class="cls-1" x="203.22" y="0.08" width="1.44" height="19.56"/><rect class="cls-1" x="255.7" y="0.08" width="1.44" height="19.56"/><rect class="cls-1" x="284.16" y="0.08" width="1.44" height="19.56"/><rect class="cls-1" x="299.71" y="0.08" width="1.44" height="19.56"/><rect class="cls-1" x="360.52" y="0.08" width="1.44" height="19.56"/><rect class="cls-1" x="424.52" y="0.08" width="1.44" height="19.56"/><rect class="cls-1" x="437.57" y="0.08" width="1.44" height="19.56"/><rect class="cls-1" x="445.06" y="0.08" width="1.44" height="19.56"/><rect class="cls-1" x="447.56" y="0.08" width="1.44" height="19.56"/><rect class="cls-1" x="448.81" y="0.08" width="1.44" height="19.56"/><rect class="cls-1" x="450.06" y="0.08" width="1.44" height="19.56"/><rect class="cls-1" x="456.03" y="0.08" width="1.44" height="19.56"/><rect class="cls-1" x="458.11" y="0.08" width="1.44" height="19.56"/><rect class="cls-1" x="462.83" y="0.08" width="1.44" height="19.56"/><rect class="cls-1" x="470.05" y="0.08" width="1.44" height="19.56"/><rect class="cls-1" x="472" y="0.08" width="1.44" height="19.56"/><rect class="cls-1" x="506.43" y="0.08" width="1.44" height="19.56"/><rect class="cls-1" x="712.31" y="0.08" width="1.44" height="19.56"/><rect class="cls-1" x="732.3" y="0.08" width="1.44" height="19.56"/><rect class="cls-1" x="805.19" y="0.08" width="1.44" height="19.56"/><rect class="cls-1" x="820.74" y="0.08" width="1.44" height="19.56"/><rect class="cls-1" x="821.29" y="0.08" width="1.44" height="19.56"/><rect class="cls-1" x="821.57" y="0.08" width="1.44" height="19.56"/><rect class="cls-1" x="994.97" y="0.08" width="1.44" height="19.56"/><rect class="cls-1" x="1000.38" y="0.08" width="1.44" height="19.56"/></g></g></svg>