<svg xmlns="http://www.w3.org/2000/svg" viewBox="0 0 1064.41 19.63"><defs><style>.cls-1{fill:#fff;}</style></defs><g id="Layer_2" data-name="Layer 2"><g id="Layer_1-2" data-name="Layer 1"><rect width="1064.41" height="19.57"/><rect class="cls-1" x="4.29" y="0.07" width="1.44" height="19.56"/><rect class="cls-1" x="10.55" y="0.07" width="1.44" height="19.56"/><rect class="cls-1" x="12.74" y="0.07" width="1.44" height="19.56"/><rect class="cls-1" x="14" y="0.07" width="1.44" height="19.56"/><rect class="cls-1" x="14.78" y="0.07" width="1.44" height="19.56"/><rect class="cls-1" x="15.72" y="0.07" width="1.44" height="19.56"/><rect class="cls-1" x="47.03" y="0.07" width="1.44" height="19.56"/><rect class="cls-1" x="60.65" y="0.07" width="1.44" height="19.56"/><rect class="cls-1" x="71.14" y="0.07" width="1.44" height="19.56"/><rect class="cls-1" x="83.35" y="0.07" width="1.44" height="19.56"/><rect class="cls-1" x="97.75" y="0.07" width="1.44" height="19.56"/><rect class="cls-1" x="149.57" y="0.07" width="1.44" height="19.56"/><rect class="cls-1" x="156.77" y="0.07" width="1.44" height="19.56"/><rect class="cls-1" x="159.75" y="0.07" width="1.44" height="19.56"/><rect class="cls-1" x="178.38" y="0.07" width="1.44" height="19.56"/><rect class="cls-1" x="187.15" y="0.07" width="1.44" height="19.56"/><rect class="cls-1" x="189.18" y="0.07" width="1.44" height="19.56"/><rect class="cls-1" x="191.69" y="0.07" width="1.44" height="19.56"/><rect class="cls-1" x="192.63" y="0.07" width="1.44" height="19.56"/><rect class="cls-1" x="198.26" y="0.07" width="1.44" height="19.56"/><rect class="cls-1" x="264.64" y="0.07" width="1.44" height="19.56"/><rect class="cls-1" x="303.15" y="0.07" width="1.44" height="19.56"/><rect class="cls-1" x="314.89" y="0.07" width="1.44" height="19.56"/><rect class="cls-1" x="317.4" y="0.07" width="1.44" height="19.56"/><rect class="cls-1" x="323.5" y="0.07" width="1.44" height="19.56"/><rect class="cls-1" x="382.52" y="0.07" width="1.44" height="19.56"/><rect class="cls-1" x="406.16" y="0.07" width="1.44" height="19.56"/><rect class="cls-1" x="408.98" y="0.07" width="1.44" height="19.56"/><rect class="cls-1" x="420.88" y="0.07" width="1.44" height="19.56"/><rect class="cls-1" x="462.68" y="0.07" width="1.44" height="19.56"/><rect class="cls-1" x="462.84" y="0.07" width="1.44" height="19.56"/><rect class="cls-1" x="464.09" y="0.07" width="1.44" height="19.56"/><rect class="cls-1" x="464.25" y="0.07" width="1.44" height="19.56"/><rect class="cls-1" x="464.4" y="0.07" width="1.44" height="19.56"/><rect class="cls-1" x="464.56" y="0.07" width="1.44" height="19.56"/><rect class="cls-1" x="467.22" y="0.07" width="1.44" height="19.56"/><rect class="cls-1" x="468.63" y="0.07" width="1.44" height="19.56"/><rect class="cls-1" x="468.79" y="0.07" width="1.44" height="19.56"/><rect class="cls-1" x="469.41" y="0.07" width="1.44" height="19.56"/><rect class="cls-1" x="469.88" y="0.07" width="1.44" height="19.56"/><rect class="cls-1" x="470.35" y="0.07" width="1.44" height="19.56"/><rect class="cls-1" x="471.29" y="0.07" width="1.44" height="19.56"/><rect class="cls-1" x="476.77" y="0.07" width="1.44" height="19.56"/><rect class="cls-1" x="477.4" y="0.07" width="1.44" height="19.56"/><rect class="cls-1" x="480.53" y="0.07" width="1.44" height="19.56"/><rect class="cls-1" x="533.13" y="0.07" width="1.44" height="19.56"/><rect class="cls-1" x="540.49" y="0.07" width="1.44" height="19.56"/><rect class="cls-1" x="545.65" y="0.07" width="1.44" height="19.56"/><rect class="cls-1" x="547.53" y="0.07" width="1.44" height="19.56"/><rect class="cls-1" x="558.65" y="0.07" width="1.44" height="19.56"/><rect class="cls-1" x="559.59" y="0.07" width="1.44" height="19.56"/><rect class="cls-1" x="560.21" y="0.07" width="1.44" height="19.56"/><rect class="cls-1" x="560.53" y="0.07" width="1.44" height="19.56"/><rect class="cls-1" x="593.4" y="0.07" width="1.44" height="19.56"/><rect class="cls-1" x="601.23" y="0.07" width="1.44" height="19.56"/><rect class="cls-1" x="602.17" y="0.07" width="1.44" height="19.56"/><rect class="cls-1" x="637.86" y="0.07" width="1.44" height="19.56"/><rect class="cls-1" x="639.74" y="0.07" width="1.44" height="19.56"/><rect class="cls-1" x="652.89" y="0.07" width="1.44" height="19.56"/><rect class="cls-1" x="656.81" y="0.07" width="1.44" height="19.56"/><rect class="cls-1" x="667.92" y="0.07" width="1.44" height="19.56"/><rect class="cls-1" x="696.73" y="0.07" width="1.44" height="19.56"/><rect class="cls-1" x="701.11" y="0.07" width="1.44" height="19.56"/><rect class="cls-1" x="705.18" y="0.07" width="1.44" height="19.56"/><rect class="cls-1" x="714.73" y="0.07" width="1.44" height="19.56"/><rect class="cls-1" x="755.59" y="0.07" width="1.44" height="19.56"/><rect class="cls-1" x="758.25" y="0.07" width="1.44" height="19.56"/><rect class="cls-1" x="764.98" y="0.07" width="1.44" height="19.56"/><rect class="cls-1" x="766.24" y="0.07" width="1.44" height="19.56"/><rect class="cls-1" x="767.33" y="0.07" width="1.44" height="19.56"/><rect class="cls-1" x="788.16" y="0.07" width="1.44" height="19.56"/><rect class="cls-1" x="822.28" y="0.07" width="1.44" height="19.56"/><rect class="cls-1" x="829.8" y="0.07" width="1.44" height="19.56"/><rect class="cls-1" x="832.3" y="0.07" width="1.44" height="19.56"/><rect class="cls-1" x="852.66" y="0.07" width="1.44" height="19.56"/><rect class="cls-1" x="878.17" y="0.07" width="1.44" height="19.56"/><rect class="cls-1" x="878.8" y="0.07" width="1.44" height="19.56"/><rect class="cls-1" x="878.96" y="0.07" width="1.44" height="19.56"/><rect class="cls-1" x="880.84" y="0.07" width="1.44" height="19.56"/><rect class="cls-1" x="882.4" y="0.07" width="1.44" height="19.56"/><rect class="cls-1" x="885.69" y="0.07" width="1.44" height="19.56"/><rect class="cls-1" x="886" y="0.07" width="1.44" height="19.56"/><rect class="cls-1" x="888.51" y="0.07" width="1.44" height="19.56"/><rect class="cls-1" x="912.15" y="0.07" width="1.44" height="19.56"/><rect class="cls-1" x="927.8" y="0.07" width="1.44" height="19.56"/><rect class="cls-1" x="929.52" y="0.07" width="1.44" height="19.56"/><rect class="cls-1" x="934.69" y="0.07" width="1.44" height="19.56"/><rect class="cls-1" x="953.79" y="0.07" width="1.44" height="19.56"/><rect class="cls-1" x="954.57" y="0.07" width="1.44" height="19.56"/><rect class="cls-1" x="980.4" y="0.07" width="1.44" height="19.56"/></g></g></svg>