<svg xmlns="http://www.w3.org/2000/svg" viewBox="0 0 1064.41 19.61"><defs><style>.cls-1{fill:#fff;}</style></defs><g id="Layer_2" data-name="Layer 2"><g id="Layer_1-2" data-name="Layer 1"><rect width="1064.41" height="19.57"/><rect class="cls-1" x="9.63" y="0.06" width="1.44" height="19.56"/><rect class="cls-1" x="12.26" y="0.06" width="1.44" height="19.56"/><rect class="cls-1" x="12.83" y="0.06" width="1.44" height="19.56"/><rect class="cls-1" x="13.39" y="0.06" width="1.44" height="19.56"/><rect class="cls-1" x="15.46" y="0.06" width="1.44" height="19.56"/><rect class="cls-1" x="18.66" y="0.06" width="1.44" height="19.56"/><rect class="cls-1" x="23.18" y="0.06" width="1.44" height="19.56"/><rect class="cls-1" x="32.96" y="0.06" width="1.44" height="19.56"/><rect class="cls-1" x="33.53" y="0.06" width="1.44" height="19.56"/><rect class="cls-1" x="37.1" y="0.06" width="1.44" height="19.56"/><rect class="cls-1" x="38.23" y="0.06" width="1.44" height="19.56"/><rect class="cls-1" x="46.88" y="0.06" width="1.44" height="19.56"/><rect class="cls-1" x="60.24" y="0.06" width="1.44" height="19.56"/><rect class="cls-1" x="75.11" y="0.06" width="1.44" height="19.56"/><rect class="cls-1" x="113.87" y="0.06" width="1.44" height="19.56"/><rect class="cls-1" x="182.55" y="0.06" width="1.44" height="19.56"/><rect class="cls-1" x="186.69" y="0.06" width="1.44" height="19.56"/><rect class="cls-1" x="202.12" y="0.06" width="1.44" height="19.56"/><rect class="cls-1" x="242.38" y="0.06" width="1.44" height="19.56"/><rect class="cls-1" x="255.93" y="0.06" width="1.44" height="19.56"/><rect class="cls-1" x="267.41" y="0.06" width="1.44" height="19.56"/><rect class="cls-1" x="268.91" y="0.06" width="1.44" height="19.56"/><rect class="cls-1" x="286.41" y="0.06" width="1.44" height="19.56"/><rect class="cls-1" x="352.27" y="0.06" width="1.44" height="19.56"/><rect class="cls-1" x="369.76" y="0.06" width="1.44" height="19.56"/><rect class="cls-1" x="370.7" y="0.06" width="1.44" height="19.56"/><rect class="cls-1" x="373.71" y="0.06" width="1.44" height="19.56"/><rect class="cls-1" x="375.03" y="0.06" width="1.44" height="19.56"/><rect class="cls-1" x="378.98" y="0.06" width="1.44" height="19.56"/><rect class="cls-1" x="379.74" y="0.06" width="1.44" height="19.56"/><rect class="cls-1" x="380.3" y="0.06" width="1.44" height="19.56"/><rect class="cls-1" x="380.68" y="0.06" width="1.44" height="19.56"/><rect class="cls-1" x="381.81" y="0.06" width="1.44" height="19.56"/><rect class="cls-1" x="382.75" y="0.06" width="1.44" height="19.56"/><rect class="cls-1" x="383.69" y="0.06" width="1.44" height="19.56"/><rect class="cls-1" x="384.82" y="0.06" width="1.44" height="19.56"/><rect class="cls-1" x="385.95" y="0.06" width="1.44" height="19.56"/><rect class="cls-1" x="389.33" y="0.06" width="1.44" height="19.56"/><rect class="cls-1" x="389.9" y="0.06" width="1.44" height="19.56"/><rect class="cls-1" x="390.46" y="0.06" width="1.44" height="19.56"/><rect class="cls-1" x="391.59" y="0.06" width="1.44" height="19.56"/><rect class="cls-1" x="404.95" y="0.06" width="1.44" height="19.56"/><rect class="cls-1" x="411.35" y="0.06" width="1.44" height="19.56"/><rect class="cls-1" x="412.29" y="0.06" width="1.44" height="19.56"/><rect class="cls-1" x="421.13" y="0.06" width="1.44" height="19.56"/><rect class="cls-1" x="428.85" y="0.06" width="1.44" height="19.56"/><rect class="cls-1" x="433.55" y="0.06" width="1.44" height="19.56"/><rect class="cls-1" x="445.03" y="0.06" width="1.44" height="19.56"/><rect class="cls-1" x="451.99" y="0.06" width="1.44" height="19.56"/><rect class="cls-1" x="471.18" y="0.06" width="1.44" height="19.56"/><rect class="cls-1" x="476.07" y="0.06" width="1.44" height="19.56"/><rect class="cls-1" x="483.98" y="0.06" width="1.44" height="19.56"/><rect class="cls-1" x="491.31" y="0.06" width="1.44" height="19.56"/><rect class="cls-1" x="502.42" y="0.06" width="1.44" height="19.56"/><rect class="cls-1" x="506.55" y="0.06" width="1.44" height="19.56"/><rect class="cls-1" x="603.46" y="0.06" width="1.44" height="19.56"/><rect class="cls-1" x="613.05" y="0.06" width="1.44" height="19.56"/><rect class="cls-1" x="696.22" y="0.06" width="1.44" height="19.56"/><rect class="cls-1" x="705.06" y="0.06" width="1.44" height="19.56"/><rect class="cls-1" x="720.3" y="0.06" width="1.44" height="19.56"/><rect class="cls-1" x="812.88" y="0.06" width="1.44" height="19.56"/><rect class="cls-1" x="877.04" y="0.06" width="1.44" height="19.56"/><rect class="cls-1" x="878.92" y="0.06" width="1.44" height="19.56"/><rect class="cls-1" x="909.21" y="0.06" width="1.44" height="19.56"/><rect class="cls-1" x="912.41" y="0.06" width="1.44" height="19.56"/><rect class="cls-1" x="932.54" y="0.06" width="1.44" height="19.56"/><rect class="cls-1" x="955.31" y="0.06" width="1.44" height="19.56"/><rect class="cls-1" x="956.63" y="0.06" width="1.44" height="19.56"/><rect class="cls-1" x="957.95" y="0.06" width="1.44" height="19.56"/><rect class="cls-1" x="958.89" y="0.06" width="1.44" height="19.56"/><rect class="cls-1" x="971.49" y="0.06" width="1.44" height="19.56"/><rect class="cls-1" x="1014.02" y="0.06" width="1.44" height="19.56"/><rect class="cls-1" x="1019.1" y="0.06" width="1.44" height="19.56"/><rect class="cls-1" x="1020.79" y="0.06" width="1.44" height="19.56"/><rect class="cls-1" x="1023.61" y="0.06" width="1.44" height="19.56"/></g></g></svg>