<svg xmlns="http://www.w3.org/2000/svg" viewBox="0 0 1064.41 19.6"><defs><style>.cls-1{fill:#fff;}</style></defs><g id="Layer_2" data-name="Layer 2"><g id="Layer_1-2" data-name="Layer 1"><rect width="1064.41" height="19.57"/><rect class="cls-1" x="5.22" y="0.05" width="1.44" height="19.56"/><rect class="cls-1" x="18.75" y="0.05" width="1.44" height="19.56"/><rect class="cls-1" x="20.6" y="0.05" width="1.44" height="19.56"/><rect class="cls-1" x="34.54" y="0.05" width="1.44" height="19.56"/><rect class="cls-1" x="41.51" y="0.05" width="1.44" height="19.56"/><rect class="cls-1" x="48.06" y="0.05" width="1.44" height="19.56"/><rect class="cls-1" x="66.51" y="0.05" width="1.44" height="19.56"/><rect class="cls-1" x="80.04" y="0.05" width="1.44" height="19.56"/><rect class="cls-1" x="94.59" y="0.05" width="1.44" height="19.56"/><rect class="cls-1" x="99.51" y="0.05" width="1.44" height="19.56"/><rect class="cls-1" x="100.54" y="0.05" width="1.44" height="19.56"/><rect class="cls-1" x="108.32" y="0.05" width="1.44" height="19.56"/><rect class="cls-1" x="112.42" y="0.05" width="1.44" height="19.56"/><rect class="cls-1" x="117.34" y="0.05" width="1.44" height="19.56"/><rect class="cls-1" x="120.62" y="0.05" width="1.44" height="19.56"/><rect class="cls-1" x="121.44" y="0.05" width="1.44" height="19.56"/><rect class="cls-1" x="125.95" y="0.05" width="1.44" height="19.56"/><rect class="cls-1" x="127.39" y="0.05" width="1.44" height="19.56"/><rect class="cls-1" x="129.03" y="0.05" width="1.44" height="19.56"/><rect class="cls-1" x="131.08" y="0.05" width="1.44" height="19.56"/><rect class="cls-1" x="162.85" y="0.05" width="1.44" height="19.56"/><rect class="cls-1" x="171.05" y="0.05" width="1.44" height="19.56"/><rect class="cls-1" x="171.25" y="0.05" width="1.44" height="19.56"/><rect class="cls-1" x="171.66" y="0.05" width="1.44" height="19.56"/><rect class="cls-1" x="172.07" y="0.05" width="1.44" height="19.56"/><rect class="cls-1" x="172.89" y="0.05" width="1.44" height="19.56"/><rect class="cls-1" x="173.71" y="0.05" width="1.44" height="19.56"/><rect class="cls-1" x="174.32" y="0.05" width="1.44" height="19.56"/><rect class="cls-1" x="175.35" y="0.05" width="1.44" height="19.56"/><rect class="cls-1" x="177.4" y="0.05" width="1.44" height="19.56"/><rect class="cls-1" x="178.01" y="0.05" width="1.44" height="19.56"/><rect class="cls-1" x="182.52" y="0.05" width="1.44" height="19.56"/><rect class="cls-1" x="182.93" y="0.05" width="1.44" height="19.56"/><rect class="cls-1" x="184.57" y="0.05" width="1.44" height="19.56"/><rect class="cls-1" x="185.8" y="0.05" width="1.44" height="19.56"/><rect class="cls-1" x="186.83" y="0.05" width="1.44" height="19.56"/><rect class="cls-1" x="188.06" y="0.05" width="1.44" height="19.56"/><rect class="cls-1" x="237.46" y="0.05" width="1.44" height="19.56"/><rect class="cls-1" x="243.2" y="0.05" width="1.44" height="19.56"/><rect class="cls-1" x="257.95" y="0.05" width="1.44" height="19.56"/><rect class="cls-1" x="258.57" y="0.05" width="1.44" height="19.56"/><rect class="cls-1" x="259.18" y="0.05" width="1.44" height="19.56"/><rect class="cls-1" x="259.8" y="0.05" width="1.44" height="19.56"/><rect class="cls-1" x="263.49" y="0.05" width="1.44" height="19.56"/><rect class="cls-1" x="264.1" y="0.05" width="1.44" height="19.56"/><rect class="cls-1" x="265.33" y="0.05" width="1.44" height="19.56"/><rect class="cls-1" x="266.77" y="0.05" width="1.44" height="19.56"/><rect class="cls-1" x="268.41" y="0.05" width="1.44" height="19.56"/><rect class="cls-1" x="275.58" y="0.05" width="1.44" height="19.56"/><rect class="cls-1" x="283.37" y="0.05" width="1.44" height="19.56"/><rect class="cls-1" x="303.05" y="0.05" width="1.44" height="19.56"/><rect class="cls-1" x="306.94" y="0.05" width="1.44" height="19.56"/><rect class="cls-1" x="307.97" y="0.05" width="1.44" height="19.56"/><rect class="cls-1" x="308.58" y="0.05" width="1.44" height="19.56"/><rect class="cls-1" x="315.96" y="0.05" width="1.44" height="19.56"/><rect class="cls-1" x="325.59" y="0.05" width="1.44" height="19.56"/><rect class="cls-1" x="326.41" y="0.05" width="1.44" height="19.56"/><rect class="cls-1" x="327.64" y="0.05" width="1.44" height="19.56"/><rect class="cls-1" x="335.64" y="0.05" width="1.44" height="19.56"/><rect class="cls-1" x="339.53" y="0.05" width="1.44" height="19.56"/><rect class="cls-1" x="347.93" y="0.05" width="1.44" height="19.56"/><rect class="cls-1" x="351.42" y="0.05" width="1.44" height="19.56"/><rect class="cls-1" x="352.03" y="0.05" width="1.44" height="19.56"/><rect class="cls-1" x="352.24" y="0.05" width="1.44" height="19.56"/><rect class="cls-1" x="352.44" y="0.05" width="1.44" height="19.56"/><rect class="cls-1" x="360.03" y="0.05" width="1.44" height="19.56"/><rect class="cls-1" x="363.1" y="0.05" width="1.44" height="19.56"/><rect class="cls-1" x="365.97" y="0.05" width="1.44" height="19.56"/><rect class="cls-1" x="367" y="0.05" width="1.44" height="19.56"/><rect class="cls-1" x="368.43" y="0.05" width="1.44" height="19.56"/><rect class="cls-1" x="369.05" y="0.05" width="1.44" height="19.56"/><rect class="cls-1" x="369.66" y="0.05" width="1.44" height="19.56"/><rect class="cls-1" x="370.69" y="0.05" width="1.44" height="19.56"/><rect class="cls-1" x="373.35" y="0.05" width="1.44" height="19.56"/><rect class="cls-1" x="374.79" y="0.05" width="1.44" height="19.56"/><rect class="cls-1" x="376.63" y="0.05" width="1.44" height="19.56"/><rect class="cls-1" x="401.84" y="0.05" width="1.44" height="19.56"/><rect class="cls-1" x="402.87" y="0.05" width="1.44" height="19.56"/><rect class="cls-1" x="409.63" y="0.05" width="1.44" height="19.56"/><rect class="cls-1" x="411.89" y="0.05" width="1.44" height="19.56"/><rect class="cls-1" x="412.91" y="0.05" width="1.44" height="19.56"/><rect class="cls-1" x="413.73" y="0.05" width="1.44" height="19.56"/><rect class="cls-1" x="415.58" y="0.05" width="1.44" height="19.56"/><rect class="cls-1" x="418.85" y="0.05" width="1.44" height="19.56"/><rect class="cls-1" x="420.08" y="0.05" width="1.44" height="19.56"/><rect class="cls-1" x="420.9" y="0.05" width="1.44" height="19.56"/><rect class="cls-1" x="422.54" y="0.05" width="1.44" height="19.56"/><rect class="cls-1" x="426.85" y="0.05" width="1.44" height="19.56"/><rect class="cls-1" x="432.18" y="0.05" width="1.44" height="19.56"/><rect class="cls-1" x="435.46" y="0.05" width="1.44" height="19.56"/><rect class="cls-1" x="436.28" y="0.05" width="1.44" height="19.56"/><rect class="cls-1" x="470.51" y="0.05" width="1.44" height="19.56"/><rect class="cls-1" x="476.04" y="0.05" width="1.44" height="19.56"/><rect class="cls-1" x="480.14" y="0.05" width="1.44" height="19.56"/><rect class="cls-1" x="530.97" y="0.05" width="1.44" height="19.56"/><rect class="cls-1" x="534.25" y="0.05" width="1.44" height="19.56"/><rect class="cls-1" x="542.45" y="0.05" width="1.44" height="19.56"/><rect class="cls-1" x="545.32" y="0.05" width="1.44" height="19.56"/><rect class="cls-1" x="557.82" y="0.05" width="1.44" height="19.56"/><rect class="cls-1" x="571.35" y="0.05" width="1.44" height="19.56"/><rect class="cls-1" x="588.16" y="0.05" width="1.44" height="19.56"/><rect class="cls-1" x="588.77" y="0.05" width="1.44" height="19.56"/><rect class="cls-1" x="594.51" y="0.05" width="1.44" height="19.56"/><rect class="cls-1" x="595.33" y="0.05" width="1.44" height="19.56"/><rect class="cls-1" x="595.74" y="0.05" width="1.44" height="19.56"/><rect class="cls-1" x="596.56" y="0.05" width="1.44" height="19.56"/><rect class="cls-1" x="596.97" y="0.05" width="1.44" height="19.56"/><rect class="cls-1" x="597.59" y="0.05" width="1.44" height="19.56"/><rect class="cls-1" x="598.41" y="0.05" width="1.44" height="19.56"/><rect class="cls-1" x="599.43" y="0.05" width="1.44" height="19.56"/><rect class="cls-1" x="612.96" y="0.05" width="1.44" height="19.56"/><rect class="cls-1" x="621.36" y="0.05" width="1.44" height="19.56"/><rect class="cls-1" x="647.81" y="0.05" width="1.44" height="19.56"/><rect class="cls-1" x="682.65" y="0.05" width="1.44" height="19.56"/><rect class="cls-1" x="694.13" y="0.05" width="1.44" height="19.56"/><rect class="cls-1" x="712.37" y="0.05" width="1.44" height="19.56"/><rect class="cls-1" x="721.8" y="0.05" width="1.44" height="19.56"/><rect class="cls-1" x="798.05" y="0.05" width="1.44" height="19.56"/><rect class="cls-1" x="807.48" y="0.05" width="1.44" height="19.56"/><rect class="cls-1" x="861.59" y="0.05" width="1.44" height="19.56"/><rect class="cls-1" x="865.48" y="0.05" width="1.44" height="19.56"/><rect class="cls-1" x="876.55" y="0.05" width="1.44" height="19.56"/><rect class="cls-1" x="877.17" y="0.05" width="1.44" height="19.56"/><rect class="cls-1" x="877.99" y="0.05" width="1.44" height="19.56"/><rect class="cls-1" x="878.81" y="0.05" width="1.44" height="19.56"/><rect class="cls-1" x="880.04" y="0.05" width="1.44" height="19.56"/><rect class="cls-1" x="883.73" y="0.05" width="1.44" height="19.56"/><rect class="cls-1" x="886.39" y="0.05" width="1.44" height="19.56"/><rect class="cls-1" x="894.59" y="0.05" width="1.44" height="19.56"/><rect class="cls-1" x="899.1" y="0.05" width="1.44" height="19.56"/><rect class="cls-1" x="907.91" y="0.05" width="1.44" height="19.56"/><rect class="cls-1" x="919.8" y="0.05" width="1.44" height="19.56"/><rect class="cls-1" x="931.48" y="0.05" width="1.44" height="19.56"/><rect class="cls-1" x="932.3" y="0.05" width="1.44" height="19.56"/><rect class="cls-1" x="936.61" y="0.05" width="1.44" height="19.56"/><rect class="cls-1" x="943.78" y="0.05" width="1.44" height="19.56"/><rect class="cls-1" x="975.76" y="0.05" width="1.44" height="19.56"/><rect class="cls-1" x="995.43" y="0.05" width="1.44" height="19.56"/><rect class="cls-1" x="996.66" y="0.05" width="1.44" height="19.56"/><rect class="cls-1" x="1005.89" y="0.05" width="1.44" height="19.56"/><rect class="cls-1" x="1029.46" y="0.05" width="1.44" height="19.56"/><rect class="cls-1" x="1033.56" y="0.05" width="1.44" height="19.56"/><rect class="cls-1" x="1035.81" y="0.05" width="1.44" height="19.56"/></g></g></svg>