<svg xmlns="http://www.w3.org/2000/svg" viewBox="0 0 1064.41 19.59"><defs><style>.cls-1{fill:#fff;}</style></defs><g id="Layer_2" data-name="Layer 2"><g id="Layer_1-2" data-name="Layer 1"><rect width="1064.41" height="19.57"/><rect class="cls-1" x="11.62" y="0.03" width="1.44" height="19.56"/><rect class="cls-1" x="11.77" y="0.03" width="1.44" height="19.56"/><rect class="cls-1" x="17.86" y="0.03" width="1.44" height="19.56"/><rect class="cls-1" x="19.43" y="0.03" width="1.44" height="19.56"/><rect class="cls-1" x="19.89" y="0.03" width="1.44" height="19.56"/><rect class="cls-1" x="24.89" y="0.03" width="1.44" height="19.56"/><rect class="cls-1" x="25.99" y="0.03" width="1.44" height="19.56"/><rect class="cls-1" x="30.67" y="0.03" width="1.44" height="19.56"/><rect class="cls-1" x="31.76" y="0.03" width="1.44" height="19.56"/><rect class="cls-1" x="38.95" y="0.03" width="1.44" height="19.56"/><rect class="cls-1" x="42.07" y="0.03" width="1.44" height="19.56"/><rect class="cls-1" x="47.53" y="0.03" width="1.44" height="19.56"/><rect class="cls-1" x="81.74" y="0.03" width="1.44" height="19.56"/><rect class="cls-1" x="83.76" y="0.03" width="1.44" height="19.56"/><rect class="cls-1" x="84.55" y="0.03" width="1.44" height="19.56"/><rect class="cls-1" x="85.64" y="0.03" width="1.44" height="19.56"/><rect class="cls-1" x="88.29" y="0.03" width="1.44" height="19.56"/><rect class="cls-1" x="89.23" y="0.03" width="1.44" height="19.56"/><rect class="cls-1" x="89.39" y="0.03" width="1.44" height="19.56"/><rect class="cls-1" x="90.32" y="0.03" width="1.44" height="19.56"/><rect class="cls-1" x="131.86" y="0.03" width="1.44" height="19.56"/><rect class="cls-1" x="133.89" y="0.03" width="1.44" height="19.56"/><rect class="cls-1" x="136.08" y="0.03" width="1.44" height="19.56"/><rect class="cls-1" x="139.36" y="0.03" width="1.44" height="19.56"/><rect class="cls-1" x="139.98" y="0.03" width="1.44" height="19.56"/><rect class="cls-1" x="141.55" y="0.03" width="1.44" height="19.56"/><rect class="cls-1" x="142.79" y="0.03" width="1.44" height="19.56"/><rect class="cls-1" x="143.26" y="0.03" width="1.44" height="19.56"/><rect class="cls-1" x="148.1" y="0.03" width="1.44" height="19.56"/><rect class="cls-1" x="149.82" y="0.03" width="1.44" height="19.56"/><rect class="cls-1" x="150.13" y="0.03" width="1.44" height="19.56"/><rect class="cls-1" x="151.7" y="0.03" width="1.44" height="19.56"/><rect class="cls-1" x="156.07" y="0.03" width="1.44" height="19.56"/><rect class="cls-1" x="156.54" y="0.03" width="1.44" height="19.56"/><rect class="cls-1" x="158.1" y="0.03" width="1.44" height="19.56"/><rect class="cls-1" x="163.25" y="0.03" width="1.44" height="19.56"/><rect class="cls-1" x="163.57" y="0.03" width="1.44" height="19.56"/><rect class="cls-1" x="169.19" y="0.03" width="1.44" height="19.56"/><rect class="cls-1" x="181.52" y="0.03" width="1.44" height="19.56"/><rect class="cls-1" x="181.68" y="0.03" width="1.44" height="19.56"/><rect class="cls-1" x="183.87" y="0.03" width="1.44" height="19.56"/><rect class="cls-1" x="184.65" y="0.03" width="1.44" height="19.56"/><rect class="cls-1" x="186.21" y="0.03" width="1.44" height="19.56"/><rect class="cls-1" x="189.49" y="0.03" width="1.44" height="19.56"/><rect class="cls-1" x="208.38" y="0.03" width="1.44" height="19.56"/><rect class="cls-1" x="209.95" y="0.03" width="1.44" height="19.56"/><rect class="cls-1" x="218.53" y="0.03" width="1.44" height="19.56"/><rect class="cls-1" x="226.5" y="0.03" width="1.44" height="19.56"/><rect class="cls-1" x="226.97" y="0.03" width="1.44" height="19.56"/><rect class="cls-1" x="238.84" y="0.03" width="1.44" height="19.56"/><rect class="cls-1" x="246.96" y="0.03" width="1.44" height="19.56"/><rect class="cls-1" x="248.21" y="0.03" width="1.44" height="19.56"/><rect class="cls-1" x="263.35" y="0.03" width="1.44" height="19.56"/><rect class="cls-1" x="263.67" y="0.03" width="1.44" height="19.56"/><rect class="cls-1" x="265.38" y="0.03" width="1.44" height="19.56"/><rect class="cls-1" x="291.46" y="0.03" width="1.44" height="19.56"/><rect class="cls-1" x="323.01" y="0.03" width="1.44" height="19.56"/><rect class="cls-1" x="327.69" y="0.03" width="1.44" height="19.56"/><rect class="cls-1" x="402.96" y="0.03" width="1.44" height="19.56"/><rect class="cls-1" x="420.45" y="0.03" width="1.44" height="19.56"/><rect class="cls-1" x="421.86" y="0.03" width="1.44" height="19.56"/><rect class="cls-1" x="427.64" y="0.03" width="1.44" height="19.56"/><rect class="cls-1" x="431.7" y="0.03" width="1.44" height="19.56"/><rect class="cls-1" x="448.56" y="0.03" width="1.44" height="19.56"/><rect class="cls-1" x="452" y="0.03" width="1.44" height="19.56"/><rect class="cls-1" x="470.43" y="0.03" width="1.44" height="19.56"/><rect class="cls-1" x="476.52" y="0.03" width="1.44" height="19.56"/><rect class="cls-1" x="487.6" y="0.03" width="1.44" height="19.56"/><rect class="cls-1" x="488.7" y="0.03" width="1.44" height="19.56"/><rect class="cls-1" x="498.69" y="0.03" width="1.44" height="19.56"/><rect class="cls-1" x="499" y="0.03" width="1.44" height="19.56"/><rect class="cls-1" x="502.6" y="0.03" width="1.44" height="19.56"/><rect class="cls-1" x="513.21" y="0.03" width="1.44" height="19.56"/><rect class="cls-1" x="525.24" y="0.03" width="1.44" height="19.56"/><rect class="cls-1" x="526.65" y="0.03" width="1.44" height="19.56"/><rect class="cls-1" x="546.79" y="0.03" width="1.44" height="19.56"/><rect class="cls-1" x="551.32" y="0.03" width="1.44" height="19.56"/><rect class="cls-1" x="553.82" y="0.03" width="1.44" height="19.56"/><rect class="cls-1" x="570.21" y="0.03" width="1.44" height="19.56"/><rect class="cls-1" x="573.49" y="0.03" width="1.44" height="19.56"/><rect class="cls-1" x="576.46" y="0.03" width="1.44" height="19.56"/><rect class="cls-1" x="587.7" y="0.03" width="1.44" height="19.56"/><rect class="cls-1" x="591.77" y="0.03" width="1.44" height="19.56"/><rect class="cls-1" x="592.08" y="0.03" width="1.44" height="19.56"/><rect class="cls-1" x="594.26" y="0.03" width="1.44" height="19.56"/><rect class="cls-1" x="597.39" y="0.03" width="1.44" height="19.56"/><rect class="cls-1" x="598.17" y="0.03" width="1.44" height="19.56"/><rect class="cls-1" x="598.32" y="0.03" width="1.44" height="19.56"/><rect class="cls-1" x="599.1" y="0.03" width="1.44" height="19.56"/><rect class="cls-1" x="600.98" y="0.03" width="1.44" height="19.56"/><rect class="cls-1" x="602.85" y="0.03" width="1.44" height="19.56"/><rect class="cls-1" x="613.78" y="0.03" width="1.44" height="19.56"/><rect class="cls-1" x="624.09" y="0.03" width="1.44" height="19.56"/><rect class="cls-1" x="677.03" y="0.03" width="1.44" height="19.56"/><rect class="cls-1" x="719.82" y="0.03" width="1.44" height="19.56"/><rect class="cls-1" x="746.37" y="0.03" width="1.44" height="19.56"/><rect class="cls-1" x="802.9" y="0.03" width="1.44" height="19.56"/><rect class="cls-1" x="813.83" y="0.03" width="1.44" height="19.56"/><rect class="cls-1" x="847.09" y="0.03" width="1.44" height="19.56"/><rect class="cls-1" x="870.36" y="0.03" width="1.44" height="19.56"/><rect class="cls-1" x="931.11" y="0.03" width="1.44" height="19.56"/><rect class="cls-1" x="944.69" y="0.03" width="1.44" height="19.56"/><rect class="cls-1" x="977.96" y="0.03" width="1.44" height="19.56"/><rect class="cls-1" x="1002.79" y="0.03" width="1.44" height="19.56"/><rect class="cls-1" x="1024.96" y="0.03" width="1.44" height="19.56"/></g></g></svg>