<svg xmlns="http://www.w3.org/2000/svg" viewBox="0 0 1064.41 19.58"><defs><style>.cls-1{fill:#fff;}</style></defs><g id="Layer_2" data-name="Layer 2"><g id="Layer_1-2" data-name="Layer 1"><rect width="1064.41" height="19.57"/><rect class="cls-1" x="9.29" y="0.02" width="1.44" height="19.56"/><rect class="cls-1" x="31.02" y="0.02" width="1.44" height="19.56"/><rect class="cls-1" x="35.17" y="0.02" width="1.44" height="19.56"/><rect class="cls-1" x="35.92" y="0.02" width="1.44" height="19.56"/><rect class="cls-1" x="38.9" y="0.02" width="1.44" height="19.56"/><rect class="cls-1" x="40.28" y="0.02" width="1.44" height="19.56"/><rect class="cls-1" x="43.79" y="0.02" width="1.44" height="19.56"/><rect class="cls-1" x="50.19" y="0.02" width="1.44" height="19.56"/><rect class="cls-1" x="94.49" y="0.02" width="1.44" height="19.56"/><rect class="cls-1" x="99.07" y="0.02" width="1.44" height="19.56"/><rect class="cls-1" x="99.39" y="0.02" width="1.44" height="19.56"/><rect class="cls-1" x="101.73" y="0.02" width="1.44" height="19.56"/><rect class="cls-1" x="101.94" y="0.02" width="1.44" height="19.56"/><rect class="cls-1" x="103.22" y="0.02" width="1.44" height="19.56"/><rect class="cls-1" x="104.39" y="0.02" width="1.44" height="19.56"/><rect class="cls-1" x="104.82" y="0.02" width="1.44" height="19.56"/><rect class="cls-1" x="106.63" y="0.02" width="1.44" height="19.56"/><rect class="cls-1" x="109.72" y="0.02" width="1.44" height="19.56"/><rect class="cls-1" x="110.78" y="0.02" width="1.44" height="19.56"/><rect class="cls-1" x="111.42" y="0.02" width="1.44" height="19.56"/><rect class="cls-1" x="111.85" y="0.02" width="1.44" height="19.56"/><rect class="cls-1" x="112.16" y="0.02" width="1.44" height="19.56"/><rect class="cls-1" x="112.38" y="0.02" width="1.44" height="19.56"/><rect class="cls-1" x="113.97" y="0.02" width="1.44" height="19.56"/><rect class="cls-1" x="116.42" y="0.02" width="1.44" height="19.56"/><rect class="cls-1" x="117.06" y="0.02" width="1.44" height="19.56"/><rect class="cls-1" x="117.28" y="0.02" width="1.44" height="19.56"/><rect class="cls-1" x="117.49" y="0.02" width="1.44" height="19.56"/><rect class="cls-1" x="120.9" y="0.02" width="1.44" height="19.56"/><rect class="cls-1" x="122.5" y="0.02" width="1.44" height="19.56"/><rect class="cls-1" x="123.24" y="0.02" width="1.44" height="19.56"/><rect class="cls-1" x="123.45" y="0.02" width="1.44" height="19.56"/><rect class="cls-1" x="142.62" y="0.02" width="1.44" height="19.56"/><rect class="cls-1" x="150.29" y="0.02" width="1.44" height="19.56"/><rect class="cls-1" x="157.96" y="0.02" width="1.44" height="19.56"/><rect class="cls-1" x="161.58" y="0.02" width="1.44" height="19.56"/><rect class="cls-1" x="164.13" y="0.02" width="1.44" height="19.56"/><rect class="cls-1" x="167.86" y="0.02" width="1.44" height="19.56"/><rect class="cls-1" x="177.45" y="0.02" width="1.44" height="19.56"/><rect class="cls-1" x="178.62" y="0.02" width="1.44" height="19.56"/><rect class="cls-1" x="180.85" y="0.02" width="1.44" height="19.56"/><rect class="cls-1" x="187.88" y="0.02" width="1.44" height="19.56"/><rect class="cls-1" x="188.84" y="0.02" width="1.44" height="19.56"/><rect class="cls-1" x="202.47" y="0.02" width="1.44" height="19.56"/><rect class="cls-1" x="203.32" y="0.02" width="1.44" height="19.56"/><rect class="cls-1" x="208.97" y="0.02" width="1.44" height="19.56"/><rect class="cls-1" x="209.5" y="0.02" width="1.44" height="19.56"/><rect class="cls-1" x="212.27" y="0.02" width="1.44" height="19.56"/><rect class="cls-1" x="212.7" y="0.02" width="1.44" height="19.56"/><rect class="cls-1" x="214.4" y="0.02" width="1.44" height="19.56"/><rect class="cls-1" x="217.06" y="0.02" width="1.44" height="19.56"/><rect class="cls-1" x="221.96" y="0.02" width="1.44" height="19.56"/><rect class="cls-1" x="233.67" y="0.02" width="1.44" height="19.56"/><rect class="cls-1" x="235.06" y="0.02" width="1.44" height="19.56"/><rect class="cls-1" x="248.58" y="0.02" width="1.44" height="19.56"/><rect class="cls-1" x="257.95" y="0.02" width="1.44" height="19.56"/><rect class="cls-1" x="258.27" y="0.02" width="1.44" height="19.56"/><rect class="cls-1" x="292.99" y="0.02" width="1.44" height="19.56"/><rect class="cls-1" x="293.2" y="0.02" width="1.44" height="19.56"/><rect class="cls-1" x="293.95" y="0.02" width="1.44" height="19.56"/><rect class="cls-1" x="294.8" y="0.02" width="1.44" height="19.56"/><rect class="cls-1" x="296.08" y="0.02" width="1.44" height="19.56"/><rect class="cls-1" x="296.51" y="0.02" width="1.44" height="19.56"/><rect class="cls-1" x="297.14" y="0.02" width="1.44" height="19.56"/><rect class="cls-1" x="301.62" y="0.02" width="1.44" height="19.56"/><rect class="cls-1" x="302.15" y="0.02" width="1.44" height="19.56"/><rect class="cls-1" x="303" y="0.02" width="1.44" height="19.56"/><rect class="cls-1" x="303.85" y="0.02" width="1.44" height="19.56"/><rect class="cls-1" x="303.96" y="0.02" width="1.44" height="19.56"/><rect class="cls-1" x="308.97" y="0.02" width="1.44" height="19.56"/><rect class="cls-1" x="339.96" y="0.02" width="1.44" height="19.56"/><rect class="cls-1" x="340.91" y="0.02" width="1.44" height="19.56"/><rect class="cls-1" x="350.18" y="0.02" width="1.44" height="19.56"/><rect class="cls-1" x="351.35" y="0.02" width="1.44" height="19.56"/><rect class="cls-1" x="351.56" y="0.02" width="1.44" height="19.56"/><rect class="cls-1" x="370.52" y="0.02" width="1.44" height="19.56"/><rect class="cls-1" x="372.33" y="0.02" width="1.44" height="19.56"/><rect class="cls-1" x="388.94" y="0.02" width="1.44" height="19.56"/><rect class="cls-1" x="392.03" y="0.02" width="1.44" height="19.56"/><rect class="cls-1" x="393.2" y="0.02" width="1.44" height="19.56"/><rect class="cls-1" x="393.63" y="0.02" width="1.44" height="19.56"/><rect class="cls-1" x="393.73" y="0.02" width="1.44" height="19.56"/><rect class="cls-1" x="394.16" y="0.02" width="1.44" height="19.56"/><rect class="cls-1" x="394.59" y="0.02" width="1.44" height="19.56"/><rect class="cls-1" x="452.95" y="0.02" width="1.44" height="19.56"/><rect class="cls-1" x="457.95" y="0.02" width="1.44" height="19.56"/><rect class="cls-1" x="471.8" y="0.02" width="1.44" height="19.56"/><rect class="cls-1" x="474.78" y="0.02" width="1.44" height="19.56"/><rect class="cls-1" x="481.7" y="0.02" width="1.44" height="19.56"/><rect class="cls-1" x="481.91" y="0.02" width="1.44" height="19.56"/><rect class="cls-1" x="604.91" y="0.02" width="1.44" height="19.56"/><rect class="cls-1" x="605.13" y="0.02" width="1.44" height="19.56"/><rect class="cls-1" x="610.66" y="0.02" width="1.44" height="19.56"/><rect class="cls-1" x="724.61" y="0.02" width="1.44" height="19.56"/><rect class="cls-1" x="747.4" y="0.02" width="1.44" height="19.56"/><rect class="cls-1" x="760.29" y="0.02" width="1.44" height="19.56"/><rect class="cls-1" x="774.24" y="0.02" width="1.44" height="19.56"/><rect class="cls-1" x="810.55" y="0.02" width="1.44" height="19.56"/><rect class="cls-1" x="810.87" y="0.02" width="1.44" height="19.56"/><rect class="cls-1" x="811.72" y="0.02" width="1.44" height="19.56"/><rect class="cls-1" x="815.45" y="0.02" width="1.44" height="19.56"/><rect class="cls-1" x="817.79" y="0.02" width="1.44" height="19.56"/><rect class="cls-1" x="828.23" y="0.02" width="1.44" height="19.56"/><rect class="cls-1" x="830.36" y="0.02" width="1.44" height="19.56"/><rect class="cls-1" x="831" y="0.02" width="1.44" height="19.56"/><rect class="cls-1" x="832.39" y="0.02" width="1.44" height="19.56"/><rect class="cls-1" x="837.92" y="0.02" width="1.44" height="19.56"/><rect class="cls-1" x="839.95" y="0.02" width="1.44" height="19.56"/><rect class="cls-1" x="840.59" y="0.02" width="1.44" height="19.56"/><rect class="cls-1" x="845.16" y="0.02" width="1.44" height="19.56"/><rect class="cls-1" x="845.7" y="0.02" width="1.44" height="19.56"/><rect class="cls-1" x="847.51" y="0.02" width="1.44" height="19.56"/><rect class="cls-1" x="847.72" y="0.02" width="1.44" height="19.56"/><rect class="cls-1" x="848.04" y="0.02" width="1.44" height="19.56"/><rect class="cls-1" x="849.74" y="0.02" width="1.44" height="19.56"/><rect class="cls-1" x="863.69" y="0.02" width="1.44" height="19.56"/><rect class="cls-1" x="875.73" y="0.02" width="1.44" height="19.56"/><rect class="cls-1" x="881.59" y="0.02" width="1.44" height="19.56"/><rect class="cls-1" x="881.69" y="0.02" width="1.44" height="19.56"/><rect class="cls-1" x="882.01" y="0.02" width="1.44" height="19.56"/><rect class="cls-1" x="882.54" y="0.02" width="1.44" height="19.56"/><rect class="cls-1" x="883.18" y="0.02" width="1.44" height="19.56"/><rect class="cls-1" x="883.4" y="0.02" width="1.44" height="19.56"/><rect class="cls-1" x="883.82" y="0.02" width="1.44" height="19.56"/><rect class="cls-1" x="884.35" y="0.02" width="1.44" height="19.56"/><rect class="cls-1" x="885.21" y="0.02" width="1.44" height="19.56"/><rect class="cls-1" x="885.42" y="0.02" width="1.44" height="19.56"/><rect class="cls-1" x="886.48" y="0.02" width="1.44" height="19.56"/><rect class="cls-1" x="893.3" y="0.02" width="1.44" height="19.56"/><rect class="cls-1" x="895.32" y="0.02" width="1.44" height="19.56"/><rect class="cls-1" x="898.73" y="0.02" width="1.44" height="19.56"/><rect class="cls-1" x="915.77" y="0.02" width="1.44" height="19.56"/><rect class="cls-1" x="926.63" y="0.02" width="1.44" height="19.56"/><rect class="cls-1" x="927.91" y="0.02" width="1.44" height="19.56"/><rect class="cls-1" x="931.85" y="0.02" width="1.44" height="19.56"/><rect class="cls-1" x="935.04" y="0.02" width="1.44" height="19.56"/><rect class="cls-1" x="935.26" y="0.02" width="1.44" height="19.56"/><rect class="cls-1" x="936.11" y="0.02" width="1.44" height="19.56"/><rect class="cls-1" x="938.88" y="0.02" width="1.44" height="19.56"/><rect class="cls-1" x="939.2" y="0.02" width="1.44" height="19.56"/><rect class="cls-1" x="942.07" y="0.02" width="1.44" height="19.56"/><rect class="cls-1" x="942.29" y="0.02" width="1.44" height="19.56"/><rect class="cls-1" x="943.03" y="0.02" width="1.44" height="19.56"/><rect class="cls-1" x="946.23" y="0.02" width="1.44" height="19.56"/><rect class="cls-1" x="960.92" y="0.02" width="1.44" height="19.56"/><rect class="cls-1" x="988.19" y="0.02" width="1.44" height="19.56"/><rect class="cls-1" x="996.6" y="0.02" width="1.44" height="19.56"/><rect class="cls-1" x="998.52" y="0.02" width="1.44" height="19.56"/><rect class="cls-1" x="1000.97" y="0.02" width="1.44" height="19.56"/><rect class="cls-1" x="1001.82" y="0.02" width="1.44" height="19.56"/><rect class="cls-1" x="1005.76" y="0.02" width="1.44" height="19.56"/><rect class="cls-1" x="1006.61" y="0.02" width="1.44" height="19.56"/><rect class="cls-1" x="1008.95" y="0.02" width="1.44" height="19.56"/></g></g></svg>