<svg xmlns="http://www.w3.org/2000/svg" viewBox="0 0 1064.41 19.57"><defs><style>.cls-1{fill:#fff;}</style></defs><g id="Layer_2" data-name="Layer 2"><g id="Layer_1-2" data-name="Layer 1"><rect width="1064.41" height="19.57"/><rect class="cls-1" x="13.34" y="0.01" width="1.44" height="19.56"/><rect class="cls-1" x="14.26" y="0.01" width="1.44" height="19.56"/><rect class="cls-1" x="14.88" y="0.01" width="1.44" height="19.56"/><rect class="cls-1" x="32.34" y="0.01" width="1.44" height="19.56"/><rect class="cls-1" x="33.88" y="0.01" width="1.44" height="19.56"/><rect class="cls-1" x="37.43" y="0.01" width="1.44" height="19.56"/><rect class="cls-1" x="38.67" y="0.01" width="1.44" height="19.56"/><rect class="cls-1" x="75.59" y="0.01" width="1.44" height="19.56"/><rect class="cls-1" x="86.09" y="0.01" width="1.44" height="19.56"/><rect class="cls-1" x="98.91" y="0.01" width="1.44" height="19.56"/><rect class="cls-1" x="99.68" y="0.01" width="1.44" height="19.56"/><rect class="cls-1" x="105.71" y="0.01" width="1.44" height="19.56"/><rect class="cls-1" x="108.02" y="0.01" width="1.44" height="19.56"/><rect class="cls-1" x="141.7" y="0.01" width="1.44" height="19.56"/><rect class="cls-1" x="142.93" y="0.01" width="1.44" height="19.56"/><rect class="cls-1" x="217.23" y="0.01" width="1.44" height="19.56"/><rect class="cls-1" x="259.09" y="0.01" width="1.44" height="19.56"/><rect class="cls-1" x="291.68" y="0.01" width="1.44" height="19.56"/><rect class="cls-1" x="291.99" y="0.01" width="1.44" height="19.56"/><rect class="cls-1" x="293.53" y="0.01" width="1.44" height="19.56"/><rect class="cls-1" x="332.3" y="0.01" width="1.44" height="19.56"/><rect class="cls-1" x="333.23" y="0.01" width="1.44" height="19.56"/><rect class="cls-1" x="333.54" y="0.01" width="1.44" height="19.56"/><rect class="cls-1" x="335.24" y="0.01" width="1.44" height="19.56"/><rect class="cls-1" x="335.86" y="0.01" width="1.44" height="19.56"/><rect class="cls-1" x="342.19" y="0.01" width="1.44" height="19.56"/><rect class="cls-1" x="389.15" y="0.01" width="1.44" height="19.56"/><rect class="cls-1" x="390.07" y="0.01" width="1.44" height="19.56"/><rect class="cls-1" x="390.38" y="0.01" width="1.44" height="19.56"/><rect class="cls-1" x="392.24" y="0.01" width="1.44" height="19.56"/><rect class="cls-1" x="396.72" y="0.01" width="1.44" height="19.56"/><rect class="cls-1" x="402.28" y="0.01" width="1.44" height="19.56"/><rect class="cls-1" x="427.14" y="0.01" width="1.44" height="19.56"/><rect class="cls-1" x="534.5" y="0.01" width="1.44" height="19.56"/><rect class="cls-1" x="537.9" y="0.01" width="1.44" height="19.56"/><rect class="cls-1" x="541.91" y="0.01" width="1.44" height="19.56"/><rect class="cls-1" x="550.1" y="0.01" width="1.44" height="19.56"/><rect class="cls-1" x="554.27" y="0.01" width="1.44" height="19.56"/><rect class="cls-1" x="571.1" y="0.01" width="1.44" height="19.56"/><rect class="cls-1" x="608.33" y="0.01" width="1.44" height="19.56"/><rect class="cls-1" x="625.17" y="0.01" width="1.44" height="19.56"/><rect class="cls-1" x="635.36" y="0.01" width="1.44" height="19.56"/><rect class="cls-1" x="639.38" y="0.01" width="1.44" height="19.56"/><rect class="cls-1" x="640.15" y="0.01" width="1.44" height="19.56"/><rect class="cls-1" x="647.41" y="0.01" width="1.44" height="19.56"/><rect class="cls-1" x="652.2" y="0.01" width="1.44" height="19.56"/><rect class="cls-1" x="701.47" y="0.01" width="1.44" height="19.56"/><rect class="cls-1" x="702.24" y="0.01" width="1.44" height="19.56"/><rect class="cls-1" x="744.26" y="0.01" width="1.44" height="19.56"/><rect class="cls-1" x="758.01" y="0.01" width="1.44" height="19.56"/><rect class="cls-1" x="787.05" y="0.01" width="1.44" height="19.56"/><rect class="cls-1" x="795.7" y="0.01" width="1.44" height="19.56"/><rect class="cls-1" x="828.44" y="0.01" width="1.44" height="19.56"/><rect class="cls-1" x="829.21" y="0.01" width="1.44" height="19.56"/><rect class="cls-1" x="830.76" y="0.01" width="1.44" height="19.56"/><rect class="cls-1" x="831.99" y="0.01" width="1.44" height="19.56"/><rect class="cls-1" x="834.78" y="0.01" width="1.44" height="19.56"/><rect class="cls-1" x="836.32" y="0.01" width="1.44" height="19.56"/><rect class="cls-1" x="868.91" y="0.01" width="1.44" height="19.56"/><rect class="cls-1" x="887.6" y="0.01" width="1.44" height="19.56"/><rect class="cls-1" x="907.53" y="0.01" width="1.44" height="19.56"/><rect class="cls-1" x="910.15" y="0.01" width="1.44" height="19.56"/><rect class="cls-1" x="911.39" y="0.01" width="1.44" height="19.56"/><rect class="cls-1" x="945.06" y="0.01" width="1.44" height="19.56"/><rect class="cls-1" x="958.04" y="0.01" width="1.44" height="19.56"/><rect class="cls-1" x="981.98" y="0.01" width="1.44" height="19.56"/></g></g></svg>