<svg xmlns="http://www.w3.org/2000/svg" viewBox="0 0 1064.41 19.57"><defs><style>.cls-1{fill:#fff;}</style></defs><g id="Layer_2" data-name="Layer 2"><g id="Layer_1-2" data-name="Layer 1"><rect width="1064.41" height="19.57"/><rect class="cls-1" x="8.19" width="1.44" height="19.56"/><rect class="cls-1" x="13.72" width="1.44" height="19.56"/><rect class="cls-1" x="15.73" width="1.44" height="19.56"/><rect class="cls-1" x="17.61" width="1.44" height="19.56"/><rect class="cls-1" x="19.49" width="1.44" height="19.56"/><rect class="cls-1" x="21.38" width="1.44" height="19.56"/><rect class="cls-1" x="21.75" width="1.44" height="19.56"/><rect class="cls-1" x="22.25" width="1.44" height="19.56"/><rect class="cls-1" x="22.5" width="1.44" height="19.56"/><rect class="cls-1" x="23.63" width="1.44" height="19.56"/><rect class="cls-1" x="24.89" width="1.44" height="19.56"/><rect class="cls-1" x="25.89" width="1.44" height="19.56"/><rect class="cls-1" x="26.65" width="1.44" height="19.56"/><rect class="cls-1" x="28.78" width="1.44" height="19.56"/><rect class="cls-1" x="29.16" width="1.44" height="19.56"/><rect class="cls-1" x="30.29" width="1.44" height="19.56"/><rect class="cls-1" x="31.92" width="1.44" height="19.56"/><rect class="cls-1" x="35.94" width="1.44" height="19.56"/><rect class="cls-1" x="37.32" width="1.44" height="19.56"/><rect class="cls-1" x="37.82" width="1.44" height="19.56"/><rect class="cls-1" x="37.94" width="1.44" height="19.56"/><rect class="cls-1" x="46.11" width="1.44" height="19.56"/><rect class="cls-1" x="47.86" width="1.44" height="19.56"/><rect class="cls-1" x="53.13" width="1.44" height="19.56"/><rect class="cls-1" x="54.01" width="1.44" height="19.56"/><rect class="cls-1" x="55.14" width="1.44" height="19.56"/><rect class="cls-1" x="58.66" width="1.44" height="19.56"/><rect class="cls-1" x="61.67" width="1.44" height="19.56"/><rect class="cls-1" x="62.68" width="1.44" height="19.56"/><rect class="cls-1" x="64.18" width="1.44" height="19.56"/><rect class="cls-1" x="64.56" width="1.44" height="19.56"/><rect class="cls-1" x="73.35" width="1.44" height="19.56"/><rect class="cls-1" x="73.97" width="1.44" height="19.56"/><rect class="cls-1" x="94.81" width="1.44" height="19.56"/><rect class="cls-1" x="96.7" width="1.44" height="19.56"/><rect class="cls-1" x="97.57" width="1.44" height="19.56"/><rect class="cls-1" x="100.84" width="1.44" height="19.56"/><rect class="cls-1" x="101.34" width="1.44" height="19.56"/><rect class="cls-1" x="101.84" width="1.44" height="19.56"/><rect class="cls-1" x="109.5" width="1.44" height="19.56"/><rect class="cls-1" x="112.76" width="1.44" height="19.56"/><rect class="cls-1" x="115.28" width="1.44" height="19.56"/><rect class="cls-1" x="116.78" width="1.44" height="19.56"/><rect class="cls-1" x="117.28" width="1.44" height="19.56"/><rect class="cls-1" x="127.45" width="1.44" height="19.56"/><rect class="cls-1" x="135.99" width="1.44" height="19.56"/><rect class="cls-1" x="136.24" width="1.44" height="19.56"/><rect class="cls-1" x="139.5" width="1.44" height="19.56"/><rect class="cls-1" x="154.94" width="1.44" height="19.56"/><rect class="cls-1" x="161.22" width="1.44" height="19.56"/><rect class="cls-1" x="167.12" width="1.44" height="19.56"/><rect class="cls-1" x="172.52" width="1.44" height="19.56"/><rect class="cls-1" x="173.27" width="1.44" height="19.56"/><rect class="cls-1" x="193.11" width="1.44" height="19.56"/><rect class="cls-1" x="195.74" width="1.44" height="19.56"/><rect class="cls-1" x="211.31" width="1.44" height="19.56"/><rect class="cls-1" x="216.33" width="1.44" height="19.56"/><rect class="cls-1" x="216.46" width="1.44" height="19.56"/><rect class="cls-1" x="241.69" width="1.44" height="19.56"/><rect class="cls-1" x="242.94" width="1.44" height="19.56"/><rect class="cls-1" x="245.83" width="1.44" height="19.56"/><rect class="cls-1" x="246.33" width="1.44" height="19.56"/><rect class="cls-1" x="247.34" width="1.44" height="19.56"/><rect class="cls-1" x="250.1" width="1.44" height="19.56"/><rect class="cls-1" x="250.85" width="1.44" height="19.56"/><rect class="cls-1" x="252.61" width="1.44" height="19.56"/><rect class="cls-1" x="253.24" width="1.44" height="19.56"/><rect class="cls-1" x="254.12" width="1.44" height="19.56"/><rect class="cls-1" x="255.25" width="1.44" height="19.56"/><rect class="cls-1" x="261.9" width="1.44" height="19.56"/><rect class="cls-1" x="266.92" width="1.44" height="19.56"/><rect class="cls-1" x="268.93" width="1.44" height="19.56"/><rect class="cls-1" x="272.07" width="1.44" height="19.56"/><rect class="cls-1" x="274.58" width="1.44" height="19.56"/><rect class="cls-1" x="276.84" width="1.44" height="19.56"/><rect class="cls-1" x="279.35" width="1.44" height="19.56"/><rect class="cls-1" x="281.86" width="1.44" height="19.56"/><rect class="cls-1" x="283.87" width="1.44" height="19.56"/><rect class="cls-1" x="284.62" width="1.44" height="19.56"/><rect class="cls-1" x="285" width="1.44" height="19.56"/><rect class="cls-1" x="286.63" width="1.44" height="19.56"/><rect class="cls-1" x="287.38" width="1.44" height="19.56"/><rect class="cls-1" x="292.4" width="1.44" height="19.56"/><rect class="cls-1" x="298.18" width="1.44" height="19.56"/><rect class="cls-1" x="304.46" width="1.44" height="19.56"/><rect class="cls-1" x="320.78" width="1.44" height="19.56"/><rect class="cls-1" x="325.8" width="1.44" height="19.56"/><rect class="cls-1" x="341.99" width="1.44" height="19.56"/><rect class="cls-1" x="344.63" width="1.44" height="19.56"/><rect class="cls-1" x="344.75" width="1.44" height="19.56"/><rect class="cls-1" x="357.68" width="1.44" height="19.56"/><rect class="cls-1" x="360.44" width="1.44" height="19.56"/><rect class="cls-1" x="363.71" width="1.44" height="19.56"/><rect class="cls-1" x="365.59" width="1.44" height="19.56"/><rect class="cls-1" x="368.98" width="1.44" height="19.56"/><rect class="cls-1" x="375.26" width="1.44" height="19.56"/><rect class="cls-1" x="383.54" width="1.44" height="19.56"/><rect class="cls-1" x="399.86" width="1.44" height="19.56"/><rect class="cls-1" x="406.89" width="1.44" height="19.56"/><rect class="cls-1" x="408.77" width="1.44" height="19.56"/><rect class="cls-1" x="411.16" width="1.44" height="19.56"/><rect class="cls-1" x="416.81" width="1.44" height="19.56"/><rect class="cls-1" x="429.99" width="1.44" height="19.56"/><rect class="cls-1" x="430.99" width="1.44" height="19.56"/><rect class="cls-1" x="432" width="1.44" height="19.56"/><rect class="cls-1" x="436.02" width="1.44" height="19.56"/><rect class="cls-1" x="438.65" width="1.44" height="19.56"/><rect class="cls-1" x="439.28" width="1.44" height="19.56"/><rect class="cls-1" x="443.3" width="1.44" height="19.56"/><rect class="cls-1" x="454.22" width="1.44" height="19.56"/><rect class="cls-1" x="456.48" width="1.44" height="19.56"/><rect class="cls-1" x="458.24" width="1.44" height="19.56"/><rect class="cls-1" x="460.62" width="1.44" height="19.56"/><rect class="cls-1" x="461.12" width="1.44" height="19.56"/><rect class="cls-1" x="463.63" width="1.44" height="19.56"/><rect class="cls-1" x="464.26" width="1.44" height="19.56"/><rect class="cls-1" x="469.79" width="1.44" height="19.56"/><rect class="cls-1" x="476.82" width="1.44" height="19.56"/><rect class="cls-1" x="486.86" width="1.44" height="19.56"/><rect class="cls-1" x="490.75" width="1.44" height="19.56"/><rect class="cls-1" x="493.76" width="1.44" height="19.56"/><rect class="cls-1" x="524.77" width="1.44" height="19.56"/><rect class="cls-1" x="529.41" width="1.44" height="19.56"/><rect class="cls-1" x="533.43" width="1.44" height="19.56"/><rect class="cls-1" x="543.35" width="1.44" height="19.56"/><rect class="cls-1" x="560.3" width="1.44" height="19.56"/><rect class="cls-1" x="564.69" width="1.44" height="19.56"/><rect class="cls-1" x="565.32" width="1.44" height="19.56"/><rect class="cls-1" x="565.82" width="1.44" height="19.56"/><rect class="cls-1" x="566.7" width="1.44" height="19.56"/><rect class="cls-1" x="567.58" width="1.44" height="19.56"/><rect class="cls-1" x="574.86" width="1.44" height="19.56"/><rect class="cls-1" x="575.36" width="1.44" height="19.56"/><rect class="cls-1" x="578.37" width="1.44" height="19.56"/><rect class="cls-1" x="578.62" width="1.44" height="19.56"/><rect class="cls-1" x="580.38" width="1.44" height="19.56"/><rect class="cls-1" x="581.76" width="1.44" height="19.56"/><rect class="cls-1" x="584.4" width="1.44" height="19.56"/><rect class="cls-1" x="587.54" width="1.44" height="19.56"/><rect class="cls-1" x="590.8" width="1.44" height="19.56"/><rect class="cls-1" x="595.82" width="1.44" height="19.56"/><rect class="cls-1" x="596.45" width="1.44" height="19.56"/><rect class="cls-1" x="611.51" width="1.44" height="19.56"/><rect class="cls-1" x="626.58" width="1.44" height="19.56"/><rect class="cls-1" x="638.5" width="1.44" height="19.56"/><rect class="cls-1" x="638.88" width="1.44" height="19.56"/><rect class="cls-1" x="669.01" width="1.44" height="19.56"/><rect class="cls-1" x="673.28" width="1.44" height="19.56"/><rect class="cls-1" x="682.32" width="1.44" height="19.56"/><rect class="cls-1" x="686.58" width="1.44" height="19.56"/><rect class="cls-1" x="691.23" width="1.44" height="19.56"/><rect class="cls-1" x="692.36" width="1.44" height="19.56"/><rect class="cls-1" x="695.62" width="1.44" height="19.56"/><rect class="cls-1" x="698.26" width="1.44" height="19.56"/><rect class="cls-1" x="729.27" width="1.44" height="19.56"/><rect class="cls-1" x="739.43" width="1.44" height="19.56"/><rect class="cls-1" x="745.08" width="1.44" height="19.56"/><rect class="cls-1" x="747.09" width="1.44" height="19.56"/><rect class="cls-1" x="750.23" width="1.44" height="19.56"/><rect class="cls-1" x="751.86" width="1.44" height="19.56"/><rect class="cls-1" x="755.25" width="1.44" height="19.56"/><rect class="cls-1" x="756.88" width="1.44" height="19.56"/><rect class="cls-1" x="757.01" width="1.44" height="19.56"/><rect class="cls-1" x="767.05" width="1.44" height="19.56"/><rect class="cls-1" x="770.69" width="1.44" height="19.56"/><rect class="cls-1" x="773.08" width="1.44" height="19.56"/><rect class="cls-1" x="774.96" width="1.44" height="19.56"/><rect class="cls-1" x="782.62" width="1.44" height="19.56"/><rect class="cls-1" x="785.13" width="1.44" height="19.56"/><rect class="cls-1" x="785.88" width="1.44" height="19.56"/><rect class="cls-1" x="787.77" width="1.44" height="19.56"/><rect class="cls-1" x="791.15" width="1.44" height="19.56"/><rect class="cls-1" x="793.41" width="1.44" height="19.56"/><rect class="cls-1" x="798.69" width="1.44" height="19.56"/><rect class="cls-1" x="802.2" width="1.44" height="19.56"/><rect class="cls-1" x="815.38" width="1.44" height="19.56"/><rect class="cls-1" x="818.27" width="1.44" height="19.56"/><rect class="cls-1" x="830.2" width="1.44" height="19.56"/><rect class="cls-1" x="833.59" width="1.44" height="19.56"/><rect class="cls-1" x="854.55" width="1.44" height="19.56"/><rect class="cls-1" x="855.3" width="1.44" height="19.56"/><rect class="cls-1" x="856.06" width="1.44" height="19.56"/><rect class="cls-1" x="856.93" width="1.44" height="19.56"/><rect class="cls-1" x="859.07" width="1.44" height="19.56"/><rect class="cls-1" x="874.01" width="1.44" height="19.56"/><rect class="cls-1" x="883.3" width="1.44" height="19.56"/><rect class="cls-1" x="884.93" width="1.44" height="19.56"/><rect class="cls-1" x="889.07" width="1.44" height="19.56"/><rect class="cls-1" x="890.58" width="1.44" height="19.56"/><rect class="cls-1" x="922.21" width="1.44" height="19.56"/><rect class="cls-1" x="933.51" width="1.44" height="19.56"/><rect class="cls-1" x="936.4" width="1.44" height="19.56"/><rect class="cls-1" x="958.87" width="1.44" height="19.56"/><rect class="cls-1" x="961.51" width="1.44" height="19.56"/><rect class="cls-1" x="976.44" width="1.44" height="19.56"/><rect class="cls-1" x="976.7" width="1.44" height="19.56"/><rect class="cls-1" x="979.71" width="1.44" height="19.56"/><rect class="cls-1" x="986.74" width="1.44" height="19.56"/><rect class="cls-1" x="995.27" width="1.44" height="19.56"/><rect class="cls-1" x="995.53" width="1.44" height="19.56"/><rect class="cls-1" x="996.03" width="1.44" height="19.56"/><rect class="cls-1" x="996.4" width="1.44" height="19.56"/><rect class="cls-1" x="996.91" width="1.44" height="19.56"/><rect class="cls-1" x="997.41" width="1.44" height="19.56"/><rect class="cls-1" x="999.42" width="1.44" height="19.56"/><rect class="cls-1" x="1004.56" width="1.44" height="19.56"/></g></g></svg>