<svg xmlns="http://www.w3.org/2000/svg" viewBox="0 0 1064.41 19.58"><defs><style>.cls-1{fill:#fff;}</style></defs><g id="Layer_2" data-name="Layer 2"><g id="Layer_1-2" data-name="Layer 1"><rect y="0.01" width="1064.41" height="19.57"/><rect class="cls-1" x="8.92" width="1.44" height="19.56"/><rect class="cls-1" x="13.23" width="1.44" height="19.56"/><rect class="cls-1" x="24.6" width="1.44" height="19.56"/><rect class="cls-1" x="24.89" width="1.44" height="19.56"/><rect class="cls-1" x="40.42" width="1.44" height="19.56"/><rect class="cls-1" x="40.71" width="1.44" height="19.56"/><rect class="cls-1" x="41.43" width="1.44" height="19.56"/><rect class="cls-1" x="53.8" width="1.44" height="19.56"/><rect class="cls-1" x="55.67" width="1.44" height="19.56"/><rect class="cls-1" x="56.82" width="1.44" height="19.56"/><rect class="cls-1" x="58.26" width="1.44" height="19.56"/><rect class="cls-1" x="58.69" width="1.44" height="19.56"/><rect class="cls-1" x="59.27" width="1.44" height="19.56"/><rect class="cls-1" x="62.72" width="1.44" height="19.56"/><rect class="cls-1" x="63.15" width="1.44" height="19.56"/><rect class="cls-1" x="65.02" width="1.44" height="19.56"/><rect class="cls-1" x="66.18" width="1.44" height="19.56"/><rect class="cls-1" x="66.61" width="1.44" height="19.56"/><rect class="cls-1" x="71.21" width="1.44" height="19.56"/><rect class="cls-1" x="73.22" width="1.44" height="19.56"/><rect class="cls-1" x="75.09" width="1.44" height="19.56"/><rect class="cls-1" x="76.1" width="1.44" height="19.56"/><rect class="cls-1" x="78.4" width="1.44" height="19.56"/><rect class="cls-1" x="83.01" width="1.44" height="19.56"/><rect class="cls-1" x="89.34" width="1.44" height="19.56"/><rect class="cls-1" x="104.15" width="1.44" height="19.56"/><rect class="cls-1" x="107.32" width="1.44" height="19.56"/><rect class="cls-1" x="109.33" width="1.44" height="19.56"/><rect class="cls-1" x="112.07" width="1.44" height="19.56"/><rect class="cls-1" x="112.5" width="1.44" height="19.56"/><rect class="cls-1" x="125.44" width="1.44" height="19.56"/><rect class="cls-1" x="135.23" width="1.44" height="19.56"/><rect class="cls-1" x="137.53" width="1.44" height="19.56"/><rect class="cls-1" x="184.57" width="1.44" height="19.56"/><rect class="cls-1" x="189.89" width="1.44" height="19.56"/><rect class="cls-1" x="233.77" width="1.44" height="19.56"/><rect class="cls-1" x="269.16" width="1.44" height="19.56"/><rect class="cls-1" x="270.89" width="1.44" height="19.56"/><rect class="cls-1" x="297.36" width="1.44" height="19.56"/><rect class="cls-1" x="334.9" width="1.44" height="19.56"/><rect class="cls-1" x="337.64" width="1.44" height="19.56"/><rect class="cls-1" x="459.92" width="1.44" height="19.56"/><rect class="cls-1" x="468.12" width="1.44" height="19.56"/><rect class="cls-1" x="475.6" width="1.44" height="19.56"/><rect class="cls-1" x="476.17" width="1.44" height="19.56"/><rect class="cls-1" x="489.7" width="1.44" height="19.56"/><rect class="cls-1" x="510.7" width="1.44" height="19.56"/><rect class="cls-1" x="517.17" width="1.44" height="19.56"/><rect class="cls-1" x="538.17" width="1.44" height="19.56"/><rect class="cls-1" x="538.75" width="1.44" height="19.56"/><rect class="cls-1" x="548.39" width="1.44" height="19.56"/><rect class="cls-1" x="557.6" width="1.44" height="19.56"/><rect class="cls-1" x="558.75" width="1.44" height="19.56"/><rect class="cls-1" x="567.95" width="1.44" height="19.56"/><rect class="cls-1" x="606.94" width="1.44" height="19.56"/><rect class="cls-1" x="607.37" width="1.44" height="19.56"/><rect class="cls-1" x="616" width="1.44" height="19.56"/><rect class="cls-1" x="673.55" width="1.44" height="19.56"/><rect class="cls-1" x="684.48" width="1.44" height="19.56"/><rect class="cls-1" x="849.48" width="1.44" height="19.56"/><rect class="cls-1" x="1021.68" width="1.44" height="19.56"/></g></g></svg>