<svg xmlns="http://www.w3.org/2000/svg" viewBox="0 0 1064.41 19.59"><defs><style>.cls-1{fill:#fff;}</style></defs><g id="Layer_2" data-name="Layer 2"><g id="Layer_1-2" data-name="Layer 1"><rect y="0.02" width="1064.41" height="19.57"/><rect class="cls-1" x="3.94" width="1.44" height="19.56"/><rect class="cls-1" x="6.97" width="1.44" height="19.56"/><rect class="cls-1" x="8.06" width="1.44" height="19.56"/><rect class="cls-1" x="9.62" width="1.44" height="19.56"/><rect class="cls-1" x="10.01" width="1.44" height="19.56"/><rect class="cls-1" x="11.64" width="1.44" height="19.56"/><rect class="cls-1" x="15.29" width="1.44" height="19.56"/><rect class="cls-1" x="34.95" width="1.44" height="19.56"/><rect class="cls-1" x="35.34" width="1.44" height="19.56"/><rect class="cls-1" x="36.5" width="1.44" height="19.56"/><rect class="cls-1" x="36.97" width="1.44" height="19.56"/><rect class="cls-1" x="37.67" width="1.44" height="19.56"/><rect class="cls-1" x="38.76" width="1.44" height="19.56"/><rect class="cls-1" x="39.38" width="1.44" height="19.56"/><rect class="cls-1" x="40.16" width="1.44" height="19.56"/><rect class="cls-1" x="40.47" width="1.44" height="19.56"/><rect class="cls-1" x="43.11" width="1.44" height="19.56"/><rect class="cls-1" x="43.65" width="1.44" height="19.56"/><rect class="cls-1" x="44.51" width="1.44" height="19.56"/><rect class="cls-1" x="47.38" width="1.44" height="19.56"/><rect class="cls-1" x="59.43" width="1.44" height="19.56"/><rect class="cls-1" x="72.1" width="1.44" height="19.56"/><rect class="cls-1" x="79.17" width="1.44" height="19.56"/><rect class="cls-1" x="79.87" width="1.44" height="19.56"/><rect class="cls-1" x="80.02" width="1.44" height="19.56"/><rect class="cls-1" x="93.08" width="1.44" height="19.56"/><rect class="cls-1" x="121.13" width="1.44" height="19.56"/><rect class="cls-1" x="154.7" width="1.44" height="19.56"/><rect class="cls-1" x="155.01" width="1.44" height="19.56"/><rect class="cls-1" x="157.97" width="1.44" height="19.56"/><rect class="cls-1" x="158.59" width="1.44" height="19.56"/><rect class="cls-1" x="158.74" width="1.44" height="19.56"/><rect class="cls-1" x="174.29" width="1.44" height="19.56"/><rect class="cls-1" x="174.75" width="1.44" height="19.56"/><rect class="cls-1" x="273.37" width="1.44" height="19.56"/><rect class="cls-1" x="408.12" width="1.44" height="19.56"/><rect class="cls-1" x="408.58" width="1.44" height="19.56"/><rect class="cls-1" x="408.66" width="1.44" height="19.56"/><rect class="cls-1" x="408.74" width="1.44" height="19.56"/><rect class="cls-1" x="410.45" width="1.44" height="19.56"/><rect class="cls-1" x="411.07" width="1.44" height="19.56"/><rect class="cls-1" x="418.77" width="1.44" height="19.56"/><rect class="cls-1" x="427.08" width="1.44" height="19.56"/><rect class="cls-1" x="435.01" width="1.44" height="19.56"/><rect class="cls-1" x="435.16" width="1.44" height="19.56"/><rect class="cls-1" x="436.17" width="1.44" height="19.56"/><rect class="cls-1" x="444.02" width="1.44" height="19.56"/><rect class="cls-1" x="493.45" width="1.44" height="19.56"/><rect class="cls-1" x="545.67" width="1.44" height="19.56"/><rect class="cls-1" x="546.83" width="1.44" height="19.56"/><rect class="cls-1" x="556.55" width="1.44" height="19.56"/><rect class="cls-1" x="557.4" width="1.44" height="19.56"/><rect class="cls-1" x="611.72" width="1.44" height="19.56"/><rect class="cls-1" x="613.82" width="1.44" height="19.56"/><rect class="cls-1" x="616.23" width="1.44" height="19.56"/><rect class="cls-1" x="617.16" width="1.44" height="19.56"/></g></g></svg>