<svg xmlns="http://www.w3.org/2000/svg" viewBox="0 0 1064.41 19.6"><defs><style>.cls-1{fill:#fff;}</style></defs><g id="Layer_2" data-name="Layer 2"><g id="Layer_1-2" data-name="Layer 1"><rect y="0.04" width="1064.41" height="19.57"/><rect class="cls-1" x="5.79" width="1.44" height="19.56"/><rect class="cls-1" x="7.29" width="1.44" height="19.56"/><rect class="cls-1" x="8.67" width="1.44" height="19.56"/><rect class="cls-1" x="13.8" width="1.44" height="19.56"/><rect class="cls-1" x="17.81" width="1.44" height="19.56"/><rect class="cls-1" x="23.07" width="1.44" height="19.56"/><rect class="cls-1" x="24.07" width="1.44" height="19.56"/><rect class="cls-1" x="39.09" width="1.44" height="19.56"/><rect class="cls-1" x="46.98" width="1.44" height="19.56"/><rect class="cls-1" x="47.48" width="1.44" height="19.56"/><rect class="cls-1" x="48.36" width="1.44" height="19.56"/><rect class="cls-1" x="52.61" width="1.44" height="19.56"/><rect class="cls-1" x="63.88" width="1.44" height="19.56"/><rect class="cls-1" x="65.13" width="1.44" height="19.56"/><rect class="cls-1" x="68.76" width="1.44" height="19.56"/><rect class="cls-1" x="74.4" width="1.44" height="19.56"/><rect class="cls-1" x="77.9" width="1.44" height="19.56"/><rect class="cls-1" x="79.15" width="1.44" height="19.56"/><rect class="cls-1" x="80.28" width="1.44" height="19.56"/><rect class="cls-1" x="81.53" width="1.44" height="19.56"/><rect class="cls-1" x="88.42" width="1.44" height="19.56"/><rect class="cls-1" x="89.8" width="1.44" height="19.56"/><rect class="cls-1" x="91.42" width="1.44" height="19.56"/><rect class="cls-1" x="91.68" width="1.44" height="19.56"/><rect class="cls-1" x="93.18" width="1.44" height="19.56"/><rect class="cls-1" x="93.8" width="1.44" height="19.56"/><rect class="cls-1" x="94.81" width="1.44" height="19.56"/><rect class="cls-1" x="95.06" width="1.44" height="19.56"/><rect class="cls-1" x="101.31" width="1.44" height="19.56"/><rect class="cls-1" x="112.71" width="1.44" height="19.56"/><rect class="cls-1" x="113.58" width="1.44" height="19.56"/><rect class="cls-1" x="121.22" width="1.44" height="19.56"/><rect class="cls-1" x="124.48" width="1.44" height="19.56"/><rect class="cls-1" x="126.48" width="1.44" height="19.56"/><rect class="cls-1" x="127.98" width="1.44" height="19.56"/><rect class="cls-1" x="128.86" width="1.44" height="19.56"/><rect class="cls-1" x="129.61" width="1.44" height="19.56"/><rect class="cls-1" x="131.86" width="1.44" height="19.56"/><rect class="cls-1" x="141.13" width="1.44" height="19.56"/><rect class="cls-1" x="143.01" width="1.44" height="19.56"/><rect class="cls-1" x="144.26" width="1.44" height="19.56"/><rect class="cls-1" x="158.03" width="1.44" height="19.56"/><rect class="cls-1" x="181.19" width="1.44" height="19.56"/><rect class="cls-1" x="193.58" width="1.44" height="19.56"/><rect class="cls-1" x="209.61" width="1.44" height="19.56"/><rect class="cls-1" x="222" width="1.44" height="19.56"/><rect class="cls-1" x="227.01" width="1.44" height="19.56"/><rect class="cls-1" x="229.64" width="1.44" height="19.56"/><rect class="cls-1" x="231.14" width="1.44" height="19.56"/><rect class="cls-1" x="248.79" width="1.44" height="19.56"/><rect class="cls-1" x="292.99" width="1.44" height="19.56"/><rect class="cls-1" x="293.24" width="1.44" height="19.56"/><rect class="cls-1" x="294.74" width="1.44" height="19.56"/><rect class="cls-1" x="295.24" width="1.44" height="19.56"/><rect class="cls-1" x="296.49" width="1.44" height="19.56"/><rect class="cls-1" x="298.37" width="1.44" height="19.56"/><rect class="cls-1" x="308.01" width="1.44" height="19.56"/><rect class="cls-1" x="322.16" width="1.44" height="19.56"/><rect class="cls-1" x="325.92" width="1.44" height="19.56"/><rect class="cls-1" x="330.42" width="1.44" height="19.56"/><rect class="cls-1" x="336.81" width="1.44" height="19.56"/><rect class="cls-1" x="392.39" width="1.44" height="19.56"/><rect class="cls-1" x="394.4" width="1.44" height="19.56"/><rect class="cls-1" x="395.02" width="1.44" height="19.56"/><rect class="cls-1" x="395.27" width="1.44" height="19.56"/><rect class="cls-1" x="396.4" width="1.44" height="19.56"/><rect class="cls-1" x="398.03" width="1.44" height="19.56"/><rect class="cls-1" x="399.4" width="1.44" height="19.56"/><rect class="cls-1" x="399.65" width="1.44" height="19.56"/><rect class="cls-1" x="404.79" width="1.44" height="19.56"/><rect class="cls-1" x="407.17" width="1.44" height="19.56"/><rect class="cls-1" x="416.05" width="1.44" height="19.56"/><rect class="cls-1" x="430.45" width="1.44" height="19.56"/><rect class="cls-1" x="450.36" width="1.44" height="19.56"/><rect class="cls-1" x="451.86" width="1.44" height="19.56"/><rect class="cls-1" x="452.86" width="1.44" height="19.56"/><rect class="cls-1" x="456.62" width="1.44" height="19.56"/><rect class="cls-1" x="458.87" width="1.44" height="19.56"/><rect class="cls-1" x="475.4" width="1.44" height="19.56"/><rect class="cls-1" x="476.4" width="1.44" height="19.56"/><rect class="cls-1" x="477.28" width="1.44" height="19.56"/><rect class="cls-1" x="481.16" width="1.44" height="19.56"/><rect class="cls-1" x="489.42" width="1.44" height="19.56"/><rect class="cls-1" x="495.43" width="1.44" height="19.56"/><rect class="cls-1" x="517.84" width="1.44" height="19.56"/><rect class="cls-1" x="555.52" width="1.44" height="19.56"/><rect class="cls-1" x="572.17" width="1.44" height="19.56"/><rect class="cls-1" x="607.23" width="1.44" height="19.56"/><rect class="cls-1" x="730.3" width="1.44" height="19.56"/><rect class="cls-1" x="949.39" width="1.44" height="19.56"/><rect class="cls-1" x="950.14" width="1.44" height="19.56"/><rect class="cls-1" x="955.77" width="1.44" height="19.56"/><rect class="cls-1" x="975.18" width="1.44" height="19.56"/></g></g></svg>