<svg xmlns="http://www.w3.org/2000/svg" viewBox="0 0 1064.41 19.62"><defs><style>.cls-1{fill:#fff;}</style></defs><g id="Layer_2" data-name="Layer 2"><g id="Layer_1-2" data-name="Layer 1"><rect y="0.05" width="1064.41" height="19.57"/><rect class="cls-1" x="8.43" width="1.44" height="19.56"/><rect class="cls-1" x="11.09" width="1.44" height="19.56"/><rect class="cls-1" x="13.01" width="1.44" height="19.56"/><rect class="cls-1" x="13.16" width="1.44" height="19.56"/><rect class="cls-1" x="14.19" width="1.44" height="19.56"/><rect class="cls-1" x="14.49" width="1.44" height="19.56"/><rect class="cls-1" x="14.78" width="1.44" height="19.56"/><rect class="cls-1" x="15.37" width="1.44" height="19.56"/><rect class="cls-1" x="17.74" width="1.44" height="19.56"/><rect class="cls-1" x="18.03" width="1.44" height="19.56"/><rect class="cls-1" x="19.36" width="1.44" height="19.56"/><rect class="cls-1" x="20.24" width="1.44" height="19.56"/><rect class="cls-1" x="22.02" width="1.44" height="19.56"/><rect class="cls-1" x="26.74" width="1.44" height="19.56"/><rect class="cls-1" x="27.03" width="1.44" height="19.56"/><rect class="cls-1" x="27.33" width="1.44" height="19.56"/><rect class="cls-1" x="29.1" width="1.44" height="19.56"/><rect class="cls-1" x="33.38" width="1.44" height="19.56"/><rect class="cls-1" x="35.45" width="1.44" height="19.56"/><rect class="cls-1" x="35.6" width="1.44" height="19.56"/><rect class="cls-1" x="36.04" width="1.44" height="19.56"/><rect class="cls-1" x="36.78" width="1.44" height="19.56"/><rect class="cls-1" x="38.4" width="1.44" height="19.56"/><rect class="cls-1" x="44.46" width="1.44" height="19.56"/><rect class="cls-1" x="47.56" width="1.44" height="19.56"/><rect class="cls-1" x="50.21" width="1.44" height="19.56"/><rect class="cls-1" x="62.17" width="1.44" height="19.56"/><rect class="cls-1" x="64.98" width="1.44" height="19.56"/><rect class="cls-1" x="70" width="1.44" height="19.56"/><rect class="cls-1" x="70.88" width="1.44" height="19.56"/><rect class="cls-1" x="71.32" width="1.44" height="19.56"/><rect class="cls-1" x="74.87" width="1.44" height="19.56"/><rect class="cls-1" x="76.64" width="1.44" height="19.56"/><rect class="cls-1" x="77.08" width="1.44" height="19.56"/><rect class="cls-1" x="82.69" width="1.44" height="19.56"/><rect class="cls-1" x="93.32" width="1.44" height="19.56"/><rect class="cls-1" x="100.56" width="1.44" height="19.56"/><rect class="cls-1" x="118.86" width="1.44" height="19.56"/><rect class="cls-1" x="119.89" width="1.44" height="19.56"/><rect class="cls-1" x="120.34" width="1.44" height="19.56"/><rect class="cls-1" x="120.93" width="1.44" height="19.56"/><rect class="cls-1" x="140.56" width="1.44" height="19.56"/><rect class="cls-1" x="172.01" width="1.44" height="19.56"/><rect class="cls-1" x="177.62" width="1.44" height="19.56"/><rect class="cls-1" x="414.71" width="1.44" height="19.56"/><rect class="cls-1" x="431.69" width="1.44" height="19.56"/><rect class="cls-1" x="440.25" width="1.44" height="19.56"/><rect class="cls-1" x="440.4" width="1.44" height="19.56"/><rect class="cls-1" x="440.69" width="1.44" height="19.56"/><rect class="cls-1" x="466.38" width="1.44" height="19.56"/><rect class="cls-1" x="618.44" width="1.44" height="19.56"/><rect class="cls-1" x="749.98" width="1.44" height="19.56"/><rect class="cls-1" x="789.54" width="1.44" height="19.56"/><rect class="cls-1" x="793.97" width="1.44" height="19.56"/><rect class="cls-1" x="863.36" width="1.44" height="19.56"/><rect class="cls-1" x="877.68" width="1.44" height="19.56"/><rect class="cls-1" x="989.28" width="1.44" height="19.56"/></g></g></svg>