<svg xmlns="http://www.w3.org/2000/svg" viewBox="0 0 1064.41 19.63"><defs><style>.cls-1{fill:#fff;}</style></defs><g id="Layer_2" data-name="Layer 2"><g id="Layer_1-2" data-name="Layer 1"><rect y="0.06" width="1064.41" height="19.57"/><rect class="cls-1" x="5.44" width="1.44" height="19.56"/><rect class="cls-1" x="16.72" width="1.44" height="19.56"/><rect class="cls-1" x="17.46" width="1.44" height="19.56"/><rect class="cls-1" x="18.48" width="1.44" height="19.56"/><rect class="cls-1" x="19.95" width="1.44" height="19.56"/><rect class="cls-1" x="28.16" width="1.44" height="19.56"/><rect class="cls-1" x="28.59" width="1.44" height="19.56"/><rect class="cls-1" x="36.51" width="1.44" height="19.56"/><rect class="cls-1" x="43.69" width="1.44" height="19.56"/><rect class="cls-1" x="48.38" width="1.44" height="19.56"/><rect class="cls-1" x="85.61" width="1.44" height="19.56"/><rect class="cls-1" x="93.09" width="1.44" height="19.56"/><rect class="cls-1" x="94.26" width="1.44" height="19.56"/><rect class="cls-1" x="94.7" width="1.44" height="19.56"/><rect class="cls-1" x="94.99" width="1.44" height="19.56"/><rect class="cls-1" x="105.69" width="1.44" height="19.56"/><rect class="cls-1" x="126.21" width="1.44" height="19.56"/><rect class="cls-1" x="133.98" width="1.44" height="19.56"/><rect class="cls-1" x="153.33" width="1.44" height="19.56"/><rect class="cls-1" x="158.46" width="1.44" height="19.56"/><rect class="cls-1" x="161.83" width="1.44" height="19.56"/><rect class="cls-1" x="162.56" width="1.44" height="19.56"/><rect class="cls-1" x="190.26" width="1.44" height="19.56"/><rect class="cls-1" x="191.73" width="1.44" height="19.56"/><rect class="cls-1" x="213.28" width="1.44" height="19.56"/><rect class="cls-1" x="243.47" width="1.44" height="19.56"/><rect class="cls-1" x="243.62" width="1.44" height="19.56"/><rect class="cls-1" x="246.4" width="1.44" height="19.56"/><rect class="cls-1" x="248.45" width="1.44" height="19.56"/><rect class="cls-1" x="249.04" width="1.44" height="19.56"/><rect class="cls-1" x="260.18" width="1.44" height="19.56"/><rect class="cls-1" x="264.58" width="1.44" height="19.56"/><rect class="cls-1" x="388.72" width="1.44" height="19.56"/><rect class="cls-1" x="390.04" width="1.44" height="19.56"/><rect class="cls-1" x="402.5" width="1.44" height="19.56"/><rect class="cls-1" x="432.26" width="1.44" height="19.56"/><rect class="cls-1" x="496.16" width="1.44" height="19.56"/><rect class="cls-1" x="496.6" width="1.44" height="19.56"/><rect class="cls-1" x="501.58" width="1.44" height="19.56"/><rect class="cls-1" x="502.46" width="1.44" height="19.56"/><rect class="cls-1" x="505.4" width="1.44" height="19.56"/><rect class="cls-1" x="596.86" width="1.44" height="19.56"/><rect class="cls-1" x="614.01" width="1.44" height="19.56"/><rect class="cls-1" x="619.72" width="1.44" height="19.56"/><rect class="cls-1" x="628.81" width="1.44" height="19.56"/><rect class="cls-1" x="635.55" width="1.44" height="19.56"/><rect class="cls-1" x="642.44" width="1.44" height="19.56"/><rect class="cls-1" x="680.7" width="1.44" height="19.56"/><rect class="cls-1" x="709.86" width="1.44" height="19.56"/><rect class="cls-1" x="711.48" width="1.44" height="19.56"/><rect class="cls-1" x="713.82" width="1.44" height="19.56"/><rect class="cls-1" x="715.43" width="1.44" height="19.56"/><rect class="cls-1" x="763.66" width="1.44" height="19.56"/><rect class="cls-1" x="771.72" width="1.44" height="19.56"/><rect class="cls-1" x="774.36" width="1.44" height="19.56"/><rect class="cls-1" x="810.27" width="1.44" height="19.56"/><rect class="cls-1" x="814.22" width="1.44" height="19.56"/><rect class="cls-1" x="865.38" width="1.44" height="19.56"/><rect class="cls-1" x="869.63" width="1.44" height="19.56"/><rect class="cls-1" x="872.12" width="1.44" height="19.56"/><rect class="cls-1" x="876.08" width="1.44" height="19.56"/><rect class="cls-1" x="910.67" width="1.44" height="19.56"/><rect class="cls-1" x="912.72" width="1.44" height="19.56"/><rect class="cls-1" x="914.04" width="1.44" height="19.56"/><rect class="cls-1" x="914.63" width="1.44" height="19.56"/><rect class="cls-1" x="915.21" width="1.44" height="19.56"/><rect class="cls-1" x="915.51" width="1.44" height="19.56"/><rect class="cls-1" x="915.65" width="1.44" height="19.56"/><rect class="cls-1" x="916.39" width="1.44" height="19.56"/><rect class="cls-1" x="961.09" width="1.44" height="19.56"/></g></g></svg>