<svg xmlns="http://www.w3.org/2000/svg" viewBox="0 0 105.64 42.86"><defs><style>.cls-1{fill:#010101;}.cls-2{fill:none;stroke:#010101;stroke-miterlimit:10;}</style></defs><g id="Layer_2" data-name="Layer 2"><g id="Layer_1-2" data-name="Layer 1"><polygon class="cls-1" points="33.05 19.1 30.73 19.1 30.73 16.78 28.4 16.78 28.4 21.43 35.38 21.43 35.38 16.78 33.05 16.78 33.05 19.1"/><polygon class="cls-1" points="28.4 5.15 30.73 5.15 30.73 2.83 33.05 2.83 33.05 5.15 35.38 5.15 35.38 0.5 28.4 0.5 28.4 5.15"/><polygon class="cls-1" points="37.71 7.47 37.71 9.8 40.03 9.8 40.03 12.13 37.71 12.13 37.71 14.45 42.36 14.45 42.36 7.47 37.71 7.47"/><rect class="cls-1" x="30.73" y="9.8" width="2.32" height="2.33"/><polygon class="cls-1" points="21.43 14.45 26.08 14.45 26.08 12.13 23.75 12.13 23.75 9.8 26.08 9.8 26.08 7.47 21.43 7.47 21.43 14.45"/><polygon class="cls-1" points="65.61 2.83 67.94 2.83 67.94 0.5 63.28 0.5 63.28 5.15 65.61 5.15 65.61 2.83"/><polygon class="cls-1" points="65.61 16.78 63.28 16.78 63.28 21.43 67.94 21.43 67.94 19.1 65.61 19.1 65.61 16.78"/><polygon class="cls-1" points="81.89 19.1 79.56 19.1 79.56 21.43 84.21 21.43 84.21 16.78 81.89 16.78 81.89 19.1"/><polygon class="cls-1" points="79.56 0.5 79.56 2.83 81.89 2.83 81.89 5.15 84.21 5.15 84.21 0.5 79.56 0.5"/><rect class="cls-1" x="70.26" y="7.47" width="2.33" height="2.33"/><rect class="cls-1" x="74.91" y="7.47" width="2.33" height="2.33"/><rect class="cls-1" x="74.91" y="12.13" width="2.33" height="2.33"/><rect class="cls-1" x="70.26" y="12.13" width="2.33" height="2.33"/><rect class="cls-1" x="42.36" y="7.48" width="2.33" height="6.98"/><rect class="cls-1" x="60.96" y="7.48" width="2.32" height="6.98"/><rect class="cls-1" x="56.31" y="2.83" width="2.32" height="2.33"/><polygon class="cls-1" points="53.98 7.47 51.66 7.47 51.66 9.8 49.33 9.8 49.33 12.13 51.66 12.13 51.66 14.45 53.98 14.45 53.98 12.13 51.66 12.13 51.66 9.8 53.98 9.8 53.98 12.13 56.31 12.13 56.31 9.8 53.98 9.8 53.98 7.47"/><rect class="cls-1" x="58.63" y="5.15" width="2.33" height="2.33"/><polygon class="cls-1" points="58.63 16.78 56.31 16.78 56.31 19.1 58.63 19.1 58.63 16.78 60.96 16.78 60.96 14.45 58.63 14.45 58.63 16.78"/><polygon class="cls-1" points="47.01 14.45 44.68 14.45 44.68 16.78 47.01 16.78 47.01 19.1 49.33 19.1 49.33 16.78 47.01 16.78 47.01 14.45"/><polygon class="cls-1" points="47.01 5.15 49.33 5.15 49.33 2.83 47.01 2.83 47.01 5.15 44.68 5.15 44.68 7.47 47.01 7.47 47.01 5.15"/><rect class="cls-2" x="0.5" y="0.5" width="20.93" height="20.93"/><rect class="cls-2" x="21.43" y="0.5" width="20.93" height="20.93"/><rect class="cls-2" x="42.36" y="0.5" width="20.93" height="20.93"/><rect class="cls-2" x="63.28" y="0.5" width="20.93" height="20.93"/><rect class="cls-2" x="84.21" y="0.5" width="20.93" height="20.93"/><rect class="cls-2" x="0.5" y="21.43" width="20.93" height="20.93"/><rect class="cls-2" x="21.43" y="21.43" width="20.93" height="20.93"/><rect class="cls-2" x="42.36" y="21.43" width="20.93" height="20.93"/><rect class="cls-2" x="63.28" y="21.43" width="20.93" height="20.93"/><rect class="cls-2" x="84.21" y="21.43" width="20.93" height="20.93"/></g></g></svg>