<svg xmlns="http://www.w3.org/2000/svg" viewBox="0 0 105.64 42.86"><defs><style>.cls-1{fill:#010101;}.cls-2{fill:none;stroke:#010101;stroke-miterlimit:10;}</style></defs><g id="Layer_2" data-name="Layer 2"><g id="Layer_1-2" data-name="Layer 1"><polygon class="cls-1" points="65.61 2.83 67.94 2.83 67.94 0.5 63.28 0.5 63.28 5.15 65.61 5.15 65.61 2.83"/><polygon class="cls-1" points="65.61 16.78 63.28 16.78 63.28 21.43 67.94 21.43 67.94 19.1 65.61 19.1 65.61 16.78"/><polygon class="cls-1" points="81.89 19.1 79.56 19.1 79.56 21.43 84.21 21.43 84.21 16.78 81.89 16.78 81.89 19.1"/><polygon class="cls-1" points="79.56 0.5 79.56 2.83 81.89 2.83 81.89 5.15 84.21 5.15 84.21 0.5 79.56 0.5"/><rect class="cls-1" x="70.26" y="7.47" width="2.33" height="2.33"/><rect class="cls-1" x="74.91" y="7.47" width="2.33" height="2.33"/><rect class="cls-1" x="74.91" y="12.13" width="2.33" height="2.33"/><rect class="cls-1" x="70.26" y="12.13" width="2.33" height="2.33"/><rect class="cls-1" x="63.28" y="28.4" width="2.33" height="6.98"/><rect class="cls-1" x="81.89" y="28.4" width="2.32" height="6.98"/><rect class="cls-1" x="77.23" y="23.75" width="2.32" height="2.33"/><polygon class="cls-1" points="74.91 28.4 72.58 28.4 72.58 30.73 70.26 30.73 70.26 33.05 72.58 33.05 72.58 35.38 74.91 35.38 74.91 33.05 72.58 33.05 72.58 30.73 74.91 30.73 74.91 33.05 77.23 33.05 77.23 30.73 74.91 30.73 74.91 28.4"/><rect class="cls-1" x="79.56" y="26.08" width="2.33" height="2.33"/><polygon class="cls-1" points="79.56 37.7 77.23 37.7 77.23 40.03 79.56 40.03 79.56 37.71 81.89 37.71 81.89 35.38 79.56 35.38 79.56 37.7"/><polygon class="cls-1" points="67.93 35.38 65.61 35.38 65.61 37.71 67.93 37.71 67.93 40.03 70.26 40.03 70.26 37.7 67.93 37.7 67.93 35.38"/><polygon class="cls-1" points="67.93 26.08 70.26 26.08 70.26 23.75 67.93 23.75 67.93 26.08 65.61 26.08 65.61 28.4 67.93 28.4 67.93 26.08"/><polygon class="cls-1" points="53.98 40.03 51.66 40.03 51.66 37.7 49.33 37.7 49.33 42.35 56.31 42.35 56.31 37.7 53.98 37.7 53.98 40.03"/><polygon class="cls-1" points="49.33 26.08 51.66 26.08 51.66 23.75 53.98 23.75 53.98 26.08 56.31 26.08 56.31 21.43 49.33 21.43 49.33 26.08"/><polygon class="cls-1" points="58.63 28.4 58.63 30.73 60.96 30.73 60.96 33.05 58.63 33.05 58.63 35.38 63.28 35.38 63.28 28.4 58.63 28.4"/><rect class="cls-1" x="51.66" y="30.73" width="2.32" height="2.33"/><polygon class="cls-1" points="42.35 35.38 47.01 35.38 47.01 33.05 44.68 33.05 44.68 30.73 47.01 30.73 47.01 28.4 42.35 28.4 42.35 35.38"/><rect class="cls-1" x="42.36" y="28.4" width="2.33" height="6.98"/><rect class="cls-1" x="60.96" y="28.4" width="2.32" height="6.98"/><rect class="cls-1" x="56.31" y="23.75" width="2.32" height="2.33"/><polygon class="cls-1" points="53.98 28.4 51.66 28.4 51.66 30.73 49.33 30.73 49.33 33.05 51.66 33.05 51.66 35.38 53.98 35.38 53.98 33.05 51.66 33.05 51.66 30.73 53.98 30.73 53.98 33.05 56.31 33.05 56.31 30.73 53.98 30.73 53.98 28.4"/><rect class="cls-1" x="58.63" y="26.08" width="2.33" height="2.33"/><polygon class="cls-1" points="58.63 37.7 56.31 37.7 56.31 40.03 58.63 40.03 58.63 37.71 60.96 37.71 60.96 35.38 58.63 35.38 58.63 37.7"/><polygon class="cls-1" points="47.01 35.38 44.68 35.38 44.68 37.71 47.01 37.71 47.01 40.03 49.33 40.03 49.33 37.7 47.01 37.7 47.01 35.38"/><polygon class="cls-1" points="47.01 26.08 49.33 26.08 49.33 23.75 47.01 23.75 47.01 26.08 44.68 26.08 44.68 28.4 47.01 28.4 47.01 26.08"/><rect class="cls-2" x="0.5" y="0.5" width="20.93" height="20.93"/><rect class="cls-2" x="21.43" y="0.5" width="20.93" height="20.93"/><rect class="cls-2" x="42.36" y="0.5" width="20.93" height="20.93"/><rect class="cls-2" x="63.28" y="0.5" width="20.93" height="20.93"/><rect class="cls-2" x="84.21" y="0.5" width="20.93" height="20.93"/><rect class="cls-2" x="0.5" y="21.43" width="20.93" height="20.93"/><rect class="cls-2" x="21.43" y="21.43" width="20.93" height="20.93"/><rect class="cls-2" x="42.36" y="21.43" width="20.93" height="20.93"/><rect class="cls-2" x="63.28" y="21.43" width="20.93" height="20.93"/><rect class="cls-2" x="84.21" y="21.43" width="20.93" height="20.93"/></g></g></svg>