<svg xmlns="http://www.w3.org/2000/svg" viewBox="0 0 105.64 42.86"><defs><style>.cls-1{fill:#010101;}.cls-2{fill:none;stroke:#010101;stroke-miterlimit:10;}</style></defs><g id="Layer_2" data-name="Layer 2"><g id="Layer_1-2" data-name="Layer 1"><polygon class="cls-1" points="12.13 19.1 9.8 19.1 9.8 16.78 7.47 16.78 7.47 21.43 14.45 21.43 14.45 16.78 12.13 16.78 12.13 19.1"/><polygon class="cls-1" points="7.47 5.15 9.8 5.15 9.8 2.83 12.13 2.83 12.13 5.15 14.45 5.15 14.45 0.5 7.47 0.5 7.47 5.15"/><polygon class="cls-1" points="16.78 7.47 16.78 9.8 19.1 9.8 19.1 12.13 16.78 12.13 16.78 14.45 21.43 14.45 21.43 7.47 16.78 7.47"/><rect class="cls-1" x="9.8" y="9.8" width="2.32" height="2.33"/><polygon class="cls-1" points="0.5 14.45 5.15 14.45 5.15 12.13 2.82 12.13 2.82 9.8 5.15 9.8 5.15 7.47 0.5 7.47 0.5 14.45"/><polygon class="cls-1" points="44.68 2.66 47.01 2.66 47.01 0.34 42.36 0.34 42.36 4.99 44.68 4.99 44.68 2.66"/><polygon class="cls-1" points="44.68 16.61 42.35 16.61 42.35 21.26 47.01 21.26 47.01 18.94 44.68 18.94 44.68 16.61"/><polygon class="cls-1" points="60.96 18.94 58.63 18.94 58.63 21.26 63.28 21.26 63.28 16.61 60.96 16.61 60.96 18.94"/><polygon class="cls-1" points="58.63 0.34 58.63 2.66 60.96 2.66 60.96 4.99 63.28 4.99 63.28 0.34 58.63 0.34"/><rect class="cls-1" x="49.33" y="7.31" width="2.33" height="2.33"/><rect class="cls-1" x="53.98" y="7.31" width="2.33" height="2.33"/><rect class="cls-1" x="53.98" y="11.96" width="2.33" height="2.33"/><rect class="cls-1" x="49.33" y="11.96" width="2.33" height="2.33"/><rect class="cls-1" x="84.21" y="7.48" width="2.33" height="6.98"/><rect class="cls-1" x="102.81" y="7.48" width="2.32" height="6.98"/><rect class="cls-1" x="98.16" y="2.83" width="2.32" height="2.33"/><polygon class="cls-1" points="95.84 7.47 93.51 7.47 93.51 9.8 91.19 9.8 91.19 12.13 93.51 12.13 93.51 14.45 95.84 14.45 95.84 12.13 93.51 12.13 93.51 9.8 95.84 9.8 95.84 12.13 98.16 12.13 98.16 9.8 95.84 9.8 95.84 7.47"/><rect class="cls-1" x="100.49" y="5.15" width="2.33" height="2.33"/><polygon class="cls-1" points="100.49 16.78 98.16 16.78 98.16 19.1 100.49 19.1 100.49 16.78 102.81 16.78 102.81 14.45 100.49 14.45 100.49 16.78"/><polygon class="cls-1" points="88.86 14.45 86.54 14.45 86.54 16.78 88.86 16.78 88.86 19.1 91.19 19.1 91.19 16.78 88.86 16.78 88.86 14.45"/><polygon class="cls-1" points="88.86 5.15 91.19 5.15 91.19 2.83 88.86 2.83 88.86 5.15 86.54 5.15 86.54 7.47 88.86 7.47 88.86 5.15"/><rect class="cls-2" x="0.5" y="0.5" width="20.93" height="20.93"/><rect class="cls-2" x="21.43" y="0.5" width="20.93" height="20.93"/><rect class="cls-2" x="42.36" y="0.5" width="20.93" height="20.93"/><rect class="cls-2" x="63.28" y="0.5" width="20.93" height="20.93"/><rect class="cls-2" x="84.21" y="0.5" width="20.93" height="20.93"/><rect class="cls-2" x="0.5" y="21.43" width="20.93" height="20.93"/><rect class="cls-2" x="21.43" y="21.43" width="20.93" height="20.93"/><rect class="cls-2" x="42.36" y="21.43" width="20.93" height="20.93"/><rect class="cls-2" x="63.28" y="21.43" width="20.93" height="20.93"/><rect class="cls-2" x="84.21" y="21.43" width="20.93" height="20.93"/></g></g></svg>