<svg xmlns="http://www.w3.org/2000/svg" viewBox="0 0 105.64 42.86"><defs><style>.cls-1{fill:#010101;}.cls-2{fill:none;stroke:#010101;stroke-miterlimit:10;}</style></defs><g id="Layer_2" data-name="Layer 2"><g id="Layer_1-2" data-name="Layer 1"><polygon class="cls-1" points="53.98 39.53 51.66 39.53 51.66 37.2 49.33 37.2 49.33 41.85 56.31 41.85 56.31 37.2 53.98 37.2 53.98 39.53"/><polygon class="cls-1" points="49.33 25.57 51.66 25.57 51.66 23.25 53.98 23.25 53.98 25.57 56.31 25.57 56.31 20.92 49.33 20.92 49.33 25.57"/><polygon class="cls-1" points="58.63 27.9 58.63 30.22 60.96 30.22 60.96 32.55 58.63 32.55 58.63 34.87 63.28 34.87 63.28 27.9 58.63 27.9"/><rect class="cls-1" x="51.66" y="30.22" width="2.32" height="2.33"/><polygon class="cls-1" points="42.36 34.87 47.01 34.87 47.01 32.55 44.68 32.55 44.68 30.22 47.01 30.22 47.01 27.9 42.36 27.9 42.36 34.87"/><polygon class="cls-1" points="65.61 2.83 67.94 2.83 67.94 0.5 63.28 0.5 63.28 5.15 65.61 5.15 65.61 2.83"/><polygon class="cls-1" points="65.61 16.78 63.28 16.78 63.28 21.43 67.94 21.43 67.94 19.1 65.61 19.1 65.61 16.78"/><polygon class="cls-1" points="81.89 19.1 79.56 19.1 79.56 21.43 84.21 21.43 84.21 16.78 81.89 16.78 81.89 19.1"/><polygon class="cls-1" points="79.56 0.5 79.56 2.83 81.89 2.83 81.89 5.15 84.21 5.15 84.21 0.5 79.56 0.5"/><rect class="cls-1" x="70.26" y="7.47" width="2.33" height="2.33"/><rect class="cls-1" x="74.91" y="7.47" width="2.33" height="2.33"/><rect class="cls-1" x="74.91" y="12.13" width="2.33" height="2.33"/><rect class="cls-1" x="70.26" y="12.13" width="2.33" height="2.33"/><polygon class="cls-1" points="2.83 2.83 5.15 2.83 5.15 0.5 0.5 0.5 0.5 5.15 2.83 5.15 2.83 2.83"/><polygon class="cls-1" points="2.83 16.78 0.5 16.78 0.5 21.43 5.15 21.43 5.15 19.1 2.83 19.1 2.83 16.78"/><polygon class="cls-1" points="19.1 19.1 16.78 19.1 16.78 21.43 21.43 21.43 21.43 16.78 19.1 16.78 19.1 19.1"/><polygon class="cls-1" points="16.78 0.5 16.78 2.83 19.1 2.83 19.1 5.15 21.43 5.15 21.43 0.5 16.78 0.5"/><rect class="cls-1" x="7.48" y="7.47" width="2.33" height="2.33"/><rect class="cls-1" x="12.13" y="7.47" width="2.33" height="2.33"/><rect class="cls-1" x="12.13" y="12.13" width="2.33" height="2.33"/><rect class="cls-1" x="7.48" y="12.13" width="2.33" height="2.33"/><rect class="cls-1" x="84.21" y="7.48" width="2.33" height="6.98"/><rect class="cls-1" x="102.81" y="7.48" width="2.32" height="6.98"/><rect class="cls-1" x="98.16" y="2.83" width="2.32" height="2.33"/><polygon class="cls-1" points="95.84 7.47 93.51 7.47 93.51 9.8 91.19 9.8 91.19 12.13 93.51 12.13 93.51 14.45 95.84 14.45 95.84 12.13 93.51 12.13 93.51 9.8 95.84 9.8 95.84 12.13 98.16 12.13 98.16 9.8 95.84 9.8 95.84 7.47"/><rect class="cls-1" x="100.49" y="5.15" width="2.33" height="2.33"/><polygon class="cls-1" points="100.49 16.78 98.16 16.78 98.16 19.1 100.49 19.1 100.49 16.78 102.81 16.78 102.81 14.45 100.49 14.45 100.49 16.78"/><polygon class="cls-1" points="88.86 14.45 86.54 14.45 86.54 16.78 88.86 16.78 88.86 19.1 91.19 19.1 91.19 16.78 88.86 16.78 88.86 14.45"/><polygon class="cls-1" points="88.86 5.15 91.19 5.15 91.19 2.83 88.86 2.83 88.86 5.15 86.54 5.15 86.54 7.47 88.86 7.47 88.86 5.15"/><rect class="cls-1" x="42.36" y="27.9" width="2.33" height="6.98"/><rect class="cls-1" x="60.96" y="27.9" width="2.32" height="6.98"/><rect class="cls-1" x="56.31" y="23.25" width="2.32" height="2.33"/><polygon class="cls-1" points="53.98 27.9 51.66 27.9 51.66 30.22 49.33 30.22 49.33 32.55 51.66 32.55 51.66 34.87 53.98 34.87 53.98 32.55 51.66 32.55 51.66 30.22 53.98 30.22 53.98 32.55 56.31 32.55 56.31 30.22 53.98 30.22 53.98 27.9"/><rect class="cls-1" x="58.63" y="25.57" width="2.33" height="2.33"/><polygon class="cls-1" points="58.63 37.2 56.31 37.2 56.31 39.53 58.63 39.53 58.63 37.2 60.96 37.2 60.96 34.87 58.63 34.87 58.63 37.2"/><polygon class="cls-1" points="47.01 34.87 44.68 34.87 44.68 37.2 47.01 37.2 47.01 39.53 49.33 39.53 49.33 37.2 47.01 37.2 47.01 34.87"/><polygon class="cls-1" points="47.01 25.57 49.33 25.57 49.33 23.25 47.01 23.25 47.01 25.57 44.68 25.57 44.68 27.9 47.01 27.9 47.01 25.57"/><rect class="cls-2" x="0.5" y="0.5" width="20.93" height="20.93"/><rect class="cls-2" x="21.43" y="0.5" width="20.93" height="20.93"/><rect class="cls-2" x="42.36" y="0.5" width="20.93" height="20.93"/><rect class="cls-2" x="63.28" y="0.5" width="20.93" height="20.93"/><rect class="cls-2" x="84.21" y="0.5" width="20.93" height="20.93"/><rect class="cls-2" x="0.5" y="21.43" width="20.93" height="20.93"/><rect class="cls-2" x="21.43" y="21.43" width="20.93" height="20.93"/><rect class="cls-2" x="42.36" y="21.43" width="20.93" height="20.93"/><rect class="cls-2" x="63.28" y="21.43" width="20.93" height="20.93"/><rect class="cls-2" x="84.21" y="21.43" width="20.93" height="20.93"/></g></g></svg>