<svg width="24" height="23" viewBox="0 0 24 23" fill="none" xmlns="http://www.w3.org/2000/svg">
<path d="M23.5399 21.43C23.5399 21.89 23.1699 22.26 22.7199 22.26H22.6799C20.1899 22.14 13.1599 21.81 12.0899 21.81C11.0199 21.81 3.98988 22.15 1.49988 22.26C1.01988 22.29 0.629883 21.91 0.629883 21.43C0.629883 21.23 0.699875 21.05 0.809875 20.91C0.919875 20.77 1.08988 20.66 1.27988 20.62C1.90988 20.49 3.03989 20.27 4.91989 19.97C8.21989 19.44 8.21988 17.52 8.21988 14.28C8.21988 12.54 8.32988 5.98001 8.43988 0.26001H15.7099C15.8099 5.99001 15.9299 12.55 15.9299 14.28C15.9299 17.52 15.9299 19.44 19.2299 19.97C21.1099 20.27 22.2399 20.49 22.8699 20.62C23.2699 20.7 23.5399 21.03 23.5399 21.43Z" fill="black"/>
</svg>
