<svg xmlns="http://www.w3.org/2000/svg" viewBox="0 0 105.64 42.86"><defs><style>.cls-1{fill:#010101;}.cls-2{fill:none;stroke:#010101;stroke-miterlimit:10;}</style></defs><g id="Layer_2" data-name="Layer 2"><g id="Layer_1-2" data-name="Layer 1"><polygon class="cls-1" points="44.68 2.83 47.01 2.83 47.01 0.5 42.36 0.5 42.36 5.15 44.68 5.15 44.68 2.83"/><polygon class="cls-1" points="44.68 16.78 42.35 16.78 42.35 21.43 47.01 21.43 47.01 19.1 44.68 19.1 44.68 16.78"/><polygon class="cls-1" points="60.96 19.1 58.63 19.1 58.63 21.43 63.28 21.43 63.28 16.78 60.96 16.78 60.96 19.1"/><polygon class="cls-1" points="58.63 0.5 58.63 2.83 60.96 2.83 60.96 5.15 63.28 5.15 63.28 0.5 58.63 0.5"/><rect class="cls-1" x="49.33" y="7.47" width="2.33" height="2.33"/><rect class="cls-1" x="53.98" y="7.47" width="2.33" height="2.33"/><rect class="cls-1" x="53.98" y="12.13" width="2.33" height="2.33"/><rect class="cls-1" x="49.33" y="12.13" width="2.33" height="2.33"/><polygon class="cls-1" points="53.98 40.03 51.66 40.03 51.66 37.7 49.33 37.7 49.33 42.35 56.31 42.35 56.31 37.7 53.98 37.7 53.98 40.03"/><polygon class="cls-1" points="49.33 26.08 51.66 26.08 51.66 23.75 53.98 23.75 53.98 26.08 56.31 26.08 56.31 21.43 49.33 21.43 49.33 26.08"/><polygon class="cls-1" points="58.63 28.4 58.63 30.73 60.96 30.73 60.96 33.05 58.63 33.05 58.63 35.38 63.28 35.38 63.28 28.4 58.63 28.4"/><rect class="cls-1" x="51.66" y="30.73" width="2.32" height="2.33"/><polygon class="cls-1" points="42.36 35.38 47.01 35.38 47.01 33.05 44.68 33.05 44.68 30.73 47.01 30.73 47.01 28.4 42.36 28.4 42.36 35.38"/><rect class="cls-2" x="0.5" y="0.5" width="20.93" height="20.93"/><rect class="cls-2" x="21.43" y="0.5" width="20.93" height="20.93"/><rect class="cls-2" x="42.36" y="0.5" width="20.93" height="20.93"/><rect class="cls-2" x="63.28" y="0.5" width="20.93" height="20.93"/><rect class="cls-2" x="84.21" y="0.5" width="20.93" height="20.93"/><rect class="cls-2" x="0.5" y="21.43" width="20.93" height="20.93"/><rect class="cls-2" x="21.43" y="21.43" width="20.93" height="20.93"/><rect class="cls-2" x="42.36" y="21.43" width="20.93" height="20.93"/><rect class="cls-2" x="63.28" y="21.43" width="20.93" height="20.93"/><rect class="cls-2" x="84.21" y="21.43" width="20.93" height="20.93"/></g></g></svg>