<svg xmlns="http://www.w3.org/2000/svg" viewBox="0 0 105.64 42.86"><defs><style>.cls-1{fill:#010101;}.cls-2{fill:none;stroke:#010101;stroke-miterlimit:10;}</style></defs><g id="Layer_2" data-name="Layer 2"><g id="Layer_1-2" data-name="Layer 1"><polygon class="cls-1" points="23.75 2.83 26.08 2.83 26.08 0.5 21.43 0.5 21.43 5.15 23.75 5.15 23.75 2.83"/><polygon class="cls-1" points="23.75 16.78 21.43 16.78 21.43 21.43 26.08 21.43 26.08 19.1 23.75 19.1 23.75 16.78"/><polygon class="cls-1" points="40.03 19.1 37.7 19.1 37.7 21.43 42.36 21.43 42.36 16.78 40.03 16.78 40.03 19.1"/><polygon class="cls-1" points="37.7 0.5 37.7 2.83 40.03 2.83 40.03 5.15 42.36 5.15 42.36 0.5 37.7 0.5"/><rect class="cls-1" x="28.4" y="7.47" width="2.33" height="2.33"/><rect class="cls-1" x="33.06" y="7.47" width="2.33" height="2.33"/><rect class="cls-1" x="33.06" y="12.13" width="2.33" height="2.33"/><rect class="cls-1" x="28.4" y="12.13" width="2.33" height="2.33"/><polygon class="cls-1" points="65.61 2.83 67.94 2.83 67.94 0.5 63.28 0.5 63.28 5.15 65.61 5.15 65.61 2.83"/><polygon class="cls-1" points="65.61 16.78 63.28 16.78 63.28 21.43 67.94 21.43 67.94 19.1 65.61 19.1 65.61 16.78"/><polygon class="cls-1" points="81.89 19.1 79.56 19.1 79.56 21.43 84.21 21.43 84.21 16.78 81.89 16.78 81.89 19.1"/><polygon class="cls-1" points="79.56 0.5 79.56 2.83 81.89 2.83 81.89 5.15 84.21 5.15 84.21 0.5 79.56 0.5"/><rect class="cls-1" x="70.26" y="7.47" width="2.33" height="2.33"/><rect class="cls-1" x="74.91" y="7.47" width="2.33" height="2.33"/><rect class="cls-1" x="74.91" y="12.13" width="2.33" height="2.33"/><rect class="cls-1" x="70.26" y="12.13" width="2.33" height="2.33"/><polygon class="cls-1" points="95.84 19.1 93.51 19.1 93.51 16.78 91.19 16.78 91.19 21.43 98.16 21.43 98.16 16.78 95.84 16.78 95.84 19.1"/><polygon class="cls-1" points="91.19 5.15 93.51 5.15 93.51 2.83 95.84 2.83 95.84 5.15 98.16 5.15 98.16 0.5 91.19 0.5 91.19 5.15"/><polygon class="cls-1" points="100.49 7.47 100.49 9.8 102.81 9.8 102.81 12.13 100.49 12.13 100.49 14.45 105.14 14.45 105.14 7.47 100.49 7.47"/><rect class="cls-1" x="93.51" y="9.8" width="2.32" height="2.33"/><polygon class="cls-1" points="84.21 14.45 88.86 14.45 88.86 12.13 86.54 12.13 86.54 9.8 88.86 9.8 88.86 7.47 84.21 7.47 84.21 14.45"/><rect class="cls-1" x="0.5" y="28.4" width="2.33" height="6.98"/><rect class="cls-1" x="19.1" y="28.4" width="2.32" height="6.98"/><rect class="cls-1" x="14.45" y="23.75" width="2.32" height="2.33"/><polygon class="cls-1" points="12.13 28.4 9.8 28.4 9.8 30.73 7.47 30.73 7.47 33.05 9.8 33.05 9.8 35.38 12.13 35.38 12.13 33.05 9.8 33.05 9.8 30.73 12.13 30.73 12.13 33.05 14.45 33.05 14.45 30.73 12.13 30.73 12.13 28.4"/><rect class="cls-1" x="16.78" y="26.08" width="2.33" height="2.33"/><polygon class="cls-1" points="16.78 37.7 14.45 37.7 14.45 40.03 16.78 40.03 16.78 37.71 19.1 37.71 19.1 35.38 16.78 35.38 16.78 37.7"/><polygon class="cls-1" points="5.15 35.38 2.83 35.38 2.83 37.71 5.15 37.71 5.15 40.03 7.47 40.03 7.47 37.7 5.15 37.7 5.15 35.38"/><polygon class="cls-1" points="5.15 26.08 7.47 26.08 7.47 23.75 5.15 23.75 5.15 26.08 2.83 26.08 2.83 28.4 5.15 28.4 5.15 26.08"/><rect class="cls-1" x="63.28" y="28.4" width="2.33" height="6.98"/><rect class="cls-1" x="81.89" y="28.4" width="2.32" height="6.98"/><rect class="cls-1" x="77.23" y="23.75" width="2.32" height="2.33"/><polygon class="cls-1" points="74.91 28.4 72.58 28.4 72.58 30.73 70.26 30.73 70.26 33.05 72.58 33.05 72.58 35.38 74.91 35.38 74.91 33.05 72.58 33.05 72.58 30.73 74.91 30.73 74.91 33.05 77.23 33.05 77.23 30.73 74.91 30.73 74.91 28.4"/><rect class="cls-1" x="79.56" y="26.08" width="2.33" height="2.33"/><polygon class="cls-1" points="79.56 37.7 77.23 37.7 77.23 40.03 79.56 40.03 79.56 37.71 81.89 37.71 81.89 35.38 79.56 35.38 79.56 37.7"/><polygon class="cls-1" points="67.93 35.38 65.61 35.38 65.61 37.71 67.93 37.71 67.93 40.03 70.26 40.03 70.26 37.7 67.93 37.7 67.93 35.38"/><polygon class="cls-1" points="67.93 26.08 70.26 26.08 70.26 23.75 67.93 23.75 67.93 26.08 65.61 26.08 65.61 28.4 67.93 28.4 67.93 26.08"/><rect class="cls-1" x="84.21" y="7.48" width="2.33" height="6.98"/><rect class="cls-1" x="102.81" y="7.48" width="2.32" height="6.98"/><rect class="cls-1" x="98.16" y="2.83" width="2.32" height="2.33"/><polygon class="cls-1" points="95.84 7.47 93.51 7.47 93.51 9.8 91.19 9.8 91.19 12.13 93.51 12.13 93.51 14.45 95.84 14.45 95.84 12.13 93.51 12.13 93.51 9.8 95.84 9.8 95.84 12.13 98.16 12.13 98.16 9.8 95.84 9.8 95.84 7.47"/><rect class="cls-1" x="100.49" y="5.15" width="2.33" height="2.33"/><polygon class="cls-1" points="100.49 16.78 98.16 16.78 98.16 19.1 100.49 19.1 100.49 16.78 102.81 16.78 102.81 14.45 100.49 14.45 100.49 16.78"/><polygon class="cls-1" points="88.86 14.45 86.54 14.45 86.54 16.78 88.86 16.78 88.86 19.1 91.19 19.1 91.19 16.78 88.86 16.78 88.86 14.45"/><polygon class="cls-1" points="88.86 5.15 91.19 5.15 91.19 2.83 88.86 2.83 88.86 5.15 86.54 5.15 86.54 7.47 88.86 7.47 88.86 5.15"/><rect class="cls-2" x="0.5" y="0.5" width="20.93" height="20.93"/><rect class="cls-2" x="21.43" y="0.5" width="20.93" height="20.93"/><rect class="cls-2" x="42.36" y="0.5" width="20.93" height="20.93"/><rect class="cls-2" x="63.28" y="0.5" width="20.93" height="20.93"/><rect class="cls-2" x="84.21" y="0.5" width="20.93" height="20.93"/><rect class="cls-2" x="0.5" y="21.43" width="20.93" height="20.93"/><rect class="cls-2" x="21.43" y="21.43" width="20.93" height="20.93"/><rect class="cls-2" x="42.36" y="21.43" width="20.93" height="20.93"/><rect class="cls-2" x="63.28" y="21.43" width="20.93" height="20.93"/><rect class="cls-2" x="84.21" y="21.43" width="20.93" height="20.93"/></g></g></svg>