<svg xmlns="http://www.w3.org/2000/svg" viewBox="0 0 105.64 42.86"><defs><style>.cls-1{fill:#010101;}.cls-2{fill:none;stroke:#010101;stroke-miterlimit:10;}</style></defs><g id="Layer_2" data-name="Layer 2"><g id="Layer_1-2" data-name="Layer 1"><polygon class="cls-1" points="23.75 2.83 26.08 2.83 26.08 0.5 21.43 0.5 21.43 5.15 23.75 5.15 23.75 2.83"/><polygon class="cls-1" points="23.75 16.78 21.43 16.78 21.43 21.43 26.08 21.43 26.08 19.1 23.75 19.1 23.75 16.78"/><polygon class="cls-1" points="40.03 19.1 37.7 19.1 37.7 21.43 42.36 21.43 42.36 16.78 40.03 16.78 40.03 19.1"/><polygon class="cls-1" points="37.7 0.5 37.7 2.83 40.03 2.83 40.03 5.15 42.36 5.15 42.36 0.5 37.7 0.5"/><rect class="cls-1" x="28.4" y="7.47" width="2.33" height="2.33"/><rect class="cls-1" x="33.06" y="7.47" width="2.33" height="2.33"/><rect class="cls-1" x="33.06" y="12.13" width="2.33" height="2.33"/><rect class="cls-1" x="28.4" y="12.13" width="2.33" height="2.33"/><polygon class="cls-1" points="53.98 19.1 51.66 19.1 51.66 16.78 49.33 16.78 49.33 21.43 56.31 21.43 56.31 16.78 53.98 16.78 53.98 19.1"/><polygon class="cls-1" points="49.33 5.15 51.66 5.15 51.66 2.83 53.98 2.83 53.98 5.15 56.31 5.15 56.31 0.5 49.33 0.5 49.33 5.15"/><polygon class="cls-1" points="58.63 7.47 58.63 9.8 60.96 9.8 60.96 12.13 58.63 12.13 58.63 14.45 63.28 14.45 63.28 7.47 58.63 7.47"/><rect class="cls-1" x="51.66" y="9.8" width="2.32" height="2.33"/><polygon class="cls-1" points="42.36 14.45 47.01 14.45 47.01 12.13 44.68 12.13 44.68 9.8 47.01 9.8 47.01 7.47 42.36 7.47 42.36 14.45"/><rect class="cls-2" x="0.5" y="0.5" width="20.93" height="20.93"/><rect class="cls-2" x="21.43" y="0.5" width="20.93" height="20.93"/><rect class="cls-2" x="42.36" y="0.5" width="20.93" height="20.93"/><rect class="cls-2" x="63.28" y="0.5" width="20.93" height="20.93"/><rect class="cls-2" x="84.21" y="0.5" width="20.93" height="20.93"/><rect class="cls-2" x="0.5" y="21.43" width="20.93" height="20.93"/><rect class="cls-2" x="21.43" y="21.43" width="20.93" height="20.93"/><rect class="cls-2" x="42.36" y="21.43" width="20.93" height="20.93"/><rect class="cls-2" x="63.28" y="21.43" width="20.93" height="20.93"/><rect class="cls-2" x="84.21" y="21.43" width="20.93" height="20.93"/></g></g></svg>