<svg xmlns="http://www.w3.org/2000/svg" viewBox="0 0 105.64 42.86"><defs><style>.cls-1{fill:#010101;}.cls-2{fill:none;stroke:#010101;stroke-miterlimit:10;}</style></defs><g id="Layer_2" data-name="Layer 2"><g id="Layer_1-2" data-name="Layer 1"><polygon class="cls-1" points="2.83 2.83 5.15 2.83 5.15 0.5 0.5 0.5 0.5 5.15 2.83 5.15 2.83 2.83"/><polygon class="cls-1" points="2.83 16.78 0.5 16.78 0.5 21.43 5.15 21.43 5.15 19.1 2.83 19.1 2.83 16.78"/><polygon class="cls-1" points="19.1 19.1 16.78 19.1 16.78 21.43 21.43 21.43 21.43 16.78 19.1 16.78 19.1 19.1"/><polygon class="cls-1" points="16.78 0.5 16.78 2.83 19.1 2.83 19.1 5.15 21.43 5.15 21.43 0.5 16.78 0.5"/><rect class="cls-1" x="7.48" y="7.47" width="2.33" height="2.33"/><rect class="cls-1" x="12.13" y="7.47" width="2.33" height="2.33"/><rect class="cls-1" x="12.13" y="12.13" width="2.33" height="2.33"/><rect class="cls-1" x="7.48" y="12.13" width="2.33" height="2.33"/><polygon class="cls-1" points="53.98 40.03 51.66 40.03 51.66 37.7 49.33 37.7 49.33 42.35 56.31 42.35 56.31 37.7 53.98 37.7 53.98 40.03"/><polygon class="cls-1" points="49.33 26.08 51.66 26.08 51.66 23.75 53.98 23.75 53.98 26.08 56.31 26.08 56.31 21.43 49.33 21.43 49.33 26.08"/><polygon class="cls-1" points="58.63 28.4 58.63 30.73 60.96 30.73 60.96 33.05 58.63 33.05 58.63 35.38 63.28 35.38 63.28 28.4 58.63 28.4"/><rect class="cls-1" x="51.66" y="30.73" width="2.32" height="2.33"/><polygon class="cls-1" points="42.36 35.38 47.01 35.38 47.01 33.05 44.68 33.05 44.68 30.73 47.01 30.73 47.01 28.4 42.36 28.4 42.36 35.38"/><rect class="cls-1" x="84.21" y="28.4" width="2.33" height="6.98"/><rect class="cls-1" x="102.81" y="28.4" width="2.32" height="6.98"/><rect class="cls-1" x="98.16" y="23.75" width="2.32" height="2.33"/><polygon class="cls-1" points="95.84 28.4 93.51 28.4 93.51 30.73 91.19 30.73 91.19 33.05 93.51 33.05 93.51 35.38 95.84 35.38 95.84 33.05 93.51 33.05 93.51 30.73 95.84 30.73 95.84 33.05 98.16 33.05 98.16 30.73 95.84 30.73 95.84 28.4"/><rect class="cls-1" x="100.49" y="26.08" width="2.33" height="2.33"/><polygon class="cls-1" points="100.49 37.7 98.16 37.7 98.16 40.03 100.49 40.03 100.49 37.71 102.81 37.71 102.81 35.38 100.49 35.38 100.49 37.7"/><polygon class="cls-1" points="88.86 35.38 86.54 35.38 86.54 37.71 88.86 37.71 88.86 40.03 91.19 40.03 91.19 37.7 88.86 37.7 88.86 35.38"/><polygon class="cls-1" points="88.86 26.08 91.19 26.08 91.19 23.75 88.86 23.75 88.86 26.08 86.54 26.08 86.54 28.4 88.86 28.4 88.86 26.08"/><rect class="cls-2" x="0.5" y="0.5" width="20.93" height="20.93"/><rect class="cls-2" x="21.43" y="0.5" width="20.93" height="20.93"/><rect class="cls-2" x="42.36" y="0.5" width="20.93" height="20.93"/><rect class="cls-2" x="63.28" y="0.5" width="20.93" height="20.93"/><rect class="cls-2" x="84.21" y="0.5" width="20.93" height="20.93"/><rect class="cls-2" x="0.5" y="21.43" width="20.93" height="20.93"/><rect class="cls-2" x="21.43" y="21.43" width="20.93" height="20.93"/><rect class="cls-2" x="42.36" y="21.43" width="20.93" height="20.93"/><rect class="cls-2" x="63.28" y="21.43" width="20.93" height="20.93"/><rect class="cls-2" x="84.21" y="21.43" width="20.93" height="20.93"/></g></g></svg>