<svg xmlns="http://www.w3.org/2000/svg" viewBox="0 0 105.64 42.86"><defs><style>.cls-1{fill:#010101;}.cls-2{fill:none;stroke:#010101;stroke-miterlimit:10;}</style></defs><g id="Layer_2" data-name="Layer 2"><g id="Layer_1-2" data-name="Layer 1"><polygon class="cls-1" points="2.83 2.83 5.15 2.83 5.15 0.5 0.5 0.5 0.5 5.15 2.83 5.15 2.83 2.83"/><polygon class="cls-1" points="2.83 16.78 0.5 16.78 0.5 21.43 5.15 21.43 5.15 19.1 2.83 19.1 2.83 16.78"/><polygon class="cls-1" points="19.1 19.1 16.78 19.1 16.78 21.43 21.43 21.43 21.43 16.78 19.1 16.78 19.1 19.1"/><polygon class="cls-1" points="16.78 0.5 16.78 2.83 19.1 2.83 19.1 5.15 21.43 5.15 21.43 0.5 16.78 0.5"/><rect class="cls-1" x="7.48" y="7.47" width="2.33" height="2.33"/><rect class="cls-1" x="12.13" y="7.47" width="2.33" height="2.33"/><rect class="cls-1" x="12.13" y="12.13" width="2.33" height="2.33"/><rect class="cls-1" x="7.48" y="12.13" width="2.33" height="2.33"/><polygon class="cls-1" points="53.98 40.03 51.66 40.03 51.66 37.7 49.33 37.7 49.33 42.35 56.31 42.35 56.31 37.7 53.98 37.7 53.98 40.03"/><polygon class="cls-1" points="49.33 26.08 51.66 26.08 51.66 23.75 53.98 23.75 53.98 26.08 56.31 26.08 56.31 21.43 49.33 21.43 49.33 26.08"/><polygon class="cls-1" points="58.63 28.4 58.63 30.73 60.96 30.73 60.96 33.05 58.63 33.05 58.63 35.38 63.28 35.38 63.28 28.4 58.63 28.4"/><rect class="cls-1" x="51.66" y="30.73" width="2.32" height="2.33"/><polygon class="cls-1" points="42.36 35.38 47.01 35.38 47.01 33.05 44.68 33.05 44.68 30.73 47.01 30.73 47.01 28.4 42.36 28.4 42.36 35.38"/><rect class="cls-1" x="0.5" y="7.48" width="2.33" height="6.98"/><rect class="cls-1" x="19.1" y="7.48" width="2.32" height="6.98"/><rect class="cls-1" x="14.45" y="2.83" width="2.32" height="2.33"/><polygon class="cls-1" points="12.13 7.47 9.8 7.47 9.8 9.8 7.47 9.8 7.47 12.13 9.8 12.13 9.8 14.45 12.13 14.45 12.13 12.13 9.8 12.13 9.8 9.8 12.13 9.8 12.13 12.13 14.45 12.13 14.45 9.8 12.13 9.8 12.13 7.47"/><rect class="cls-1" x="16.78" y="5.15" width="2.33" height="2.33"/><polygon class="cls-1" points="16.78 16.78 14.45 16.78 14.45 19.1 16.78 19.1 16.78 16.78 19.1 16.78 19.1 14.45 16.78 14.45 16.78 16.78"/><polygon class="cls-1" points="5.15 14.45 2.83 14.45 2.83 16.78 5.15 16.78 5.15 19.1 7.47 19.1 7.47 16.78 5.15 16.78 5.15 14.45"/><polygon class="cls-1" points="5.15 5.15 7.47 5.15 7.47 2.83 5.15 2.83 5.15 5.15 2.83 5.15 2.83 7.47 5.15 7.47 5.15 5.15"/><rect class="cls-2" x="0.5" y="0.5" width="20.93" height="20.93"/><rect class="cls-2" x="21.43" y="0.5" width="20.93" height="20.93"/><rect class="cls-2" x="42.36" y="0.5" width="20.93" height="20.93"/><rect class="cls-2" x="63.28" y="0.5" width="20.93" height="20.93"/><rect class="cls-2" x="84.21" y="0.5" width="20.93" height="20.93"/><rect class="cls-2" x="0.5" y="21.43" width="20.93" height="20.93"/><rect class="cls-2" x="21.43" y="21.43" width="20.93" height="20.93"/><rect class="cls-2" x="42.36" y="21.43" width="20.93" height="20.93"/><rect class="cls-2" x="63.28" y="21.43" width="20.93" height="20.93"/><rect class="cls-2" x="84.21" y="21.43" width="20.93" height="20.93"/></g></g></svg>