<svg xmlns="http://www.w3.org/2000/svg" viewBox="0 0 105.64 42.86"><defs><style>.cls-1{fill:#010101;}.cls-2{fill:none;stroke:#010101;stroke-miterlimit:10;}</style></defs><g id="Layer_2" data-name="Layer 2"><g id="Layer_1-2" data-name="Layer 1"><polygon class="cls-1" points="23.75 2.83 26.08 2.83 26.08 0.5 21.43 0.5 21.43 5.15 23.75 5.15 23.75 2.83"/><polygon class="cls-1" points="23.75 16.78 21.43 16.78 21.43 21.43 26.08 21.43 26.08 19.1 23.75 19.1 23.75 16.78"/><polygon class="cls-1" points="40.03 19.1 37.7 19.1 37.7 21.43 42.36 21.43 42.36 16.78 40.03 16.78 40.03 19.1"/><polygon class="cls-1" points="37.7 0.5 37.7 2.83 40.03 2.83 40.03 5.15 42.36 5.15 42.36 0.5 37.7 0.5"/><rect class="cls-1" x="28.4" y="7.47" width="2.33" height="2.33"/><rect class="cls-1" x="33.06" y="7.47" width="2.33" height="2.33"/><rect class="cls-1" x="33.06" y="12.13" width="2.33" height="2.33"/><rect class="cls-1" x="28.4" y="12.13" width="2.33" height="2.33"/><polygon class="cls-1" points="65.61 2.83 67.94 2.83 67.94 0.5 63.28 0.5 63.28 5.15 65.61 5.15 65.61 2.83"/><polygon class="cls-1" points="65.61 16.78 63.28 16.78 63.28 21.43 67.94 21.43 67.94 19.1 65.61 19.1 65.61 16.78"/><polygon class="cls-1" points="81.89 19.1 79.56 19.1 79.56 21.43 84.21 21.43 84.21 16.78 81.89 16.78 81.89 19.1"/><polygon class="cls-1" points="79.56 0.5 79.56 2.83 81.89 2.83 81.89 5.15 84.21 5.15 84.21 0.5 79.56 0.5"/><rect class="cls-1" x="70.26" y="7.47" width="2.33" height="2.33"/><rect class="cls-1" x="74.91" y="7.47" width="2.33" height="2.33"/><rect class="cls-1" x="74.91" y="12.13" width="2.33" height="2.33"/><rect class="cls-1" x="70.26" y="12.13" width="2.33" height="2.33"/><polygon class="cls-1" points="33.05 40.03 30.73 40.03 30.73 37.7 28.4 37.7 28.4 42.35 35.38 42.35 35.38 37.7 33.05 37.7 33.05 40.03"/><polygon class="cls-1" points="28.4 26.08 30.73 26.08 30.73 23.75 33.05 23.75 33.05 26.08 35.38 26.08 35.38 21.43 28.4 21.43 28.4 26.08"/><polygon class="cls-1" points="37.71 28.4 37.71 30.73 40.03 30.73 40.03 33.05 37.71 33.05 37.71 35.38 42.36 35.38 42.36 28.4 37.71 28.4"/><rect class="cls-1" x="30.73" y="30.73" width="2.32" height="2.33"/><polygon class="cls-1" points="21.43 35.38 26.08 35.38 26.08 33.05 23.75 33.05 23.75 30.73 26.08 30.73 26.08 28.4 21.43 28.4 21.43 35.38"/><rect class="cls-2" x="0.5" y="0.5" width="20.93" height="20.93"/><rect class="cls-2" x="21.43" y="0.5" width="20.93" height="20.93"/><rect class="cls-2" x="42.36" y="0.5" width="20.93" height="20.93"/><rect class="cls-2" x="63.28" y="0.5" width="20.93" height="20.93"/><rect class="cls-2" x="84.21" y="0.5" width="20.93" height="20.93"/><rect class="cls-2" x="0.5" y="21.43" width="20.93" height="20.93"/><rect class="cls-2" x="21.43" y="21.43" width="20.93" height="20.93"/><rect class="cls-2" x="42.36" y="21.43" width="20.93" height="20.93"/><rect class="cls-2" x="63.28" y="21.43" width="20.93" height="20.93"/><rect class="cls-2" x="84.21" y="21.43" width="20.93" height="20.93"/></g></g></svg>