<svg xmlns="http://www.w3.org/2000/svg" viewBox="0 0 105.64 42.86"><defs><style>.cls-1{fill:#010101;}.cls-2{fill:none;stroke:#010101;stroke-miterlimit:10;}</style></defs><g id="Layer_2" data-name="Layer 2"><g id="Layer_1-2" data-name="Layer 1"><polygon class="cls-1" points="44.68 2.83 47.01 2.83 47.01 0.5 42.36 0.5 42.36 5.15 44.68 5.15 44.68 2.83"/><polygon class="cls-1" points="44.68 16.78 42.35 16.78 42.35 21.43 47.01 21.43 47.01 19.1 44.68 19.1 44.68 16.78"/><polygon class="cls-1" points="60.96 19.1 58.63 19.1 58.63 21.43 63.28 21.43 63.28 16.78 60.96 16.78 60.96 19.1"/><polygon class="cls-1" points="58.63 0.5 58.63 2.83 60.96 2.83 60.96 5.15 63.28 5.15 63.28 0.5 58.63 0.5"/><rect class="cls-1" x="49.33" y="7.47" width="2.33" height="2.33"/><rect class="cls-1" x="53.98" y="7.47" width="2.33" height="2.33"/><rect class="cls-1" x="53.98" y="12.13" width="2.33" height="2.33"/><rect class="cls-1" x="49.33" y="12.13" width="2.33" height="2.33"/><polygon class="cls-1" points="33.05 40.03 30.73 40.03 30.73 37.7 28.4 37.7 28.4 42.35 35.38 42.35 35.38 37.7 33.05 37.7 33.05 40.03"/><polygon class="cls-1" points="28.4 26.08 30.73 26.08 30.73 23.75 33.05 23.75 33.05 26.08 35.38 26.08 35.38 21.43 28.4 21.43 28.4 26.08"/><polygon class="cls-1" points="37.71 28.4 37.71 30.73 40.03 30.73 40.03 33.05 37.71 33.05 37.71 35.38 42.36 35.38 42.36 28.4 37.71 28.4"/><rect class="cls-1" x="30.73" y="30.73" width="2.32" height="2.33"/><polygon class="cls-1" points="21.43 35.38 26.08 35.38 26.08 33.05 23.75 33.05 23.75 30.73 26.08 30.73 26.08 28.4 21.43 28.4 21.43 35.38"/><rect class="cls-1" x="63.28" y="7.48" width="2.33" height="6.98"/><rect class="cls-1" x="81.89" y="7.48" width="2.32" height="6.98"/><rect class="cls-1" x="77.23" y="2.83" width="2.32" height="2.33"/><polygon class="cls-1" points="74.91 7.47 72.58 7.47 72.58 9.8 70.26 9.8 70.26 12.13 72.58 12.13 72.58 14.45 74.91 14.45 74.91 12.13 72.58 12.13 72.58 9.8 74.91 9.8 74.91 12.13 77.23 12.13 77.23 9.8 74.91 9.8 74.91 7.47"/><rect class="cls-1" x="79.56" y="5.15" width="2.33" height="2.33"/><polygon class="cls-1" points="79.56 16.78 77.23 16.78 77.23 19.1 79.56 19.1 79.56 16.78 81.89 16.78 81.89 14.45 79.56 14.45 79.56 16.78"/><polygon class="cls-1" points="67.93 14.45 65.61 14.45 65.61 16.78 67.93 16.78 67.93 19.1 70.26 19.1 70.26 16.78 67.93 16.78 67.93 14.45"/><polygon class="cls-1" points="67.93 5.15 70.26 5.15 70.26 2.83 67.93 2.83 67.93 5.15 65.61 5.15 65.61 7.47 67.93 7.47 67.93 5.15"/><rect class="cls-1" x="0.5" y="7.48" width="2.33" height="6.98"/><rect class="cls-1" x="19.1" y="7.48" width="2.32" height="6.98"/><rect class="cls-1" x="14.45" y="2.83" width="2.32" height="2.33"/><polygon class="cls-1" points="12.13 7.47 9.8 7.47 9.8 9.8 7.47 9.8 7.47 12.13 9.8 12.13 9.8 14.45 12.13 14.45 12.13 12.13 9.8 12.13 9.8 9.8 12.13 9.8 12.13 12.13 14.45 12.13 14.45 9.8 12.13 9.8 12.13 7.47"/><rect class="cls-1" x="16.78" y="5.15" width="2.33" height="2.33"/><polygon class="cls-1" points="16.78 16.78 14.45 16.78 14.45 19.1 16.78 19.1 16.78 16.78 19.1 16.78 19.1 14.45 16.78 14.45 16.78 16.78"/><polygon class="cls-1" points="5.15 14.45 2.83 14.45 2.83 16.78 5.15 16.78 5.15 19.1 7.47 19.1 7.47 16.78 5.15 16.78 5.15 14.45"/><polygon class="cls-1" points="5.15 5.15 7.47 5.15 7.47 2.83 5.15 2.83 5.15 5.15 2.83 5.15 2.83 7.47 5.15 7.47 5.15 5.15"/><rect class="cls-2" x="0.5" y="0.5" width="20.93" height="20.93"/><rect class="cls-2" x="21.43" y="0.5" width="20.93" height="20.93"/><rect class="cls-2" x="42.36" y="0.5" width="20.93" height="20.93"/><rect class="cls-2" x="63.28" y="0.5" width="20.93" height="20.93"/><rect class="cls-2" x="84.21" y="0.5" width="20.93" height="20.93"/><rect class="cls-2" x="0.5" y="21.43" width="20.93" height="20.93"/><rect class="cls-2" x="21.43" y="21.43" width="20.93" height="20.93"/><rect class="cls-2" x="42.36" y="21.43" width="20.93" height="20.93"/><rect class="cls-2" x="63.28" y="21.43" width="20.93" height="20.93"/><rect class="cls-2" x="84.21" y="21.43" width="20.93" height="20.93"/></g></g></svg>