<svg xmlns="http://www.w3.org/2000/svg" viewBox="0 0 105.64 42.86"><defs><style>.cls-1{fill:#010101;}.cls-2{fill:none;stroke:#010101;stroke-miterlimit:10;}</style></defs><g id="Layer_2" data-name="Layer 2"><g id="Layer_1-2" data-name="Layer 1"><polygon class="cls-1" points="23.75 2.83 26.08 2.83 26.08 0.5 21.43 0.5 21.43 5.15 23.75 5.15 23.75 2.83"/><polygon class="cls-1" points="23.75 16.78 21.43 16.78 21.43 21.43 26.08 21.43 26.08 19.1 23.75 19.1 23.75 16.78"/><polygon class="cls-1" points="40.03 19.1 37.7 19.1 37.7 21.43 42.36 21.43 42.36 16.78 40.03 16.78 40.03 19.1"/><polygon class="cls-1" points="37.7 0.5 37.7 2.83 40.03 2.83 40.03 5.15 42.36 5.15 42.36 0.5 37.7 0.5"/><rect class="cls-1" x="28.4" y="7.47" width="2.33" height="2.33"/><rect class="cls-1" x="33.06" y="7.47" width="2.33" height="2.33"/><rect class="cls-1" x="33.06" y="12.13" width="2.33" height="2.33"/><rect class="cls-1" x="28.4" y="12.13" width="2.33" height="2.33"/><polygon class="cls-1" points="12.13 40.03 9.8 40.03 9.8 37.7 7.47 37.7 7.47 42.35 14.45 42.35 14.45 37.7 12.13 37.7 12.13 40.03"/><polygon class="cls-1" points="7.47 26.08 9.8 26.08 9.8 23.75 12.13 23.75 12.13 26.08 14.45 26.08 14.45 21.43 7.47 21.43 7.47 26.08"/><polygon class="cls-1" points="16.78 28.4 16.78 30.73 19.1 30.73 19.1 33.05 16.78 33.05 16.78 35.38 21.43 35.38 21.43 28.4 16.78 28.4"/><rect class="cls-1" x="9.8" y="30.73" width="2.32" height="2.33"/><polygon class="cls-1" points="0.5 35.38 5.15 35.38 5.15 33.05 2.83 33.05 2.83 30.73 5.15 30.73 5.15 28.4 0.5 28.4 0.5 35.38"/><rect class="cls-1" x="84.21" y="7.48" width="2.33" height="6.98"/><rect class="cls-1" x="102.81" y="7.48" width="2.32" height="6.98"/><rect class="cls-1" x="98.16" y="2.83" width="2.32" height="2.33"/><polygon class="cls-1" points="95.84 7.47 93.51 7.47 93.51 9.8 91.19 9.8 91.19 12.13 93.51 12.13 93.51 14.45 95.84 14.45 95.84 12.13 93.51 12.13 93.51 9.8 95.84 9.8 95.84 12.13 98.16 12.13 98.16 9.8 95.84 9.8 95.84 7.47"/><rect class="cls-1" x="100.49" y="5.15" width="2.33" height="2.33"/><polygon class="cls-1" points="100.49 16.78 98.16 16.78 98.16 19.1 100.49 19.1 100.49 16.78 102.81 16.78 102.81 14.45 100.49 14.45 100.49 16.78"/><polygon class="cls-1" points="88.86 14.45 86.54 14.45 86.54 16.78 88.86 16.78 88.86 19.1 91.19 19.1 91.19 16.78 88.86 16.78 88.86 14.45"/><polygon class="cls-1" points="88.86 5.15 91.19 5.15 91.19 2.83 88.86 2.83 88.86 5.15 86.54 5.15 86.54 7.47 88.86 7.47 88.86 5.15"/><rect class="cls-2" x="0.5" y="0.5" width="20.93" height="20.93"/><rect class="cls-2" x="21.43" y="0.5" width="20.93" height="20.93"/><rect class="cls-2" x="42.36" y="0.5" width="20.93" height="20.93"/><rect class="cls-2" x="63.28" y="0.5" width="20.93" height="20.93"/><rect class="cls-2" x="84.21" y="0.5" width="20.93" height="20.93"/><rect class="cls-2" x="0.5" y="21.43" width="20.93" height="20.93"/><rect class="cls-2" x="21.43" y="21.43" width="20.93" height="20.93"/><rect class="cls-2" x="42.36" y="21.43" width="20.93" height="20.93"/><rect class="cls-2" x="63.28" y="21.43" width="20.93" height="20.93"/><rect class="cls-2" x="84.21" y="21.43" width="20.93" height="20.93"/></g></g></svg>